<svg width="380" height="100" viewBox="0 0 380 100" fill="none" xmlns="http://www.w3.org/2000/svg">
<g id="Frame 1">
<g id="A">
<rect id="Rectangle 1" width="100" height="100" fill="#C4C4C4"/>
<path id="A_2" d="M51.7012 51.7734H48.127L47.3242 54H46.1641L49.4219 45.4688H50.4062L53.6699 54H52.5156L51.7012 51.7734ZM48.4668 50.8477H51.3672L49.9141 46.8574L48.4668 50.8477Z" fill="black"/>
</g>
<g id="B">
<rect id="Rectangle 1_2" x="140" width="100" height="100" fill="#C4C4C4"/>
<path id="B_2" d="M186.99 54V45.4688H189.779C190.705 45.4688 191.4 45.6602 191.865 46.043C192.334 46.4258 192.568 46.9922 192.568 47.7422C192.568 48.1406 192.455 48.4941 192.229 48.8027C192.002 49.1074 191.693 49.3438 191.303 49.5117C191.764 49.6406 192.127 49.8867 192.393 50.25C192.662 50.6094 192.797 51.0391 192.797 51.5391C192.797 52.3047 192.549 52.9062 192.053 53.3438C191.557 53.7812 190.855 54 189.949 54H186.99ZM188.115 50.0098V53.0801H189.973C190.496 53.0801 190.908 52.9453 191.209 52.6758C191.514 52.4023 191.666 52.0273 191.666 51.5508C191.666 50.5234 191.107 50.0098 189.99 50.0098H188.115ZM188.115 49.1074H189.814C190.307 49.1074 190.699 48.9844 190.992 48.7383C191.289 48.4922 191.438 48.1582 191.438 47.7363C191.438 47.2676 191.301 46.9277 191.027 46.7168C190.754 46.502 190.338 46.3945 189.779 46.3945H188.115V49.1074Z" fill="black"/>
</g>
<g id="C">
<rect id="Rectangle 1_3" x="280" width="100" height="100" fill="#C4C4C4"/>
<path id="C_2" d="M333.266 51.293C333.16 52.1953 332.826 52.8926 332.264 53.3848C331.705 53.873 330.961 54.1172 330.031 54.1172C329.023 54.1172 328.215 53.7559 327.605 53.0332C327 52.3105 326.697 51.3438 326.697 50.1328V49.3125C326.697 48.5195 326.838 47.8223 327.119 47.2207C327.404 46.6191 327.807 46.1582 328.326 45.8379C328.846 45.5137 329.447 45.3516 330.131 45.3516C331.037 45.3516 331.764 45.6055 332.311 46.1133C332.857 46.6172 333.176 47.3164 333.266 48.2109H332.135C332.037 47.5312 331.824 47.0391 331.496 46.7344C331.172 46.4297 330.717 46.2773 330.131 46.2773C329.412 46.2773 328.848 46.543 328.438 47.0742C328.031 47.6055 327.828 48.3613 327.828 49.3418V50.168C327.828 51.0938 328.021 51.8301 328.408 52.377C328.795 52.9238 329.336 53.1973 330.031 53.1973C330.656 53.1973 331.135 53.0566 331.467 52.7754C331.803 52.4902 332.025 51.9961 332.135 51.293H333.266Z" fill="black"/>
</g>
</g>
</svg>
