<svg width="1640" height="2360" viewBox="0 0 1640 2360" fill="none" xmlns="http://www.w3.org/2000/svg">
<g id="iPad Air 5">
<rect width="1640" height="2360" fill="white"/>
<g id="hand">
<g id="key">
<g clip-path="url(#clip1_385_10653)">
<rect id="Test ID" y="1682.3" width="100" height="94" rx="10" fill="#D4D4D4"/>
<g id="text left">
<path id="label" d="M55.9316 1744.69L64.3867 1752.11L62.2539 1754.09L53.8496 1746.75L55.9316 1744.69ZM64.8437 1727.15V1731.11C64.8437 1733.7 64.5052 1736.04 63.8281 1738.14C63.151 1740.23 62.1862 1742.01 60.9336 1743.5C59.681 1744.99 58.166 1746.13 56.3887 1746.93C54.6283 1747.72 52.6562 1748.12 50.4727 1748.12C48.3229 1748.12 46.3594 1747.72 44.582 1746.93C42.8216 1746.13 41.2982 1744.99 40.0117 1743.5C38.7422 1742.01 37.7604 1740.23 37.0664 1738.14C36.3893 1736.04 36.0508 1733.7 36.0508 1731.11V1727.15C36.0508 1724.56 36.3893 1722.22 37.0664 1720.14C37.7604 1718.04 38.7422 1716.25 40.0117 1714.76C41.2812 1713.27 42.7962 1712.13 44.5566 1711.33C46.3171 1710.54 48.2721 1710.14 50.4219 1710.14C52.6055 1710.14 54.5775 1710.54 56.3379 1711.33C58.1152 1712.13 59.6387 1713.27 60.9082 1714.76C62.1777 1716.25 63.151 1718.04 63.8281 1720.14C64.5052 1722.22 64.8437 1724.56 64.8437 1727.15ZM61.7461 1731.11V1727.1C61.7461 1724.92 61.4922 1722.95 60.9844 1721.21C60.4766 1719.46 59.7318 1717.98 58.75 1716.74C57.7852 1715.5 56.6003 1714.56 55.1953 1713.9C53.8073 1713.24 52.2161 1712.91 50.4219 1712.91C48.6784 1712.91 47.1126 1713.24 45.7246 1713.9C44.3366 1714.56 43.1517 1715.5 42.1699 1716.74C41.1882 1717.98 40.4349 1719.46 39.9102 1721.21C39.4023 1722.95 39.1484 1724.92 39.1484 1727.1V1731.11C39.1484 1733.31 39.4108 1735.29 39.9355 1737.05C40.4603 1738.8 41.2135 1740.29 42.1953 1741.55C43.1771 1742.78 44.362 1743.73 45.75 1744.39C47.1549 1745.05 48.7292 1745.38 50.4727 1745.38C52.2669 1745.38 53.8581 1745.05 55.2461 1744.39C56.651 1743.73 57.8359 1742.78 58.8008 1741.55C59.7656 1740.29 60.4935 1738.8 60.9844 1737.05C61.4922 1735.29 61.7461 1733.31 61.7461 1731.11Z" fill="black"/>
</g>
</g>
</g>
<g id="key/1.25u">
<rect id="Rectangle" y="1577.3" width="129" height="94" rx="10" fill="#D4D4D4"/>
<g id="text left_2">
<path id="label_2" d="M70.9316 1639.69L79.3867 1647.11L77.2539 1649.09L68.8496 1641.75L70.9316 1639.69ZM79.8437 1622.15V1626.11C79.8437 1628.7 79.5052 1631.04 78.8281 1633.14C78.151 1635.23 77.1862 1637.01 75.9336 1638.5C74.681 1639.99 73.166 1641.13 71.3887 1641.93C69.6283 1642.72 67.6562 1643.12 65.4727 1643.12C63.3229 1643.12 61.3594 1642.72 59.582 1641.93C57.8216 1641.13 56.2982 1639.99 55.0117 1638.5C53.7422 1637.01 52.7604 1635.23 52.0664 1633.14C51.3893 1631.04 51.0508 1628.7 51.0508 1626.11V1622.15C51.0508 1619.56 51.3893 1617.22 52.0664 1615.14C52.7604 1613.04 53.7422 1611.25 55.0117 1609.76C56.2812 1608.27 57.7962 1607.13 59.5566 1606.33C61.3171 1605.54 63.2721 1605.14 65.4219 1605.14C67.6055 1605.14 69.5775 1605.54 71.3379 1606.33C73.1152 1607.13 74.6387 1608.27 75.9082 1609.76C77.1777 1611.25 78.151 1613.04 78.8281 1615.14C79.5052 1617.22 79.8437 1619.56 79.8437 1622.15ZM76.7461 1626.11V1622.1C76.7461 1619.92 76.4922 1617.95 75.9844 1616.21C75.4766 1614.46 74.7318 1612.98 73.75 1611.74C72.7852 1610.5 71.6003 1609.56 70.1953 1608.9C68.8073 1608.24 67.2161 1607.91 65.4219 1607.91C63.6784 1607.91 62.1126 1608.24 60.7246 1608.9C59.3366 1609.56 58.1517 1610.5 57.1699 1611.74C56.1882 1612.98 55.4349 1614.46 54.9102 1616.21C54.4023 1617.95 54.1484 1619.92 54.1484 1622.1V1626.11C54.1484 1628.31 54.4108 1630.29 54.9355 1632.05C55.4603 1633.8 56.2135 1635.29 57.1953 1636.55C58.1771 1637.78 59.362 1638.73 60.75 1639.39C62.1549 1640.05 63.7292 1640.38 65.4727 1640.38C67.2669 1640.38 68.8581 1640.05 70.2461 1639.39C71.651 1638.73 72.8359 1637.78 73.8008 1636.55C74.7656 1635.29 75.4935 1633.8 75.9844 1632.05C76.4922 1630.29 76.7461 1628.31 76.7461 1626.11Z" fill="black"/>
</g>
</g>
<g id="key/1.25u_2">
<rect id="Rectangle_2" x="140" y="1577.3" width="129" height="94" rx="10" fill="#D4D4D4"/>
<g id="text left_3">
<path id="label_3" d="M210.932 1639.69L219.387 1647.11L217.254 1649.09L208.85 1641.75L210.932 1639.69ZM219.844 1622.15V1626.11C219.844 1628.7 219.505 1631.04 218.828 1633.14C218.151 1635.23 217.186 1637.01 215.934 1638.5C214.681 1639.99 213.166 1641.13 211.389 1641.93C209.628 1642.72 207.656 1643.12 205.473 1643.12C203.323 1643.12 201.359 1642.72 199.582 1641.93C197.822 1641.13 196.298 1639.99 195.012 1638.5C193.742 1637.01 192.76 1635.23 192.066 1633.14C191.389 1631.04 191.051 1628.7 191.051 1626.11V1622.15C191.051 1619.56 191.389 1617.22 192.066 1615.14C192.76 1613.04 193.742 1611.25 195.012 1609.76C196.281 1608.27 197.796 1607.13 199.557 1606.33C201.317 1605.54 203.272 1605.14 205.422 1605.14C207.605 1605.14 209.577 1605.54 211.338 1606.33C213.115 1607.13 214.639 1608.27 215.908 1609.76C217.178 1611.25 218.151 1613.04 218.828 1615.14C219.505 1617.22 219.844 1619.56 219.844 1622.15ZM216.746 1626.11V1622.1C216.746 1619.92 216.492 1617.95 215.984 1616.21C215.477 1614.46 214.732 1612.98 213.75 1611.74C212.785 1610.5 211.6 1609.56 210.195 1608.9C208.807 1608.24 207.216 1607.91 205.422 1607.91C203.678 1607.91 202.113 1608.24 200.725 1608.9C199.337 1609.56 198.152 1610.5 197.17 1611.74C196.188 1612.98 195.435 1614.46 194.91 1616.21C194.402 1617.95 194.148 1619.92 194.148 1622.1V1626.11C194.148 1628.31 194.411 1630.29 194.936 1632.05C195.46 1633.8 196.214 1635.29 197.195 1636.55C198.177 1637.78 199.362 1638.73 200.75 1639.39C202.155 1640.05 203.729 1640.38 205.473 1640.38C207.267 1640.38 208.858 1640.05 210.246 1639.39C211.651 1638.73 212.836 1637.78 213.801 1636.55C214.766 1635.29 215.493 1633.8 215.984 1632.05C216.492 1630.29 216.746 1628.31 216.746 1626.11Z" fill="black"/>
</g>
</g>
<g id="key/1.25u_3">
<rect id="Rectangle_3" x="280" y="1577.3" width="129" height="94" rx="10" fill="#D4D4D4"/>
<g id="text left_4">
<path id="label_4" d="M350.932 1639.69L359.387 1647.11L357.254 1649.09L348.85 1641.75L350.932 1639.69ZM359.844 1622.15V1626.11C359.844 1628.7 359.505 1631.04 358.828 1633.14C358.151 1635.23 357.186 1637.01 355.934 1638.5C354.681 1639.99 353.166 1641.13 351.389 1641.93C349.628 1642.72 347.656 1643.12 345.473 1643.12C343.323 1643.12 341.359 1642.72 339.582 1641.93C337.822 1641.13 336.298 1639.99 335.012 1638.5C333.742 1637.01 332.76 1635.23 332.066 1633.14C331.389 1631.04 331.051 1628.7 331.051 1626.11V1622.15C331.051 1619.56 331.389 1617.22 332.066 1615.14C332.76 1613.04 333.742 1611.25 335.012 1609.76C336.281 1608.27 337.796 1607.13 339.557 1606.33C341.317 1605.54 343.272 1605.14 345.422 1605.14C347.605 1605.14 349.577 1605.54 351.338 1606.33C353.115 1607.13 354.639 1608.27 355.908 1609.76C357.178 1611.25 358.151 1613.04 358.828 1615.14C359.505 1617.22 359.844 1619.56 359.844 1622.15ZM356.746 1626.11V1622.1C356.746 1619.92 356.492 1617.95 355.984 1616.21C355.477 1614.46 354.732 1612.98 353.75 1611.74C352.785 1610.5 351.6 1609.56 350.195 1608.9C348.807 1608.24 347.216 1607.91 345.422 1607.91C343.678 1607.91 342.113 1608.24 340.725 1608.9C339.337 1609.56 338.152 1610.5 337.17 1611.74C336.188 1612.98 335.435 1614.46 334.91 1616.21C334.402 1617.95 334.148 1619.92 334.148 1622.1V1626.11C334.148 1628.31 334.411 1630.29 334.936 1632.05C335.46 1633.8 336.214 1635.29 337.195 1636.55C338.177 1637.78 339.362 1638.73 340.75 1639.39C342.155 1640.05 343.729 1640.38 345.473 1640.38C347.267 1640.38 348.858 1640.05 350.246 1639.39C351.651 1638.73 352.836 1637.78 353.801 1636.55C354.766 1635.29 355.493 1633.8 355.984 1632.05C356.492 1630.29 356.746 1628.31 356.746 1626.11Z" fill="black"/>
</g>
</g>
<g id="key/1.25u_4">
<rect id="Rectangle_4" x="420" y="1577.3" width="129" height="94" rx="10" fill="#D4D4D4"/>
<g id="text left_5">
<path id="label_5" d="M490.932 1639.69L499.387 1647.11L497.254 1649.09L488.85 1641.75L490.932 1639.69ZM499.844 1622.15V1626.11C499.844 1628.7 499.505 1631.04 498.828 1633.14C498.151 1635.23 497.186 1637.01 495.934 1638.5C494.681 1639.99 493.166 1641.13 491.389 1641.93C489.628 1642.72 487.656 1643.12 485.473 1643.12C483.323 1643.12 481.359 1642.72 479.582 1641.93C477.822 1641.13 476.298 1639.99 475.012 1638.5C473.742 1637.01 472.76 1635.23 472.066 1633.14C471.389 1631.04 471.051 1628.7 471.051 1626.11V1622.15C471.051 1619.56 471.389 1617.22 472.066 1615.14C472.76 1613.04 473.742 1611.25 475.012 1609.76C476.281 1608.27 477.796 1607.13 479.557 1606.33C481.317 1605.54 483.272 1605.14 485.422 1605.14C487.605 1605.14 489.577 1605.54 491.338 1606.33C493.115 1607.13 494.639 1608.27 495.908 1609.76C497.178 1611.25 498.151 1613.04 498.828 1615.14C499.505 1617.22 499.844 1619.56 499.844 1622.15ZM496.746 1626.11V1622.1C496.746 1619.92 496.492 1617.95 495.984 1616.21C495.477 1614.46 494.732 1612.98 493.75 1611.74C492.785 1610.5 491.6 1609.56 490.195 1608.9C488.807 1608.24 487.216 1607.91 485.422 1607.91C483.678 1607.91 482.113 1608.24 480.725 1608.9C479.337 1609.56 478.152 1610.5 477.17 1611.74C476.188 1612.98 475.435 1614.46 474.91 1616.21C474.402 1617.95 474.148 1619.92 474.148 1622.1V1626.11C474.148 1628.31 474.411 1630.29 474.936 1632.05C475.46 1633.8 476.214 1635.29 477.195 1636.55C478.177 1637.78 479.362 1638.73 480.75 1639.39C482.155 1640.05 483.729 1640.38 485.473 1640.38C487.267 1640.38 488.858 1640.05 490.246 1639.39C491.651 1638.73 492.836 1637.78 493.801 1636.55C494.766 1635.29 495.493 1633.8 495.984 1632.05C496.492 1630.29 496.746 1628.31 496.746 1626.11Z" fill="black"/>
</g>
</g>
<g id="Q">
<g clip-path="url(#clip2_385_10653)">
<rect id="Q_2" x="111" y="1682.3" width="100" height="94" rx="10" fill="#D4D4D4"/>
<g id="text left_6">
<path id="#002" d="M166.932 1744.69L175.387 1752.11L173.254 1754.09L164.85 1746.75L166.932 1744.69ZM175.844 1727.15V1731.11C175.844 1733.7 175.505 1736.04 174.828 1738.14C174.151 1740.23 173.186 1742.01 171.934 1743.5C170.681 1744.99 169.166 1746.13 167.389 1746.93C165.628 1747.72 163.656 1748.12 161.473 1748.12C159.323 1748.12 157.359 1747.72 155.582 1746.93C153.822 1746.13 152.298 1744.99 151.012 1743.5C149.742 1742.01 148.76 1740.23 148.066 1738.14C147.389 1736.04 147.051 1733.7 147.051 1731.11V1727.15C147.051 1724.56 147.389 1722.22 148.066 1720.14C148.76 1718.04 149.742 1716.25 151.012 1714.76C152.281 1713.27 153.796 1712.13 155.557 1711.33C157.317 1710.54 159.272 1710.14 161.422 1710.14C163.605 1710.14 165.577 1710.54 167.338 1711.33C169.115 1712.13 170.639 1713.27 171.908 1714.76C173.178 1716.25 174.151 1718.04 174.828 1720.14C175.505 1722.22 175.844 1724.56 175.844 1727.15ZM172.746 1731.11V1727.1C172.746 1724.92 172.492 1722.95 171.984 1721.21C171.477 1719.46 170.732 1717.98 169.75 1716.74C168.785 1715.5 167.6 1714.56 166.195 1713.9C164.807 1713.24 163.216 1712.91 161.422 1712.91C159.678 1712.91 158.113 1713.24 156.725 1713.9C155.337 1714.56 154.152 1715.5 153.17 1716.74C152.188 1717.98 151.435 1719.46 150.91 1721.21C150.402 1722.95 150.148 1724.92 150.148 1727.1V1731.11C150.148 1733.31 150.411 1735.29 150.936 1737.05C151.46 1738.8 152.214 1740.29 153.195 1741.55C154.177 1742.78 155.362 1743.73 156.75 1744.39C158.155 1745.05 159.729 1745.38 161.473 1745.38C163.267 1745.38 164.858 1745.05 166.246 1744.39C167.651 1743.73 168.836 1742.78 169.801 1741.55C170.766 1740.29 171.493 1738.8 171.984 1737.05C172.492 1735.29 172.746 1733.31 172.746 1731.11Z" fill="black"/>
</g>
</g>
</g>
<g id="key_2">
<g clip-path="url(#clip3_385_10653)">
<rect id="Rectangle_5" y="1787.3" width="100" height="94" rx="10" fill="#D4D4D4"/>
<g id="text left_7">
<path id="label_6" d="M55.9316 1849.69L64.3867 1857.11L62.2539 1859.09L53.8496 1851.75L55.9316 1849.69ZM64.8437 1832.15V1836.11C64.8437 1838.7 64.5052 1841.04 63.8281 1843.14C63.151 1845.23 62.1862 1847.01 60.9336 1848.5C59.681 1849.99 58.166 1851.13 56.3887 1851.93C54.6283 1852.72 52.6562 1853.12 50.4727 1853.12C48.3229 1853.12 46.3594 1852.72 44.582 1851.93C42.8216 1851.13 41.2982 1849.99 40.0117 1848.5C38.7422 1847.01 37.7604 1845.23 37.0664 1843.14C36.3893 1841.04 36.0508 1838.7 36.0508 1836.11V1832.15C36.0508 1829.56 36.3893 1827.22 37.0664 1825.14C37.7604 1823.04 38.7422 1821.25 40.0117 1819.76C41.2812 1818.27 42.7962 1817.13 44.5566 1816.33C46.3171 1815.54 48.2721 1815.14 50.4219 1815.14C52.6055 1815.14 54.5775 1815.54 56.3379 1816.33C58.1152 1817.13 59.6387 1818.27 60.9082 1819.76C62.1777 1821.25 63.151 1823.04 63.8281 1825.14C64.5052 1827.22 64.8437 1829.56 64.8437 1832.15ZM61.7461 1836.11V1832.1C61.7461 1829.92 61.4922 1827.95 60.9844 1826.21C60.4766 1824.46 59.7318 1822.97 58.75 1821.74C57.7852 1820.5 56.6003 1819.56 55.1953 1818.9C53.8073 1818.24 52.2161 1817.91 50.4219 1817.91C48.6784 1817.91 47.1126 1818.24 45.7246 1818.9C44.3366 1819.56 43.1517 1820.5 42.1699 1821.74C41.1882 1822.97 40.4349 1824.46 39.9102 1826.21C39.4023 1827.95 39.1484 1829.92 39.1484 1832.1V1836.11C39.1484 1838.31 39.4108 1840.29 39.9355 1842.05C40.4603 1843.8 41.2135 1845.29 42.1953 1846.55C43.1771 1847.78 44.362 1848.73 45.75 1849.39C47.1549 1850.05 48.7292 1850.38 50.4727 1850.38C52.2669 1850.38 53.8581 1850.05 55.2461 1849.39C56.651 1848.73 57.8359 1847.78 58.8008 1846.55C59.7656 1845.29 60.4935 1843.8 60.9844 1842.05C61.4922 1840.29 61.7461 1838.31 61.7461 1836.11Z" fill="black"/>
</g>
</g>
</g>
<g id="key_3">
<g clip-path="url(#clip4_385_10653)">
<rect id="Rectangle_6" y="1892.3" width="100" height="94" rx="10" fill="#D4D4D4"/>
<g id="text left_8">
<path id="label_7" d="M55.9316 1954.69L64.3867 1962.11L62.2539 1964.09L53.8496 1956.75L55.9316 1954.69ZM64.8437 1937.15V1941.11C64.8437 1943.7 64.5052 1946.04 63.8281 1948.14C63.151 1950.23 62.1862 1952.01 60.9336 1953.5C59.681 1954.99 58.166 1956.13 56.3887 1956.93C54.6283 1957.72 52.6562 1958.12 50.4727 1958.12C48.3229 1958.12 46.3594 1957.72 44.582 1956.93C42.8216 1956.13 41.2982 1954.99 40.0117 1953.5C38.7422 1952.01 37.7604 1950.23 37.0664 1948.14C36.3893 1946.04 36.0508 1943.7 36.0508 1941.11V1937.15C36.0508 1934.56 36.3893 1932.22 37.0664 1930.14C37.7604 1928.04 38.7422 1926.25 40.0117 1924.76C41.2812 1923.27 42.7962 1922.13 44.5566 1921.33C46.3171 1920.54 48.2721 1920.14 50.4219 1920.14C52.6055 1920.14 54.5775 1920.54 56.3379 1921.33C58.1152 1922.13 59.6387 1923.27 60.9082 1924.76C62.1777 1926.25 63.151 1928.04 63.8281 1930.14C64.5052 1932.22 64.8437 1934.56 64.8437 1937.15ZM61.7461 1941.11V1937.1C61.7461 1934.92 61.4922 1932.95 60.9844 1931.21C60.4766 1929.46 59.7318 1927.97 58.75 1926.74C57.7852 1925.5 56.6003 1924.56 55.1953 1923.9C53.8073 1923.24 52.2161 1922.91 50.4219 1922.91C48.6784 1922.91 47.1126 1923.24 45.7246 1923.9C44.3366 1924.56 43.1517 1925.5 42.1699 1926.74C41.1882 1927.97 40.4349 1929.46 39.9102 1931.21C39.4023 1932.95 39.1484 1934.92 39.1484 1937.1V1941.11C39.1484 1943.31 39.4108 1945.29 39.9355 1947.05C40.4603 1948.8 41.2135 1950.29 42.1953 1951.55C43.1771 1952.78 44.362 1953.73 45.75 1954.39C47.1549 1955.05 48.7292 1955.38 50.4727 1955.38C52.2669 1955.38 53.8581 1955.05 55.2461 1954.39C56.651 1953.73 57.8359 1952.78 58.8008 1951.55C59.7656 1950.29 60.4935 1948.8 60.9844 1947.05C61.4922 1945.29 61.7461 1943.31 61.7461 1941.11Z" fill="black"/>
</g>
</g>
</g>
<g id="key_4">
<g clip-path="url(#clip5_385_10653)">
<rect id="SPACE" y="1997.3" width="666" height="94" rx="10" fill="#D4D4D4"/>
<g id="text left_9">
<path id="label_8" d="M282.201 2059.52C282.201 2058.51 282.032 2057.6 281.693 2056.81C281.355 2056.01 280.796 2055.3 280.018 2054.67C279.256 2054.03 278.223 2053.44 276.92 2052.9C275.633 2052.34 274.025 2051.79 272.096 2051.25C270.251 2050.72 268.583 2050.15 267.094 2049.52C265.604 2048.89 264.326 2048.17 263.26 2047.36C262.21 2046.55 261.406 2045.6 260.848 2044.52C260.289 2043.42 260.01 2042.14 260.01 2040.68C260.01 2039.26 260.314 2037.97 260.924 2036.8C261.533 2035.63 262.388 2034.62 263.488 2033.78C264.605 2032.93 265.917 2032.28 267.424 2031.82C268.947 2031.37 270.615 2031.14 272.426 2031.14C275.016 2031.14 277.25 2031.63 279.129 2032.61C281.025 2033.59 282.489 2034.92 283.521 2036.6C284.571 2038.26 285.096 2040.12 285.096 2042.18H281.973C281.973 2040.57 281.592 2039.14 280.83 2037.89C280.085 2036.62 279.002 2035.63 277.58 2034.92C276.175 2034.19 274.457 2033.83 272.426 2033.83C270.395 2033.83 268.685 2034.14 267.297 2034.77C265.926 2035.38 264.885 2036.2 264.174 2037.23C263.48 2038.25 263.133 2039.38 263.133 2040.63C263.133 2041.51 263.302 2042.33 263.641 2043.07C263.979 2043.8 264.529 2044.48 265.291 2045.13C266.07 2045.75 267.094 2046.35 268.363 2046.91C269.633 2047.45 271.199 2047.96 273.061 2048.45C275.024 2049 276.768 2049.6 278.291 2050.26C279.814 2050.92 281.101 2051.68 282.15 2052.54C283.2 2053.39 283.995 2054.38 284.537 2055.51C285.079 2056.65 285.35 2057.97 285.35 2059.47C285.35 2060.98 285.028 2062.33 284.385 2063.54C283.758 2064.72 282.87 2065.73 281.719 2066.56C280.585 2067.39 279.239 2068.02 277.682 2068.46C276.141 2068.9 274.457 2069.12 272.629 2069.12C270.987 2069.12 269.354 2068.91 267.729 2068.49C266.104 2068.06 264.614 2067.41 263.26 2066.53C261.923 2065.64 260.848 2064.48 260.035 2063.08C259.24 2061.67 258.842 2060 258.842 2058.05H261.939C261.939 2059.61 262.253 2060.92 262.879 2061.99C263.505 2063.05 264.335 2063.92 265.367 2064.58C266.417 2065.24 267.568 2065.72 268.82 2066.02C270.09 2066.31 271.359 2066.46 272.629 2066.46C274.576 2066.46 276.26 2066.17 277.682 2065.59C279.12 2065.02 280.229 2064.21 281.008 2063.18C281.803 2062.13 282.201 2060.91 282.201 2059.52ZM304.672 2053.56H294.135V2050.89H304.672C306.872 2050.89 308.658 2050.54 310.029 2049.83C311.417 2049.1 312.424 2048.12 313.051 2046.88C313.694 2045.64 314.016 2044.26 314.016 2042.72C314.016 2041.21 313.694 2039.82 313.051 2038.55C312.424 2037.28 311.417 2036.27 310.029 2035.5C308.658 2034.73 306.872 2034.34 304.672 2034.34H295.227V2068.61H292.104V2031.65H304.672C307.38 2031.65 309.657 2032.11 311.502 2033.04C313.364 2033.97 314.769 2035.27 315.717 2036.93C316.665 2038.59 317.139 2040.5 317.139 2042.67C317.139 2044.93 316.665 2046.89 315.717 2048.53C314.769 2050.16 313.372 2051.4 311.527 2052.26C309.682 2053.13 307.397 2053.56 304.672 2053.56ZM332.779 2033.85L319.982 2068.61H316.732L330.697 2031.65H332.957L332.779 2033.85ZM344.408 2068.61L331.586 2033.85L331.408 2031.65H333.668L347.658 2068.61H344.408ZM342.123 2055.56V2058.25H322.496V2055.56H342.123ZM375.867 2057.09H378.99C378.736 2059.58 378.051 2061.72 376.934 2063.54C375.816 2065.33 374.293 2066.71 372.363 2067.67C370.434 2068.64 368.106 2069.12 365.381 2069.12C363.282 2069.12 361.378 2068.72 359.668 2067.93C357.975 2067.13 356.52 2066.01 355.301 2064.55C354.082 2063.08 353.143 2061.32 352.482 2059.27C351.822 2057.22 351.492 2054.95 351.492 2052.44V2047.82C351.492 2045.31 351.822 2043.05 352.482 2041.01C353.143 2038.97 354.09 2037.21 355.326 2035.73C356.562 2034.26 358.043 2033.13 359.77 2032.33C361.496 2031.54 363.443 2031.14 365.609 2031.14C368.233 2031.14 370.501 2031.62 372.414 2032.58C374.327 2033.53 375.833 2034.9 376.934 2036.7C378.051 2038.49 378.736 2040.66 378.99 2043.2H375.867C375.63 2041.2 375.105 2039.51 374.293 2038.12C373.48 2036.73 372.355 2035.67 370.916 2034.95C369.494 2034.2 367.725 2033.83 365.609 2033.83C363.883 2033.83 362.342 2034.16 360.988 2034.82C359.634 2035.48 358.483 2036.43 357.535 2037.66C356.587 2038.88 355.859 2040.35 355.352 2042.06C354.861 2043.77 354.615 2045.67 354.615 2047.77V2052.44C354.615 2054.47 354.852 2056.34 355.326 2058.05C355.8 2059.76 356.494 2061.24 357.408 2062.5C358.339 2063.75 359.473 2064.72 360.811 2065.42C362.148 2066.11 363.671 2066.46 365.381 2066.46C367.564 2066.46 369.384 2066.11 370.84 2065.42C372.312 2064.7 373.455 2063.65 374.268 2062.27C375.08 2060.88 375.613 2059.15 375.867 2057.09ZM409.586 2065.95V2068.61H388.791V2065.95H409.586ZM389.73 2031.65V2068.61H386.607V2031.65H389.73ZM406.996 2048.23V2050.89H388.791V2048.23H406.996ZM409.459 2031.65V2034.34H388.791V2031.65H409.459Z" fill="black"/>
</g>
</g>
</g>
<g id="key_5">
<g clip-path="url(#clip6_385_10653)">
<rect id="A" x="111" y="1787.3" width="100" height="94" rx="10" fill="#D4D4D4"/>
<g id="text left_10">
<path id="#008" d="M162.633 1817.85L149.836 1852.61H146.586L160.551 1815.65H162.811L162.633 1817.85ZM174.262 1852.61L161.439 1817.85L161.262 1815.65H163.521L177.512 1852.61H174.262ZM171.977 1839.56V1842.25H152.35V1839.56H171.977Z" fill="black"/>
</g>
</g>
</g>
<g id="key_6">
<g clip-path="url(#clip7_385_10653)">
<rect id="Z" x="111" y="1892.3" width="100" height="94" rx="10" fill="#D4D4D4"/>
<g id="text left_11">
<path id="#014" d="M174.879 1954.95V1957.61H149.412V1954.95H174.879ZM174.066 1922.91L150.25 1957.61H148.295V1955.23L172.061 1920.65H174.066V1922.91ZM172.695 1920.65V1923.31H148.955V1920.65H172.695Z" fill="black"/>
</g>
</g>
</g>
<g id="W">
<g clip-path="url(#clip8_385_10653)">
<rect id="W_2" x="222" y="1682.3" width="100" height="94" rx="10" fill="#D4D4D4"/>
<g id="text left_12">
<path id="#003" d="M263.807 1737.84L271.83 1710.65H274.344L272.312 1718.72L263.756 1747.61H261.344L263.807 1737.84ZM254.488 1710.65L261.242 1737.59L263.273 1747.61H260.76L251.289 1710.65H254.488ZM285.16 1737.59L291.812 1710.65H295.012L285.566 1747.61H283.053L285.16 1737.59ZM274.623 1710.65L282.545 1737.84L284.982 1747.61H282.57L274.191 1718.72L272.135 1710.65H274.623Z" fill="black"/>
</g>
</g>
</g>
<g id="key_7">
<g clip-path="url(#clip9_385_10653)">
<rect id="S" x="222" y="1787.3" width="100" height="94" rx="10" fill="#D4D4D4"/>
<g id="text left_13">
<path id="#009" d="M283.256 1843.52C283.256 1842.51 283.087 1841.6 282.748 1840.81C282.41 1840.01 281.851 1839.3 281.072 1838.67C280.311 1838.03 279.278 1837.44 277.975 1836.9C276.688 1836.34 275.08 1835.79 273.15 1835.25C271.305 1834.72 269.638 1834.15 268.148 1833.52C266.659 1832.89 265.381 1832.17 264.314 1831.36C263.265 1830.55 262.461 1829.6 261.902 1828.52C261.344 1827.42 261.064 1826.14 261.064 1824.68C261.064 1823.26 261.369 1821.97 261.979 1820.8C262.588 1819.63 263.443 1818.62 264.543 1817.78C265.66 1816.93 266.972 1816.28 268.479 1815.82C270.002 1815.37 271.669 1815.14 273.48 1815.14C276.07 1815.14 278.305 1815.63 280.184 1816.61C282.079 1817.59 283.544 1818.92 284.576 1820.6C285.626 1822.26 286.15 1824.12 286.15 1826.18H283.027C283.027 1824.57 282.646 1823.14 281.885 1821.89C281.14 1820.62 280.057 1819.63 278.635 1818.92C277.23 1818.19 275.512 1817.83 273.48 1817.83C271.449 1817.83 269.74 1818.14 268.352 1818.77C266.98 1819.38 265.939 1820.2 265.229 1821.23C264.535 1822.25 264.187 1823.38 264.187 1824.63C264.187 1825.51 264.357 1826.33 264.695 1827.07C265.034 1827.8 265.584 1828.48 266.346 1829.13C267.124 1829.75 268.148 1830.35 269.418 1830.91C270.687 1831.45 272.253 1831.96 274.115 1832.45C276.079 1833 277.822 1833.6 279.346 1834.26C280.869 1834.92 282.156 1835.68 283.205 1836.54C284.255 1837.39 285.05 1838.38 285.592 1839.51C286.133 1840.65 286.404 1841.97 286.404 1843.47C286.404 1844.98 286.083 1846.33 285.439 1847.54C284.813 1848.72 283.924 1849.73 282.773 1850.56C281.639 1851.39 280.294 1852.02 278.736 1852.46C277.196 1852.9 275.512 1853.12 273.684 1853.12C272.042 1853.12 270.408 1852.91 268.783 1852.49C267.158 1852.06 265.669 1851.41 264.314 1850.53C262.977 1849.64 261.902 1848.48 261.09 1847.08C260.294 1845.67 259.896 1844 259.896 1842.05H262.994C262.994 1843.61 263.307 1844.92 263.934 1845.99C264.56 1847.05 265.389 1847.92 266.422 1848.58C267.471 1849.24 268.622 1849.72 269.875 1850.02C271.145 1850.31 272.414 1850.46 273.684 1850.46C275.63 1850.46 277.314 1850.17 278.736 1849.59C280.175 1849.02 281.284 1848.21 282.062 1847.18C282.858 1846.13 283.256 1844.91 283.256 1843.52Z" fill="black"/>
</g>
</g>
</g>
<g id="key_8">
<g clip-path="url(#clip10_385_10653)">
<rect id="X" x="222" y="1892.3" width="100" height="94" rx="10" fill="#D4D4D4"/>
<g id="text left_14">
<path id="#015" d="M262.139 1920.65L272.549 1936.26L282.984 1920.65H286.691L274.453 1938.85L287.072 1957.61H283.34L272.549 1941.49L261.758 1957.61H258.051L270.67 1938.85L258.432 1920.65H262.139Z" fill="black"/>
</g>
</g>
</g>
<g id="E">
<g clip-path="url(#clip11_385_10653)">
<rect id="E_2" x="333" y="1682.3" width="100" height="94" rx="10" fill="#D4D4D4"/>
<g id="text left_15">
<path id="#004" d="M396.422 1744.95V1747.61H375.627V1744.95H396.422ZM376.566 1710.65V1747.61H373.443V1710.65H376.566ZM393.832 1727.23V1729.89H375.627V1727.23H393.832ZM396.295 1710.65V1713.34H375.627V1710.65H396.295Z" fill="black"/>
</g>
</g>
</g>
<g id="key_9">
<g clip-path="url(#clip12_385_10653)">
<rect id="D" x="333" y="1787.3" width="100" height="94" rx="10" fill="#D4D4D4"/>
<g id="text left_16">
<path id="#010" d="M381.814 1852.61H373.436L373.486 1849.95H381.814C384.472 1849.95 386.757 1849.36 388.67 1848.17C390.6 1846.97 392.089 1845.31 393.139 1843.19C394.188 1841.08 394.713 1838.62 394.713 1835.83V1832.38C394.713 1830.25 394.408 1828.32 393.799 1826.59C393.206 1824.86 392.352 1823.39 391.234 1822.17C390.117 1820.94 388.78 1819.99 387.223 1819.33C385.682 1818.67 383.956 1818.34 382.043 1818.34H373.283V1815.65H382.043C384.345 1815.65 386.452 1816.04 388.365 1816.84C390.295 1817.62 391.962 1818.75 393.367 1820.24C394.789 1821.71 395.881 1823.48 396.643 1825.55C397.421 1827.61 397.811 1829.92 397.811 1832.45V1835.83C397.811 1838.37 397.421 1840.67 396.643 1842.74C395.881 1844.8 394.789 1846.57 393.367 1848.04C391.945 1849.52 390.261 1850.65 388.314 1851.45C386.368 1852.22 384.201 1852.61 381.814 1852.61ZM374.832 1815.65V1852.61H371.709V1815.65H374.832Z" fill="black"/>
</g>
</g>
</g>
<g id="key_10">
<g clip-path="url(#clip13_385_10653)">
<rect id="C" x="333" y="1892.3" width="100" height="94" rx="10" fill="#D4D4D4"/>
<g id="text left_17">
<path id="#016" d="M394.391 1946.09H397.514C397.26 1948.58 396.574 1950.72 395.457 1952.54C394.34 1954.33 392.816 1955.71 390.887 1956.67C388.957 1957.64 386.63 1958.12 383.904 1958.12C381.805 1958.12 379.901 1957.72 378.191 1956.93C376.499 1956.13 375.043 1955.01 373.824 1953.55C372.605 1952.08 371.666 1950.32 371.006 1948.27C370.346 1946.22 370.016 1943.95 370.016 1941.44V1936.82C370.016 1934.31 370.346 1932.05 371.006 1930.01C371.666 1927.97 372.614 1926.21 373.85 1924.73C375.085 1923.26 376.566 1922.13 378.293 1921.33C380.02 1920.54 381.966 1920.14 384.133 1920.14C386.757 1920.14 389.025 1920.62 390.937 1921.58C392.85 1922.53 394.357 1923.9 395.457 1925.7C396.574 1927.49 397.26 1929.66 397.514 1932.2H394.391C394.154 1930.2 393.629 1928.51 392.816 1927.12C392.004 1925.73 390.878 1924.67 389.439 1923.95C388.018 1923.2 386.249 1922.83 384.133 1922.83C382.406 1922.83 380.866 1923.16 379.512 1923.82C378.158 1924.48 377.007 1925.43 376.059 1926.66C375.111 1927.88 374.383 1929.35 373.875 1931.06C373.384 1932.77 373.139 1934.67 373.139 1936.77V1941.44C373.139 1943.47 373.376 1945.34 373.85 1947.05C374.324 1948.76 375.018 1950.24 375.932 1951.5C376.863 1952.75 377.997 1953.72 379.334 1954.42C380.671 1955.11 382.195 1955.46 383.904 1955.46C386.088 1955.46 387.908 1955.11 389.363 1954.42C390.836 1953.7 391.979 1952.65 392.791 1951.27C393.604 1949.88 394.137 1948.15 394.391 1946.09Z" fill="black"/>
</g>
</g>
</g>
<g id="key_11">
<g clip-path="url(#clip14_385_10653)">
<rect id="R" x="444" y="1682.3" width="100" height="94" rx="10" fill="#D4D4D4"/>
<g id="text left_18">
<path id="#005" d="M482.641 1710.65H494.65C497.206 1710.65 499.424 1711.06 501.303 1711.89C503.182 1712.72 504.629 1713.95 505.645 1715.57C506.677 1717.18 507.193 1719.16 507.193 1721.51C507.193 1723.26 506.821 1724.84 506.076 1726.26C505.348 1727.68 504.341 1728.88 503.055 1729.84C501.768 1730.79 500.279 1731.44 498.586 1731.8L497.494 1732.2H484.672L484.621 1729.54H495.361C497.291 1729.54 498.899 1729.16 500.186 1728.42C501.472 1727.67 502.437 1726.69 503.08 1725.47C503.74 1724.24 504.07 1722.92 504.07 1721.51C504.07 1719.84 503.706 1718.39 502.979 1717.17C502.268 1715.94 501.21 1714.99 499.805 1714.33C498.4 1713.67 496.682 1713.34 494.65 1713.34H485.764V1747.61H482.641V1710.65ZM505.467 1747.61L495.895 1731.09L499.246 1731.06L508.793 1747.28V1747.61H505.467Z" fill="black"/>
</g>
</g>
</g>
<g id="key_12">
<g clip-path="url(#clip15_385_10653)">
<rect id="F" x="444" y="1787.3" width="100" height="94" rx="10" fill="#D4D4D4"/>
<g id="text left_19">
<path id="#011" d="M487.744 1815.65V1852.61H484.621V1815.65H487.744ZM504.959 1832.66V1835.35H486.703V1832.66H504.959ZM507.523 1815.65V1818.34H486.703V1815.65H507.523Z" fill="black"/>
</g>
</g>
</g>
<g id="key_13">
<g clip-path="url(#clip16_385_10653)">
<rect id="V" x="444" y="1892.3" width="100" height="94" rx="10" fill="#D4D4D4"/>
<g id="text left_20">
<path id="#017" d="M495.252 1953.02L506.906 1920.65H510.309L496.547 1957.61H494.033L495.252 1953.02ZM483.217 1920.65L494.82 1953.02L496.09 1957.61H493.551L479.814 1920.65H483.217Z" fill="black"/>
</g>
</g>
</g>
<g id="key_14">
<g clip-path="url(#clip17_385_10653)">
<rect id="G" x="555" y="1787.3" width="100" height="94" rx="10" fill="#D4D4D4"/>
<g id="text left_21">
<path id="#006" d="M619.107 1835.04V1848.2C618.684 1848.82 617.956 1849.52 616.924 1850.28C615.891 1851.04 614.503 1851.71 612.76 1852.28C611.016 1852.84 608.85 1853.12 606.26 1853.12C604.093 1853.12 602.104 1852.73 600.293 1851.95C598.482 1851.18 596.908 1850.05 595.57 1848.58C594.25 1847.09 593.226 1845.3 592.498 1843.22C591.787 1841.14 591.432 1838.8 591.432 1836.21V1831.74C591.432 1829.2 591.762 1826.92 592.422 1824.89C593.082 1822.84 594.038 1821.09 595.291 1819.63C596.544 1818.18 598.05 1817.07 599.811 1816.31C601.588 1815.53 603.577 1815.14 605.777 1815.14C608.52 1815.14 610.83 1815.61 612.709 1816.56C614.588 1817.51 616.052 1818.81 617.102 1820.47C618.168 1822.11 618.828 1823.97 619.082 1826.06H615.959C615.722 1824.58 615.231 1823.23 614.486 1821.99C613.742 1820.74 612.658 1819.73 611.236 1818.97C609.831 1818.21 608.012 1817.83 605.777 1817.83C603.983 1817.83 602.383 1818.16 600.979 1818.82C599.59 1819.48 598.423 1820.42 597.475 1821.64C596.527 1822.86 595.807 1824.32 595.316 1826.03C594.826 1827.72 594.58 1829.61 594.58 1831.69V1836.21C594.58 1838.38 594.851 1840.33 595.393 1842.08C595.951 1843.82 596.747 1845.32 597.779 1846.57C598.812 1847.82 600.048 1848.79 601.486 1849.47C602.925 1850.13 604.525 1850.46 606.285 1850.46C608.164 1850.46 609.764 1850.28 611.084 1849.92C612.404 1849.57 613.462 1849.14 614.258 1848.65C615.07 1848.15 615.654 1847.67 616.01 1847.23V1837.71H606.082V1835.04H619.107Z" fill="black"/>
</g>
</g>
</g>
<g id="key_15">
<g clip-path="url(#clip18_385_10653)">
<rect id="B" x="555" y="1892.3" width="100" height="94" rx="10" fill="#D4D4D4"/>
<g id="text left_22">
<path id="#012" d="M607.021 1939.84H596.611L596.561 1937.2H605.523C607.352 1937.2 608.909 1936.94 610.195 1936.41C611.482 1935.89 612.455 1935.11 613.115 1934.08C613.792 1933.03 614.131 1931.74 614.131 1930.22C614.131 1928.66 613.801 1927.37 613.141 1926.36C612.48 1925.33 611.49 1924.56 610.17 1924.07C608.85 1923.58 607.191 1923.34 605.193 1923.34H597.424V1957.61H594.301V1920.65H605.193C607.072 1920.65 608.757 1920.83 610.246 1921.2C611.736 1921.58 613.005 1922.16 614.055 1922.96C615.104 1923.75 615.9 1924.76 616.441 1925.98C617 1927.18 617.279 1928.62 617.279 1930.29C617.279 1931.82 616.941 1933.2 616.264 1934.43C615.587 1935.65 614.63 1936.65 613.395 1937.43C612.176 1938.19 610.712 1938.66 609.002 1938.85L607.021 1939.84ZM606.793 1957.61H595.621L597.221 1954.95H606.793C608.621 1954.95 610.178 1954.64 611.465 1954.03C612.768 1953.41 613.767 1952.52 614.461 1951.37C615.155 1950.22 615.502 1948.85 615.502 1947.25C615.502 1945.85 615.197 1944.59 614.588 1943.47C613.979 1942.35 613.048 1941.47 611.795 1940.83C610.542 1940.17 608.951 1939.84 607.021 1939.84H600.547L600.598 1937.2H609.764L610.322 1938.14C611.981 1938.31 613.428 1938.83 614.664 1939.69C615.917 1940.53 616.882 1941.61 617.559 1942.91C618.253 1944.22 618.6 1945.65 618.6 1947.2C618.6 1949.44 618.1 1951.33 617.102 1952.89C616.12 1954.43 614.74 1955.61 612.963 1956.42C611.202 1957.22 609.146 1957.61 606.793 1957.61Z" fill="black"/>
</g>
</g>
</g>
<g id="T">
<g clip-path="url(#clip19_385_10653)">
<rect id="T_2" x="555" y="1682.3" width="100" height="94" rx="10" fill="#D4D4D4"/>
<g id="text left_23">
<path id="#018" d="M607.098 1710.65V1747.61H604V1710.65H607.098ZM619.768 1710.65V1713.34H591.355V1710.65H619.768Z" fill="black"/>
</g>
</g>
</g>
</g>
<g id="hand_2">
<g id="key_16">
<g clip-path="url(#clip20_385_10653)">
<rect id="Rectangle_7" width="100" height="94" rx="10" transform="matrix(-1 0 0 1 1640 1680.56)" fill="#D4D4D4"/>
<g id="text left_24">
<path id="label_9" d="M1584.07 1742.95L1575.61 1750.37L1577.75 1752.35L1586.15 1745.01L1584.07 1742.95ZM1575.16 1725.41V1729.37C1575.16 1731.96 1575.49 1734.3 1576.17 1736.4C1576.85 1738.48 1577.81 1740.27 1579.07 1741.76C1580.32 1743.25 1581.83 1744.39 1583.61 1745.19C1585.37 1745.98 1587.34 1746.38 1589.53 1746.38C1591.68 1746.38 1593.64 1745.98 1595.42 1745.19C1597.18 1744.39 1598.7 1743.25 1599.99 1741.76C1601.26 1740.27 1602.24 1738.48 1602.93 1736.4C1603.61 1734.3 1603.95 1731.96 1603.95 1729.37V1725.41C1603.95 1722.82 1603.61 1720.48 1602.93 1718.4C1602.24 1716.3 1601.26 1714.51 1599.99 1713.02C1598.72 1711.53 1597.2 1710.38 1595.44 1709.59C1593.68 1708.79 1591.73 1708.4 1589.58 1708.4C1587.39 1708.4 1585.42 1708.79 1583.66 1709.59C1581.88 1710.38 1580.36 1711.53 1579.09 1713.02C1577.82 1714.51 1576.85 1716.3 1576.17 1718.4C1575.49 1720.48 1575.16 1722.82 1575.16 1725.41ZM1578.25 1729.37V1725.36C1578.25 1723.17 1578.51 1721.21 1579.02 1719.47C1579.52 1717.72 1580.27 1716.23 1581.25 1715C1582.21 1713.76 1583.4 1712.81 1584.8 1712.15C1586.19 1711.49 1587.78 1711.16 1589.58 1711.16C1591.32 1711.16 1592.89 1711.49 1594.28 1712.15C1595.66 1712.81 1596.85 1713.76 1597.83 1715C1598.81 1716.23 1599.57 1717.72 1600.09 1719.47C1600.6 1721.21 1600.85 1723.17 1600.85 1725.36V1729.37C1600.85 1731.57 1600.59 1733.55 1600.06 1735.31C1599.54 1737.05 1598.79 1738.55 1597.8 1739.8C1596.82 1741.04 1595.64 1741.99 1594.25 1742.65C1592.85 1743.31 1591.27 1743.64 1589.53 1743.64C1587.73 1743.64 1586.14 1743.31 1584.75 1742.65C1583.35 1741.99 1582.16 1741.04 1581.2 1739.8C1580.23 1738.55 1579.51 1737.05 1579.02 1735.31C1578.51 1733.55 1578.25 1731.57 1578.25 1729.37Z" fill="black"/>
</g>
</g>
</g>
<g id="key/1.25u_5">
<rect id="Rectangle_8" width="129" height="94" rx="10" transform="matrix(-1 0 0 1 1640 1575.56)" fill="#D4D4D4"/>
<g id="text left_25">
<path id="label_10" d="M1569.07 1637.95L1560.61 1645.37L1562.75 1647.35L1571.15 1640.01L1569.07 1637.95ZM1560.16 1620.41V1624.37C1560.16 1626.96 1560.49 1629.3 1561.17 1631.4C1561.85 1633.48 1562.81 1635.27 1564.07 1636.76C1565.32 1638.25 1566.83 1639.39 1568.61 1640.19C1570.37 1640.98 1572.34 1641.38 1574.53 1641.38C1576.68 1641.38 1578.64 1640.98 1580.42 1640.19C1582.18 1639.39 1583.7 1638.25 1584.99 1636.76C1586.26 1635.27 1587.24 1633.48 1587.93 1631.4C1588.61 1629.3 1588.95 1626.96 1588.95 1624.37V1620.41C1588.95 1617.82 1588.61 1615.48 1587.93 1613.4C1587.24 1611.3 1586.26 1609.51 1584.99 1608.02C1583.72 1606.53 1582.2 1605.38 1580.44 1604.59C1578.68 1603.79 1576.73 1603.4 1574.58 1603.4C1572.39 1603.4 1570.42 1603.79 1568.66 1604.59C1566.88 1605.38 1565.36 1606.53 1564.09 1608.02C1562.82 1609.51 1561.85 1611.3 1561.17 1613.4C1560.49 1615.48 1560.16 1617.82 1560.16 1620.41ZM1563.25 1624.37V1620.36C1563.25 1618.17 1563.51 1616.21 1564.02 1614.47C1564.52 1612.72 1565.27 1611.23 1566.25 1610C1567.21 1608.76 1568.4 1607.81 1569.8 1607.15C1571.19 1606.49 1572.78 1606.16 1574.58 1606.16C1576.32 1606.16 1577.89 1606.49 1579.28 1607.15C1580.66 1607.81 1581.85 1608.76 1582.83 1610C1583.81 1611.23 1584.57 1612.72 1585.09 1614.47C1585.6 1616.21 1585.85 1618.17 1585.85 1620.36V1624.37C1585.85 1626.57 1585.59 1628.55 1585.06 1630.31C1584.54 1632.05 1583.79 1633.55 1582.8 1634.8C1581.82 1636.04 1580.64 1636.99 1579.25 1637.65C1577.85 1638.31 1576.27 1638.64 1574.53 1638.64C1572.73 1638.64 1571.14 1638.31 1569.75 1637.65C1568.35 1636.99 1567.16 1636.04 1566.2 1634.8C1565.23 1633.55 1564.51 1632.05 1564.02 1630.31C1563.51 1628.55 1563.25 1626.57 1563.25 1624.37Z" fill="black"/>
</g>
</g>
<g id="key/1.25u_6">
<rect id="Rectangle_9" width="129" height="94" rx="10" transform="matrix(-1 0 0 1 1500 1575.56)" fill="#D4D4D4"/>
<g id="text left_26">
<path id="label_11" d="M1429.07 1637.95L1420.61 1645.37L1422.75 1647.35L1431.15 1640.01L1429.07 1637.95ZM1420.16 1620.41V1624.37C1420.16 1626.96 1420.49 1629.3 1421.17 1631.4C1421.85 1633.48 1422.81 1635.27 1424.07 1636.76C1425.32 1638.25 1426.83 1639.39 1428.61 1640.19C1430.37 1640.98 1432.34 1641.38 1434.53 1641.38C1436.68 1641.38 1438.64 1640.98 1440.42 1640.19C1442.18 1639.39 1443.7 1638.25 1444.99 1636.76C1446.26 1635.27 1447.24 1633.48 1447.93 1631.4C1448.61 1629.3 1448.95 1626.96 1448.95 1624.37V1620.41C1448.95 1617.82 1448.61 1615.48 1447.93 1613.4C1447.24 1611.3 1446.26 1609.51 1444.99 1608.02C1443.72 1606.53 1442.2 1605.38 1440.44 1604.59C1438.68 1603.79 1436.73 1603.4 1434.58 1603.4C1432.39 1603.4 1430.42 1603.79 1428.66 1604.59C1426.88 1605.38 1425.36 1606.53 1424.09 1608.02C1422.82 1609.51 1421.85 1611.3 1421.17 1613.4C1420.49 1615.48 1420.16 1617.82 1420.16 1620.41ZM1423.25 1624.37V1620.36C1423.25 1618.17 1423.51 1616.21 1424.02 1614.47C1424.52 1612.72 1425.27 1611.23 1426.25 1610C1427.21 1608.76 1428.4 1607.81 1429.8 1607.15C1431.19 1606.49 1432.78 1606.16 1434.58 1606.16C1436.32 1606.16 1437.89 1606.49 1439.28 1607.15C1440.66 1607.81 1441.85 1608.76 1442.83 1610C1443.81 1611.23 1444.57 1612.72 1445.09 1614.47C1445.6 1616.21 1445.85 1618.17 1445.85 1620.36V1624.37C1445.85 1626.57 1445.59 1628.55 1445.06 1630.31C1444.54 1632.05 1443.79 1633.55 1442.8 1634.8C1441.82 1636.04 1440.64 1636.99 1439.25 1637.65C1437.85 1638.31 1436.27 1638.64 1434.53 1638.64C1432.73 1638.64 1431.14 1638.31 1429.75 1637.65C1428.35 1636.99 1427.16 1636.04 1426.2 1634.8C1425.23 1633.55 1424.51 1632.05 1424.02 1630.31C1423.51 1628.55 1423.25 1626.57 1423.25 1624.37Z" fill="black"/>
</g>
</g>
<g id="key/1.25u_7">
<rect id="Rectangle_10" width="129" height="94" rx="10" transform="matrix(-1 0 0 1 1360 1575.56)" fill="#D4D4D4"/>
<g id="text left_27">
<path id="label_12" d="M1289.07 1637.95L1280.61 1645.37L1282.75 1647.35L1291.15 1640.01L1289.07 1637.95ZM1280.16 1620.41V1624.37C1280.16 1626.96 1280.49 1629.3 1281.17 1631.4C1281.85 1633.48 1282.81 1635.27 1284.07 1636.76C1285.32 1638.25 1286.83 1639.39 1288.61 1640.19C1290.37 1640.98 1292.34 1641.38 1294.53 1641.38C1296.68 1641.38 1298.64 1640.98 1300.42 1640.19C1302.18 1639.39 1303.7 1638.25 1304.99 1636.76C1306.26 1635.27 1307.24 1633.48 1307.93 1631.4C1308.61 1629.3 1308.95 1626.96 1308.95 1624.37V1620.41C1308.95 1617.82 1308.61 1615.48 1307.93 1613.4C1307.24 1611.3 1306.26 1609.51 1304.99 1608.02C1303.72 1606.53 1302.2 1605.38 1300.44 1604.59C1298.68 1603.79 1296.73 1603.4 1294.58 1603.4C1292.39 1603.4 1290.42 1603.79 1288.66 1604.59C1286.88 1605.38 1285.36 1606.53 1284.09 1608.02C1282.82 1609.51 1281.85 1611.3 1281.17 1613.4C1280.49 1615.48 1280.16 1617.82 1280.16 1620.41ZM1283.25 1624.37V1620.36C1283.25 1618.17 1283.51 1616.21 1284.02 1614.47C1284.52 1612.72 1285.27 1611.23 1286.25 1610C1287.21 1608.76 1288.4 1607.81 1289.8 1607.15C1291.19 1606.49 1292.78 1606.16 1294.58 1606.16C1296.32 1606.16 1297.89 1606.49 1299.28 1607.15C1300.66 1607.81 1301.85 1608.76 1302.83 1610C1303.81 1611.23 1304.57 1612.72 1305.09 1614.47C1305.6 1616.21 1305.85 1618.17 1305.85 1620.36V1624.37C1305.85 1626.57 1305.59 1628.55 1305.06 1630.31C1304.54 1632.05 1303.79 1633.55 1302.8 1634.8C1301.82 1636.04 1300.64 1636.99 1299.25 1637.65C1297.85 1638.31 1296.27 1638.64 1294.53 1638.64C1292.73 1638.64 1291.14 1638.31 1289.75 1637.65C1288.35 1636.99 1287.16 1636.04 1286.2 1634.8C1285.23 1633.55 1284.51 1632.05 1284.02 1630.31C1283.51 1628.55 1283.25 1626.57 1283.25 1624.37Z" fill="black"/>
</g>
</g>
<g id="key/1.25u_8">
<rect id="Rectangle_11" width="129" height="94" rx="10" transform="matrix(-1 0 0 1 1220 1575.56)" fill="#D4D4D4"/>
<g id="text left_28">
<path id="label_13" d="M1149.07 1637.95L1140.61 1645.37L1142.75 1647.35L1151.15 1640.01L1149.07 1637.95ZM1140.16 1620.41V1624.37C1140.16 1626.96 1140.49 1629.3 1141.17 1631.4C1141.85 1633.48 1142.81 1635.27 1144.07 1636.76C1145.32 1638.25 1146.83 1639.39 1148.61 1640.19C1150.37 1640.98 1152.34 1641.38 1154.53 1641.38C1156.68 1641.38 1158.64 1640.98 1160.42 1640.19C1162.18 1639.39 1163.7 1638.25 1164.99 1636.76C1166.26 1635.27 1167.24 1633.48 1167.93 1631.4C1168.61 1629.3 1168.95 1626.96 1168.95 1624.37V1620.41C1168.95 1617.82 1168.61 1615.48 1167.93 1613.4C1167.24 1611.3 1166.26 1609.51 1164.99 1608.02C1163.72 1606.53 1162.2 1605.38 1160.44 1604.59C1158.68 1603.79 1156.73 1603.4 1154.58 1603.4C1152.39 1603.4 1150.42 1603.79 1148.66 1604.59C1146.88 1605.38 1145.36 1606.53 1144.09 1608.02C1142.82 1609.51 1141.85 1611.3 1141.17 1613.4C1140.49 1615.48 1140.16 1617.82 1140.16 1620.41ZM1143.25 1624.37V1620.36C1143.25 1618.17 1143.51 1616.21 1144.02 1614.47C1144.52 1612.72 1145.27 1611.23 1146.25 1610C1147.21 1608.76 1148.4 1607.81 1149.8 1607.15C1151.19 1606.49 1152.78 1606.16 1154.58 1606.16C1156.32 1606.16 1157.89 1606.49 1159.28 1607.15C1160.66 1607.81 1161.85 1608.76 1162.83 1610C1163.81 1611.23 1164.57 1612.72 1165.09 1614.47C1165.6 1616.21 1165.85 1618.17 1165.85 1620.36V1624.37C1165.85 1626.57 1165.59 1628.55 1165.06 1630.31C1164.54 1632.05 1163.79 1633.55 1162.8 1634.8C1161.82 1636.04 1160.64 1636.99 1159.25 1637.65C1157.85 1638.31 1156.27 1638.64 1154.53 1638.64C1152.73 1638.64 1151.14 1638.31 1149.75 1637.65C1148.35 1636.99 1147.16 1636.04 1146.2 1634.8C1145.23 1633.55 1144.51 1632.05 1144.02 1630.31C1143.51 1628.55 1143.25 1626.57 1143.25 1624.37Z" fill="black"/>
</g>
</g>
<g id="key_17">
<g clip-path="url(#clip21_385_10653)">
<rect id="P" width="100" height="94" rx="10" transform="matrix(-1 0 0 1 1529 1680.56)" fill="#D4D4D4"/>
<g id="text right">
<path id="#035" d="M1479.2 1730.82H1468.66V1728.15H1479.2C1481.4 1728.15 1483.18 1727.79 1484.55 1727.08C1485.94 1726.36 1486.95 1725.37 1487.57 1724.14C1488.22 1722.9 1488.54 1721.51 1488.54 1719.97C1488.54 1718.47 1488.22 1717.08 1487.57 1715.81C1486.95 1714.54 1485.94 1713.52 1484.55 1712.76C1483.18 1711.98 1481.4 1711.59 1479.2 1711.59H1469.75V1745.87H1466.63V1708.9H1479.2C1481.9 1708.9 1484.18 1709.37 1486.03 1710.3C1487.89 1711.23 1489.29 1712.53 1490.24 1714.18C1491.19 1715.84 1491.66 1717.76 1491.66 1719.92C1491.66 1722.19 1491.19 1724.15 1490.24 1725.79C1489.29 1727.41 1487.9 1728.66 1486.05 1729.52C1484.21 1730.38 1481.92 1730.82 1479.2 1730.82Z" fill="black"/>
</g>
</g>
</g>
<g id="key_18">
<g clip-path="url(#clip22_385_10653)">
<rect id="Rectangle_12" width="100" height="94" rx="10" transform="matrix(-1 0 0 1 1640 1785.56)" fill="#D4D4D4"/>
<g id="text left_29">
<path id="label_14" d="M1584.07 1847.95L1575.61 1855.37L1577.75 1857.35L1586.15 1850.01L1584.07 1847.95ZM1575.16 1830.41V1834.37C1575.16 1836.96 1575.49 1839.3 1576.17 1841.4C1576.85 1843.48 1577.81 1845.27 1579.07 1846.76C1580.32 1848.25 1581.83 1849.39 1583.61 1850.19C1585.37 1850.98 1587.34 1851.38 1589.53 1851.38C1591.68 1851.38 1593.64 1850.98 1595.42 1850.19C1597.18 1849.39 1598.7 1848.25 1599.99 1846.76C1601.26 1845.27 1602.24 1843.48 1602.93 1841.4C1603.61 1839.3 1603.95 1836.96 1603.95 1834.37V1830.41C1603.95 1827.82 1603.61 1825.48 1602.93 1823.4C1602.24 1821.3 1601.26 1819.51 1599.99 1818.02C1598.72 1816.53 1597.2 1815.38 1595.44 1814.59C1593.68 1813.79 1591.73 1813.4 1589.58 1813.4C1587.39 1813.4 1585.42 1813.79 1583.66 1814.59C1581.88 1815.38 1580.36 1816.53 1579.09 1818.02C1577.82 1819.51 1576.85 1821.3 1576.17 1823.4C1575.49 1825.48 1575.16 1827.82 1575.16 1830.41ZM1578.25 1834.37V1830.36C1578.25 1828.17 1578.51 1826.21 1579.02 1824.47C1579.52 1822.72 1580.27 1821.23 1581.25 1820C1582.21 1818.76 1583.4 1817.81 1584.8 1817.15C1586.19 1816.49 1587.78 1816.16 1589.58 1816.16C1591.32 1816.16 1592.89 1816.49 1594.28 1817.15C1595.66 1817.81 1596.85 1818.76 1597.83 1820C1598.81 1821.23 1599.57 1822.72 1600.09 1824.47C1600.6 1826.21 1600.85 1828.17 1600.85 1830.36V1834.37C1600.85 1836.57 1600.59 1838.55 1600.06 1840.31C1599.54 1842.05 1598.79 1843.55 1597.8 1844.8C1596.82 1846.04 1595.64 1846.99 1594.25 1847.65C1592.85 1848.31 1591.27 1848.64 1589.53 1848.64C1587.73 1848.64 1586.14 1848.31 1584.75 1847.65C1583.35 1846.99 1582.16 1846.04 1581.2 1844.8C1580.23 1843.55 1579.51 1842.05 1579.02 1840.31C1578.51 1838.55 1578.25 1836.57 1578.25 1834.37Z" fill="black"/>
</g>
</g>
</g>
<g id="key_19">
<g clip-path="url(#clip23_385_10653)">
<rect id="Rectangle_13" width="100" height="94" rx="10" transform="matrix(-1 0 0 1 1640 1890.56)" fill="#D4D4D4"/>
<g id="text left_30">
<path id="label_15" d="M1584.07 1952.95L1575.61 1960.37L1577.75 1962.35L1586.15 1955.01L1584.07 1952.95ZM1575.16 1935.41V1939.37C1575.16 1941.96 1575.49 1944.3 1576.17 1946.4C1576.85 1948.48 1577.81 1950.27 1579.07 1951.76C1580.32 1953.25 1581.83 1954.39 1583.61 1955.19C1585.37 1955.98 1587.34 1956.38 1589.53 1956.38C1591.68 1956.38 1593.64 1955.98 1595.42 1955.19C1597.18 1954.39 1598.7 1953.25 1599.99 1951.76C1601.26 1950.27 1602.24 1948.48 1602.93 1946.4C1603.61 1944.3 1603.95 1941.96 1603.95 1939.37V1935.41C1603.95 1932.82 1603.61 1930.48 1602.93 1928.4C1602.24 1926.3 1601.26 1924.51 1599.99 1923.02C1598.72 1921.53 1597.2 1920.38 1595.44 1919.59C1593.68 1918.79 1591.73 1918.4 1589.58 1918.4C1587.39 1918.4 1585.42 1918.79 1583.66 1919.59C1581.88 1920.38 1580.36 1921.53 1579.09 1923.02C1577.82 1924.51 1576.85 1926.3 1576.17 1928.4C1575.49 1930.48 1575.16 1932.82 1575.16 1935.41ZM1578.25 1939.37V1935.36C1578.25 1933.17 1578.51 1931.21 1579.02 1929.47C1579.52 1927.72 1580.27 1926.23 1581.25 1925C1582.21 1923.76 1583.4 1922.81 1584.8 1922.15C1586.19 1921.49 1587.78 1921.16 1589.58 1921.16C1591.32 1921.16 1592.89 1921.49 1594.28 1922.15C1595.66 1922.81 1596.85 1923.76 1597.83 1925C1598.81 1926.23 1599.57 1927.72 1600.09 1929.47C1600.6 1931.21 1600.85 1933.17 1600.85 1935.36V1939.37C1600.85 1941.57 1600.59 1943.55 1600.06 1945.31C1599.54 1947.05 1598.79 1948.55 1597.8 1949.8C1596.82 1951.04 1595.64 1951.99 1594.25 1952.65C1592.85 1953.31 1591.27 1953.64 1589.53 1953.64C1587.73 1953.64 1586.14 1953.31 1584.75 1952.65C1583.35 1951.99 1582.16 1951.04 1581.2 1949.8C1580.23 1948.55 1579.51 1947.05 1579.02 1945.31C1578.51 1943.55 1578.25 1941.57 1578.25 1939.37Z" fill="black"/>
</g>
</g>
</g>
<g id="key_20">
<g clip-path="url(#clip24_385_10653)">
<rect id="SPACE_2" width="666" height="94" rx="10" transform="matrix(-1 0 0 1 1640 1995.56)" fill="#D4D4D4"/>
<g id="text right_2">
<path id="label_16" d="M1254.1 2057.78C1254.1 2056.77 1253.93 2055.86 1253.6 2055.07C1253.26 2054.27 1252.7 2053.56 1251.92 2052.93C1251.16 2052.29 1250.13 2051.7 1248.82 2051.16C1247.54 2050.6 1245.93 2050.05 1244 2049.51C1242.15 2048.98 1240.49 2048.4 1239 2047.78C1237.51 2047.15 1236.23 2046.43 1235.16 2045.62C1234.11 2044.81 1233.31 2043.86 1232.75 2042.78C1232.19 2041.68 1231.91 2040.4 1231.91 2038.94C1231.91 2037.52 1232.22 2036.23 1232.83 2035.06C1233.44 2033.89 1234.29 2032.88 1235.39 2032.04C1236.51 2031.19 1237.82 2030.54 1239.33 2030.08C1240.85 2029.62 1242.52 2029.4 1244.33 2029.4C1246.92 2029.4 1249.15 2029.89 1251.03 2030.87C1252.93 2031.85 1254.39 2033.18 1255.42 2034.85C1256.47 2036.51 1257 2038.38 1257 2040.44H1253.88C1253.88 2038.83 1253.49 2037.4 1252.73 2036.15C1251.99 2034.88 1250.9 2033.89 1249.48 2033.18C1248.08 2032.45 1246.36 2032.09 1244.33 2032.09C1242.3 2032.09 1240.59 2032.4 1239.2 2033.03C1237.83 2033.64 1236.79 2034.46 1236.08 2035.49C1235.38 2036.51 1235.04 2037.64 1235.04 2038.89C1235.04 2039.77 1235.2 2040.58 1235.54 2041.33C1235.88 2042.06 1236.43 2042.74 1237.19 2043.39C1237.97 2044.01 1239 2044.6 1240.27 2045.16C1241.54 2045.7 1243.1 2046.22 1244.96 2046.71C1246.93 2047.25 1248.67 2047.85 1250.19 2048.51C1251.72 2049.18 1253 2049.94 1254.05 2050.8C1255.1 2051.65 1255.9 2052.64 1256.44 2053.77C1256.98 2054.9 1257.25 2056.23 1257.25 2057.73C1257.25 2059.24 1256.93 2060.59 1256.29 2061.79C1255.66 2062.98 1254.77 2063.99 1253.62 2064.82C1252.49 2065.65 1251.14 2066.28 1249.58 2066.72C1248.04 2067.16 1246.36 2067.38 1244.53 2067.38C1242.89 2067.38 1241.26 2067.17 1239.63 2066.75C1238.01 2066.32 1236.52 2065.67 1235.16 2064.79C1233.82 2063.89 1232.75 2062.74 1231.94 2061.34C1231.14 2059.93 1230.74 2058.26 1230.74 2056.31H1233.84C1233.84 2057.87 1234.15 2059.18 1234.78 2060.25C1235.41 2061.31 1236.24 2062.18 1237.27 2062.84C1238.32 2063.5 1239.47 2063.98 1240.72 2064.28C1241.99 2064.57 1243.26 2064.71 1244.53 2064.71C1246.48 2064.71 1248.16 2064.43 1249.58 2063.85C1251.02 2063.28 1252.13 2062.47 1252.91 2061.44C1253.71 2060.39 1254.1 2059.17 1254.1 2057.78ZM1276.57 2051.82H1266.04V2049.15H1276.57C1278.77 2049.15 1280.56 2048.79 1281.93 2048.08C1283.32 2047.36 1284.33 2046.37 1284.95 2045.14C1285.6 2043.9 1285.92 2042.51 1285.92 2040.97C1285.92 2039.47 1285.6 2038.08 1284.95 2036.81C1284.33 2035.54 1283.32 2034.52 1281.93 2033.76C1280.56 2032.98 1278.77 2032.59 1276.57 2032.59H1267.13V2066.87H1264.01V2029.9H1276.57C1279.28 2029.9 1281.56 2030.37 1283.4 2031.3C1285.27 2032.23 1286.67 2033.53 1287.62 2035.18C1288.57 2036.84 1289.04 2038.76 1289.04 2040.92C1289.04 2043.19 1288.57 2045.15 1287.62 2046.79C1286.67 2048.41 1285.27 2049.66 1283.43 2050.52C1281.58 2051.38 1279.3 2051.82 1276.57 2051.82ZM1304.68 2032.11L1291.88 2066.87H1288.63L1302.6 2029.9H1304.86L1304.68 2032.11ZM1316.31 2066.87L1303.49 2032.11L1303.31 2029.9H1305.57L1319.56 2066.87H1316.31ZM1314.03 2053.82V2056.51H1294.4V2053.82H1314.03ZM1347.77 2055.34H1350.89C1350.64 2057.83 1349.95 2059.98 1348.84 2061.79C1347.72 2063.59 1346.2 2064.97 1344.27 2065.93C1342.34 2066.9 1340.01 2067.38 1337.28 2067.38C1335.18 2067.38 1333.28 2066.98 1331.57 2066.19C1329.88 2065.39 1328.42 2064.27 1327.2 2062.81C1325.98 2061.34 1325.04 2059.58 1324.38 2057.53C1323.72 2055.48 1323.39 2053.2 1323.39 2050.7V2046.08C1323.39 2043.57 1323.72 2041.3 1324.38 2039.27C1325.04 2037.22 1325.99 2035.46 1327.23 2033.99C1328.46 2032.52 1329.95 2031.38 1331.67 2030.59C1333.4 2029.79 1335.35 2029.4 1337.51 2029.4C1340.14 2029.4 1342.4 2029.88 1344.32 2030.84C1346.23 2031.79 1347.74 2033.16 1348.84 2034.96C1349.95 2036.75 1350.64 2038.92 1350.89 2041.46H1347.77C1347.53 2039.46 1347.01 2037.77 1346.2 2036.38C1345.38 2034.99 1344.26 2033.93 1342.82 2033.2C1341.4 2032.46 1339.63 2032.09 1337.51 2032.09C1335.79 2032.09 1334.24 2032.42 1332.89 2033.08C1331.54 2033.74 1330.39 2034.69 1329.44 2035.92C1328.49 2037.14 1327.76 2038.6 1327.25 2040.31C1326.76 2042.02 1326.52 2043.93 1326.52 2046.03V2050.7C1326.52 2052.73 1326.75 2054.6 1327.23 2056.31C1327.7 2058.02 1328.4 2059.5 1329.31 2060.75C1330.24 2062.01 1331.38 2062.98 1332.71 2063.67C1334.05 2064.37 1335.57 2064.71 1337.28 2064.71C1339.47 2064.71 1341.29 2064.37 1342.74 2063.67C1344.21 2062.96 1345.36 2061.91 1346.17 2060.52C1346.98 2059.14 1347.52 2057.41 1347.77 2055.34ZM1381.49 2064.21V2066.87H1360.69V2064.21H1381.49ZM1361.63 2029.9V2066.87H1358.51V2029.9H1361.63ZM1378.9 2046.48V2049.15H1360.69V2046.48H1378.9ZM1381.36 2029.9V2032.59H1360.69V2029.9H1381.36Z" fill="black"/>
</g>
</g>
</g>
<g id="key_21">
<g clip-path="url(#clip25_385_10653)">
<rect id=";" width="100" height="94" rx="10" transform="matrix(-1 0 0 1 1529 1785.56)" fill="#D4D4D4"/>
<g id="text right_3">
<path id="#029" d="M1475.89 1825.58C1475.89 1824.99 1476.08 1824.49 1476.45 1824.09C1476.84 1823.66 1477.37 1823.45 1478.03 1823.45C1478.7 1823.45 1479.24 1823.65 1479.63 1824.06C1480.02 1824.47 1480.21 1824.97 1480.21 1825.58C1480.21 1826.16 1480.02 1826.65 1479.63 1827.06C1479.24 1827.46 1478.7 1827.67 1478.03 1827.67C1477.37 1827.67 1476.84 1827.46 1476.45 1827.06C1476.08 1826.65 1475.89 1826.16 1475.89 1825.58ZM1479.8 1846.07V1849.63C1479.8 1851.19 1479.48 1852.68 1478.84 1854.12C1478.2 1855.58 1477.32 1856.81 1476.22 1857.8L1474.45 1856.48C1474.97 1855.77 1475.41 1855.06 1475.77 1854.35C1476.12 1853.66 1476.39 1852.93 1476.55 1852.17C1476.74 1851.41 1476.83 1850.58 1476.83 1849.7V1846.07H1479.8Z" fill="black"/>
</g>
</g>
</g>
<g id="key_22">
<g clip-path="url(#clip26_385_10653)">
<rect id="/" width="100" height="94" rx="10" transform="matrix(-1 0 0 1 1529 1890.56)" fill="#D4D4D4"/>
<g id="text right_4">
<path id="#023" d="M1486.58 1918.9L1471.15 1959.05H1468.4L1483.84 1918.9H1486.58Z" fill="black"/>
</g>
</g>
</g>
<g id="key_23">
<g clip-path="url(#clip27_385_10653)">
<rect id="O" width="100" height="94" rx="10" transform="matrix(-1 0 0 1 1418 1680.56)" fill="#D4D4D4"/>
<g id="text right_5">
<path id="#034" d="M1380.85 1725.41V1729.37C1380.85 1731.96 1380.51 1734.3 1379.83 1736.4C1379.17 1738.48 1378.21 1740.27 1376.94 1741.76C1375.68 1743.25 1374.18 1744.39 1372.42 1745.19C1370.66 1745.98 1368.68 1746.38 1366.48 1746.38C1364.33 1746.38 1362.36 1745.98 1360.59 1745.19C1358.83 1744.39 1357.31 1743.25 1356.04 1741.76C1354.77 1740.27 1353.79 1738.48 1353.1 1736.4C1352.4 1734.3 1352.05 1731.96 1352.05 1729.37V1725.41C1352.05 1722.82 1352.39 1720.48 1353.07 1718.4C1353.76 1716.3 1354.75 1714.51 1356.02 1713.02C1357.29 1711.53 1358.8 1710.38 1360.56 1709.59C1362.32 1708.79 1364.28 1708.4 1366.43 1708.4C1368.63 1708.4 1370.61 1708.79 1372.37 1709.59C1374.13 1710.38 1375.64 1711.53 1376.91 1713.02C1378.18 1714.51 1379.15 1716.3 1379.83 1718.4C1380.51 1720.48 1380.85 1722.82 1380.85 1725.41ZM1377.75 1729.37V1725.36C1377.75 1723.17 1377.5 1721.21 1376.99 1719.47C1376.5 1717.72 1375.76 1716.23 1374.78 1715C1373.81 1713.76 1372.63 1712.81 1371.22 1712.15C1369.82 1711.49 1368.22 1711.16 1366.43 1711.16C1364.68 1711.16 1363.12 1711.49 1361.73 1712.15C1360.34 1712.81 1359.16 1713.76 1358.17 1715C1357.21 1716.23 1356.46 1717.72 1355.94 1719.47C1355.43 1721.21 1355.18 1723.17 1355.18 1725.36V1729.37C1355.18 1731.57 1355.43 1733.55 1355.94 1735.31C1356.46 1737.05 1357.22 1738.55 1358.2 1739.8C1359.18 1741.04 1360.37 1741.99 1361.75 1742.65C1363.16 1743.31 1364.73 1743.64 1366.48 1743.64C1368.29 1743.64 1369.89 1743.31 1371.28 1742.65C1372.66 1741.99 1373.84 1741.04 1374.8 1739.8C1375.77 1738.55 1376.5 1737.05 1376.99 1735.31C1377.5 1733.55 1377.75 1731.57 1377.75 1729.37Z" fill="black"/>
</g>
</g>
</g>
<g id="key_24">
<g clip-path="url(#clip28_385_10653)">
<rect id="L" width="100" height="94" rx="10" transform="matrix(-1 0 0 1 1418 1785.56)" fill="#D4D4D4"/>
<g id="text right_6">
<path id="#028" d="M1378.82 1848.21V1850.87H1359.65V1848.21H1378.82ZM1360.56 1813.9V1850.87H1357.44V1813.9H1360.56Z" fill="black"/>
</g>
</g>
</g>
<g id="key_25">
<g clip-path="url(#clip29_385_10653)">
<rect id="." width="100" height="94" rx="10" transform="matrix(-1 0 0 1 1418 1890.56)" fill="#D4D4D4"/>
<g id="text right_7">
<path id="#022" d="M1364.44 1954.02C1364.44 1953.43 1364.62 1952.93 1365 1952.52C1365.39 1952.1 1365.91 1951.89 1366.57 1951.89C1367.25 1951.89 1367.78 1952.09 1368.17 1952.5C1368.56 1952.9 1368.75 1953.41 1368.75 1954.02C1368.75 1954.59 1368.56 1955.09 1368.17 1955.49C1367.78 1955.9 1367.25 1956.1 1366.57 1956.1C1365.91 1956.1 1365.39 1955.9 1365 1955.49C1364.62 1955.09 1364.44 1954.59 1364.44 1954.02Z" fill="black"/>
</g>
</g>
</g>
<g id="key_26">
<g clip-path="url(#clip30_385_10653)">
<rect id="I" width="100" height="94" rx="10" transform="matrix(-1 0 0 1 1307 1680.56)" fill="#D4D4D4"/>
<g id="text right_8">
<path id="#033" d="M1257.03 1708.9V1745.87H1253.9V1708.9H1257.03Z" fill="black"/>
</g>
</g>
</g>
<g id="key_27">
<g clip-path="url(#clip31_385_10653)">
<rect id="K" width="100" height="94" rx="10" transform="matrix(-1 0 0 1 1307 1785.56)" fill="#D4D4D4"/>
<g id="text right_9">
<path id="#027" d="M1247.34 1813.9V1850.87H1244.22V1813.9H1247.34ZM1270.2 1813.9L1254.25 1830.84L1246.23 1838.74L1245.92 1835.26L1252.37 1828.55L1266.29 1813.9H1270.2ZM1267.61 1850.87L1252.04 1831.88L1253.92 1829.37L1271.39 1850.87H1267.61Z" fill="black"/>
</g>
</g>
</g>
<g id="key_28">
<g clip-path="url(#clip32_385_10653)">
<rect id="," width="100" height="94" rx="10" transform="matrix(-1 0 0 1 1307 1890.56)" fill="#D4D4D4"/>
<g id="text right_10">
<path id="#021" d="M1257.86 1951.07V1954.63C1257.86 1956.19 1257.53 1957.68 1256.89 1959.12C1256.25 1960.58 1255.38 1961.81 1254.28 1962.8L1252.5 1961.48C1253.02 1960.77 1253.46 1960.06 1253.82 1959.35C1254.17 1958.66 1254.44 1957.93 1254.61 1957.17C1254.79 1956.41 1254.88 1955.58 1254.88 1954.7V1951.07H1257.86Z" fill="black"/>
</g>
</g>
</g>
<g id="key_29">
<g clip-path="url(#clip33_385_10653)">
<rect id="U" width="100" height="94" rx="10" transform="matrix(-1 0 0 1 1196 1680.56)" fill="#D4D4D4"/>
<g id="text right_11">
<path id="#032" d="M1154.85 1708.9H1157.98V1733.94C1157.98 1736.71 1157.39 1739.03 1156.22 1740.87C1155.06 1742.72 1153.48 1744.09 1151.5 1745.01C1149.54 1745.92 1147.36 1746.38 1144.98 1746.38C1142.52 1746.38 1140.31 1745.92 1138.35 1745.01C1136.39 1744.09 1134.83 1742.72 1133.68 1740.87C1132.54 1739.03 1131.98 1736.71 1131.98 1733.94V1708.9H1135.07V1733.94C1135.07 1736.09 1135.5 1737.89 1136.34 1739.35C1137.19 1740.8 1138.36 1741.89 1139.85 1742.62C1141.34 1743.35 1143.05 1743.71 1144.98 1743.71C1146.89 1743.71 1148.59 1743.35 1150.08 1742.62C1151.57 1741.89 1152.74 1740.8 1153.58 1739.35C1154.43 1737.89 1154.85 1736.09 1154.85 1733.94V1708.9Z" fill="black"/>
</g>
</g>
</g>
<g id="key_30">
<g clip-path="url(#clip34_385_10653)">
<rect id="J" width="100" height="94" rx="10" transform="matrix(-1 0 0 1 1196 1785.56)" fill="#D4D4D4"/>
<g id="text right_12">
<path id="#026" d="M1151.65 1839.85V1813.9H1154.78V1839.85C1154.78 1842.34 1154.29 1844.44 1153.3 1846.15C1152.34 1847.86 1151.02 1849.16 1149.34 1850.06C1147.67 1850.94 1145.76 1851.38 1143.61 1851.38C1141.4 1851.38 1139.46 1850.99 1137.77 1850.21C1136.09 1849.43 1134.79 1848.26 1133.86 1846.68C1132.92 1845.09 1132.46 1843.09 1132.46 1840.67H1135.58C1135.58 1842.44 1135.9 1843.93 1136.52 1845.13C1137.16 1846.32 1138.09 1847.22 1139.29 1847.83C1140.49 1848.42 1141.93 1848.71 1143.61 1848.71C1145.11 1848.71 1146.47 1848.38 1147.67 1847.72C1148.89 1847.05 1149.85 1846.06 1150.56 1844.75C1151.29 1843.43 1151.65 1841.8 1151.65 1839.85Z" fill="black"/>
</g>
</g>
</g>
<g id="key_31">
<g clip-path="url(#clip35_385_10653)">
<rect id="M" width="100" height="94" rx="10" transform="matrix(-1 0 0 1 1196 1890.56)" fill="#D4D4D4"/>
<g id="text right_13">
<path id="#020" d="M1128.12 1918.9H1131.27L1144.93 1951.45L1158.61 1918.9H1161.73L1146.12 1955.87H1143.73L1128.12 1918.9ZM1127.15 1918.9H1129.92L1130.25 1939.72V1955.87H1127.15V1918.9ZM1159.98 1918.9H1162.75V1955.87H1159.63V1939.72L1159.98 1918.9Z" fill="black"/>
</g>
</g>
</g>
<g id="key_32">
<g clip-path="url(#clip36_385_10653)">
<rect id="H" width="100" height="94" rx="10" transform="matrix(-1 0 0 1 1085 1785.56)" fill="#D4D4D4"/>
<g id="text right_14">
<path id="#031" d="M1045.1 1830.48V1833.15H1022.63V1830.48H1045.1ZM1023.36 1813.9V1850.87H1020.24V1813.9H1023.36ZM1047.61 1813.9V1850.87H1044.49V1813.9H1047.61Z" fill="black"/>
</g>
</g>
</g>
<g id="key_33">
<g clip-path="url(#clip37_385_10653)">
<rect id="N" width="100" height="94" rx="10" transform="matrix(-1 0 0 1 1085 1890.56)" fill="#D4D4D4"/>
<g id="text right_15">
<path id="#025" d="M1047.69 1918.9V1955.87H1044.54L1023.29 1924.29V1955.87H1020.16V1918.9H1023.29L1044.59 1950.49V1918.9H1047.69Z" fill="black"/>
</g>
</g>
</g>
<g id="key_34">
<g clip-path="url(#clip38_385_10653)">
<rect id="Y" width="100" height="94" rx="10" transform="matrix(-1 0 0 1 1085 1680.56)" fill="#D4D4D4"/>
<g id="text right_16">
<path id="#019" d="M1022.2 1708.9L1033.4 1729.04L1044.7 1708.9H1048.3L1034.97 1731.93V1745.87H1031.85V1731.93L1018.5 1708.9H1022.2Z" fill="black"/>
</g>
</g>
</g>
</g>
</g>
<defs>
<clipPath id="clip0_385_10653">
<rect width="1640" height="2360" fill="white"/>
</clipPath>
<clipPath id="clip1_385_10653">
<rect y="1682.3" width="100" height="94" rx="10" fill="white"/>
</clipPath>
<clipPath id="clip2_385_10653">
<rect x="111" y="1682.3" width="100" height="94" rx="10" fill="white"/>
</clipPath>
<clipPath id="clip3_385_10653">
<rect y="1787.3" width="100" height="94" rx="10" fill="white"/>
</clipPath>
<clipPath id="clip4_385_10653">
<rect y="1892.3" width="100" height="94" rx="10" fill="white"/>
</clipPath>
<clipPath id="clip5_385_10653">
<rect y="1997.3" width="666" height="105" rx="10" fill="white"/>
</clipPath>
<clipPath id="clip6_385_10653">
<rect x="111" y="1787.3" width="100" height="94" rx="10" fill="white"/>
</clipPath>
<clipPath id="clip7_385_10653">
<rect x="111" y="1892.3" width="100" height="94" rx="10" fill="white"/>
</clipPath>
<clipPath id="clip8_385_10653">
<rect x="222" y="1682.3" width="100" height="94" rx="10" fill="white"/>
</clipPath>
<clipPath id="clip9_385_10653">
<rect x="222" y="1787.3" width="100" height="94" rx="10" fill="white"/>
</clipPath>
<clipPath id="clip10_385_10653">
<rect x="222" y="1892.3" width="100" height="94" rx="10" fill="white"/>
</clipPath>
<clipPath id="clip11_385_10653">
<rect x="333" y="1682.3" width="100" height="94" rx="10" fill="white"/>
</clipPath>
<clipPath id="clip12_385_10653">
<rect x="333" y="1787.3" width="100" height="94" rx="10" fill="white"/>
</clipPath>
<clipPath id="clip13_385_10653">
<rect x="333" y="1892.3" width="100" height="94" rx="10" fill="white"/>
</clipPath>
<clipPath id="clip14_385_10653">
<rect x="444" y="1682.3" width="100" height="94" rx="10" fill="white"/>
</clipPath>
<clipPath id="clip15_385_10653">
<rect x="444" y="1787.3" width="100" height="94" rx="10" fill="white"/>
</clipPath>
<clipPath id="clip16_385_10653">
<rect x="444" y="1892.3" width="100" height="94" rx="10" fill="white"/>
</clipPath>
<clipPath id="clip17_385_10653">
<rect x="555" y="1787.3" width="100" height="94" rx="10" fill="white"/>
</clipPath>
<clipPath id="clip18_385_10653">
<rect x="555" y="1892.3" width="100" height="94" rx="10" fill="white"/>
</clipPath>
<clipPath id="clip19_385_10653">
<rect x="555" y="1682.3" width="100" height="94" rx="10" fill="white"/>
</clipPath>
<clipPath id="clip20_385_10653">
<rect width="100" height="94" rx="10" transform="matrix(-1 0 0 1 1640 1680.56)" fill="white"/>
</clipPath>
<clipPath id="clip21_385_10653">
<rect width="100" height="94" rx="10" transform="matrix(-1 0 0 1 1529 1680.56)" fill="white"/>
</clipPath>
<clipPath id="clip22_385_10653">
<rect width="100" height="94" rx="10" transform="matrix(-1 0 0 1 1640 1785.56)" fill="white"/>
</clipPath>
<clipPath id="clip23_385_10653">
<rect width="100" height="94" rx="10" transform="matrix(-1 0 0 1 1640 1890.56)" fill="white"/>
</clipPath>
<clipPath id="clip24_385_10653">
<rect width="666" height="105" rx="10" transform="matrix(-1 0 0 1 1640 1995.56)" fill="white"/>
</clipPath>
<clipPath id="clip25_385_10653">
<rect width="100" height="94" rx="10" transform="matrix(-1 0 0 1 1529 1785.56)" fill="white"/>
</clipPath>
<clipPath id="clip26_385_10653">
<rect width="100" height="94" rx="10" transform="matrix(-1 0 0 1 1529 1890.56)" fill="white"/>
</clipPath>
<clipPath id="clip27_385_10653">
<rect width="100" height="94" rx="10" transform="matrix(-1 0 0 1 1418 1680.56)" fill="white"/>
</clipPath>
<clipPath id="clip28_385_10653">
<rect width="100" height="94" rx="10" transform="matrix(-1 0 0 1 1418 1785.56)" fill="white"/>
</clipPath>
<clipPath id="clip29_385_10653">
<rect width="100" height="94" rx="10" transform="matrix(-1 0 0 1 1418 1890.56)" fill="white"/>
</clipPath>
<clipPath id="clip30_385_10653">
<rect width="100" height="94" rx="10" transform="matrix(-1 0 0 1 1307 1680.56)" fill="white"/>
</clipPath>
<clipPath id="clip31_385_10653">
<rect width="100" height="94" rx="10" transform="matrix(-1 0 0 1 1307 1785.56)" fill="white"/>
</clipPath>
<clipPath id="clip32_385_10653">
<rect width="100" height="94" rx="10" transform="matrix(-1 0 0 1 1307 1890.56)" fill="white"/>
</clipPath>
<clipPath id="clip33_385_10653">
<rect width="100" height="94" rx="10" transform="matrix(-1 0 0 1 1196 1680.56)" fill="white"/>
</clipPath>
<clipPath id="clip34_385_10653">
<rect width="100" height="94" rx="10" transform="matrix(-1 0 0 1 1196 1785.56)" fill="white"/>
</clipPath>
<clipPath id="clip35_385_10653">
<rect width="100" height="94" rx="10" transform="matrix(-1 0 0 1 1196 1890.56)" fill="white"/>
</clipPath>
<clipPath id="clip36_385_10653">
<rect width="100" height="94" rx="10" transform="matrix(-1 0 0 1 1085 1785.56)" fill="white"/>
</clipPath>
<clipPath id="clip37_385_10653">
<rect width="100" height="94" rx="10" transform="matrix(-1 0 0 1 1085 1890.56)" fill="white"/>
</clipPath>
<clipPath id="clip38_385_10653">
<rect width="100" height="94" rx="10" transform="matrix(-1 0 0 1 1085 1680.56)" fill="white"/>
</clipPath>
</defs>
</svg>
