<svg width="2360" height="1640" viewBox="0 0 2360 1640" fill="none" xmlns="http://www.w3.org/2000/svg">
<g clip-path="url(#clip0_556_11400)">
<g clip-path="url(#clip1_556_11400)">
<rect x="26.6147" y="1199.83" width="145.512" height="146.512" rx="10" transform="rotate(15 26.6147 1199.83)" fill="#D4D4D4"/>
<path d="M80.3187 1309.17L88.0087 1320.68L84.8422 1322.35L77.1884 1310.95L80.3187 1309.17ZM96.5026 1291.15L95.2408 1295.86C94.4159 1298.94 93.2666 1301.62 91.793 1303.9C90.3249 1306.16 88.609 1307.98 86.6453 1309.35C84.6817 1310.72 82.5167 1311.59 80.1503 1311.97C77.804 1312.36 75.3329 1312.2 72.737 1311.51C70.1813 1310.82 67.9737 1309.73 66.1142 1308.21C64.2748 1306.71 62.8276 1304.86 61.7727 1302.68C60.738 1300.51 60.1397 1298.07 59.9778 1295.38C59.8415 1292.66 60.1859 1289.77 61.0108 1286.69L62.2726 1281.98C63.0976 1278.9 64.2441 1276.23 65.7123 1273.97C67.206 1271.7 68.9447 1269.88 70.9285 1268.51C72.9122 1267.15 75.0772 1266.27 77.4235 1265.89C79.7698 1265.5 82.2207 1265.65 84.7764 1266.34C87.3723 1267.03 89.59 1268.13 91.4294 1269.64C93.289 1271.15 94.7361 1272.99 95.7709 1275.17C96.8056 1277.34 97.3912 1279.79 97.5275 1282.5C97.6692 1285.19 97.3276 1288.07 96.5026 1291.15ZM91.5582 1294.88L92.8362 1290.11C93.5317 1287.51 93.8554 1285.1 93.8071 1282.86C93.7587 1280.63 93.3478 1278.62 92.5743 1276.84C91.8208 1275.06 90.7142 1273.56 89.2542 1272.32C87.8144 1271.1 86.0279 1270.2 83.8948 1269.63C81.8221 1269.07 79.8555 1268.96 77.9951 1269.31C76.1347 1269.65 74.4241 1270.4 72.8633 1271.55C71.3026 1272.71 69.9326 1274.24 68.7533 1276.15C67.5943 1278.06 66.6669 1280.31 65.9714 1282.91L64.6934 1287.68C63.9925 1290.29 63.6735 1292.73 63.7366 1294.99C63.805 1297.23 64.2233 1299.25 64.9915 1301.05C65.765 1302.84 66.8717 1304.34 68.3115 1305.57C69.7715 1306.8 71.5378 1307.69 73.6105 1308.25C75.7436 1308.82 77.7404 1308.93 79.6008 1308.59C81.4813 1308.25 83.1919 1307.51 84.7326 1306.34C86.2786 1305.16 87.6211 1303.61 88.7601 1301.7C89.9246 1299.77 90.8573 1297.49 91.5582 1294.88Z" fill="black"/>
</g>
<g clip-path="url(#clip2_556_11400)">
<rect x="70.5444" y="1039.74" width="145.512" height="146.512" rx="10" transform="rotate(15 70.5444 1039.74)" fill="#D4D4D4"/>
<path d="M124.248 1149.09L131.938 1160.6L128.772 1162.27L121.118 1150.87L124.248 1149.09ZM140.432 1131.07L139.171 1135.78C138.346 1138.86 137.196 1141.54 135.723 1143.82C134.255 1146.07 132.539 1147.89 130.575 1149.26C128.611 1150.63 126.446 1151.51 124.08 1151.89C121.734 1152.27 119.263 1152.12 116.667 1151.42C114.111 1150.74 111.903 1149.64 110.044 1148.13C108.204 1146.62 106.757 1144.78 105.702 1142.6C104.668 1140.42 104.069 1137.99 103.908 1135.29C103.771 1132.58 104.116 1129.68 104.941 1126.61L106.202 1121.9C107.027 1118.82 108.174 1116.15 109.642 1113.89C111.136 1111.61 112.874 1109.79 114.858 1108.43C116.842 1107.06 119.007 1106.19 121.353 1105.8C123.699 1105.42 126.15 1105.57 128.706 1106.25C131.302 1106.95 133.52 1108.05 135.359 1109.55C137.219 1111.07 138.666 1112.91 139.701 1115.08C140.735 1117.26 141.321 1119.7 141.457 1122.41C141.599 1125.1 141.257 1127.99 140.432 1131.07ZM135.488 1134.79L136.766 1130.02C137.461 1127.43 137.785 1125.01 137.737 1122.78C137.688 1120.54 137.277 1118.53 136.504 1116.75C135.751 1114.98 134.644 1113.47 133.184 1112.24C131.744 1111.01 129.958 1110.11 127.825 1109.54C125.752 1108.99 123.785 1108.88 121.925 1109.22C120.064 1109.56 118.354 1110.31 116.793 1111.47C115.232 1112.63 113.862 1114.16 112.683 1116.06C111.524 1117.97 110.597 1120.23 109.901 1122.82L108.623 1127.59C107.922 1130.21 107.603 1132.65 107.666 1134.91C107.735 1137.15 108.153 1139.17 108.921 1140.97C109.695 1142.75 110.801 1144.26 112.241 1145.48C113.701 1146.71 115.467 1147.61 117.54 1148.16C119.673 1148.74 121.67 1148.85 123.53 1148.51C125.411 1148.17 127.122 1147.42 128.662 1146.26C130.208 1145.08 131.551 1143.53 132.69 1141.61C133.854 1139.68 134.787 1137.41 135.488 1134.79Z" fill="black"/>
</g>
<g clip-path="url(#clip3_556_11400)">
<rect x="114.026" y="877.469" width="145.512" height="146.512" rx="10" transform="rotate(15 114.026 877.469)" fill="#D4D4D4"/>
<path d="M167.73 986.812L175.42 998.32L172.254 999.995L164.6 988.594L167.73 986.812ZM183.914 968.793L182.652 973.502C181.827 976.581 180.678 979.26 179.205 981.54C177.736 983.799 176.021 985.615 174.057 986.987C172.093 988.359 169.928 989.235 167.562 989.614C165.216 989.999 162.745 989.844 160.149 989.148C157.593 988.464 155.385 987.365 153.526 985.853C151.686 984.347 150.239 982.503 149.184 980.322C148.15 978.147 147.551 975.711 147.389 973.015C147.253 970.304 147.597 967.409 148.422 964.33L149.684 959.621C150.509 956.542 151.656 953.873 153.124 951.614C154.618 949.34 156.356 947.519 158.34 946.153C160.324 944.786 162.489 943.911 164.835 943.525C167.181 943.14 169.632 943.29 172.188 943.975C174.784 944.671 177.002 945.772 178.841 947.278C180.701 948.79 182.148 950.634 183.182 952.809C184.217 954.984 184.803 957.428 184.939 960.139C185.081 962.829 184.739 965.714 183.914 968.793ZM178.97 972.515L180.248 967.746C180.943 965.15 181.267 962.735 181.219 960.501C181.17 958.266 180.759 956.258 179.986 954.476C179.232 952.7 178.126 951.195 176.666 949.963C175.226 948.736 173.44 947.837 171.306 947.265C169.234 946.71 167.267 946.604 165.407 946.946C163.546 947.289 161.836 948.038 160.275 949.195C158.714 950.351 157.344 951.882 156.165 953.787C155.006 955.698 154.079 957.952 153.383 960.548L152.105 965.317C151.404 967.933 151.085 970.371 151.148 972.631C151.217 974.871 151.635 976.892 152.403 978.694C153.177 980.475 154.283 981.98 155.723 983.207C157.183 984.439 158.949 985.333 161.022 985.888C163.155 986.46 165.152 986.574 167.012 986.232C168.893 985.894 170.604 985.145 172.144 983.983C173.69 982.801 175.033 981.252 176.172 979.336C177.336 977.405 178.269 975.131 178.97 972.515Z" fill="black"/>
</g>
<g clip-path="url(#clip4_556_11400)">
<rect x="198.998" y="1248.09" width="145.512" height="146.512" rx="10" transform="rotate(15 198.998 1248.09)" fill="#D4D4D4"/>
<path d="M252.702 1357.43L260.391 1368.94L257.225 1370.62L249.571 1359.21L252.702 1357.43ZM268.885 1339.41L267.624 1344.12C266.799 1347.2 265.649 1349.88 264.176 1352.16C262.708 1354.42 260.992 1356.24 259.028 1357.61C257.065 1358.98 254.899 1359.86 252.533 1360.23C250.187 1360.62 247.716 1360.46 245.12 1359.77C242.564 1359.08 240.357 1357.99 238.497 1356.47C236.658 1354.97 235.21 1353.12 234.156 1350.94C233.121 1348.77 232.523 1346.33 232.361 1343.64C232.224 1340.92 232.569 1338.03 233.394 1334.95L234.655 1330.24C235.48 1327.16 236.627 1324.49 238.095 1322.23C239.589 1319.96 241.328 1318.14 243.311 1316.77C245.295 1315.41 247.46 1314.53 249.806 1314.15C252.153 1313.76 254.604 1313.91 257.159 1314.6C259.755 1315.29 261.973 1316.39 263.812 1317.9C265.672 1319.41 267.119 1321.25 268.154 1323.43C269.188 1325.61 269.774 1328.05 269.91 1330.76C270.052 1333.45 269.71 1336.33 268.885 1339.41ZM263.941 1343.14L265.219 1338.37C265.915 1335.77 266.238 1333.36 266.19 1331.12C266.142 1328.89 265.731 1326.88 264.957 1325.1C264.204 1323.32 263.097 1321.82 261.637 1320.58C260.197 1319.36 258.411 1318.46 256.278 1317.89C254.205 1317.33 252.238 1317.22 250.378 1317.57C248.518 1317.91 246.807 1318.66 245.246 1319.82C243.685 1320.97 242.315 1322.5 241.136 1324.41C239.977 1326.32 239.05 1328.57 238.354 1331.17L237.076 1335.94C236.375 1338.55 236.056 1340.99 236.119 1343.25C236.188 1345.49 236.606 1347.51 237.374 1349.31C238.148 1351.1 239.254 1352.6 240.694 1353.83C242.154 1355.06 243.921 1355.95 245.993 1356.51C248.126 1357.08 250.123 1357.19 251.984 1356.85C253.864 1356.52 255.575 1355.77 257.115 1354.6C258.661 1353.42 260.004 1351.87 261.143 1349.96C262.307 1348.03 263.24 1345.75 263.941 1343.14Z" fill="black"/>
</g>
<g clip-path="url(#clip5_556_11400)">
<rect x="242.738" y="1084.85" width="145.512" height="146.512" rx="10" transform="rotate(15 242.738 1084.85)" fill="#D4D4D4"/>
<path d="M296.442 1194.19L304.132 1205.7L300.966 1207.37L293.312 1195.97L296.442 1194.19ZM312.626 1176.17L311.364 1180.88C310.539 1183.96 309.39 1186.64 307.917 1188.92C306.448 1191.18 304.733 1192.99 302.769 1194.37C300.805 1195.74 298.64 1196.61 296.274 1196.99C293.928 1197.38 291.456 1197.22 288.861 1196.53C286.305 1195.84 284.097 1194.74 282.238 1193.23C280.398 1191.73 278.951 1189.88 277.896 1187.7C276.862 1185.53 276.263 1183.09 276.101 1180.39C275.965 1177.68 276.309 1174.79 277.134 1171.71L278.396 1167C279.221 1163.92 280.368 1161.25 281.836 1158.99C283.33 1156.72 285.068 1154.9 287.052 1153.53C289.036 1152.17 291.201 1151.29 293.547 1150.9C295.893 1150.52 298.344 1150.67 300.9 1151.35C303.496 1152.05 305.714 1153.15 307.553 1154.66C309.413 1156.17 310.86 1158.01 311.894 1160.19C312.929 1162.36 313.515 1164.81 313.651 1167.52C313.793 1170.21 313.451 1173.09 312.626 1176.17ZM307.682 1179.89L308.96 1175.13C309.655 1172.53 309.979 1170.11 309.931 1167.88C309.882 1165.65 309.471 1163.64 308.698 1161.86C307.944 1160.08 306.838 1158.57 305.378 1157.34C303.938 1156.12 302.151 1155.22 300.018 1154.64C297.946 1154.09 295.979 1153.98 294.119 1154.33C292.258 1154.67 290.548 1155.42 288.987 1156.57C287.426 1157.73 286.056 1159.26 284.877 1161.17C283.718 1163.08 282.79 1165.33 282.095 1167.93L280.817 1172.7C280.116 1175.31 279.797 1177.75 279.86 1180.01C279.929 1182.25 280.347 1184.27 281.115 1186.07C281.889 1187.85 282.995 1189.36 284.435 1190.59C285.895 1191.82 287.661 1192.71 289.734 1193.27C291.867 1193.84 293.864 1193.95 295.724 1193.61C297.605 1193.27 299.315 1192.52 300.856 1191.36C302.402 1190.18 303.745 1188.63 304.884 1186.72C306.048 1184.78 306.981 1182.51 307.682 1179.89Z" fill="black"/>
</g>
<g clip-path="url(#clip6_556_11400)">
<rect x="285.961" y="923.539" width="145.512" height="146.512" rx="10" transform="rotate(15 285.961 923.539)" fill="#D4D4D4"/>
<path d="M339.665 1032.88L347.355 1044.39L344.188 1046.06L336.535 1034.66L339.665 1032.88ZM355.849 1014.86L354.587 1019.57C353.762 1022.65 352.613 1025.33 351.139 1027.61C349.671 1029.87 347.955 1031.68 345.992 1033.06C344.028 1034.43 341.863 1035.3 339.496 1035.68C337.15 1036.07 334.679 1035.91 332.083 1035.22C329.528 1034.53 327.32 1033.43 325.46 1031.92C323.621 1030.42 322.174 1028.57 321.119 1026.39C320.084 1024.22 319.486 1021.78 319.324 1019.08C319.188 1016.37 319.532 1013.48 320.357 1010.4L321.619 1005.69C322.444 1002.61 323.59 999.943 325.059 997.684C326.552 995.409 328.291 993.589 330.275 992.223C332.258 990.856 334.423 989.98 336.77 989.595C339.116 989.21 341.567 989.36 344.123 990.045C346.719 990.741 348.936 991.842 350.776 993.348C352.635 994.86 354.082 996.704 355.117 998.879C356.152 1001.05 356.737 1003.5 356.874 1006.21C357.015 1008.9 356.674 1011.78 355.849 1014.86ZM350.904 1018.59L352.182 1013.82C352.878 1011.22 353.202 1008.8 353.153 1006.57C353.105 1004.34 352.694 1002.33 351.92 1000.55C351.167 998.77 350.06 997.265 348.6 996.033C347.161 994.806 345.374 993.907 343.241 993.335C341.168 992.78 339.202 992.673 337.341 993.016C335.481 993.359 333.77 994.108 332.21 995.264C330.649 996.421 329.279 997.952 328.1 999.857C326.94 1001.77 326.013 1004.02 325.318 1006.62L324.04 1011.39C323.339 1014 323.02 1016.44 323.083 1018.7C323.151 1020.94 323.569 1022.96 324.338 1024.76C325.111 1026.55 326.218 1028.05 327.658 1029.28C329.118 1030.51 330.884 1031.4 332.957 1031.96C335.09 1032.53 337.087 1032.64 338.947 1032.3C340.827 1031.96 342.538 1031.21 344.079 1030.05C345.625 1028.87 346.967 1027.32 348.106 1025.41C349.271 1023.47 350.203 1021.2 350.904 1018.59Z" fill="black"/>
</g>
<g clip-path="url(#clip7_556_11400)">
<rect x="381.544" y="1254.56" width="145.512" height="146.512" rx="10" transform="rotate(15 381.544 1254.56)" fill="#D4D4D4"/>
<path d="M435.248 1363.9L442.938 1375.41L439.771 1377.08L432.118 1365.68L435.248 1363.9ZM451.432 1345.88L450.17 1350.59C449.345 1353.67 448.196 1356.35 446.722 1358.63C445.254 1360.89 443.538 1362.7 441.575 1364.07C439.611 1365.45 437.446 1366.32 435.079 1366.7C432.733 1367.09 430.262 1366.93 427.666 1366.24C425.111 1365.55 422.903 1364.45 421.043 1362.94C419.204 1361.43 417.757 1359.59 416.702 1357.41C415.667 1355.23 415.069 1352.8 414.907 1350.1C414.771 1347.39 415.115 1344.5 415.94 1341.42L417.202 1336.71C418.027 1333.63 419.173 1330.96 420.642 1328.7C422.135 1326.43 423.874 1324.61 425.858 1323.24C427.841 1321.87 430.006 1321 432.353 1320.61C434.699 1320.23 437.15 1320.38 439.706 1321.06C442.302 1321.76 444.519 1322.86 446.359 1324.37C448.218 1325.88 449.665 1327.72 450.7 1329.9C451.735 1332.07 452.32 1334.52 452.457 1337.23C452.598 1339.92 452.257 1342.8 451.432 1345.88ZM446.487 1349.6L447.765 1344.83C448.461 1342.24 448.785 1339.82 448.736 1337.59C448.688 1335.35 448.277 1333.35 447.503 1331.56C446.75 1329.79 445.643 1328.28 444.183 1327.05C442.744 1325.82 440.957 1324.92 438.824 1324.35C436.751 1323.8 434.785 1323.69 432.924 1324.03C431.064 1324.38 429.353 1325.13 427.793 1326.28C426.232 1327.44 424.862 1328.97 423.683 1330.87C422.523 1332.79 421.596 1335.04 420.901 1337.64L419.623 1342.4C418.922 1345.02 418.603 1347.46 418.666 1349.72C418.734 1351.96 419.153 1353.98 419.921 1355.78C420.694 1357.56 421.801 1359.07 423.241 1360.29C424.701 1361.53 426.467 1362.42 428.54 1362.98C430.673 1363.55 432.67 1363.66 434.53 1363.32C436.411 1362.98 438.121 1362.23 439.662 1361.07C441.208 1359.89 442.55 1358.34 443.689 1356.42C444.854 1354.49 445.786 1352.22 446.487 1349.6Z" fill="black"/>
</g>
<g clip-path="url(#clip8_556_11400)">
<rect x="425.026" y="1092.28" width="145.512" height="146.512" rx="10" transform="rotate(15 425.026 1092.28)" fill="#D4D4D4"/>
<path d="M478.73 1201.62L486.42 1213.13L483.253 1214.81L475.6 1203.41L478.73 1201.62ZM494.914 1183.61L493.652 1188.31C492.827 1191.39 491.678 1194.07 490.204 1196.35C488.736 1198.61 487.02 1200.43 485.056 1201.8C483.093 1203.17 480.928 1204.05 478.561 1204.43C476.215 1204.81 473.744 1204.66 471.148 1203.96C468.592 1203.28 466.385 1202.18 464.525 1200.67C462.686 1199.16 461.239 1197.32 460.184 1195.13C459.149 1192.96 458.551 1190.52 458.389 1187.83C458.253 1185.12 458.597 1182.22 459.422 1179.14L460.684 1174.43C461.509 1171.35 462.655 1168.69 464.123 1166.43C465.617 1164.15 467.356 1162.33 469.34 1160.96C471.323 1159.6 473.488 1158.72 475.835 1158.34C478.181 1157.95 480.632 1158.1 483.188 1158.79C485.783 1159.48 488.001 1160.58 489.841 1162.09C491.7 1163.6 493.147 1165.45 494.182 1167.62C495.217 1169.8 495.802 1172.24 495.939 1174.95C496.08 1177.64 495.739 1180.53 494.914 1183.61ZM489.969 1187.33L491.247 1182.56C491.943 1179.96 492.267 1177.55 492.218 1175.31C492.17 1173.08 491.759 1171.07 490.985 1169.29C490.232 1167.51 489.125 1166.01 487.665 1164.78C486.226 1163.55 484.439 1162.65 482.306 1162.08C480.233 1161.52 478.267 1161.42 476.406 1161.76C474.546 1162.1 472.835 1162.85 471.274 1164.01C469.714 1165.16 468.344 1166.69 467.164 1168.6C466.005 1170.51 465.078 1172.76 464.382 1175.36L463.105 1180.13C462.404 1182.75 462.085 1185.18 462.148 1187.44C462.216 1189.68 462.634 1191.7 463.403 1193.51C464.176 1195.29 465.283 1196.79 466.723 1198.02C468.183 1199.25 469.949 1200.14 472.022 1200.7C474.155 1201.27 476.151 1201.39 478.012 1201.04C479.892 1200.71 481.603 1199.96 483.144 1198.8C484.69 1197.61 486.032 1196.06 487.171 1194.15C488.336 1192.22 489.268 1189.94 489.969 1187.33Z" fill="black"/>
</g>
<g clip-path="url(#clip9_556_11400)">
<rect x="467.283" y="930.713" width="145.512" height="146.512" rx="10" transform="rotate(15 467.283 930.713)" fill="#D4D4D4"/>
<path d="M520.987 1040.06L528.677 1051.56L525.51 1053.24L517.856 1041.84L520.987 1040.06ZM537.171 1022.04L535.909 1026.75C535.084 1029.82 533.935 1032.5 532.461 1034.78C530.993 1037.04 529.277 1038.86 527.313 1040.23C525.35 1041.6 523.185 1042.48 520.818 1042.86C518.472 1043.24 516.001 1043.09 513.405 1042.39C510.849 1041.71 508.642 1040.61 506.782 1039.1C504.943 1037.59 503.496 1035.75 502.441 1033.57C501.406 1031.39 500.808 1028.95 500.646 1026.26C500.509 1023.55 500.854 1020.65 501.679 1017.57L502.941 1012.86C503.766 1009.79 504.912 1007.12 506.38 1004.86C507.874 1002.58 509.613 1000.76 511.596 999.396C513.58 998.03 515.745 997.154 518.091 996.769C520.438 996.384 522.889 996.534 525.444 997.219C528.04 997.914 530.258 999.015 532.097 1000.52C533.957 1002.03 535.404 1003.88 536.439 1006.05C537.474 1008.23 538.059 1010.67 538.195 1013.38C538.337 1016.07 537.996 1018.96 537.171 1022.04ZM532.226 1025.76L533.504 1020.99C534.2 1018.39 534.523 1015.98 534.475 1013.74C534.427 1011.51 534.016 1009.5 533.242 1007.72C532.489 1005.94 531.382 1004.44 529.922 1003.21C528.482 1001.98 526.696 1001.08 524.563 1000.51C522.49 999.954 520.524 999.847 518.663 1000.19C516.803 1000.53 515.092 1001.28 513.531 1002.44C511.971 1003.59 510.601 1005.13 509.421 1007.03C508.262 1008.94 507.335 1011.2 506.639 1013.79L505.361 1018.56C504.66 1021.18 504.341 1023.61 504.405 1025.87C504.473 1028.11 504.891 1030.14 505.659 1031.94C506.433 1033.72 507.54 1035.22 508.979 1036.45C510.439 1037.68 512.206 1038.58 514.278 1039.13C516.412 1039.7 518.408 1039.82 520.269 1039.48C522.149 1039.14 523.86 1038.39 525.401 1037.23C526.947 1036.05 528.289 1034.5 529.428 1032.58C530.593 1030.65 531.525 1028.38 532.226 1025.76Z" fill="black"/>
</g>
<g clip-path="url(#clip10_556_11400)">
<rect x="560.053" y="1276.09" width="145.512" height="146.512" rx="10" transform="rotate(15 560.053 1276.09)" fill="#D4D4D4"/>
<path d="M613.757 1385.43L621.447 1396.94L618.281 1398.62L610.627 1387.22L613.757 1385.43ZM629.941 1367.41L628.679 1372.12C627.854 1375.2 626.705 1377.88 625.232 1380.16C623.763 1382.42 622.047 1384.24 620.084 1385.61C618.12 1386.98 615.955 1387.86 613.589 1388.24C611.243 1388.62 608.771 1388.47 606.175 1387.77C603.62 1387.09 601.412 1385.99 599.553 1384.47C597.713 1382.97 596.266 1381.12 595.211 1378.94C594.176 1376.77 593.578 1374.33 593.416 1371.64C593.28 1368.93 593.624 1366.03 594.449 1362.95L595.711 1358.24C596.536 1355.16 597.683 1352.49 599.151 1350.24C600.644 1347.96 602.383 1346.14 604.367 1344.77C606.351 1343.41 608.516 1342.53 610.862 1342.15C613.208 1341.76 615.659 1341.91 618.215 1342.6C620.811 1343.29 623.028 1344.39 624.868 1345.9C626.727 1347.41 628.175 1349.26 629.209 1351.43C630.244 1353.61 630.83 1356.05 630.966 1358.76C631.108 1361.45 630.766 1364.34 629.941 1367.41ZM624.997 1371.14L626.275 1366.37C626.97 1363.77 627.294 1361.36 627.246 1359.12C627.197 1356.89 626.786 1354.88 626.013 1353.1C625.259 1351.32 624.153 1349.82 622.693 1348.58C621.253 1347.36 619.466 1346.46 617.333 1345.89C615.261 1345.33 613.294 1345.23 611.434 1345.57C609.573 1345.91 607.863 1346.66 606.302 1347.82C604.741 1348.97 603.371 1350.5 602.192 1352.41C601.033 1354.32 600.105 1356.57 599.41 1359.17L598.132 1363.94C597.431 1366.55 597.112 1368.99 597.175 1371.25C597.243 1373.49 597.662 1375.51 598.43 1377.32C599.203 1379.1 600.31 1380.6 601.75 1381.83C603.21 1383.06 604.976 1383.95 607.049 1384.51C609.182 1385.08 611.179 1385.2 613.039 1384.85C614.92 1384.52 616.63 1383.77 618.171 1382.6C619.717 1381.42 621.06 1379.87 622.199 1377.96C623.363 1376.03 624.296 1373.75 624.997 1371.14Z" fill="black"/>
</g>
<g clip-path="url(#clip11_556_11400)">
<rect x="603.095" y="1115.46" width="145.512" height="146.512" rx="10" transform="rotate(15 603.095 1115.46)" fill="#D4D4D4"/>
<path d="M656.799 1224.8L664.489 1236.31L661.322 1237.98L653.668 1226.58L656.799 1224.8ZM672.983 1206.78L671.721 1211.49C670.896 1214.57 669.747 1217.25 668.273 1219.53C666.805 1221.79 665.089 1223.6 663.125 1224.98C661.162 1226.35 658.997 1227.22 656.63 1227.6C654.284 1227.99 651.813 1227.83 649.217 1227.14C646.661 1226.45 644.454 1225.35 642.594 1223.84C640.755 1222.34 639.308 1220.49 638.253 1218.31C637.218 1216.14 636.62 1213.7 636.458 1211C636.322 1208.29 636.666 1205.4 637.491 1202.32L638.753 1197.61C639.578 1194.53 640.724 1191.86 642.192 1189.6C643.686 1187.33 645.425 1185.51 647.408 1184.14C649.392 1182.77 651.557 1181.9 653.903 1181.51C656.25 1181.13 658.701 1181.28 661.256 1181.96C663.852 1182.66 666.07 1183.76 667.909 1185.27C669.769 1186.78 671.216 1188.62 672.251 1190.8C673.286 1192.97 673.871 1195.42 674.007 1198.13C674.149 1200.82 673.808 1203.7 672.983 1206.78ZM668.038 1210.5L669.316 1205.73C670.012 1203.14 670.335 1200.72 670.287 1198.49C670.239 1196.25 669.828 1194.25 669.054 1192.46C668.301 1190.69 667.194 1189.18 665.734 1187.95C664.294 1186.72 662.508 1185.83 660.375 1185.25C658.302 1184.7 656.336 1184.59 654.475 1184.93C652.615 1185.28 650.904 1186.03 649.343 1187.18C647.783 1188.34 646.413 1189.87 645.233 1191.78C644.074 1193.69 643.147 1195.94 642.451 1198.54L641.173 1203.31C640.472 1205.92 640.153 1208.36 640.217 1210.62C640.285 1212.86 640.703 1214.88 641.471 1216.68C642.245 1218.46 643.352 1219.97 644.791 1221.2C646.251 1222.43 648.018 1223.32 650.09 1223.88C652.224 1224.45 654.22 1224.56 656.081 1224.22C657.961 1223.88 659.672 1223.13 661.213 1221.97C662.759 1220.79 664.101 1219.24 665.24 1217.32C666.405 1215.39 667.337 1213.12 668.038 1210.5Z" fill="black"/>
</g>
<g clip-path="url(#clip12_556_11400)">
<rect x="646.136" y="954.825" width="145.512" height="146.512" rx="10" transform="rotate(15 646.136 954.825)" fill="#D4D4D4"/>
<path d="M699.84 1064.17L707.53 1075.68L704.364 1077.35L696.71 1065.95L699.84 1064.17ZM716.024 1046.15L714.762 1050.86C713.937 1053.94 712.788 1056.62 711.315 1058.9C709.846 1061.16 708.13 1062.97 706.167 1064.34C704.203 1065.71 702.038 1066.59 699.672 1066.97C697.326 1067.36 694.854 1067.2 692.258 1066.5C689.703 1065.82 687.495 1064.72 685.636 1063.21C683.796 1061.7 682.349 1059.86 681.294 1057.68C680.259 1055.5 679.661 1053.07 679.499 1050.37C679.363 1047.66 679.707 1044.77 680.532 1041.69L681.794 1036.98C682.619 1033.9 683.766 1031.23 685.234 1028.97C686.727 1026.7 688.466 1024.88 690.45 1023.51C692.434 1022.14 694.599 1021.27 696.945 1020.88C699.291 1020.5 701.742 1020.65 704.298 1021.33C706.894 1022.03 709.112 1023.13 710.951 1024.63C712.81 1026.15 714.258 1027.99 715.292 1030.17C716.327 1032.34 716.913 1034.78 717.049 1037.49C717.191 1040.19 716.849 1043.07 716.024 1046.15ZM711.08 1049.87L712.358 1045.1C713.053 1042.51 713.377 1040.09 713.329 1037.86C713.28 1035.62 712.869 1033.61 712.096 1031.83C711.342 1030.06 710.236 1028.55 708.776 1027.32C707.336 1026.09 705.549 1025.19 703.416 1024.62C701.344 1024.07 699.377 1023.96 697.517 1024.3C695.656 1024.64 693.946 1025.39 692.385 1026.55C690.824 1027.71 689.454 1029.24 688.275 1031.14C687.116 1033.05 686.188 1035.31 685.493 1037.9L684.215 1042.67C683.514 1045.29 683.195 1047.73 683.258 1049.99C683.326 1052.23 683.745 1054.25 684.513 1056.05C685.286 1057.83 686.393 1059.34 687.833 1060.56C689.293 1061.8 691.059 1062.69 693.132 1063.24C695.265 1063.82 697.262 1063.93 699.122 1063.59C701.003 1063.25 702.713 1062.5 704.254 1061.34C705.8 1060.16 707.143 1058.61 708.282 1056.69C709.446 1054.76 710.379 1052.49 711.08 1049.87Z" fill="black"/>
</g>
<g clip-path="url(#clip13_556_11400)">
<rect x="726.035" y="1344.38" width="145.512" height="146.512" rx="10" transform="rotate(15 726.035 1344.38)" fill="#D4D4D4"/>
<path d="M779.739 1453.72L787.429 1465.23L784.263 1466.9L776.609 1455.5L779.739 1453.72ZM795.923 1435.7L794.661 1440.41C793.836 1443.49 792.687 1446.17 791.213 1448.45C789.745 1450.71 788.029 1452.52 786.066 1453.89C784.102 1455.27 781.937 1456.14 779.571 1456.52C777.224 1456.91 774.753 1456.75 772.157 1456.06C769.602 1455.37 767.394 1454.27 765.535 1452.76C763.695 1451.25 762.248 1449.41 761.193 1447.23C760.158 1445.05 759.56 1442.62 759.398 1439.92C759.262 1437.21 759.606 1434.32 760.431 1431.24L761.693 1426.53C762.518 1423.45 763.665 1420.78 765.133 1418.52C766.626 1416.25 768.365 1414.43 770.349 1413.06C772.333 1411.69 774.498 1410.82 776.844 1410.43C779.19 1410.05 781.641 1410.2 784.197 1410.88C786.793 1411.58 789.01 1412.68 790.85 1414.19C792.709 1415.7 794.157 1417.54 795.191 1419.72C796.226 1421.89 796.812 1424.34 796.948 1427.05C797.09 1429.74 796.748 1432.62 795.923 1435.7ZM790.979 1439.42L792.257 1434.65C792.952 1432.06 793.276 1429.64 793.227 1427.41C793.179 1425.17 792.768 1423.17 791.995 1421.38C791.241 1419.61 790.135 1418.1 788.675 1416.87C787.235 1415.64 785.448 1414.74 783.315 1414.17C781.243 1413.62 779.276 1413.51 777.416 1413.85C775.555 1414.2 773.845 1414.95 772.284 1416.1C770.723 1417.26 769.353 1418.79 768.174 1420.69C767.015 1422.61 766.087 1424.86 765.392 1427.46L764.114 1432.22C763.413 1434.84 763.094 1437.28 763.157 1439.54C763.225 1441.78 763.644 1443.8 764.412 1445.6C765.185 1447.38 766.292 1448.89 767.732 1450.11C769.192 1451.35 770.958 1452.24 773.031 1452.8C775.164 1453.37 777.161 1453.48 779.021 1453.14C780.902 1452.8 782.612 1452.05 784.153 1450.89C785.699 1449.71 787.042 1448.16 788.18 1446.24C789.345 1444.31 790.278 1442.04 790.979 1439.42Z" fill="black"/>
</g>
<g clip-path="url(#clip14_556_11400)">
<rect x="769.077" y="1183.74" width="145.512" height="146.512" rx="10" transform="rotate(15 769.077 1183.74)" fill="#D4D4D4"/>
<path d="M822.781 1293.09L830.471 1304.59L827.304 1306.27L819.65 1294.87L822.781 1293.09ZM838.964 1275.07L837.703 1279.78C836.878 1282.86 835.728 1285.54 834.255 1287.81C832.787 1290.07 831.071 1291.89 829.107 1293.26C827.144 1294.63 824.979 1295.51 822.612 1295.89C820.266 1296.27 817.795 1296.12 815.199 1295.42C812.643 1294.74 810.436 1293.64 808.576 1292.13C806.737 1290.62 805.29 1288.78 804.235 1286.6C803.2 1284.42 802.602 1281.99 802.44 1279.29C802.303 1276.58 802.648 1273.68 803.473 1270.61L804.735 1265.9C805.559 1262.82 806.706 1260.15 808.174 1257.89C809.668 1255.61 811.407 1253.79 813.39 1252.43C815.374 1251.06 817.539 1250.19 819.885 1249.8C822.232 1249.42 824.683 1249.57 827.238 1250.25C829.834 1250.95 832.052 1252.05 833.891 1253.55C835.751 1255.07 837.198 1256.91 838.233 1259.08C839.268 1261.26 839.853 1263.7 839.989 1266.41C840.131 1269.1 839.789 1271.99 838.964 1275.07ZM834.02 1278.79L835.298 1274.02C835.994 1271.42 836.317 1269.01 836.269 1266.78C836.221 1264.54 835.81 1262.53 835.036 1260.75C834.283 1258.97 833.176 1257.47 831.716 1256.24C830.276 1255.01 828.49 1254.11 826.357 1253.54C824.284 1252.98 822.317 1252.88 820.457 1253.22C818.597 1253.56 816.886 1254.31 815.325 1255.47C813.764 1256.63 812.394 1258.16 811.215 1260.06C810.056 1261.97 809.129 1264.23 808.433 1266.82L807.155 1271.59C806.454 1274.21 806.135 1276.65 806.198 1278.91C806.267 1281.15 806.685 1283.17 807.453 1284.97C808.227 1286.75 809.334 1288.25 810.773 1289.48C812.233 1290.71 814 1291.61 816.072 1292.16C818.206 1292.73 820.202 1292.85 822.063 1292.51C823.943 1292.17 825.654 1291.42 827.194 1290.26C828.741 1289.08 830.083 1287.53 831.222 1285.61C832.386 1283.68 833.319 1281.41 834.02 1278.79Z" fill="black"/>
</g>
<g clip-path="url(#clip15_556_11400)">
<rect x="812.118" y="1023.11" width="145.512" height="146.512" rx="10" transform="rotate(15 812.118 1023.11)" fill="#D4D4D4"/>
<path d="M865.822 1132.45L873.512 1143.96L870.346 1145.64L862.692 1134.24L865.822 1132.45ZM882.006 1114.44L880.744 1119.14C879.919 1122.22 878.77 1124.9 877.296 1127.18C875.828 1129.44 874.112 1131.26 872.149 1132.63C870.185 1134 868.02 1134.88 865.654 1135.26C863.307 1135.64 860.836 1135.49 858.24 1134.79C855.685 1134.11 853.477 1133.01 851.618 1131.5C849.778 1129.99 848.331 1128.15 847.276 1125.96C846.241 1123.79 845.643 1121.35 845.481 1118.66C845.345 1115.95 845.689 1113.05 846.514 1109.97L847.776 1105.26C848.601 1102.18 849.748 1099.52 851.216 1097.26C852.709 1094.98 854.448 1093.16 856.432 1091.79C858.416 1090.43 860.581 1089.55 862.927 1089.17C865.273 1088.78 867.724 1088.93 870.28 1089.62C872.876 1090.31 875.093 1091.41 876.933 1092.92C878.792 1094.43 880.24 1096.28 881.274 1098.45C882.309 1100.63 882.895 1103.07 883.031 1105.78C883.173 1108.47 882.831 1111.36 882.006 1114.44ZM877.062 1118.16L878.34 1113.39C879.035 1110.79 879.359 1108.38 879.31 1106.14C879.262 1103.91 878.851 1101.9 878.078 1100.12C877.324 1098.34 876.218 1096.84 874.758 1095.61C873.318 1094.38 871.531 1093.48 869.398 1092.91C867.326 1092.35 865.359 1092.25 863.499 1092.59C861.638 1092.93 859.928 1093.68 858.367 1094.84C856.806 1095.99 855.436 1097.52 854.257 1099.43C853.098 1101.34 852.17 1103.59 851.475 1106.19L850.197 1110.96C849.496 1113.58 849.177 1116.01 849.24 1118.27C849.308 1120.51 849.727 1122.53 850.495 1124.34C851.268 1126.12 852.375 1127.62 853.815 1128.85C855.275 1130.08 857.041 1130.98 859.114 1131.53C861.247 1132.1 863.244 1132.22 865.104 1131.87C866.985 1131.54 868.695 1130.79 870.236 1129.63C871.782 1128.44 873.125 1126.89 874.263 1124.98C875.428 1123.05 876.361 1120.77 877.062 1118.16Z" fill="black"/>
</g>
<g clip-path="url(#clip16_556_11400)">
<rect x="891.569" y="1410.47" width="145.512" height="146.512" rx="10" transform="rotate(15 891.569 1410.47)" fill="#D4D4D4"/>
<path d="M945.273 1519.82L952.963 1531.32L949.796 1533L942.142 1521.6L945.273 1519.82ZM961.457 1501.8L960.195 1506.51C959.37 1509.58 958.221 1512.26 956.747 1514.54C955.279 1516.8 953.563 1518.62 951.599 1519.99C949.636 1521.36 947.471 1522.24 945.104 1522.62C942.758 1523 940.287 1522.85 937.691 1522.15C935.135 1521.47 932.928 1520.37 931.068 1518.86C929.229 1517.35 927.782 1515.51 926.727 1513.33C925.692 1511.15 925.094 1508.71 924.932 1506.02C924.796 1503.31 925.14 1500.41 925.965 1497.33L927.227 1492.62C928.052 1489.55 929.198 1486.88 930.666 1484.62C932.16 1482.34 933.899 1480.52 935.883 1479.16C937.866 1477.79 940.031 1476.91 942.378 1476.53C944.724 1476.14 947.175 1476.29 949.731 1476.98C952.326 1477.67 954.544 1478.77 956.384 1480.28C958.243 1481.79 959.69 1483.64 960.725 1485.81C961.76 1487.99 962.345 1490.43 962.482 1493.14C962.623 1495.83 962.282 1498.72 961.457 1501.8ZM956.512 1505.52L957.79 1500.75C958.486 1498.15 958.809 1495.74 958.761 1493.5C958.713 1491.27 958.302 1489.26 957.528 1487.48C956.775 1485.7 955.668 1484.2 954.208 1482.97C952.768 1481.74 950.982 1480.84 948.849 1480.27C946.776 1479.71 944.81 1479.61 942.949 1479.95C941.089 1480.29 939.378 1481.04 937.817 1482.2C936.257 1483.35 934.887 1484.88 933.707 1486.79C932.548 1488.7 931.621 1490.95 930.925 1493.55L929.648 1498.32C928.947 1500.94 928.628 1503.37 928.691 1505.63C928.759 1507.87 929.177 1509.89 929.946 1511.7C930.719 1513.48 931.826 1514.98 933.266 1516.21C934.726 1517.44 936.492 1518.34 938.565 1518.89C940.698 1519.46 942.694 1519.58 944.555 1519.23C946.435 1518.9 948.146 1518.15 949.687 1516.99C951.233 1515.8 952.575 1514.26 953.714 1512.34C954.879 1510.41 955.811 1508.13 956.512 1505.52Z" fill="black"/>
</g>
<g clip-path="url(#clip17_556_11400)">
<rect x="935.576" y="1250.1" width="145.512" height="146.512" rx="10" transform="rotate(15 935.576 1250.1)" fill="#D4D4D4"/>
<path d="M989.28 1359.44L996.97 1370.95L993.804 1372.62L986.15 1361.22L989.28 1359.44ZM1005.46 1341.42L1004.2 1346.13C1003.38 1349.21 1002.23 1351.89 1000.75 1354.17C999.286 1356.43 997.57 1358.24 995.607 1359.62C993.643 1360.99 991.478 1361.86 989.112 1362.24C986.765 1362.63 984.294 1362.47 981.698 1361.78C979.143 1361.09 976.935 1359.99 975.076 1358.48C973.236 1356.98 971.789 1355.13 970.734 1352.95C969.699 1350.78 969.101 1348.34 968.939 1345.64C968.803 1342.93 969.147 1340.04 969.972 1336.96L971.234 1332.25C972.059 1329.17 973.206 1326.5 974.674 1324.24C976.167 1321.97 977.906 1320.15 979.89 1318.78C981.874 1317.42 984.039 1316.54 986.385 1316.15C988.731 1315.77 991.182 1315.92 993.738 1316.6C996.334 1317.3 998.551 1318.4 1000.39 1319.91C1002.25 1321.42 1003.7 1323.26 1004.73 1325.44C1005.77 1327.61 1006.35 1330.06 1006.49 1332.77C1006.63 1335.46 1006.29 1338.34 1005.46 1341.42ZM1000.52 1345.14L1001.8 1340.38C1002.49 1337.78 1002.82 1335.36 1002.77 1333.13C1002.72 1330.89 1002.31 1328.89 1001.54 1327.11C1000.78 1325.33 999.676 1323.82 998.216 1322.59C996.776 1321.37 994.989 1320.47 992.856 1319.89C990.784 1319.34 988.817 1319.23 986.957 1319.58C985.096 1319.92 983.386 1320.67 981.825 1321.82C980.264 1322.98 978.894 1324.51 977.715 1326.42C976.556 1328.33 975.628 1330.58 974.933 1333.18L973.655 1337.95C972.954 1340.56 972.635 1343 972.698 1345.26C972.766 1347.5 973.185 1349.52 973.953 1351.32C974.726 1353.1 975.833 1354.61 977.273 1355.84C978.733 1357.07 980.499 1357.96 982.572 1358.52C984.705 1359.09 986.702 1359.2 988.562 1358.86C990.443 1358.52 992.153 1357.77 993.694 1356.61C995.24 1355.43 996.583 1353.88 997.722 1351.96C998.886 1350.03 999.819 1347.76 1000.52 1345.14Z" fill="black"/>
</g>
<g clip-path="url(#clip18_556_11400)">
<rect x="978.618" y="1089.47" width="145.512" height="146.512" rx="10" transform="rotate(15 978.618 1089.47)" fill="#D4D4D4"/>
<path d="M1032.32 1198.81L1040.01 1210.32L1036.85 1211.99L1029.19 1200.59L1032.32 1198.81ZM1048.51 1180.79L1047.24 1185.5C1046.42 1188.58 1045.27 1191.26 1043.8 1193.54C1042.33 1195.8 1040.61 1197.61 1038.65 1198.98C1036.68 1200.36 1034.52 1201.23 1032.15 1201.61C1029.81 1202 1027.34 1201.84 1024.74 1201.14C1022.18 1200.46 1019.98 1199.36 1018.12 1197.85C1016.28 1196.34 1014.83 1194.5 1013.78 1192.32C1012.74 1190.14 1012.14 1187.71 1011.98 1185.01C1011.84 1182.3 1012.19 1179.41 1013.01 1176.33L1014.28 1171.62C1015.1 1168.54 1016.25 1165.87 1017.72 1163.61C1019.21 1161.34 1020.95 1159.52 1022.93 1158.15C1024.92 1156.78 1027.08 1155.91 1029.43 1155.52C1031.77 1155.14 1034.22 1155.29 1036.78 1155.97C1039.38 1156.67 1041.59 1157.77 1043.43 1159.27C1045.29 1160.79 1046.74 1162.63 1047.77 1164.81C1048.81 1166.98 1049.39 1169.42 1049.53 1172.13C1049.67 1174.83 1049.33 1177.71 1048.51 1180.79ZM1043.56 1184.51L1044.84 1179.74C1045.53 1177.15 1045.86 1174.73 1045.81 1172.5C1045.76 1170.26 1045.35 1168.25 1044.58 1166.47C1043.82 1164.7 1042.72 1163.19 1041.26 1161.96C1039.82 1160.73 1038.03 1159.83 1035.9 1159.26C1033.83 1158.71 1031.86 1158.6 1030 1158.94C1028.14 1159.29 1026.43 1160.03 1024.87 1161.19C1023.31 1162.35 1021.94 1163.88 1020.76 1165.78C1019.6 1167.69 1018.67 1169.95 1017.97 1172.54L1016.7 1177.31C1016 1179.93 1015.68 1182.37 1015.74 1184.63C1015.81 1186.87 1016.23 1188.89 1016.99 1190.69C1017.77 1192.47 1018.87 1193.98 1020.31 1195.2C1021.77 1196.44 1023.54 1197.33 1025.61 1197.88C1027.75 1198.46 1029.74 1198.57 1031.6 1198.23C1033.48 1197.89 1035.19 1197.14 1036.74 1195.98C1038.28 1194.8 1039.62 1193.25 1040.76 1191.33C1041.93 1189.4 1042.86 1187.13 1043.56 1184.51Z" fill="black"/>
</g>
<g clip-path="url(#clip19_556_11400)">
<rect width="145.512" height="146.512" rx="10" transform="matrix(-0.965926 0.258819 0.258819 0.965926 2333.69 1199.83)" fill="#D4D4D4"/>
<path d="M2279.98 1309.17L2272.29 1320.68L2275.46 1322.35L2283.11 1310.95L2279.98 1309.17ZM2263.8 1291.15L2265.06 1295.86C2265.89 1298.94 2267.04 1301.62 2268.51 1303.9C2269.98 1306.16 2271.69 1307.98 2273.66 1309.35C2275.62 1310.72 2277.79 1311.59 2280.15 1311.97C2282.5 1312.36 2284.97 1312.2 2287.57 1311.51C2290.12 1310.82 2292.33 1309.73 2294.19 1308.21C2296.03 1306.71 2297.48 1304.86 2298.53 1302.68C2299.56 1300.51 2300.16 1298.07 2300.32 1295.38C2300.46 1292.66 2300.12 1289.77 2299.29 1286.69L2298.03 1281.98C2297.21 1278.9 2296.06 1276.23 2294.59 1273.97C2293.1 1271.7 2291.36 1269.88 2289.37 1268.51C2287.39 1267.15 2285.23 1266.27 2282.88 1265.89C2280.53 1265.5 2278.08 1265.65 2275.53 1266.34C2272.93 1267.03 2270.71 1268.13 2268.87 1269.64C2267.01 1271.15 2265.57 1272.99 2264.53 1275.17C2263.5 1277.34 2262.91 1279.79 2262.78 1282.5C2262.63 1285.19 2262.98 1288.07 2263.8 1291.15ZM2268.74 1294.88L2267.47 1290.11C2266.77 1287.51 2266.45 1285.1 2266.5 1282.86C2266.54 1280.63 2266.95 1278.62 2267.73 1276.84C2268.48 1275.06 2269.59 1273.56 2271.05 1272.32C2272.49 1271.1 2274.27 1270.2 2276.41 1269.63C2278.48 1269.07 2280.45 1268.96 2282.31 1269.31C2284.17 1269.65 2285.88 1270.4 2287.44 1271.55C2289 1272.71 2290.37 1274.24 2291.55 1276.15C2292.71 1278.06 2293.64 1280.31 2294.33 1282.91L2295.61 1287.68C2296.31 1290.29 2296.63 1292.73 2296.57 1294.99C2296.5 1297.23 2296.08 1299.25 2295.31 1301.05C2294.54 1302.84 2293.43 1304.34 2291.99 1305.57C2290.53 1306.8 2288.76 1307.69 2286.69 1308.25C2284.56 1308.82 2282.56 1308.93 2280.7 1308.59C2278.82 1308.25 2277.11 1307.51 2275.57 1306.34C2274.02 1305.16 2272.68 1303.61 2271.54 1301.7C2270.38 1299.77 2269.45 1297.49 2268.74 1294.88Z" fill="black"/>
</g>
<g clip-path="url(#clip20_556_11400)">
<rect width="145.512" height="146.512" rx="10" transform="matrix(-0.965926 0.258819 0.258819 0.965926 2289.76 1039.74)" fill="#D4D4D4"/>
<path d="M2236.05 1149.09L2228.36 1160.6L2231.53 1162.27L2239.18 1150.87L2236.05 1149.09ZM2219.87 1131.07L2221.13 1135.78C2221.96 1138.86 2223.11 1141.54 2224.58 1143.82C2226.05 1146.07 2227.76 1147.89 2229.73 1149.26C2231.69 1150.63 2233.86 1151.51 2236.22 1151.89C2238.57 1152.27 2241.04 1152.12 2243.64 1151.42C2246.19 1150.74 2248.4 1149.64 2250.26 1148.13C2252.1 1146.62 2253.55 1144.78 2254.6 1142.6C2255.64 1140.42 2256.23 1137.99 2256.4 1135.29C2256.53 1132.58 2256.19 1129.68 2255.36 1126.61L2254.1 1121.9C2253.28 1118.82 2252.13 1116.15 2250.66 1113.89C2249.17 1111.61 2247.43 1109.79 2245.44 1108.43C2243.46 1107.06 2241.3 1106.19 2238.95 1105.8C2236.6 1105.42 2234.15 1105.57 2231.6 1106.25C2229 1106.95 2226.78 1108.05 2224.94 1109.55C2223.08 1111.07 2221.64 1112.91 2220.6 1115.08C2219.57 1117.26 2218.98 1119.7 2218.85 1122.41C2218.7 1125.1 2219.05 1127.99 2219.87 1131.07ZM2224.81 1134.79L2223.54 1130.02C2222.84 1127.43 2222.52 1125.01 2222.57 1122.78C2222.61 1120.54 2223.03 1118.53 2223.8 1116.75C2224.55 1114.98 2225.66 1113.47 2227.12 1112.24C2228.56 1111.01 2230.35 1110.11 2232.48 1109.54C2234.55 1108.99 2236.52 1108.88 2238.38 1109.22C2240.24 1109.56 2241.95 1110.31 2243.51 1111.47C2245.07 1112.63 2246.44 1114.16 2247.62 1116.06C2248.78 1117.97 2249.71 1120.23 2250.4 1122.82L2251.68 1127.59C2252.38 1130.21 2252.7 1132.65 2252.64 1134.91C2252.57 1137.15 2252.15 1139.17 2251.38 1140.97C2250.61 1142.75 2249.5 1144.26 2248.06 1145.48C2246.6 1146.71 2244.84 1147.61 2242.76 1148.16C2240.63 1148.74 2238.63 1148.85 2236.77 1148.51C2234.89 1148.17 2233.18 1147.42 2231.64 1146.26C2230.09 1145.08 2228.75 1143.53 2227.61 1141.61C2226.45 1139.68 2225.52 1137.41 2224.81 1134.79Z" fill="black"/>
</g>
<g clip-path="url(#clip21_556_11400)">
<rect width="145.512" height="146.512" rx="10" transform="matrix(-0.965926 0.258819 0.258819 0.965926 2246.28 877.469)" fill="#D4D4D4"/>
<path d="M2192.57 986.812L2184.88 998.32L2188.05 999.995L2195.7 988.594L2192.57 986.812ZM2176.39 968.793L2177.65 973.502C2178.48 976.581 2179.62 979.26 2181.1 981.54C2182.57 983.799 2184.28 985.615 2186.25 986.987C2188.21 988.359 2190.37 989.235 2192.74 989.614C2195.09 989.999 2197.56 989.844 2200.15 989.148C2202.71 988.464 2204.92 987.365 2206.78 985.853C2208.62 984.347 2210.06 982.503 2211.12 980.322C2212.15 978.147 2212.75 975.711 2212.91 973.015C2213.05 970.304 2212.71 967.409 2211.88 964.33L2210.62 959.621C2209.79 956.542 2208.65 953.873 2207.18 951.614C2205.69 949.34 2203.95 947.519 2201.96 946.153C2199.98 944.786 2197.81 943.911 2195.47 943.525C2193.12 943.14 2190.67 943.29 2188.11 943.975C2185.52 944.671 2183.3 945.772 2181.46 947.278C2179.6 948.79 2178.15 950.634 2177.12 952.809C2176.09 954.984 2175.5 957.428 2175.36 960.139C2175.22 962.829 2175.56 965.714 2176.39 968.793ZM2181.33 972.515L2180.05 967.746C2179.36 965.15 2179.04 962.735 2179.08 960.501C2179.13 958.266 2179.54 956.258 2180.32 954.476C2181.07 952.7 2182.18 951.195 2183.64 949.963C2185.08 948.736 2186.86 947.837 2189 947.265C2191.07 946.71 2193.04 946.604 2194.9 946.946C2196.76 947.289 2198.47 948.038 2200.03 949.195C2201.59 950.351 2202.96 951.882 2204.14 953.787C2205.3 955.698 2206.22 957.952 2206.92 960.548L2208.2 965.317C2208.9 967.933 2209.22 970.371 2209.15 972.631C2209.09 974.871 2208.67 976.892 2207.9 978.694C2207.13 980.475 2206.02 981.98 2204.58 983.207C2203.12 984.439 2201.35 985.333 2199.28 985.888C2197.15 986.46 2195.15 986.574 2193.29 986.232C2191.41 985.894 2189.7 985.145 2188.16 983.983C2186.61 982.801 2185.27 981.252 2184.13 979.336C2182.97 977.405 2182.03 975.131 2181.33 972.515Z" fill="black"/>
</g>
<g clip-path="url(#clip22_556_11400)">
<rect width="145.512" height="146.512" rx="10" transform="matrix(-0.965926 0.258819 0.258819 0.965926 2161.31 1248.09)" fill="#D4D4D4"/>
<path d="M2107.6 1357.43L2099.91 1368.94L2103.08 1370.62L2110.73 1359.21L2107.6 1357.43ZM2091.42 1339.41L2092.68 1344.12C2093.5 1347.2 2094.65 1349.88 2096.13 1352.16C2097.6 1354.42 2099.31 1356.24 2101.27 1357.61C2103.24 1358.98 2105.4 1359.86 2107.77 1360.23C2110.12 1360.62 2112.59 1360.46 2115.18 1359.77C2117.74 1359.08 2119.95 1357.99 2121.81 1356.47C2123.65 1354.97 2125.09 1353.12 2126.15 1350.94C2127.18 1348.77 2127.78 1346.33 2127.94 1343.64C2128.08 1340.92 2127.73 1338.03 2126.91 1334.95L2125.65 1330.24C2124.82 1327.16 2123.68 1324.49 2122.21 1322.23C2120.71 1319.96 2118.98 1318.14 2116.99 1316.77C2115.01 1315.41 2112.84 1314.53 2110.5 1314.15C2108.15 1313.76 2105.7 1313.91 2103.14 1314.6C2100.55 1315.29 2098.33 1316.39 2096.49 1317.9C2094.63 1319.41 2093.18 1321.25 2092.15 1323.43C2091.11 1325.61 2090.53 1328.05 2090.39 1330.76C2090.25 1333.45 2090.59 1336.33 2091.42 1339.41ZM2096.36 1343.14L2095.08 1338.37C2094.39 1335.77 2094.06 1333.36 2094.11 1331.12C2094.16 1328.89 2094.57 1326.88 2095.35 1325.1C2096.1 1323.32 2097.21 1321.82 2098.67 1320.58C2100.11 1319.36 2101.89 1318.46 2104.03 1317.89C2106.1 1317.33 2108.06 1317.22 2109.92 1317.57C2111.79 1317.91 2113.5 1318.66 2115.06 1319.82C2116.62 1320.97 2117.99 1322.5 2119.17 1324.41C2120.33 1326.32 2121.25 1328.57 2121.95 1331.17L2123.23 1335.94C2123.93 1338.55 2124.25 1340.99 2124.18 1343.25C2124.11 1345.49 2123.7 1347.51 2122.93 1349.31C2122.15 1351.1 2121.05 1352.6 2119.61 1353.83C2118.15 1355.06 2116.38 1355.95 2114.31 1356.51C2112.18 1357.08 2110.18 1357.19 2108.32 1356.85C2106.44 1356.52 2104.73 1355.77 2103.19 1354.6C2101.64 1353.42 2100.3 1351.87 2099.16 1349.96C2098 1348.03 2097.06 1345.75 2096.36 1343.14Z" fill="black"/>
</g>
<g clip-path="url(#clip23_556_11400)">
<rect width="145.512" height="146.512" rx="10" transform="matrix(-0.965926 0.258819 0.258819 0.965926 2117.56 1084.85)" fill="#D4D4D4"/>
<path d="M2063.86 1194.19L2056.17 1205.7L2059.34 1207.37L2066.99 1195.97L2063.86 1194.19ZM2047.68 1176.17L2048.94 1180.88C2049.76 1183.96 2050.91 1186.64 2052.39 1188.92C2053.85 1191.18 2055.57 1192.99 2057.53 1194.37C2059.5 1195.74 2061.66 1196.61 2064.03 1196.99C2066.38 1197.38 2068.85 1197.22 2071.44 1196.53C2074 1195.84 2076.21 1194.74 2078.07 1193.23C2079.9 1191.73 2081.35 1189.88 2082.41 1187.7C2083.44 1185.53 2084.04 1183.09 2084.2 1180.39C2084.34 1177.68 2083.99 1174.79 2083.17 1171.71L2081.91 1167C2081.08 1163.92 2079.94 1161.25 2078.47 1158.99C2076.97 1156.72 2075.23 1154.9 2073.25 1153.53C2071.27 1152.17 2069.1 1151.29 2066.76 1150.9C2064.41 1150.52 2061.96 1150.67 2059.4 1151.35C2056.81 1152.05 2054.59 1153.15 2052.75 1154.66C2050.89 1156.17 2049.44 1158.01 2048.41 1160.19C2047.37 1162.36 2046.79 1164.81 2046.65 1167.52C2046.51 1170.21 2046.85 1173.09 2047.68 1176.17ZM2052.62 1179.89L2051.34 1175.13C2050.65 1172.53 2050.32 1170.11 2050.37 1167.88C2050.42 1165.65 2050.83 1163.64 2051.6 1161.86C2052.36 1160.08 2053.47 1158.57 2054.92 1157.34C2056.36 1156.12 2058.15 1155.22 2060.28 1154.64C2062.36 1154.09 2064.32 1153.98 2066.18 1154.33C2068.04 1154.67 2069.76 1155.42 2071.32 1156.57C2072.88 1157.73 2074.25 1159.26 2075.43 1161.17C2076.58 1163.08 2077.51 1165.33 2078.21 1167.93L2079.49 1172.7C2080.19 1175.31 2080.51 1177.75 2080.44 1180.01C2080.37 1182.25 2079.96 1184.27 2079.19 1186.07C2078.41 1187.85 2077.31 1189.36 2075.87 1190.59C2074.41 1191.82 2072.64 1192.71 2070.57 1193.27C2068.44 1193.84 2066.44 1193.95 2064.58 1193.61C2062.7 1193.27 2060.99 1192.52 2059.45 1191.36C2057.9 1190.18 2056.56 1188.63 2055.42 1186.72C2054.25 1184.78 2053.32 1182.51 2052.62 1179.89Z" fill="black"/>
</g>
<g clip-path="url(#clip24_556_11400)">
<rect width="145.512" height="146.512" rx="10" transform="matrix(-0.965926 0.258819 0.258819 0.965926 2074.34 923.539)" fill="#D4D4D4"/>
<path d="M2020.64 1032.88L2012.95 1044.39L2016.11 1046.06L2023.77 1034.66L2020.64 1032.88ZM2004.45 1014.86L2005.72 1019.57C2006.54 1022.65 2007.69 1025.33 2009.16 1027.61C2010.63 1029.87 2012.35 1031.68 2014.31 1033.06C2016.27 1034.43 2018.44 1035.3 2020.81 1035.68C2023.15 1036.07 2025.62 1035.91 2028.22 1035.22C2030.78 1034.53 2032.98 1033.43 2034.84 1031.92C2036.68 1030.42 2038.13 1028.57 2039.18 1026.39C2040.22 1024.22 2040.82 1021.78 2040.98 1019.08C2041.12 1016.37 2040.77 1013.48 2039.95 1010.4L2038.68 1005.69C2037.86 1002.61 2036.71 999.943 2035.24 997.684C2033.75 995.409 2032.01 993.589 2030.03 992.223C2028.04 990.856 2025.88 989.98 2023.53 989.595C2021.19 989.21 2018.74 989.36 2016.18 990.045C2013.58 990.741 2011.37 991.842 2009.53 993.348C2007.67 994.86 2006.22 996.704 2005.19 998.879C2004.15 1001.05 2003.57 1003.5 2003.43 1006.21C2003.29 1008.9 2003.63 1011.78 2004.45 1014.86ZM2009.4 1018.59L2008.12 1013.82C2007.42 1011.22 2007.1 1008.8 2007.15 1006.57C2007.2 1004.34 2007.61 1002.33 2008.38 1000.55C2009.14 998.77 2010.24 997.265 2011.7 996.033C2013.14 994.806 2014.93 993.907 2017.06 993.335C2019.13 992.78 2021.1 992.673 2022.96 993.016C2024.82 993.359 2026.53 994.108 2028.09 995.264C2029.65 996.421 2031.02 997.952 2032.2 999.857C2033.36 1001.77 2034.29 1004.02 2034.99 1006.62L2036.26 1011.39C2036.96 1014 2037.28 1016.44 2037.22 1018.7C2037.15 1020.94 2036.73 1022.96 2035.97 1024.76C2035.19 1026.55 2034.08 1028.05 2032.65 1029.28C2031.19 1030.51 2029.42 1031.4 2027.35 1031.96C2025.21 1032.53 2023.22 1032.64 2021.36 1032.3C2019.48 1031.96 2017.76 1031.21 2016.22 1030.05C2014.68 1028.87 2013.34 1027.32 2012.2 1025.41C2011.03 1023.47 2010.1 1021.2 2009.4 1018.59Z" fill="black"/>
</g>
<g clip-path="url(#clip25_556_11400)">
<rect width="145.512" height="146.512" rx="10" transform="matrix(-0.965926 0.258819 0.258819 0.965926 1978.76 1254.56)" fill="#D4D4D4"/>
<path d="M1925.05 1363.9L1917.36 1375.41L1920.53 1377.08L1928.19 1365.68L1925.05 1363.9ZM1908.87 1345.88L1910.13 1350.59C1910.96 1353.67 1912.11 1356.35 1913.58 1358.63C1915.05 1360.89 1916.76 1362.7 1918.73 1364.07C1920.69 1365.45 1922.86 1366.32 1925.22 1366.7C1927.57 1367.09 1930.04 1366.93 1932.64 1366.24C1935.19 1365.55 1937.4 1364.45 1939.26 1362.94C1941.1 1361.43 1942.55 1359.59 1943.6 1357.41C1944.64 1355.23 1945.23 1352.8 1945.4 1350.1C1945.53 1347.39 1945.19 1344.5 1944.36 1341.42L1943.1 1336.71C1942.28 1333.63 1941.13 1330.96 1939.66 1328.7C1938.17 1326.43 1936.43 1324.61 1934.45 1323.24C1932.46 1321.87 1930.3 1321 1927.95 1320.61C1925.6 1320.23 1923.15 1320.38 1920.6 1321.06C1918 1321.76 1915.78 1322.86 1913.94 1324.37C1912.08 1325.88 1910.64 1327.72 1909.6 1329.9C1908.57 1332.07 1907.98 1334.52 1907.85 1337.23C1907.7 1339.92 1908.05 1342.8 1908.87 1345.88ZM1913.82 1349.6L1912.54 1344.83C1911.84 1342.24 1911.52 1339.82 1911.57 1337.59C1911.61 1335.35 1912.03 1333.35 1912.8 1331.56C1913.55 1329.79 1914.66 1328.28 1916.12 1327.05C1917.56 1325.82 1919.35 1324.92 1921.48 1324.35C1923.55 1323.8 1925.52 1323.69 1927.38 1324.03C1929.24 1324.38 1930.95 1325.13 1932.51 1326.28C1934.07 1327.44 1935.44 1328.97 1936.62 1330.87C1937.78 1332.79 1938.71 1335.04 1939.4 1337.64L1940.68 1342.4C1941.38 1345.02 1941.7 1347.46 1941.64 1349.72C1941.57 1351.96 1941.15 1353.98 1940.38 1355.78C1939.61 1357.56 1938.5 1359.07 1937.06 1360.29C1935.6 1361.53 1933.84 1362.42 1931.76 1362.98C1929.63 1363.55 1927.63 1363.66 1925.77 1363.32C1923.89 1362.98 1922.18 1362.23 1920.64 1361.07C1919.09 1359.89 1917.75 1358.34 1916.61 1356.42C1915.45 1354.49 1914.52 1352.22 1913.82 1349.6Z" fill="black"/>
</g>
<g clip-path="url(#clip26_556_11400)">
<rect width="145.512" height="146.512" rx="10" transform="matrix(-0.965926 0.258819 0.258819 0.965926 1935.28 1092.28)" fill="#D4D4D4"/>
<path d="M1881.57 1201.62L1873.88 1213.13L1877.05 1214.81L1884.7 1203.41L1881.57 1201.62ZM1865.39 1183.61L1866.65 1188.31C1867.48 1191.39 1868.63 1194.07 1870.1 1196.35C1871.57 1198.61 1873.28 1200.43 1875.25 1201.8C1877.21 1203.17 1879.37 1204.05 1881.74 1204.43C1884.09 1204.81 1886.56 1204.66 1889.15 1203.96C1891.71 1203.28 1893.92 1202.18 1895.78 1200.67C1897.62 1199.16 1899.06 1197.32 1900.12 1195.13C1901.15 1192.96 1901.75 1190.52 1901.91 1187.83C1902.05 1185.12 1901.71 1182.22 1900.88 1179.14L1899.62 1174.43C1898.79 1171.35 1897.65 1168.69 1896.18 1166.43C1894.69 1164.15 1892.95 1162.33 1890.96 1160.96C1888.98 1159.6 1886.81 1158.72 1884.47 1158.34C1882.12 1157.95 1879.67 1158.1 1877.12 1158.79C1874.52 1159.48 1872.3 1160.58 1870.46 1162.09C1868.6 1163.6 1867.16 1165.45 1866.12 1167.62C1865.09 1169.8 1864.5 1172.24 1864.36 1174.95C1864.22 1177.64 1864.56 1180.53 1865.39 1183.61ZM1870.33 1187.33L1869.06 1182.56C1868.36 1179.96 1868.04 1177.55 1868.08 1175.31C1868.13 1173.08 1868.54 1171.07 1869.32 1169.29C1870.07 1167.51 1871.18 1166.01 1872.64 1164.78C1874.08 1163.55 1875.86 1162.65 1878 1162.08C1880.07 1161.52 1882.04 1161.42 1883.9 1161.76C1885.76 1162.1 1887.47 1162.85 1889.03 1164.01C1890.59 1165.16 1891.96 1166.69 1893.14 1168.6C1894.3 1170.51 1895.22 1172.76 1895.92 1175.36L1897.2 1180.13C1897.9 1182.75 1898.22 1185.18 1898.16 1187.44C1898.09 1189.68 1897.67 1191.7 1896.9 1193.51C1896.13 1195.29 1895.02 1196.79 1893.58 1198.02C1892.12 1199.25 1890.35 1200.14 1888.28 1200.7C1886.15 1201.27 1884.15 1201.39 1882.29 1201.04C1880.41 1200.71 1878.7 1199.96 1877.16 1198.8C1875.61 1197.61 1874.27 1196.06 1873.13 1194.15C1871.97 1192.22 1871.03 1189.94 1870.33 1187.33Z" fill="black"/>
</g>
<g clip-path="url(#clip27_556_11400)">
<rect width="145.512" height="146.512" rx="10" transform="matrix(-0.965926 0.258819 0.258819 0.965926 1893.02 930.713)" fill="#D4D4D4"/>
<path d="M1839.32 1040.06L1831.63 1051.56L1834.79 1053.24L1842.45 1041.84L1839.32 1040.06ZM1823.13 1022.04L1824.39 1026.75C1825.22 1029.82 1826.37 1032.5 1827.84 1034.78C1829.31 1037.04 1831.03 1038.86 1832.99 1040.23C1834.95 1041.6 1837.12 1042.48 1839.48 1042.86C1841.83 1043.24 1844.3 1043.09 1846.9 1042.39C1849.45 1041.71 1851.66 1040.61 1853.52 1039.1C1855.36 1037.59 1856.81 1035.75 1857.86 1033.57C1858.9 1031.39 1859.5 1028.95 1859.66 1026.26C1859.79 1023.55 1859.45 1020.65 1858.62 1017.57L1857.36 1012.86C1856.54 1009.79 1855.39 1007.12 1853.92 1004.86C1852.43 1002.58 1850.69 1000.76 1848.71 999.396C1846.72 998.03 1844.56 997.154 1842.21 996.769C1839.86 996.384 1837.41 996.534 1834.86 997.219C1832.26 997.914 1830.04 999.015 1828.21 1000.52C1826.35 1002.03 1824.9 1003.88 1823.86 1006.05C1822.83 1008.23 1822.24 1010.67 1822.11 1013.38C1821.97 1016.07 1822.31 1018.96 1823.13 1022.04ZM1828.08 1025.76L1826.8 1020.99C1826.1 1018.39 1825.78 1015.98 1825.83 1013.74C1825.88 1011.51 1826.29 1009.5 1827.06 1007.72C1827.81 1005.94 1828.92 1004.44 1830.38 1003.21C1831.82 1001.98 1833.61 1001.08 1835.74 1000.51C1837.81 999.954 1839.78 999.847 1841.64 1000.19C1843.5 1000.53 1845.21 1001.28 1846.77 1002.44C1848.33 1003.59 1849.7 1005.13 1850.88 1007.03C1852.04 1008.94 1852.97 1011.2 1853.66 1013.79L1854.94 1018.56C1855.64 1021.18 1855.96 1023.61 1855.9 1025.87C1855.83 1028.11 1855.41 1030.14 1854.64 1031.94C1853.87 1033.72 1852.76 1035.22 1851.32 1036.45C1849.86 1037.68 1848.1 1038.58 1846.02 1039.13C1843.89 1039.7 1841.89 1039.82 1840.03 1039.48C1838.15 1039.14 1836.44 1038.39 1834.9 1037.23C1833.36 1036.05 1832.01 1034.5 1830.87 1032.58C1829.71 1030.65 1828.78 1028.38 1828.08 1025.76Z" fill="black"/>
</g>
<g clip-path="url(#clip28_556_11400)">
<rect width="145.512" height="146.512" rx="10" transform="matrix(-0.965926 0.258819 0.258819 0.965926 1800.25 1276.09)" fill="#D4D4D4"/>
<path d="M1746.55 1385.43L1738.86 1396.94L1742.02 1398.62L1749.68 1387.22L1746.55 1385.43ZM1730.36 1367.41L1731.62 1372.12C1732.45 1375.2 1733.6 1377.88 1735.07 1380.16C1736.54 1382.42 1738.26 1384.24 1740.22 1385.61C1742.18 1386.98 1744.35 1387.86 1746.71 1388.24C1749.06 1388.62 1751.53 1388.47 1754.13 1387.77C1756.68 1387.09 1758.89 1385.99 1760.75 1384.47C1762.59 1382.97 1764.04 1381.12 1765.09 1378.94C1766.13 1376.77 1766.72 1374.33 1766.89 1371.64C1767.02 1368.93 1766.68 1366.03 1765.85 1362.95L1764.59 1358.24C1763.77 1355.16 1762.62 1352.49 1761.15 1350.24C1759.66 1347.96 1757.92 1346.14 1755.94 1344.77C1753.95 1343.41 1751.79 1342.53 1749.44 1342.15C1747.09 1341.76 1744.64 1341.91 1742.09 1342.6C1739.49 1343.29 1737.27 1344.39 1735.43 1345.9C1733.58 1347.41 1732.13 1349.26 1731.09 1351.43C1730.06 1353.61 1729.47 1356.05 1729.34 1358.76C1729.2 1361.45 1729.54 1364.34 1730.36 1367.41ZM1735.31 1371.14L1734.03 1366.37C1733.33 1363.77 1733.01 1361.36 1733.06 1359.12C1733.11 1356.89 1733.52 1354.88 1734.29 1353.1C1735.04 1351.32 1736.15 1349.82 1737.61 1348.58C1739.05 1347.36 1740.84 1346.46 1742.97 1345.89C1745.04 1345.33 1747.01 1345.23 1748.87 1345.57C1750.73 1345.91 1752.44 1346.66 1754 1347.82C1755.56 1348.97 1756.93 1350.5 1758.11 1352.41C1759.27 1354.32 1760.2 1356.57 1760.89 1359.17L1762.17 1363.94C1762.87 1366.55 1763.19 1368.99 1763.13 1371.25C1763.06 1373.49 1762.64 1375.51 1761.87 1377.32C1761.1 1379.1 1759.99 1380.6 1758.55 1381.83C1757.09 1383.06 1755.33 1383.95 1753.25 1384.51C1751.12 1385.08 1749.12 1385.2 1747.26 1384.85C1745.38 1384.52 1743.67 1383.77 1742.13 1382.6C1740.59 1381.42 1739.24 1379.87 1738.1 1377.96C1736.94 1376.03 1736.01 1373.75 1735.31 1371.14Z" fill="black"/>
</g>
<g clip-path="url(#clip29_556_11400)">
<rect width="145.512" height="146.512" rx="10" transform="matrix(-0.965926 0.258819 0.258819 0.965926 1757.21 1115.46)" fill="#D4D4D4"/>
<path d="M1703.5 1224.8L1695.81 1236.31L1698.98 1237.98L1706.63 1226.58L1703.5 1224.8ZM1687.32 1206.78L1688.58 1211.49C1689.41 1214.57 1690.56 1217.25 1692.03 1219.53C1693.5 1221.79 1695.21 1223.6 1697.18 1224.98C1699.14 1226.35 1701.31 1227.22 1703.67 1227.6C1706.02 1227.99 1708.49 1227.83 1711.09 1227.14C1713.64 1226.45 1715.85 1225.35 1717.71 1223.84C1719.55 1222.34 1721 1220.49 1722.05 1218.31C1723.08 1216.14 1723.68 1213.7 1723.84 1211C1723.98 1208.29 1723.64 1205.4 1722.81 1202.32L1721.55 1197.61C1720.73 1194.53 1719.58 1191.86 1718.11 1189.6C1716.62 1187.33 1714.88 1185.51 1712.89 1184.14C1710.91 1182.77 1708.75 1181.9 1706.4 1181.51C1704.05 1181.13 1701.6 1181.28 1699.05 1181.96C1696.45 1182.66 1694.23 1183.76 1692.39 1185.27C1690.53 1186.78 1689.09 1188.62 1688.05 1190.8C1687.02 1192.97 1686.43 1195.42 1686.3 1198.13C1686.15 1200.82 1686.5 1203.7 1687.32 1206.78ZM1692.26 1210.5L1690.99 1205.73C1690.29 1203.14 1689.97 1200.72 1690.02 1198.49C1690.06 1196.25 1690.47 1194.25 1691.25 1192.46C1692 1190.69 1693.11 1189.18 1694.57 1187.95C1696.01 1186.72 1697.79 1185.83 1699.93 1185.25C1702 1184.7 1703.97 1184.59 1705.83 1184.93C1707.69 1185.28 1709.4 1186.03 1710.96 1187.18C1712.52 1188.34 1713.89 1189.87 1715.07 1191.78C1716.23 1193.69 1717.16 1195.94 1717.85 1198.54L1719.13 1203.31C1719.83 1205.92 1720.15 1208.36 1720.09 1210.62C1720.02 1212.86 1719.6 1214.88 1718.83 1216.68C1718.06 1218.46 1716.95 1219.97 1715.51 1221.2C1714.05 1222.43 1712.28 1223.32 1710.21 1223.88C1708.08 1224.45 1706.08 1224.56 1704.22 1224.22C1702.34 1223.88 1700.63 1223.13 1699.09 1221.97C1697.54 1220.79 1696.2 1219.24 1695.06 1217.32C1693.9 1215.39 1692.97 1213.12 1692.26 1210.5Z" fill="black"/>
</g>
<g clip-path="url(#clip30_556_11400)">
<rect width="145.512" height="146.512" rx="10" transform="matrix(-0.965926 0.258819 0.258819 0.965926 1714.17 954.825)" fill="#D4D4D4"/>
<path d="M1660.46 1064.17L1652.77 1075.68L1655.94 1077.35L1663.59 1065.95L1660.46 1064.17ZM1644.28 1046.15L1645.54 1050.86C1646.37 1053.94 1647.51 1056.62 1648.99 1058.9C1650.46 1061.16 1652.17 1062.97 1654.14 1064.34C1656.1 1065.71 1658.26 1066.59 1660.63 1066.97C1662.98 1067.36 1665.45 1067.2 1668.04 1066.5C1670.6 1065.82 1672.81 1064.72 1674.67 1063.21C1676.51 1061.7 1677.95 1059.86 1679.01 1057.68C1680.04 1055.5 1680.64 1053.07 1680.8 1050.37C1680.94 1047.66 1680.6 1044.77 1679.77 1041.69L1678.51 1036.98C1677.68 1033.9 1676.54 1031.23 1675.07 1028.97C1673.58 1026.7 1671.84 1024.88 1669.85 1023.51C1667.87 1022.14 1665.7 1021.27 1663.36 1020.88C1661.01 1020.5 1658.56 1020.65 1656 1021.33C1653.41 1022.03 1651.19 1023.13 1649.35 1024.63C1647.49 1026.15 1646.05 1027.99 1645.01 1030.17C1643.98 1032.34 1643.39 1034.78 1643.25 1037.49C1643.11 1040.19 1643.45 1043.07 1644.28 1046.15ZM1649.22 1049.87L1647.95 1045.1C1647.25 1042.51 1646.93 1040.09 1646.97 1037.86C1647.02 1035.62 1647.43 1033.61 1648.21 1031.83C1648.96 1030.06 1650.07 1028.55 1651.53 1027.32C1652.97 1026.09 1654.75 1025.19 1656.89 1024.62C1658.96 1024.07 1660.93 1023.96 1662.79 1024.3C1664.65 1024.64 1666.36 1025.39 1667.92 1026.55C1669.48 1027.71 1670.85 1029.24 1672.03 1031.14C1673.19 1033.05 1674.11 1035.31 1674.81 1037.9L1676.09 1042.67C1676.79 1045.29 1677.11 1047.73 1677.04 1049.99C1676.98 1052.23 1676.56 1054.25 1675.79 1056.05C1675.02 1057.83 1673.91 1059.34 1672.47 1060.56C1671.01 1061.8 1669.24 1062.69 1667.17 1063.24C1665.04 1063.82 1663.04 1063.93 1661.18 1063.59C1659.3 1063.25 1657.59 1062.5 1656.05 1061.34C1654.5 1060.16 1653.16 1058.61 1652.02 1056.69C1650.86 1054.76 1649.92 1052.49 1649.22 1049.87Z" fill="black"/>
</g>
<g clip-path="url(#clip31_556_11400)">
<rect width="145.512" height="146.512" rx="10" transform="matrix(-0.965926 0.258819 0.258819 0.965926 1634.27 1344.38)" fill="#D4D4D4"/>
<path d="M1580.56 1453.72L1572.87 1465.23L1576.04 1466.9L1583.69 1455.5L1580.56 1453.72ZM1564.38 1435.7L1565.64 1440.41C1566.47 1443.49 1567.62 1446.17 1569.09 1448.45C1570.56 1450.71 1572.27 1452.52 1574.24 1453.89C1576.2 1455.27 1578.37 1456.14 1580.73 1456.52C1583.08 1456.91 1585.55 1456.75 1588.15 1456.06C1590.7 1455.37 1592.91 1454.27 1594.77 1452.76C1596.61 1451.25 1598.05 1449.41 1599.11 1447.23C1600.14 1445.05 1600.74 1442.62 1600.9 1439.92C1601.04 1437.21 1600.7 1434.32 1599.87 1431.24L1598.61 1426.53C1597.78 1423.45 1596.64 1420.78 1595.17 1418.52C1593.68 1416.25 1591.94 1414.43 1589.95 1413.06C1587.97 1411.69 1585.81 1410.82 1583.46 1410.43C1581.11 1410.05 1578.66 1410.2 1576.11 1410.88C1573.51 1411.58 1571.29 1412.68 1569.45 1414.19C1567.59 1415.7 1566.15 1417.54 1565.11 1419.72C1564.08 1421.89 1563.49 1424.34 1563.35 1427.05C1563.21 1429.74 1563.55 1432.62 1564.38 1435.7ZM1569.32 1439.42L1568.05 1434.65C1567.35 1432.06 1567.03 1429.64 1567.08 1427.41C1567.12 1425.17 1567.53 1423.17 1568.31 1421.38C1569.06 1419.61 1570.17 1418.1 1571.63 1416.87C1573.07 1415.64 1574.85 1414.74 1576.99 1414.17C1579.06 1413.62 1581.03 1413.51 1582.89 1413.85C1584.75 1414.2 1586.46 1414.95 1588.02 1416.1C1589.58 1417.26 1590.95 1418.79 1592.13 1420.69C1593.29 1422.61 1594.22 1424.86 1594.91 1427.46L1596.19 1432.22C1596.89 1434.84 1597.21 1437.28 1597.15 1439.54C1597.08 1441.78 1596.66 1443.8 1595.89 1445.6C1595.12 1447.38 1594.01 1448.89 1592.57 1450.11C1591.11 1451.35 1589.34 1452.24 1587.27 1452.8C1585.14 1453.37 1583.14 1453.48 1581.28 1453.14C1579.4 1452.8 1577.69 1452.05 1576.15 1450.89C1574.6 1449.71 1573.26 1448.16 1572.12 1446.24C1570.96 1444.31 1570.03 1442.04 1569.32 1439.42Z" fill="black"/>
</g>
<g clip-path="url(#clip32_556_11400)">
<rect width="145.512" height="146.512" rx="10" transform="matrix(-0.965926 0.258819 0.258819 0.965926 1591.23 1183.74)" fill="#D4D4D4"/>
<path d="M1537.52 1293.09L1529.83 1304.59L1533 1306.27L1540.65 1294.87L1537.52 1293.09ZM1521.34 1275.07L1522.6 1279.78C1523.42 1282.86 1524.57 1285.54 1526.05 1287.81C1527.52 1290.07 1529.23 1291.89 1531.2 1293.26C1533.16 1294.63 1535.32 1295.51 1537.69 1295.89C1540.04 1296.27 1542.51 1296.12 1545.1 1295.42C1547.66 1294.74 1549.87 1293.64 1551.73 1292.13C1553.57 1290.62 1555.01 1288.78 1556.07 1286.6C1557.1 1284.42 1557.7 1281.99 1557.86 1279.29C1558 1276.58 1557.65 1273.68 1556.83 1270.61L1555.57 1265.9C1554.74 1262.82 1553.6 1260.15 1552.13 1257.89C1550.63 1255.61 1548.9 1253.79 1546.91 1252.43C1544.93 1251.06 1542.76 1250.19 1540.42 1249.8C1538.07 1249.42 1535.62 1249.57 1533.06 1250.25C1530.47 1250.95 1528.25 1252.05 1526.41 1253.55C1524.55 1255.07 1523.1 1256.91 1522.07 1259.08C1521.04 1261.26 1520.45 1263.7 1520.31 1266.41C1520.17 1269.1 1520.51 1271.99 1521.34 1275.07ZM1526.28 1278.79L1525 1274.02C1524.31 1271.42 1523.99 1269.01 1524.03 1266.78C1524.08 1264.54 1524.49 1262.53 1525.27 1260.75C1526.02 1258.97 1527.13 1257.47 1528.59 1256.24C1530.03 1255.01 1531.81 1254.11 1533.95 1253.54C1536.02 1252.98 1537.99 1252.88 1539.85 1253.22C1541.71 1253.56 1543.42 1254.31 1544.98 1255.47C1546.54 1256.63 1547.91 1258.16 1549.09 1260.06C1550.25 1261.97 1551.17 1264.23 1551.87 1266.82L1553.15 1271.59C1553.85 1274.21 1554.17 1276.65 1554.1 1278.91C1554.04 1281.15 1553.62 1283.17 1552.85 1284.97C1552.08 1286.75 1550.97 1288.25 1549.53 1289.48C1548.07 1290.71 1546.3 1291.61 1544.23 1292.16C1542.1 1292.73 1540.1 1292.85 1538.24 1292.51C1536.36 1292.17 1534.65 1291.42 1533.11 1290.26C1531.56 1289.08 1530.22 1287.53 1529.08 1285.61C1527.92 1283.68 1526.98 1281.41 1526.28 1278.79Z" fill="black"/>
</g>
<g clip-path="url(#clip33_556_11400)">
<rect width="145.512" height="146.512" rx="10" transform="matrix(-0.965926 0.258819 0.258819 0.965926 1548.18 1023.11)" fill="#D4D4D4"/>
<path d="M1494.48 1132.45L1486.79 1143.96L1489.96 1145.64L1497.61 1134.24L1494.48 1132.45ZM1478.3 1114.44L1479.56 1119.14C1480.38 1122.22 1481.53 1124.9 1483.01 1127.18C1484.47 1129.44 1486.19 1131.26 1488.15 1132.63C1490.12 1134 1492.28 1134.88 1494.65 1135.26C1497 1135.64 1499.47 1135.49 1502.06 1134.79C1504.62 1134.11 1506.83 1133.01 1508.69 1131.5C1510.52 1129.99 1511.97 1128.15 1513.03 1125.96C1514.06 1123.79 1514.66 1121.35 1514.82 1118.66C1514.96 1115.95 1514.61 1113.05 1513.79 1109.97L1512.53 1105.26C1511.7 1102.18 1510.56 1099.52 1509.09 1097.26C1507.59 1094.98 1505.85 1093.16 1503.87 1091.79C1501.89 1090.43 1499.72 1089.55 1497.38 1089.17C1495.03 1088.78 1492.58 1088.93 1490.02 1089.62C1487.43 1090.31 1485.21 1091.41 1483.37 1092.92C1481.51 1094.43 1480.06 1096.28 1479.03 1098.45C1477.99 1100.63 1477.41 1103.07 1477.27 1105.78C1477.13 1108.47 1477.47 1111.36 1478.3 1114.44ZM1483.24 1118.16L1481.96 1113.39C1481.27 1110.79 1480.94 1108.38 1480.99 1106.14C1481.04 1103.91 1481.45 1101.9 1482.23 1100.12C1482.98 1098.34 1484.09 1096.84 1485.55 1095.61C1486.98 1094.38 1488.77 1093.48 1490.9 1092.91C1492.98 1092.35 1494.94 1092.25 1496.8 1092.59C1498.66 1092.93 1500.38 1093.68 1501.94 1094.84C1503.5 1095.99 1504.87 1097.52 1506.05 1099.43C1507.21 1101.34 1508.13 1103.59 1508.83 1106.19L1510.11 1110.96C1510.81 1113.58 1511.13 1116.01 1511.06 1118.27C1510.99 1120.51 1510.58 1122.53 1509.81 1124.34C1509.03 1126.12 1507.93 1127.62 1506.49 1128.85C1505.03 1130.08 1503.26 1130.98 1501.19 1131.53C1499.06 1132.1 1497.06 1132.22 1495.2 1131.87C1493.32 1131.54 1491.61 1130.79 1490.07 1129.63C1488.52 1128.44 1487.18 1126.89 1486.04 1124.98C1484.87 1123.05 1483.94 1120.77 1483.24 1118.16Z" fill="black"/>
</g>
<g clip-path="url(#clip34_556_11400)">
<rect width="145.512" height="146.512" rx="10" transform="matrix(-0.965926 0.258819 0.258819 0.965926 1468.73 1410.47)" fill="#D4D4D4"/>
<path d="M1415.03 1519.82L1407.34 1531.32L1410.51 1533L1418.16 1521.6L1415.03 1519.82ZM1398.85 1501.8L1400.11 1506.51C1400.93 1509.58 1402.08 1512.26 1403.56 1514.54C1405.02 1516.8 1406.74 1518.62 1408.7 1519.99C1410.67 1521.36 1412.83 1522.24 1415.2 1522.62C1417.54 1523 1420.02 1522.85 1422.61 1522.15C1425.17 1521.47 1427.37 1520.37 1429.23 1518.86C1431.07 1517.35 1432.52 1515.51 1433.58 1513.33C1434.61 1511.15 1435.21 1508.71 1435.37 1506.02C1435.51 1503.31 1435.16 1500.41 1434.34 1497.33L1433.08 1492.62C1432.25 1489.55 1431.1 1486.88 1429.64 1484.62C1428.14 1482.34 1426.4 1480.52 1424.42 1479.16C1422.44 1477.79 1420.27 1476.91 1417.93 1476.53C1415.58 1476.14 1413.13 1476.29 1410.57 1476.98C1407.98 1477.67 1405.76 1478.77 1403.92 1480.28C1402.06 1481.79 1400.61 1483.64 1399.58 1485.81C1398.54 1487.99 1397.96 1490.43 1397.82 1493.14C1397.68 1495.83 1398.02 1498.72 1398.85 1501.8ZM1403.79 1505.52L1402.51 1500.75C1401.82 1498.15 1401.49 1495.74 1401.54 1493.5C1401.59 1491.27 1402 1489.26 1402.77 1487.48C1403.53 1485.7 1404.63 1484.2 1406.09 1482.97C1407.53 1481.74 1409.32 1480.84 1411.45 1480.27C1413.53 1479.71 1415.49 1479.61 1417.35 1479.95C1419.21 1480.29 1420.92 1481.04 1422.49 1482.2C1424.05 1483.35 1425.42 1484.88 1426.6 1486.79C1427.75 1488.7 1428.68 1490.95 1429.38 1493.55L1430.66 1498.32C1431.36 1500.94 1431.68 1503.37 1431.61 1505.63C1431.54 1507.87 1431.13 1509.89 1430.36 1511.7C1429.58 1513.48 1428.48 1514.98 1427.04 1516.21C1425.58 1517.44 1423.81 1518.34 1421.74 1518.89C1419.61 1519.46 1417.61 1519.58 1415.75 1519.23C1413.87 1518.9 1412.16 1518.15 1410.62 1516.99C1409.07 1515.8 1407.73 1514.26 1406.59 1512.34C1405.42 1510.41 1404.49 1508.13 1403.79 1505.52Z" fill="black"/>
</g>
<g clip-path="url(#clip35_556_11400)">
<rect width="145.512" height="146.512" rx="10" transform="matrix(-0.965926 0.258819 0.258819 0.965926 1424.73 1250.1)" fill="#D4D4D4"/>
<path d="M1371.02 1359.44L1363.33 1370.95L1366.5 1372.62L1374.15 1361.22L1371.02 1359.44ZM1354.84 1341.42L1356.1 1346.13C1356.93 1349.21 1358.07 1351.89 1359.55 1354.17C1361.02 1356.43 1362.73 1358.24 1364.7 1359.62C1366.66 1360.99 1368.82 1361.86 1371.19 1362.24C1373.54 1362.63 1376.01 1362.47 1378.6 1361.78C1381.16 1361.09 1383.37 1359.99 1385.23 1358.48C1387.07 1356.98 1388.51 1355.13 1389.57 1352.95C1390.6 1350.78 1391.2 1348.34 1391.36 1345.64C1391.5 1342.93 1391.16 1340.04 1390.33 1336.96L1389.07 1332.25C1388.24 1329.17 1387.1 1326.5 1385.63 1324.24C1384.14 1321.97 1382.4 1320.15 1380.41 1318.78C1378.43 1317.42 1376.26 1316.54 1373.92 1316.15C1371.57 1315.77 1369.12 1315.92 1366.56 1316.6C1363.97 1317.3 1361.75 1318.4 1359.91 1319.91C1358.05 1321.42 1356.61 1323.26 1355.57 1325.44C1354.54 1327.61 1353.95 1330.06 1353.81 1332.77C1353.67 1335.46 1354.01 1338.34 1354.84 1341.42ZM1359.78 1345.14L1358.51 1340.38C1357.81 1337.78 1357.49 1335.36 1357.53 1333.13C1357.58 1330.89 1357.99 1328.89 1358.77 1327.11C1359.52 1325.33 1360.63 1323.82 1362.09 1322.59C1363.53 1321.37 1365.31 1320.47 1367.45 1319.89C1369.52 1319.34 1371.49 1319.23 1373.35 1319.58C1375.21 1319.92 1376.92 1320.67 1378.48 1321.82C1380.04 1322.98 1381.41 1324.51 1382.59 1326.42C1383.75 1328.33 1384.67 1330.58 1385.37 1333.18L1386.65 1337.95C1387.35 1340.56 1387.67 1343 1387.6 1345.26C1387.54 1347.5 1387.12 1349.52 1386.35 1351.32C1385.58 1353.1 1384.47 1354.61 1383.03 1355.84C1381.57 1357.07 1379.8 1357.96 1377.73 1358.52C1375.6 1359.09 1373.6 1359.2 1371.74 1358.86C1369.86 1358.52 1368.15 1357.77 1366.61 1356.61C1365.06 1355.43 1363.72 1353.88 1362.58 1351.96C1361.42 1350.03 1360.48 1347.76 1359.78 1345.14Z" fill="black"/>
</g>
<g clip-path="url(#clip36_556_11400)">
<rect width="145.512" height="146.512" rx="10" transform="matrix(-0.965926 0.258819 0.258819 0.965926 1381.69 1089.47)" fill="#D4D4D4"/>
<path d="M1327.98 1198.81L1320.29 1210.32L1323.46 1211.99L1331.11 1200.59L1327.98 1198.81ZM1311.8 1180.79L1313.06 1185.5C1313.88 1188.58 1315.03 1191.26 1316.51 1193.54C1317.97 1195.8 1319.69 1197.61 1321.65 1198.98C1323.62 1200.36 1325.78 1201.23 1328.15 1201.61C1330.5 1202 1332.97 1201.84 1335.56 1201.14C1338.12 1200.46 1340.33 1199.36 1342.19 1197.85C1344.03 1196.34 1345.47 1194.5 1346.53 1192.32C1347.56 1190.14 1348.16 1187.71 1348.32 1185.01C1348.46 1182.3 1348.11 1179.41 1347.29 1176.33L1346.03 1171.62C1345.2 1168.54 1344.06 1165.87 1342.59 1163.61C1341.09 1161.34 1339.36 1159.52 1337.37 1158.15C1335.39 1156.78 1333.22 1155.91 1330.88 1155.52C1328.53 1155.14 1326.08 1155.29 1323.52 1155.97C1320.93 1156.67 1318.71 1157.77 1316.87 1159.27C1315.01 1160.79 1313.56 1162.63 1312.53 1164.81C1311.49 1166.98 1310.91 1169.42 1310.77 1172.13C1310.63 1174.83 1310.97 1177.71 1311.8 1180.79ZM1316.74 1184.51L1315.46 1179.74C1314.77 1177.15 1314.44 1174.73 1314.49 1172.5C1314.54 1170.26 1314.95 1168.25 1315.73 1166.47C1316.48 1164.7 1317.59 1163.19 1319.05 1161.96C1320.49 1160.73 1322.27 1159.83 1324.4 1159.26C1326.48 1158.71 1328.44 1158.6 1330.3 1158.94C1332.17 1159.29 1333.88 1160.03 1335.44 1161.19C1337 1162.35 1338.37 1163.88 1339.55 1165.78C1340.71 1167.69 1341.63 1169.95 1342.33 1172.54L1343.61 1177.31C1344.31 1179.93 1344.63 1182.37 1344.56 1184.63C1344.49 1186.87 1344.08 1188.89 1343.31 1190.69C1342.53 1192.47 1341.43 1193.98 1339.99 1195.2C1338.53 1196.44 1336.76 1197.33 1334.69 1197.88C1332.56 1198.46 1330.56 1198.57 1328.7 1198.23C1326.82 1197.89 1325.11 1197.14 1323.57 1195.98C1322.02 1194.8 1320.68 1193.25 1319.54 1191.33C1318.38 1189.4 1317.44 1187.13 1316.74 1184.51Z" fill="black"/>
</g>
</g>
<defs>
<clipPath id="clip0_556_11400">
<rect width="2360" height="1640" fill="white"/>
</clipPath>
<clipPath id="clip1_556_11400">
<rect width="177" height="167" fill="white" transform="translate(14.2153 1185.44) rotate(15)"/>
</clipPath>
<clipPath id="clip2_556_11400">
<rect width="177" height="167" fill="white" transform="translate(58.145 1025.36) rotate(15)"/>
</clipPath>
<clipPath id="clip3_556_11400">
<rect width="177" height="167" fill="white" transform="translate(101.627 863.081) rotate(15)"/>
</clipPath>
<clipPath id="clip4_556_11400">
<rect width="177" height="167" fill="white" transform="translate(186.598 1233.7) rotate(15)"/>
</clipPath>
<clipPath id="clip5_556_11400">
<rect width="177" height="167" fill="white" transform="translate(230.339 1070.46) rotate(15)"/>
</clipPath>
<clipPath id="clip6_556_11400">
<rect width="177" height="167" fill="white" transform="translate(273.562 909.151) rotate(15)"/>
</clipPath>
<clipPath id="clip7_556_11400">
<rect width="177" height="167" fill="white" transform="translate(369.145 1240.17) rotate(15)"/>
</clipPath>
<clipPath id="clip8_556_11400">
<rect width="177" height="167" fill="white" transform="translate(412.626 1077.89) rotate(15)"/>
</clipPath>
<clipPath id="clip9_556_11400">
<rect width="177" height="167" fill="white" transform="translate(454.883 916.325) rotate(15)"/>
</clipPath>
<clipPath id="clip10_556_11400">
<rect width="177" height="167" fill="white" transform="translate(547.654 1261.7) rotate(15)"/>
</clipPath>
<clipPath id="clip11_556_11400">
<rect width="177" height="167" fill="white" transform="translate(590.695 1101.07) rotate(15)"/>
</clipPath>
<clipPath id="clip12_556_11400">
<rect width="177" height="167" fill="white" transform="translate(633.737 940.437) rotate(15)"/>
</clipPath>
<clipPath id="clip13_556_11400">
<rect width="177" height="167" fill="white" transform="translate(713.636 1329.99) rotate(15)"/>
</clipPath>
<clipPath id="clip14_556_11400">
<rect width="177" height="167" fill="white" transform="translate(756.677 1169.36) rotate(15)"/>
</clipPath>
<clipPath id="clip15_556_11400">
<rect width="177" height="167" fill="white" transform="translate(799.719 1008.72) rotate(15)"/>
</clipPath>
<clipPath id="clip16_556_11400">
<rect width="177" height="167" fill="white" transform="translate(879.169 1396.08) rotate(15)"/>
</clipPath>
<clipPath id="clip17_556_11400">
<rect width="177" height="167" fill="white" transform="translate(923.177 1235.71) rotate(15)"/>
</clipPath>
<clipPath id="clip18_556_11400">
<rect width="177" height="167" fill="white" transform="translate(966.218 1075.08) rotate(15)"/>
</clipPath>
<clipPath id="clip19_556_11400">
<rect width="177" height="167" fill="white" transform="matrix(-0.965926 0.258819 0.258819 0.965926 2346.09 1185.44)"/>
</clipPath>
<clipPath id="clip20_556_11400">
<rect width="177" height="167" fill="white" transform="matrix(-0.965926 0.258819 0.258819 0.965926 2302.16 1025.36)"/>
</clipPath>
<clipPath id="clip21_556_11400">
<rect width="177" height="167" fill="white" transform="matrix(-0.965926 0.258819 0.258819 0.965926 2258.68 863.081)"/>
</clipPath>
<clipPath id="clip22_556_11400">
<rect width="177" height="167" fill="white" transform="matrix(-0.965926 0.258819 0.258819 0.965926 2173.7 1233.7)"/>
</clipPath>
<clipPath id="clip23_556_11400">
<rect width="177" height="167" fill="white" transform="matrix(-0.965926 0.258819 0.258819 0.965926 2129.96 1070.46)"/>
</clipPath>
<clipPath id="clip24_556_11400">
<rect width="177" height="167" fill="white" transform="matrix(-0.965926 0.258819 0.258819 0.965926 2086.74 909.151)"/>
</clipPath>
<clipPath id="clip25_556_11400">
<rect width="177" height="167" fill="white" transform="matrix(-0.965926 0.258819 0.258819 0.965926 1991.16 1240.17)"/>
</clipPath>
<clipPath id="clip26_556_11400">
<rect width="177" height="167" fill="white" transform="matrix(-0.965926 0.258819 0.258819 0.965926 1947.68 1077.89)"/>
</clipPath>
<clipPath id="clip27_556_11400">
<rect width="177" height="167" fill="white" transform="matrix(-0.965926 0.258819 0.258819 0.965926 1905.42 916.325)"/>
</clipPath>
<clipPath id="clip28_556_11400">
<rect width="177" height="167" fill="white" transform="matrix(-0.965926 0.258819 0.258819 0.965926 1812.65 1261.7)"/>
</clipPath>
<clipPath id="clip29_556_11400">
<rect width="177" height="167" fill="white" transform="matrix(-0.965926 0.258819 0.258819 0.965926 1769.61 1101.07)"/>
</clipPath>
<clipPath id="clip30_556_11400">
<rect width="177" height="167" fill="white" transform="matrix(-0.965926 0.258819 0.258819 0.965926 1726.57 940.437)"/>
</clipPath>
<clipPath id="clip31_556_11400">
<rect width="177" height="167" fill="white" transform="matrix(-0.965926 0.258819 0.258819 0.965926 1646.67 1329.99)"/>
</clipPath>
<clipPath id="clip32_556_11400">
<rect width="177" height="167" fill="white" transform="matrix(-0.965926 0.258819 0.258819 0.965926 1603.63 1169.36)"/>
</clipPath>
<clipPath id="clip33_556_11400">
<rect width="177" height="167" fill="white" transform="matrix(-0.965926 0.258819 0.258819 0.965926 1560.58 1008.72)"/>
</clipPath>
<clipPath id="clip34_556_11400">
<rect width="177" height="167" fill="white" transform="matrix(-0.965926 0.258819 0.258819 0.965926 1481.13 1396.08)"/>
</clipPath>
<clipPath id="clip35_556_11400">
<rect width="177" height="167" fill="white" transform="matrix(-0.965926 0.258819 0.258819 0.965926 1437.13 1235.71)"/>
</clipPath>
<clipPath id="clip36_556_11400">
<rect width="177" height="167" fill="white" transform="matrix(-0.965926 0.258819 0.258819 0.965926 1394.08 1075.08)"/>
</clipPath>
</defs>
</svg>
