<svg width="2360" height="1640" viewBox="0 0 2360 1640" fill="none" xmlns="http://www.w3.org/2000/svg">
<g id="iPad_Landscape" clip-path="url(#clip0_556_11400)">
<g id="hand">
<g id="key" clip-path="url(#clip1_556_11400)">
<g id="keycap" clip-path="url(#clip2_556_11400)">
<rect id="Z" x="433.591" y="1298.9" width="146" height="147" rx="10" transform="rotate(15 433.591 1298.9)" fill="#D9D9D9"/>
<g id="text left">
<path id="label" d="M494.96 1409.75L494.253 1414.86L465.198 1407.08L464.994 1405.37L491.983 1374.5L499.161 1370.46L490.638 1369.5L478.429 1366.23L479.136 1361.12L504.667 1367.96L504.949 1368.77L477.543 1400.45L470.55 1404.54L479.073 1405.5L494.96 1409.75Z" fill="#343434"/>
</g>
</g>
</g>
<g id="key_2" clip-path="url(#clip3_556_11400)">
<g id="keycap_2" clip-path="url(#clip4_556_11400)">
<rect id="X" x="629.32" y="1252.3" width="146" height="147" rx="10" transform="rotate(15 629.32 1252.3)" fill="#D9D9D9"/>
<g id="text left_2">
<path id="label_2" d="M686.521 1367.34L682.257 1349L681.376 1342.77L678.568 1347.32L664.575 1361.46L658.455 1359.82L679.384 1338.96L672.64 1313.93L679.359 1315.07L683.583 1331.57L684.433 1338.29L686.839 1333.63L698.604 1320.88L704.786 1322.54L686.457 1341.62L693.321 1369.16L686.521 1367.34Z" fill="#343434"/>
</g>
</g>
</g>
<g id="key_3" clip-path="url(#clip5_556_11400)">
<g id="keycap_3" clip-path="url(#clip6_556_11400)">
<rect id="S" x="672.543" y="1091" width="146" height="147" rx="10" transform="rotate(15 672.543 1091)" fill="#D9D9D9"/>
<g id="text left_3">
<path id="label_3" d="M705.3 1196.37L709.355 1192.48C709.695 1192.86 710.148 1193.31 710.714 1193.84C711.305 1194.35 711.972 1194.87 712.713 1195.4C713.455 1195.93 714.262 1196.43 715.134 1196.88C716.006 1197.34 716.916 1197.69 717.864 1197.94C719.141 1198.29 720.46 1198.47 721.821 1198.51C723.207 1198.53 724.504 1198.34 725.711 1197.96C726.944 1197.56 728.018 1196.93 728.933 1196.07C729.868 1195.22 730.527 1194.08 730.908 1192.66C731.267 1191.32 731.272 1190.06 730.925 1188.89C730.577 1187.71 730.006 1186.59 729.212 1185.51C728.417 1184.44 727.459 1183.4 726.338 1182.39C725.216 1181.38 724.064 1180.37 722.88 1179.34C721.718 1178.33 720.581 1177.29 719.471 1176.24C718.366 1175.18 717.43 1174.05 716.663 1172.88C715.896 1171.7 715.358 1170.45 715.049 1169.13C714.74 1167.81 714.793 1166.38 715.207 1164.83C715.743 1162.83 716.634 1161.2 717.882 1159.92C719.13 1158.64 720.57 1157.68 722.2 1157.03C723.831 1156.39 725.58 1156.04 727.449 1155.99C729.318 1155.94 731.139 1156.15 732.911 1156.62C737.3 1157.8 741.018 1160.12 744.065 1163.59L740.048 1166.59C738.867 1165.39 737.681 1164.42 736.487 1163.68C735.315 1162.94 733.935 1162.36 732.348 1161.94C731.235 1161.64 730.082 1161.45 728.888 1161.38C727.714 1161.3 726.605 1161.4 725.561 1161.68C724.542 1161.93 723.634 1162.4 722.836 1163.07C722.064 1163.72 721.521 1164.64 721.206 1165.81C720.897 1166.96 720.938 1168.05 721.33 1169.06C721.743 1170.07 722.363 1171.06 723.19 1172.01C724.044 1172.94 725.04 1173.88 726.178 1174.83C727.321 1175.75 728.488 1176.72 729.676 1177.72C730.891 1178.71 732.046 1179.76 733.14 1180.87C734.239 1181.96 735.156 1183.15 735.889 1184.45C736.649 1185.74 737.153 1187.16 737.401 1188.7C737.676 1190.23 737.565 1191.93 737.068 1193.78C736.449 1196.09 735.434 1197.98 734.022 1199.46C732.637 1200.92 731.017 1202.02 729.162 1202.76C727.333 1203.49 725.353 1203.87 723.22 1203.92C721.087 1203.96 718.99 1203.71 716.93 1203.16C715.611 1202.81 714.407 1202.4 713.318 1201.93C712.223 1201.48 711.199 1200.97 710.246 1200.41C709.314 1199.85 708.439 1199.24 707.622 1198.58C706.811 1197.9 706.037 1197.16 705.3 1196.37Z" fill="#343434"/>
</g>
</g>
</g>
<g id="key_4" clip-path="url(#clip7_556_11400)">
<g id="keycap_4" clip-path="url(#clip8_556_11400)">
<rect id="W" x="715.766" y="929.686" width="146" height="147" rx="10" transform="rotate(15 715.766 929.686)" fill="#D9D9D9"/>
<g id="text left_4">
<path id="label_4" d="M762.536 1018.74L768.816 1007.17L773.144 1008.33L773.015 1021.54L771.068 1037.59L771.192 1037.62L775.991 1023.67L787.677 998.969L793.148 1000.44L772.317 1044.55L766.722 1043.05L767.482 1028.34L769.8 1012.4L769.676 1012.37L763.742 1027.34L756.986 1040.44L751.484 1038.96L755.376 990.314L760.92 991.137L758.99 1019.11L756.139 1033.59L756.262 1033.62L762.536 1018.74Z" fill="#343434"/>
</g>
</g>
</g>
<g id="key_5" clip-path="url(#clip9_556_11400)">
<g id="keycap_5" clip-path="url(#clip10_556_11400)">
<rect id="2" x="758.989" y="768.376" width="146" height="147" rx="10" transform="rotate(15 758.989 768.376)" fill="#AED3E9"/>
<g id="text left_5">
<path id="label_5" d="M790.658 876.57L792.049 871.377C793.4 870.127 794.828 868.92 796.333 867.755C797.838 866.59 799.339 865.479 800.837 864.423C802.361 863.351 803.834 862.344 805.258 861.4C806.687 860.436 808.006 859.552 809.215 858.75C810.617 857.801 811.951 856.943 813.217 856.178C814.508 855.398 815.67 854.605 816.703 853.799C817.736 852.994 818.623 852.116 819.363 851.166C820.109 850.195 820.656 849.061 821.004 847.763C821.269 846.774 821.332 845.797 821.193 844.832C821.059 843.846 820.738 842.943 820.229 842.122C819.747 841.286 819.091 840.558 818.264 839.939C817.441 839.299 816.474 838.83 815.361 838.532C814.104 838.195 812.965 838.077 811.944 838.179C810.949 838.266 810.026 838.494 809.177 838.862C808.347 839.236 807.581 839.705 806.879 840.267C806.202 840.815 805.553 841.381 804.933 841.966L801.071 838.943C801.966 837.747 802.975 836.704 804.097 835.812C805.246 834.905 806.494 834.201 807.843 833.701C809.197 833.181 810.656 832.887 812.22 832.82C813.784 832.753 815.452 832.957 817.224 833.432C819.305 833.99 821.061 834.858 822.49 836.036C823.919 837.214 825.027 838.56 825.814 840.074C826.627 841.573 827.118 843.162 827.286 844.841C827.475 846.526 827.36 848.152 826.94 849.718C826.515 851.304 825.81 852.739 824.826 854.021C823.868 855.289 822.772 856.453 821.538 857.513C820.331 858.559 819.07 859.513 817.757 860.376C816.443 861.239 815.232 862.052 814.122 862.814C812.713 863.784 811.311 864.734 809.913 865.662C808.516 866.591 807.165 867.51 805.862 868.419C804.584 869.314 803.376 870.194 802.239 871.06C801.107 871.905 800.099 872.739 799.216 873.563L820.853 879.36L819.528 884.306L790.658 876.57Z" fill="#343434"/>
</g>
</g>
</g>
<g id="key_6" clip-path="url(#clip11_556_11400)">
<g id="keycap_6" clip-path="url(#clip12_556_11400)">
<rect id="F2" x="802.211" y="607.066" width="146" height="147" rx="10" transform="rotate(15 802.211 607.066)" fill="#AED3E9"/>
<g id="text left_6">
<path id="label_6" d="M820.33 711.63L814.457 710.056L825.141 670.183L825.953 663.443L855.163 671.27L853.219 676.05L830.81 670.045L829.854 676.084L827.66 684.275L846.824 689.41L845.623 693.892L826.459 688.757L820.33 711.63ZM853.984 720.647L855.375 715.454C856.726 714.204 858.154 712.997 859.659 711.832C861.164 710.667 862.665 709.556 864.163 708.5C865.686 707.428 867.16 706.421 868.584 705.477C870.013 704.513 871.331 703.629 872.54 702.827C873.943 701.878 875.277 701.02 876.542 700.255C877.834 699.475 878.996 698.682 880.029 697.876C881.062 697.071 881.948 696.193 882.689 695.243C883.435 694.272 883.982 693.138 884.33 691.84C884.595 690.851 884.658 689.874 884.519 688.909C884.385 687.923 884.064 687.02 883.555 686.199C883.072 685.363 882.417 684.635 881.589 684.016C880.767 683.376 879.799 682.907 878.687 682.609C877.43 682.272 876.291 682.154 875.269 682.256C874.274 682.343 873.352 682.571 872.502 682.939C871.673 683.313 870.907 683.782 870.204 684.344C869.528 684.892 868.879 685.458 868.258 686.043L864.397 683.02C865.292 681.824 866.3 680.781 867.423 679.889C868.571 678.982 869.82 678.278 871.169 677.778C872.523 677.258 873.982 676.964 875.546 676.897C877.11 676.83 878.778 677.034 880.55 677.509C882.631 678.067 884.386 678.935 885.815 680.113C887.245 681.291 888.353 682.637 889.14 684.151C889.953 685.65 890.444 687.239 890.612 688.918C890.801 690.603 890.686 692.229 890.266 693.795C889.841 695.381 889.136 696.816 888.152 698.098C887.194 699.366 886.098 700.53 884.864 701.59C883.656 702.636 882.396 703.59 881.082 704.453C879.769 705.316 878.557 706.129 877.448 706.891C876.039 707.861 874.636 708.811 873.239 709.739C871.842 710.668 870.491 711.587 869.187 712.496C867.91 713.391 866.702 714.271 865.565 715.137C864.433 715.982 863.425 716.816 862.542 717.64L884.178 723.437L882.853 728.383L853.984 720.647Z" fill="#343434"/>
</g>
</g>
</g>
<g id="key_7" clip-path="url(#clip13_556_11400)">
<g id="keycap_7" clip-path="url(#clip14_556_11400)">
<rect id="S2" x="845.434" y="445.757" width="146" height="147" rx="10" transform="rotate(15 845.434 445.757)" fill="#A3DE8E"/>
<g id="text left_7">
<path id="label_7" d="M858.087 545.742L862.142 541.859C862.483 542.237 862.936 542.69 863.501 543.217C864.093 543.729 864.76 544.25 865.501 544.78C866.242 545.31 867.049 545.802 867.921 546.256C868.793 546.711 869.703 547.065 870.651 547.319C871.929 547.661 873.248 547.849 874.608 547.882C875.995 547.901 877.292 547.718 878.499 547.335C879.732 546.936 880.806 546.308 881.721 545.448C882.656 544.595 883.314 543.457 883.695 542.035C884.054 540.696 884.06 539.438 883.712 538.263C883.364 537.088 882.793 535.963 881.999 534.889C881.205 533.814 880.247 532.774 879.125 531.766C878.004 530.759 876.851 529.744 875.668 528.72C874.505 527.702 873.369 526.668 872.258 525.62C871.153 524.551 870.217 523.427 869.451 522.25C868.684 521.073 868.146 519.825 867.837 518.505C867.528 517.185 867.581 515.753 867.995 514.207C868.53 512.208 869.422 510.57 870.67 509.292C871.918 508.014 873.357 507.053 874.988 506.407C876.618 505.762 878.368 505.414 880.237 505.362C882.106 505.311 883.927 505.523 885.699 505.998C890.088 507.174 893.806 509.495 896.852 512.962L892.835 515.96C891.655 514.761 890.468 513.791 889.275 513.052C888.102 512.318 886.722 511.738 885.136 511.313C884.023 511.015 882.87 510.827 881.676 510.75C880.502 510.679 879.393 510.779 878.348 511.051C877.33 511.309 876.421 511.772 875.624 512.442C874.852 513.096 874.309 514.011 873.994 515.185C873.685 516.339 873.726 517.422 874.118 518.432C874.53 519.448 875.15 520.431 875.978 521.382C876.831 522.317 877.827 523.258 878.965 524.203C880.109 525.128 881.275 526.092 882.464 527.095C883.679 528.084 884.833 529.133 885.927 530.243C887.027 531.333 887.943 532.528 888.677 533.829C889.437 535.115 889.941 536.531 890.189 538.077C890.463 539.608 890.352 541.301 889.855 543.156C889.237 545.464 888.222 547.356 886.81 548.833C885.424 550.295 883.804 551.396 881.95 552.135C880.121 552.86 878.14 553.246 876.008 553.293C873.875 553.34 871.778 553.087 869.717 552.535C868.399 552.182 867.195 551.771 866.105 551.302C865.011 550.854 863.987 550.348 863.034 549.784C862.101 549.225 861.227 548.615 860.41 547.954C859.599 547.273 858.824 546.535 858.087 545.742ZM897.206 559.338L898.598 554.145C899.949 552.895 901.377 551.687 902.881 550.522C904.386 549.357 905.887 548.247 907.385 547.19C908.909 546.119 910.383 545.111 911.806 544.167C913.235 543.203 914.554 542.32 915.763 541.517C917.166 540.568 918.5 539.711 919.765 538.945C921.056 538.165 922.218 537.372 923.251 536.567C924.284 535.761 925.171 534.884 925.912 533.933C926.658 532.963 927.204 531.828 927.552 530.53C927.817 529.541 927.88 528.564 927.741 527.599C927.608 526.614 927.287 525.711 926.778 524.89C926.295 524.053 925.64 523.326 924.812 522.706C923.99 522.066 923.022 521.597 921.909 521.299C920.652 520.962 919.513 520.845 918.492 520.947C917.497 521.033 916.575 521.261 915.725 521.63C914.896 522.004 914.13 522.472 913.427 523.035C912.75 523.582 912.102 524.148 911.481 524.733L907.62 521.711C908.514 520.515 909.523 519.471 910.645 518.579C911.794 517.672 913.043 516.969 914.391 516.469C915.745 515.948 917.205 515.654 918.768 515.588C920.332 515.521 922 515.725 923.773 516.2C925.854 516.757 927.609 517.625 929.038 518.803C930.467 519.981 931.575 521.327 932.362 522.841C933.175 524.34 933.666 525.929 933.835 527.609C934.024 529.294 933.908 530.919 933.489 532.485C933.063 534.072 932.359 535.506 931.375 536.789C930.417 538.056 929.321 539.22 928.087 540.281C926.879 541.326 925.619 542.281 924.305 543.144C922.992 544.006 921.78 544.819 920.67 545.582C919.262 546.552 917.859 547.501 916.462 548.43C915.064 549.358 913.714 550.277 912.41 551.187C911.132 552.081 909.925 552.961 908.787 553.827C907.655 554.672 906.648 555.507 905.764 556.33L927.401 562.128L926.076 567.073L897.206 559.338Z" fill="#343434"/>
</g>
</g>
</g>
<g id="key_8" clip-path="url(#clip15_556_11400)">
<g id="keycap_8" clip-path="url(#clip16_556_11400)">
<rect id="C" x="806.242" y="1275.9" width="146" height="147" rx="10" transform="rotate(15 806.242 1275.9)" fill="#D9D9D9"/>
<g id="text left_8">
<path id="label_8" d="M868.57 1388.86C867.543 1389.32 866.533 1389.66 865.54 1389.91C864.548 1390.15 863.536 1390.3 862.506 1390.35C861.48 1390.39 860.426 1390.33 859.342 1390.17C858.252 1390.03 857.099 1389.8 855.884 1389.47C853.905 1388.94 852.097 1388.15 850.459 1387.09C848.826 1386.01 847.378 1384.74 846.114 1383.28C844.877 1381.8 843.838 1380.15 842.999 1378.33C842.161 1376.52 841.549 1374.6 841.163 1372.57C840.784 1370.53 840.633 1368.41 840.711 1366.23C840.79 1364.04 841.127 1361.83 841.723 1359.61C842.557 1356.49 843.79 1353.67 845.421 1351.12C847.058 1348.56 849.034 1346.46 851.349 1344.83C853.669 1343.17 856.283 1342.07 859.19 1341.53C862.117 1340.99 865.281 1341.17 868.681 1342.08C871.051 1342.72 873.082 1343.67 874.773 1344.94C876.491 1346.2 877.901 1347.73 879.004 1349.55L875.336 1352.11C874.929 1351.65 874.487 1351.2 874.008 1350.76C873.534 1350.31 872.988 1349.87 872.368 1349.46C871.77 1349.06 871.085 1348.69 870.315 1348.35C869.57 1348 868.724 1347.69 867.776 1347.44C865.262 1346.76 862.941 1346.65 860.811 1347.1C858.703 1347.55 856.812 1348.42 855.14 1349.72C853.473 1350.99 852.04 1352.63 850.842 1354.63C849.67 1356.61 848.761 1358.81 848.115 1361.22C847.712 1362.72 847.461 1364.28 847.362 1365.89C847.262 1367.49 847.31 1369.09 847.506 1370.66C847.723 1372.25 848.098 1373.77 848.633 1375.24C849.167 1376.71 849.866 1378.05 850.73 1379.28C851.615 1380.51 852.666 1381.58 853.882 1382.48C855.104 1383.36 856.509 1384.01 858.095 1384.43C859.023 1384.68 859.848 1384.86 860.57 1384.96C861.293 1385.07 861.988 1385.11 862.656 1385.09C863.345 1385.08 864.047 1385.01 864.763 1384.89C865.485 1384.76 866.308 1384.57 867.233 1384.33L868.57 1388.86Z" fill="#343434"/>
</g>
</g>
</g>
<g id="key_9" clip-path="url(#clip17_556_11400)">
<g id="keycap_9" clip-path="url(#clip18_556_11400)">
<rect id="D" x="849.465" y="1114.59" width="146" height="147" rx="10" transform="rotate(15 849.465 1114.59)" fill="#D9D9D9"/>
<g id="text left_9">
<path id="label_9" d="M893.31 1176.35C893.965 1176.46 894.711 1176.61 895.546 1176.79C896.381 1176.97 897.235 1177.16 898.106 1177.37C898.982 1177.56 899.843 1177.77 900.688 1178C901.538 1178.2 902.303 1178.4 902.983 1178.58C906.26 1179.46 909.181 1180.67 911.748 1182.22C914.335 1183.78 916.414 1185.7 917.984 1188C919.555 1190.3 920.55 1192.97 920.97 1196.02C921.389 1199.07 921.083 1202.52 920.05 1206.38C919.244 1209.39 918.23 1212.02 917.007 1214.27C915.789 1216.51 914.417 1218.42 912.89 1220C911.383 1221.58 909.729 1222.85 907.928 1223.8C906.152 1224.74 904.283 1225.41 902.321 1225.81C900.384 1226.2 898.392 1226.34 896.344 1226.23C894.302 1226.1 892.251 1225.76 890.191 1225.21L881.814 1222.97L892.498 1183.09L893.31 1176.35ZM897.211 1188.99L889.012 1219.59L889.63 1219.76C892.288 1220.47 894.679 1220.78 896.802 1220.69C898.926 1220.59 900.803 1220.22 902.433 1219.58C904.09 1218.92 905.528 1218.05 906.747 1216.96C907.971 1215.85 909.011 1214.65 909.865 1213.36C910.741 1212.07 911.449 1210.74 911.989 1209.39C912.55 1208.03 912.991 1206.76 913.311 1205.57C913.78 1203.81 914.142 1202.13 914.397 1200.52C914.652 1198.91 914.729 1197.39 914.629 1195.95C914.529 1194.51 914.229 1193.16 913.727 1191.9C913.226 1190.63 912.456 1189.47 911.419 1188.39C910.381 1187.32 909.039 1186.35 907.392 1185.49C905.772 1184.62 903.787 1183.86 901.438 1183.24C901.108 1183.15 900.755 1183.06 900.379 1182.98C900.002 1182.91 899.644 1182.84 899.303 1182.8L898.095 1182.6L897.211 1188.99Z" fill="#343434"/>
</g>
</g>
</g>
<g id="key_10" clip-path="url(#clip19_556_11400)">
<g id="keycap_10" clip-path="url(#clip20_556_11400)">
<rect id="E" x="892.688" y="953.28" width="146" height="147" rx="10" transform="rotate(15 892.688 953.28)" fill="#D9D9D9"/>
<g id="text left_10">
<path id="label_10" d="M955.108 1064.41L953.164 1069.19L924.728 1061.57L926.848 1055.52L935.875 1021.82L936.687 1015.09L965.124 1022.7L963.799 1027.65L941.39 1021.65L940.434 1027.68L938.239 1035.88L957.867 1041.13L956.666 1045.62L937.038 1040.36L933.726 1052.72L931.926 1058.2L955.108 1064.41Z" fill="#343434"/>
</g>
</g>
</g>
<g id="key_11" clip-path="url(#clip21_556_11400)">
<g id="keycap_11" clip-path="url(#clip22_556_11400)">
<rect id="3" x="936.298" y="792.074" width="146" height="147" rx="10" transform="rotate(15 936.298 792.074)" fill="#AED3E9"/>
<g id="text left_11">
<path id="label_11" d="M980.425 859.214L982.214 854.393L1006.32 860.853L1005.16 865.18C1004.7 865.938 1004.04 866.691 1003.2 867.437C1002.39 868.169 1001.45 868.89 1000.4 869.602C999.375 870.299 998.27 870.964 997.084 871.596C995.92 872.233 994.756 872.827 993.592 873.377L988.899 874.571C989.117 874.585 989.38 874.633 989.689 874.716C990.024 874.784 990.336 874.856 990.624 874.934C992.623 875.469 994.411 876.213 995.989 877.166C997.588 878.125 998.88 879.277 999.867 880.624C1000.88 881.955 1001.54 883.49 1001.85 885.229C1002.18 886.952 1002.07 888.855 1001.51 890.936C1000.97 892.935 1000.12 894.649 998.939 896.078C997.761 897.507 996.352 898.687 994.711 899.616C993.097 900.531 991.3 901.22 989.32 901.684C987.347 902.126 985.29 902.382 983.152 902.449C981.034 902.522 978.886 902.421 976.707 902.147C974.528 901.872 972.428 901.464 970.409 900.923L971.734 895.977C973.461 896.374 975.182 896.669 976.897 896.864C978.611 897.058 980.269 897.138 981.868 897.103C983.473 897.047 984.99 896.868 986.418 896.566C987.846 896.264 989.127 895.812 990.26 895.21C991.419 894.593 992.4 893.818 993.202 892.884C994.01 891.93 994.588 890.804 994.936 889.506C995.333 888.022 995.345 886.7 994.971 885.54C994.618 884.385 993.973 883.373 993.035 882.503C992.098 881.634 990.917 880.887 989.495 880.263C988.098 879.623 986.554 879.077 984.865 878.625C984.205 878.448 983.479 878.275 982.684 878.107C981.917 877.923 981.218 877.769 980.589 877.645L981.872 872.854C982.883 872.462 983.988 872.007 985.187 871.489C986.386 870.971 987.603 870.425 988.839 869.85C990.081 869.255 991.291 868.652 992.471 868.041C993.677 867.414 994.777 866.814 995.769 866.241C996.768 865.647 997.626 865.082 998.344 864.546C999.067 863.989 999.572 863.505 999.859 863.096L994.829 863.074L980.425 859.214Z" fill="#343434"/>
</g>
</g>
</g>
<g id="key_12" clip-path="url(#clip23_556_11400)">
<g id="keycap_12" clip-path="url(#clip24_556_11400)">
<rect id="F3" x="979.521" y="630.765" width="146" height="147" rx="10" transform="rotate(15 979.521 630.765)" fill="#AED3E9"/>
<g id="text left_12">
<path id="label_12" d="M997.639 735.328L991.767 733.755L1002.45 693.881L1003.26 687.142L1032.47 694.968L1030.53 699.748L1008.12 693.744L1007.16 699.782L1004.97 707.973L1024.13 713.108L1022.93 717.59L1003.77 712.455L997.639 735.328ZM1043.75 703.291L1045.54 698.47L1069.65 704.93L1068.49 709.257C1068.02 710.015 1067.37 710.768 1066.53 711.514C1065.71 712.246 1064.78 712.967 1063.73 713.679C1062.7 714.376 1061.6 715.041 1060.41 715.673C1059.25 716.31 1058.08 716.904 1056.92 717.454L1052.23 718.648C1052.44 718.662 1052.71 718.71 1053.01 718.793C1053.35 718.861 1053.66 718.933 1053.95 719.011C1055.95 719.546 1057.74 720.29 1059.32 721.243C1060.91 722.202 1062.21 723.354 1063.19 724.701C1064.21 726.032 1064.87 727.567 1065.17 729.306C1065.51 731.029 1065.39 732.932 1064.84 735.013C1064.3 737.012 1063.44 738.726 1062.27 740.155C1061.09 741.584 1059.68 742.764 1058.04 743.693C1056.42 744.608 1054.63 745.297 1052.65 745.761C1050.67 746.203 1048.62 746.459 1046.48 746.526C1044.36 746.599 1042.21 746.498 1040.03 746.224C1037.85 745.949 1035.75 745.541 1033.74 745L1035.06 740.054C1036.79 740.451 1038.51 740.746 1040.22 740.941C1041.94 741.135 1043.59 741.215 1045.19 741.18C1046.8 741.124 1048.32 740.945 1049.74 740.643C1051.17 740.341 1052.45 739.889 1053.59 739.287C1054.75 738.67 1055.73 737.895 1056.53 736.961C1057.34 736.007 1057.91 734.881 1058.26 733.583C1058.66 732.099 1058.67 730.777 1058.3 729.617C1057.94 728.462 1057.3 727.45 1056.36 726.58C1055.42 725.711 1054.24 724.964 1052.82 724.34C1051.42 723.7 1049.88 723.154 1048.19 722.702C1047.53 722.525 1046.8 722.352 1046.01 722.184C1045.24 722 1044.54 721.846 1043.91 721.722L1045.2 716.931C1046.21 716.539 1047.31 716.084 1048.51 715.566C1049.71 715.048 1050.93 714.502 1052.17 713.927C1053.41 713.332 1054.62 712.729 1055.8 712.118C1057 711.491 1058.1 710.891 1059.1 710.318C1060.09 709.724 1060.95 709.159 1061.67 708.623C1062.39 708.066 1062.9 707.582 1063.18 707.173L1058.16 707.151L1043.75 703.291Z" fill="#343434"/>
</g>
</g>
</g>
<g id="key_13" clip-path="url(#clip25_556_11400)">
<g id="keycap_13" clip-path="url(#clip26_556_11400)">
<rect id="S3" x="1022.74" y="469.455" width="146" height="147" rx="10" transform="rotate(15 1022.74 469.455)" fill="#A3DE8E"/>
<g id="text left_13">
<path id="label_13" d="M1035.4 569.44L1039.45 565.557C1039.79 565.936 1040.25 566.388 1040.81 566.915C1041.4 567.427 1042.07 567.948 1042.81 568.478C1043.55 569.008 1044.36 569.5 1045.23 569.955C1046.1 570.409 1047.01 570.764 1047.96 571.018C1049.24 571.36 1050.56 571.548 1051.92 571.581C1053.3 571.599 1054.6 571.417 1055.81 571.033C1057.04 570.635 1058.12 570.006 1059.03 569.147C1059.97 568.293 1060.62 567.155 1061 565.734C1061.36 564.394 1061.37 563.137 1061.02 561.961C1060.67 560.786 1060.1 559.661 1059.31 558.587C1058.51 557.513 1057.56 556.472 1056.43 555.465C1055.31 554.458 1054.16 553.442 1052.98 552.418C1051.81 551.4 1050.68 550.367 1049.57 549.318C1048.46 548.249 1047.53 547.126 1046.76 545.949C1045.99 544.771 1045.46 543.523 1045.15 542.203C1044.84 540.884 1044.89 539.451 1045.3 537.906C1045.84 535.907 1046.73 534.269 1047.98 532.991C1049.23 531.713 1050.67 530.751 1052.3 530.106C1053.93 529.461 1055.68 529.112 1057.55 529.061C1059.42 529.01 1061.24 529.221 1063.01 529.696C1067.4 530.872 1071.12 533.194 1074.16 536.66L1070.14 539.659C1068.96 538.459 1067.78 537.49 1066.58 536.75C1065.41 536.016 1064.03 535.437 1062.45 535.012C1061.33 534.713 1060.18 534.526 1058.99 534.449C1057.81 534.377 1056.7 534.478 1055.66 534.75C1054.64 535.007 1053.73 535.47 1052.93 536.14C1052.16 536.795 1051.62 537.709 1051.3 538.884C1050.99 540.038 1051.04 541.12 1051.43 542.131C1051.84 543.147 1052.46 544.13 1053.29 545.08C1054.14 546.016 1055.14 546.956 1056.27 547.902C1057.42 548.827 1058.58 549.791 1059.77 550.794C1060.99 551.782 1062.14 552.831 1063.24 553.942C1064.34 555.031 1065.25 556.226 1065.99 557.527C1066.75 558.813 1067.25 560.229 1067.5 561.775C1067.77 563.307 1067.66 565 1067.16 566.854C1066.55 569.162 1065.53 571.054 1064.12 572.531C1062.73 573.993 1061.11 575.094 1059.26 575.834C1057.43 576.559 1055.45 576.945 1053.32 576.992C1051.18 577.038 1049.09 576.786 1047.03 576.234C1045.71 575.88 1044.5 575.469 1043.41 575.001C1042.32 574.553 1041.3 574.047 1040.34 573.482C1039.41 572.923 1038.54 572.313 1037.72 571.653C1036.91 570.971 1036.13 570.234 1035.4 569.44ZM1086.97 541.982L1088.76 537.16L1112.87 543.62L1111.71 547.948C1111.24 548.706 1110.59 549.458 1109.75 550.205C1108.94 550.936 1108 551.658 1106.95 552.37C1105.92 553.067 1104.82 553.731 1103.63 554.363C1102.47 555.001 1101.3 555.594 1100.14 556.144L1095.45 557.338C1095.67 557.352 1095.93 557.401 1096.24 557.483C1096.57 557.551 1096.88 557.624 1097.17 557.701C1099.17 558.237 1100.96 558.981 1102.54 559.934C1104.14 560.892 1105.43 562.044 1106.42 563.391C1107.43 564.722 1108.09 566.257 1108.39 567.996C1108.73 569.72 1108.62 571.622 1108.06 573.704C1107.52 575.702 1106.67 577.416 1105.49 578.845C1104.31 580.275 1102.9 581.454 1101.26 582.384C1099.65 583.298 1097.85 583.988 1095.87 584.451C1093.9 584.894 1091.84 585.149 1089.7 585.217C1087.58 585.29 1085.43 585.189 1083.26 584.914C1081.08 584.639 1078.98 584.232 1076.96 583.69L1078.28 578.745C1080.01 579.141 1081.73 579.437 1083.45 579.631C1085.16 579.826 1086.82 579.905 1088.42 579.87C1090.02 579.814 1091.54 579.635 1092.97 579.333C1094.4 579.031 1095.68 578.58 1096.81 577.978C1097.97 577.361 1098.95 576.585 1099.75 575.652C1100.56 574.698 1101.14 573.572 1101.48 572.273C1101.88 570.79 1101.89 569.468 1101.52 568.307C1101.17 567.153 1100.52 566.141 1099.58 565.271C1098.65 564.401 1097.47 563.654 1096.04 563.03C1094.65 562.391 1093.1 561.845 1091.41 561.392C1090.75 561.215 1090.03 561.043 1089.23 560.874C1088.47 560.69 1087.77 560.536 1087.14 560.412L1088.42 555.621C1089.43 555.229 1090.54 554.774 1091.74 554.256C1092.93 553.738 1094.15 553.192 1095.39 552.618C1096.63 552.023 1097.84 551.42 1099.02 550.808C1100.23 550.182 1101.33 549.582 1102.32 549.008C1103.32 548.415 1104.17 547.849 1104.89 547.313C1105.62 546.756 1106.12 546.273 1106.41 545.864L1101.38 545.841L1086.97 541.982Z" fill="#343434"/>
</g>
</g>
</g>
<g id="key_14" clip-path="url(#clip27_556_11400)">
<g id="keycap_14" clip-path="url(#clip28_556_11400)">
<rect id="V" x="971.258" y="1343.93" width="146" height="147" rx="10" transform="rotate(15 971.258 1343.93)" fill="#D9D9D9"/>
<g id="text left_14">
<path id="label_14" d="M1020.11 1440.16L1018.92 1451.77L1022.7 1442.38L1040.94 1412.61L1046.63 1414.14L1023.74 1451.73L1021.28 1457.7L1014.39 1455.19L1013.16 1405.17L1019.19 1406.12L1020.11 1440.16Z" fill="#343434"/>
</g>
</g>
</g>
<g id="key_15" clip-path="url(#clip29_556_11400)">
<g id="keycap_15" clip-path="url(#clip30_556_11400)">
<rect id="F" x="1014.48" y="1182.62" width="146" height="147" rx="10" transform="rotate(15 1014.48 1182.62)" fill="#D9D9D9"/>
<g id="text left_15">
<path id="label_15" d="M1052.7 1292.57L1046.83 1290.99L1057.51 1251.12L1058.33 1244.38L1087.54 1252.21L1085.59 1256.99L1063.18 1250.98L1062.23 1257.02L1060.03 1265.21L1079.2 1270.35L1078 1274.83L1058.83 1269.69L1052.7 1292.57Z" fill="#343434"/>
</g>
</g>
</g>
<g id="key_16" clip-path="url(#clip31_556_11400)">
<g id="keycap_16" clip-path="url(#clip32_556_11400)">
<rect id="R" x="1057.7" y="1021.31" width="146" height="147" rx="10" transform="rotate(15 1057.7 1021.31)" fill="#D9D9D9"/>
<g id="text left_16">
<path id="label_16" d="M1100.92 1112.25L1095.83 1131.23L1090.18 1129.72L1100.86 1089.84L1101.44 1083.37C1102.86 1083.58 1104.42 1083.83 1106.1 1084.13C1107.81 1084.43 1109.56 1084.82 1111.35 1085.3C1113.95 1086 1116.28 1086.92 1118.33 1088.07C1120.39 1089.19 1122.08 1090.51 1123.4 1092.01C1124.72 1093.51 1125.62 1095.19 1126.1 1097.04C1126.58 1098.87 1126.54 1100.82 1125.98 1102.9C1125.4 1105.07 1124.52 1106.87 1123.34 1108.32C1122.16 1109.77 1120.77 1110.91 1119.18 1111.75C1117.59 1112.56 1115.82 1113.1 1113.87 1113.37C1111.93 1113.62 1109.91 1113.66 1107.81 1113.47L1111.87 1115.89L1119.42 1137.55L1112.52 1135.71L1105 1113.98C1104.85 1113.63 1104.63 1113.39 1104.36 1113.27C1104.08 1113.14 1103.86 1113.04 1103.7 1113L1100.92 1112.25ZM1105.33 1095.78L1102.17 1107.59L1105.82 1108.56C1107.69 1109.07 1109.42 1109.25 1111 1109.12C1112.59 1108.98 1113.99 1108.59 1115.22 1107.97C1116.45 1107.33 1117.48 1106.49 1118.31 1105.45C1119.15 1104.4 1119.74 1103.2 1120.1 1101.86C1120.42 1100.68 1120.53 1099.6 1120.44 1098.6C1120.36 1097.61 1120.11 1096.7 1119.71 1095.89C1119.31 1095.08 1118.79 1094.34 1118.15 1093.68C1117.52 1093 1116.8 1092.41 1116.01 1091.91C1115.24 1091.42 1114.41 1090.99 1113.54 1090.62C1112.69 1090.26 1111.84 1089.97 1110.99 1089.74C1110.13 1089.51 1109.34 1089.33 1108.62 1089.21C1107.93 1089.06 1107.22 1088.97 1106.51 1088.91L1105.33 1095.78Z" fill="#343434"/>
</g>
</g>
</g>
<g id="key_17" clip-path="url(#clip33_556_11400)">
<g id="keycap_17" clip-path="url(#clip34_556_11400)">
<rect id="4" x="1100.93" y="859.998" width="146" height="147" rx="10" transform="rotate(15 1100.93 859.998)" fill="#AED3E9"/>
<g id="text left_17">
<path id="label_17" d="M1164.54 966.812L1158.97 965.321L1156.49 974.594L1150 972.855L1152.48 963.582L1134.09 958.654L1135.51 953.369L1159.16 924.953L1164.83 927.137L1144.55 951.518L1140.52 955.075L1153.81 958.637L1157.18 946.056L1163.53 948.321L1160.3 960.376L1166.33 961.991L1164.54 966.812Z" fill="#343434"/>
</g>
</g>
</g>
<g id="key_18" clip-path="url(#clip35_556_11400)">
<g id="keycap_18" clip-path="url(#clip36_556_11400)">
<rect id="F4" x="1144.15" y="698.688" width="146" height="147" rx="10" transform="rotate(15 1144.15 698.688)" fill="#AED3E9"/>
<g id="text left_18">
<path id="label_18" d="M1162.27 803.252L1156.39 801.678L1167.08 761.804L1167.89 755.065L1197.1 762.892L1195.16 767.672L1172.75 761.667L1171.79 767.705L1169.6 775.897L1188.76 781.031L1187.56 785.513L1168.4 780.378L1162.27 803.252ZM1227.86 810.889L1222.3 809.398L1219.81 818.671L1213.32 816.932L1215.81 807.659L1197.42 802.731L1198.83 797.446L1222.48 769.03L1228.16 771.214L1207.88 795.595L1203.84 799.152L1217.13 802.714L1220.5 790.133L1226.85 792.398L1223.62 804.453L1229.65 806.068L1227.86 810.889Z" fill="#343434"/>
</g>
</g>
</g>
<g id="key_19" clip-path="url(#clip37_556_11400)">
<g id="keycap_19" clip-path="url(#clip38_556_11400)">
<rect id="S4" x="1187.37" y="537.379" width="146" height="147" rx="10" transform="rotate(15 1187.37 537.379)" fill="#A3DE8E"/>
<g id="text left_19">
<path id="label_19" d="M1200.03 637.363L1204.08 633.481C1204.42 633.859 1204.87 634.312 1205.44 634.839C1206.03 635.351 1206.7 635.871 1207.44 636.401C1208.18 636.931 1208.99 637.424 1209.86 637.878C1210.73 638.333 1211.64 638.687 1212.59 638.941C1213.87 639.283 1215.19 639.471 1216.55 639.504C1217.93 639.522 1219.23 639.34 1220.44 638.957C1221.67 638.558 1222.74 637.929 1223.66 637.07C1224.59 636.217 1225.25 635.079 1225.63 633.657C1225.99 632.318 1226 631.06 1225.65 629.885C1225.3 628.709 1224.73 627.585 1223.94 626.51C1223.14 625.436 1222.18 624.396 1221.06 623.388C1219.94 622.381 1218.79 621.365 1217.61 620.342C1216.44 619.323 1215.31 618.29 1214.2 617.241C1213.09 616.172 1212.16 615.049 1211.39 613.872C1210.62 612.695 1210.08 611.446 1209.77 610.127C1209.47 608.807 1209.52 607.375 1209.93 605.829C1210.47 603.83 1211.36 602.192 1212.61 600.914C1213.86 599.636 1215.3 598.675 1216.93 598.029C1218.56 597.384 1220.31 597.036 1222.17 596.984C1224.04 596.933 1225.86 597.145 1227.64 597.62C1232.03 598.796 1235.74 601.117 1238.79 604.584L1234.77 607.582C1233.59 606.382 1232.41 605.413 1231.21 604.673C1230.04 603.94 1228.66 603.36 1227.07 602.935C1225.96 602.637 1224.81 602.449 1223.61 602.372C1222.44 602.301 1221.33 602.401 1220.29 602.673C1219.27 602.93 1218.36 603.394 1217.56 604.063C1216.79 604.718 1216.25 605.633 1215.93 606.807C1215.62 607.961 1215.66 609.043 1216.06 610.054C1216.47 611.07 1217.09 612.053 1217.92 613.004C1218.77 613.939 1219.77 614.88 1220.9 615.825C1222.05 616.75 1223.21 617.714 1224.4 618.717C1225.62 619.705 1226.77 620.755 1227.87 621.865C1228.96 622.955 1229.88 624.15 1230.61 625.451C1231.37 626.736 1231.88 628.153 1232.13 629.699C1232.4 631.23 1232.29 632.923 1231.79 634.777C1231.17 637.085 1230.16 638.978 1228.75 640.455C1227.36 641.917 1225.74 643.017 1223.89 643.757C1222.06 644.482 1220.08 644.868 1217.95 644.915C1215.81 644.962 1213.72 644.709 1211.66 644.157C1210.34 643.804 1209.13 643.393 1208.04 642.924C1206.95 642.476 1205.92 641.97 1204.97 641.405C1204.04 640.846 1203.16 640.237 1202.35 639.576C1201.54 638.895 1200.76 638.157 1200.03 637.363ZM1271.09 649.58L1265.52 648.089L1263.04 657.362L1256.55 655.622L1259.03 646.349L1240.64 641.422L1242.06 636.136L1265.7 607.72L1271.38 609.904L1251.1 634.285L1247.07 637.843L1260.36 641.404L1263.73 628.824L1270.08 631.088L1266.85 643.143L1272.87 644.758L1271.09 649.58Z" fill="#343434"/>
</g>
</g>
</g>
<g id="key_20" clip-path="url(#clip39_556_11400)">
<g id="keycap_20" clip-path="url(#clip40_556_11400)">
<rect id="B" x="1136.79" y="1410.02" width="146" height="147" rx="10" transform="rotate(15 1136.79 1410.02)" fill="#D9D9D9"/>
<g id="text left_20">
<path id="label_20" d="M1169.3 1518.44L1179.98 1478.57L1180.71 1472.14C1181.99 1472.3 1183.29 1472.5 1184.63 1472.72C1185.98 1472.95 1187.32 1473.25 1188.66 1473.61C1191.05 1474.25 1193.29 1475.01 1195.37 1475.9C1197.46 1476.77 1199.21 1477.81 1200.63 1479.03C1202.07 1480.26 1203.08 1481.69 1203.68 1483.33C1204.29 1484.95 1204.3 1486.82 1203.74 1488.94C1203.13 1491.19 1202.13 1492.99 1200.73 1494.36C1199.32 1495.73 1197.61 1496.61 1195.58 1496.99L1190.46 1497.08L1194.89 1498.73C1196.04 1499.44 1197.1 1500.24 1198.05 1501.13C1199.01 1502.01 1199.78 1502.98 1200.35 1504.04C1200.95 1505.1 1201.33 1506.27 1201.5 1507.56C1201.66 1508.84 1201.54 1510.23 1201.14 1511.73C1200.67 1513.49 1200.01 1514.99 1199.17 1516.24C1198.35 1517.5 1197.39 1518.55 1196.31 1519.38C1195.22 1520.22 1194.04 1520.87 1192.77 1521.35C1191.5 1521.8 1190.18 1522.1 1188.82 1522.25C1187.48 1522.37 1186.12 1522.37 1184.74 1522.25C1183.37 1522.1 1182.03 1521.85 1180.73 1521.5L1169.3 1518.44ZM1176.34 1515.03L1179.74 1515.94C1181.78 1516.48 1183.63 1516.83 1185.29 1516.96C1186.98 1517.08 1188.47 1516.95 1189.74 1516.56C1191.04 1516.16 1192.13 1515.47 1193.01 1514.49C1193.9 1513.49 1194.57 1512.14 1195.03 1510.43C1195.44 1508.88 1195.53 1507.49 1195.29 1506.26C1195.04 1505.02 1194.52 1503.92 1193.72 1502.95C1192.94 1501.99 1191.9 1501.17 1190.6 1500.5C1189.31 1499.8 1187.83 1499.22 1186.16 1498.77L1181.06 1497.41L1176.34 1515.03ZM1184.51 1484.52L1182.34 1492.62L1185.59 1493.49C1186.86 1493.76 1188.15 1493.9 1189.46 1493.89C1190.78 1493.89 1192 1493.7 1193.12 1493.32C1194.27 1492.92 1195.26 1492.3 1196.1 1491.47C1196.97 1490.62 1197.59 1489.49 1197.97 1488.09C1198.33 1486.73 1198.31 1485.52 1197.91 1484.46C1197.54 1483.39 1196.92 1482.47 1196.07 1481.69C1195.22 1480.91 1194.21 1480.25 1193.02 1479.71C1191.86 1479.18 1190.7 1478.75 1189.52 1478.44C1188.82 1478.25 1188.08 1478.09 1187.3 1477.94C1186.55 1477.79 1185.84 1477.68 1185.16 1477.64L1184.51 1484.52Z" fill="#343434"/>
</g>
</g>
</g>
<g id="key_21" clip-path="url(#clip41_556_11400)">
<g id="keycap_21" clip-path="url(#clip42_556_11400)">
<rect id="G" x="1180.01" y="1248.71" width="146" height="147" rx="10" transform="rotate(15 1180.01 1248.71)" fill="#D9D9D9"/>
<g id="text left_21">
<path id="label_21" d="M1244.44 1359.16C1243.35 1359.86 1242.17 1360.48 1240.89 1361.02C1239.63 1361.55 1238.29 1361.94 1236.87 1362.2C1235.46 1362.44 1233.97 1362.52 1232.39 1362.46C1230.82 1362.41 1229.17 1362.16 1227.46 1361.7C1224.49 1360.9 1222.07 1359.57 1220.19 1357.69C1218.33 1355.81 1216.96 1353.56 1216.09 1350.97C1215.24 1348.37 1214.85 1345.51 1214.92 1342.37C1214.99 1339.23 1215.47 1335.99 1216.36 1332.65C1216.92 1330.57 1217.59 1328.6 1218.38 1326.73C1219.19 1324.85 1220.13 1323.14 1221.18 1321.59C1222.24 1320.04 1223.43 1318.69 1224.75 1317.54C1226.1 1316.38 1227.59 1315.47 1229.22 1314.83C1230.86 1314.16 1232.64 1313.79 1234.56 1313.71C1236.5 1313.61 1238.61 1313.87 1240.88 1314.47C1243.25 1315.11 1245.38 1316.09 1247.28 1317.41C1249.2 1318.72 1250.72 1320.29 1251.82 1322.11L1248.15 1324.67C1247.34 1323.75 1246.26 1322.84 1244.9 1321.95C1243.55 1321.05 1241.91 1320.35 1239.97 1319.83C1238.3 1319.38 1236.78 1319.21 1235.41 1319.3C1234.04 1319.4 1232.78 1319.71 1231.64 1320.25C1230.53 1320.79 1229.52 1321.52 1228.63 1322.46C1227.75 1323.37 1226.94 1324.43 1226.22 1325.65C1225.52 1326.88 1224.89 1328.22 1224.34 1329.69C1223.8 1331.15 1223.31 1332.69 1222.88 1334.3C1222.5 1335.72 1222.18 1337.2 1221.92 1338.74C1221.68 1340.27 1221.55 1341.79 1221.52 1343.31C1221.49 1344.83 1221.61 1346.29 1221.87 1347.71C1222.13 1349.13 1222.56 1350.42 1223.18 1351.6C1223.81 1352.79 1224.65 1353.82 1225.69 1354.7C1226.76 1355.58 1228.09 1356.23 1229.67 1356.66C1230.6 1356.91 1231.55 1357.05 1232.51 1357.09C1233.47 1357.12 1234.4 1357.08 1235.29 1356.97C1236.18 1356.86 1236.99 1356.69 1237.71 1356.46C1238.46 1356.22 1239.07 1355.95 1239.55 1355.66L1242.44 1344.87L1232.9 1341.65L1233.98 1337.64L1249.12 1341.69L1244.44 1359.16Z" fill="#343434"/>
</g>
</g>
</g>
<g id="key_22" clip-path="url(#clip43_556_11400)">
<g id="keycap_22" clip-path="url(#clip44_556_11400)">
<rect id="T" x="1223.24" y="1087.4" width="146" height="147" rx="10" transform="rotate(15 1223.24 1087.4)" fill="#D9D9D9"/>
<g id="text left_22">
<path id="label_22" d="M1266.4 1198.68L1277.5 1157.26L1264.37 1153.74L1265.69 1148.79L1297.68 1157.37L1296.36 1162.31L1283.38 1158.83L1272.28 1200.25L1266.4 1198.68Z" fill="#343434"/>
</g>
</g>
</g>
<g id="key_23" clip-path="url(#clip45_556_11400)">
<g id="keycap_23" clip-path="url(#clip46_556_11400)">
<rect id="5" x="1266.46" y="926.093" width="146" height="147" rx="10" transform="rotate(15 1266.46 926.093)" fill="#AED3E9"/>
<g id="text left_23">
<path id="label_23" d="M1314.7 1006.2C1314.87 1006.15 1315.15 1006.08 1315.55 1005.99C1315.97 1005.91 1316.47 1005.84 1317.06 1005.8C1317.64 1005.76 1318.29 1005.77 1319.01 1005.83C1319.75 1005.87 1320.54 1006 1321.38 1006.23C1323.53 1006.8 1325.34 1007.66 1326.83 1008.78C1328.34 1009.89 1329.52 1011.19 1330.36 1012.68C1331.22 1014.14 1331.74 1015.74 1331.92 1017.47C1332.12 1019.2 1331.98 1020.95 1331.51 1022.72C1330.95 1024.81 1330.06 1026.63 1328.85 1028.21C1327.63 1029.76 1326.19 1031.07 1324.51 1032.15C1322.86 1033.21 1321.02 1034.04 1319 1034.65C1317.01 1035.26 1314.93 1035.67 1312.77 1035.89C1310.64 1036.09 1308.5 1036.1 1306.34 1035.92C1304.18 1035.72 1302.12 1035.36 1300.14 1034.83L1301.46 1029.88C1303.02 1030.25 1304.64 1030.49 1306.31 1030.58C1307.99 1030.68 1309.63 1030.63 1311.25 1030.45C1312.89 1030.27 1314.45 1029.95 1315.95 1029.49C1317.46 1029.03 1318.82 1028.44 1320.04 1027.7C1321.27 1026.97 1322.32 1026.1 1323.18 1025.1C1324.05 1024.09 1324.65 1022.95 1325 1021.68C1325.28 1020.62 1325.38 1019.56 1325.29 1018.47C1325.23 1017.4 1324.96 1016.39 1324.48 1015.44C1324.03 1014.48 1323.37 1013.63 1322.48 1012.89C1321.6 1012.14 1320.49 1011.59 1319.15 1011.23C1318.1 1010.95 1317.13 1010.77 1316.25 1010.68C1315.37 1010.58 1314.57 1010.55 1313.86 1010.57C1313.14 1010.6 1312.51 1010.68 1311.95 1010.79C1311.41 1010.89 1310.96 1011 1310.6 1011.13L1306.76 1010.1L1312.56 988.461L1335.84 994.698L1334.51 999.643L1317.67 995.13L1314.7 1006.2Z" fill="#343434"/>
</g>
</g>
</g>
<g id="key_24" clip-path="url(#clip47_556_11400)">
<g id="keycap_24" clip-path="url(#clip48_556_11400)">
<rect id="F5" x="1309.68" y="764.784" width="146" height="147" rx="10" transform="rotate(15 1309.68 764.784)" fill="#AED3E9"/>
<g id="text left_24">
<path id="label_24" d="M1327.8 869.347L1321.93 867.773L1332.61 827.9L1333.42 821.16L1362.63 828.987L1360.69 833.767L1338.28 827.762L1337.33 833.801L1335.13 841.992L1354.29 847.127L1353.09 851.609L1333.93 846.474L1327.8 869.347ZM1378.03 850.272C1378.19 850.229 1378.48 850.161 1378.88 850.069C1379.3 849.983 1379.8 849.919 1380.38 849.877C1380.97 849.835 1381.62 849.844 1382.33 849.902C1383.07 849.946 1383.86 850.081 1384.71 850.307C1386.85 850.881 1388.67 851.732 1390.15 852.859C1391.67 853.971 1392.84 855.269 1393.68 856.753C1394.55 858.222 1395.07 859.819 1395.25 861.546C1395.45 863.277 1395.31 865.029 1394.83 866.801C1394.28 868.883 1393.39 870.71 1392.17 872.283C1390.96 873.836 1389.52 875.149 1387.84 876.223C1386.18 877.282 1384.35 878.116 1382.33 878.723C1380.33 879.337 1378.25 879.752 1376.1 879.969C1373.97 880.171 1371.82 880.182 1369.66 880.001C1367.51 879.799 1365.44 879.433 1363.46 878.903L1364.79 873.957C1366.35 874.33 1367.96 874.564 1369.64 874.66C1371.31 874.755 1372.96 874.711 1374.58 874.526C1376.21 874.346 1377.78 874.026 1379.27 873.564C1380.79 873.109 1382.15 872.513 1383.36 871.778C1384.6 871.048 1385.65 870.181 1386.51 869.176C1387.38 868.171 1387.98 867.03 1388.32 865.753C1388.6 864.702 1388.7 863.635 1388.62 862.552C1388.55 861.474 1388.28 860.463 1387.81 859.519C1387.36 858.559 1386.69 857.707 1385.81 856.962C1384.93 856.218 1383.81 855.666 1382.47 855.307C1381.42 855.026 1380.46 854.844 1379.57 854.762C1378.7 854.659 1377.9 854.622 1377.18 854.652C1376.47 854.681 1375.83 854.753 1375.27 854.868C1374.74 854.967 1374.29 855.079 1373.92 855.202L1370.09 854.175L1375.89 832.538L1399.16 838.775L1397.84 843.72L1380.99 839.207L1378.03 850.272Z" fill="#343434"/>
</g>
</g>
</g>
<g id="key_25" clip-path="url(#clip49_556_11400)">
<g id="keycap_25" clip-path="url(#clip50_556_11400)">
<rect id="S5" x="1352.91" y="603.474" width="146" height="147" rx="10" transform="rotate(15 1352.91 603.474)" fill="#A3DE8E"/>
<g id="text left_25">
<path id="label_25" d="M1365.56 703.459L1369.61 699.576C1369.95 699.954 1370.41 700.407 1370.97 700.934C1371.56 701.446 1372.23 701.967 1372.97 702.497C1373.71 703.027 1374.52 703.519 1375.39 703.974C1376.26 704.428 1377.17 704.782 1378.12 705.036C1379.4 705.379 1380.72 705.567 1382.08 705.6C1383.47 705.618 1384.76 705.435 1385.97 705.052C1387.2 704.654 1388.28 704.025 1389.19 703.166C1390.13 702.312 1390.79 701.174 1391.17 699.752C1391.53 698.413 1391.53 697.156 1391.18 695.98C1390.84 694.805 1390.27 693.68 1389.47 692.606C1388.68 691.532 1387.72 690.491 1386.6 689.484C1385.48 688.476 1384.32 687.461 1383.14 686.437C1381.98 685.419 1380.84 684.385 1379.73 683.337C1378.62 682.268 1377.69 681.145 1376.92 679.967C1376.16 678.79 1375.62 677.542 1375.31 676.222C1375 674.903 1375.05 673.47 1375.47 671.925C1376 669.926 1376.89 668.287 1378.14 667.01C1379.39 665.732 1380.83 664.77 1382.46 664.125C1384.09 663.479 1385.84 663.131 1387.71 663.08C1389.58 663.028 1391.4 663.24 1393.17 663.715C1397.56 664.891 1401.28 667.212 1404.32 670.679L1400.31 673.678C1399.13 672.478 1397.94 671.508 1396.75 670.769C1395.57 670.035 1394.19 669.456 1392.61 669.03C1391.49 668.732 1390.34 668.545 1389.15 668.468C1387.97 668.396 1386.86 668.497 1385.82 668.769C1384.8 669.026 1383.89 669.489 1383.1 670.159C1382.32 670.814 1381.78 671.728 1381.47 672.903C1381.16 674.057 1381.2 675.139 1381.59 676.149C1382 677.165 1382.62 678.149 1383.45 679.099C1384.3 680.035 1385.3 680.975 1386.44 681.921C1387.58 682.845 1388.75 683.809 1389.94 684.813C1391.15 685.801 1392.31 686.85 1393.4 687.96C1394.5 689.05 1395.41 690.245 1396.15 691.546C1396.91 692.832 1397.41 694.248 1397.66 695.794C1397.94 697.325 1397.82 699.018 1397.33 700.873C1396.71 703.181 1395.69 705.073 1394.28 706.55C1392.9 708.012 1391.28 709.113 1389.42 709.853C1387.59 710.578 1385.61 710.963 1383.48 711.01C1381.35 711.057 1379.25 710.805 1377.19 710.252C1375.87 709.899 1374.67 709.488 1373.58 709.02C1372.48 708.572 1371.46 708.065 1370.51 707.501C1369.57 706.942 1368.7 706.332 1367.88 705.671C1367.07 704.99 1366.3 704.253 1365.56 703.459ZM1421.25 688.963C1421.42 688.919 1421.7 688.851 1422.1 688.76C1422.52 688.674 1423.02 688.61 1423.61 688.568C1424.19 688.526 1424.84 688.534 1425.56 688.593C1426.3 688.636 1427.09 688.771 1427.93 688.998C1430.08 689.572 1431.89 690.422 1433.38 691.55C1434.89 692.662 1436.07 693.96 1436.91 695.444C1437.77 696.912 1438.29 698.51 1438.47 700.236C1438.67 701.968 1438.53 703.72 1438.06 705.492C1437.5 707.573 1436.61 709.4 1435.39 710.974C1434.18 712.527 1432.74 713.84 1431.06 714.914C1429.41 715.973 1427.57 716.806 1425.55 717.414C1423.56 718.027 1421.48 718.442 1419.32 718.66C1417.19 718.862 1415.05 718.872 1412.89 718.691C1410.73 718.489 1408.67 718.123 1406.69 717.593L1408.01 712.648C1409.57 713.021 1411.18 713.255 1412.86 713.35C1414.53 713.446 1416.18 713.401 1417.8 713.216C1419.44 713.037 1421 712.716 1422.5 712.255C1424.01 711.799 1425.37 711.204 1426.59 710.469C1427.82 709.739 1428.87 708.872 1429.73 707.867C1430.6 706.862 1431.2 705.721 1431.55 704.443C1431.83 703.392 1431.93 702.325 1431.84 701.242C1431.78 700.165 1431.51 699.154 1431.03 698.209C1430.58 697.249 1429.91 696.397 1429.03 695.653C1428.15 694.908 1427.04 694.357 1425.7 693.998C1424.65 693.716 1423.68 693.534 1422.8 693.452C1421.92 693.349 1421.12 693.313 1420.41 693.342C1419.69 693.371 1419.06 693.443 1418.49 693.558C1417.96 693.658 1417.51 693.769 1417.15 693.893L1413.31 692.866L1419.11 671.229L1442.39 677.465L1441.06 682.411L1424.21 677.897L1421.25 688.963Z" fill="#343434"/>
</g>
</g>
</g>
<g id="key_26" clip-path="url(#clip51_556_11400)">
<g id="keycap_26" clip-path="url(#clip52_556_11400)">
<rect id="LS" x="262.622" y="1253.09" width="146" height="147" rx="10" transform="rotate(15 262.622 1253.09)" fill="#AED3E9"/>
<g id="text left_26">
<path id="label_26" d="M281.695 1352.61L304.259 1358.65L302.315 1363.43L274.342 1355.94L276.617 1349.92L285.645 1316.23L286.456 1309.49L293.268 1310.65L283.495 1347.13L281.695 1352.61ZM315.482 1363.85L319.537 1359.97C319.877 1360.34 320.33 1360.8 320.896 1361.32C321.488 1361.84 322.154 1362.36 322.896 1362.89C323.637 1363.42 324.444 1363.91 325.316 1364.36C326.188 1364.82 327.098 1365.17 328.046 1365.43C329.323 1365.77 330.642 1365.96 332.003 1365.99C333.389 1366.01 334.686 1365.82 335.893 1365.44C337.126 1365.04 338.2 1364.41 339.115 1363.55C340.051 1362.7 340.709 1361.56 341.09 1360.14C341.449 1358.8 341.454 1357.54 341.107 1356.37C340.759 1355.19 340.188 1354.07 339.394 1352.99C338.599 1351.92 337.641 1350.88 336.52 1349.87C335.398 1348.87 334.246 1347.85 333.063 1346.83C331.9 1345.81 330.763 1344.77 329.653 1343.73C328.548 1342.66 327.612 1341.53 326.845 1340.36C326.078 1339.18 325.541 1337.93 325.232 1336.61C324.923 1335.29 324.975 1333.86 325.389 1332.31C325.925 1330.31 326.817 1328.68 328.065 1327.4C329.312 1326.12 330.752 1325.16 332.382 1324.51C334.013 1323.87 335.763 1323.52 337.632 1323.47C339.501 1323.42 341.321 1323.63 343.093 1324.1C347.482 1325.28 351.2 1327.6 354.247 1331.07L350.23 1334.07C349.05 1332.87 347.863 1331.9 346.669 1331.16C345.497 1330.42 344.117 1329.84 342.53 1329.42C341.418 1329.12 340.264 1328.93 339.07 1328.86C337.897 1328.79 336.788 1328.89 335.743 1329.16C334.724 1329.41 333.816 1329.88 333.018 1330.55C332.246 1331.2 331.703 1332.12 331.389 1333.29C331.079 1334.45 331.121 1335.53 331.512 1336.54C331.925 1337.55 332.545 1338.54 333.372 1339.49C334.226 1340.42 335.222 1341.36 336.36 1342.31C337.504 1343.23 338.67 1344.2 339.859 1345.2C341.074 1346.19 342.228 1347.24 343.322 1348.35C344.421 1349.44 345.338 1350.63 346.072 1351.94C346.831 1353.22 347.335 1354.64 347.584 1356.18C347.858 1357.71 347.747 1359.41 347.25 1361.26C346.631 1363.57 345.616 1365.46 344.205 1366.94C342.819 1368.4 341.199 1369.5 339.344 1370.24C337.516 1370.97 335.535 1371.35 333.402 1371.4C331.269 1371.45 329.173 1371.19 327.112 1370.64C325.793 1370.29 324.589 1369.88 323.5 1369.41C322.405 1368.96 321.381 1368.45 320.428 1367.89C319.496 1367.33 318.621 1366.72 317.805 1366.06C316.993 1365.38 316.219 1364.64 315.482 1363.85Z" fill="#343434"/>
</g>
</g>
</g>
<g id="key_27" clip-path="url(#clip53_556_11400)">
<g id="keycap_27" clip-path="url(#clip54_556_11400)">
<rect id="CAP" x="305.845" y="1091.78" width="146" height="147" rx="10" transform="rotate(15 305.845 1091.78)" fill="#AED3E9"/>
<g id="text left_27">
<path id="label_27" d="M328.448 1194.1C327.421 1194.55 326.412 1194.9 325.419 1195.14C324.427 1195.39 323.415 1195.53 322.384 1195.59C321.359 1195.62 320.305 1195.56 319.22 1195.4C318.131 1195.27 316.978 1195.03 315.762 1194.71C313.784 1194.18 311.976 1193.39 310.338 1192.33C308.705 1191.25 307.257 1189.98 305.993 1188.51C304.755 1187.03 303.717 1185.39 302.878 1183.57C302.039 1181.76 301.427 1179.84 301.042 1177.81C300.663 1175.77 300.512 1173.65 300.59 1171.46C300.668 1169.27 301.006 1167.07 301.602 1164.84C302.436 1161.73 303.668 1158.9 305.3 1156.36C306.937 1153.79 308.913 1151.69 311.227 1150.06C313.548 1148.41 316.161 1147.31 319.068 1146.76C321.996 1146.22 325.16 1146.41 328.56 1147.32C330.93 1147.95 332.96 1148.91 334.652 1150.18C336.37 1151.43 337.78 1152.97 338.882 1154.79L335.214 1157.35C334.808 1156.89 334.365 1156.44 333.886 1156C333.413 1155.54 332.866 1155.11 332.247 1154.7C331.648 1154.3 330.964 1153.93 330.193 1153.59C329.449 1153.23 328.603 1152.93 327.655 1152.67C325.141 1152 322.819 1151.89 320.69 1152.33C318.582 1152.78 316.691 1153.66 315.018 1154.95C313.351 1156.23 311.919 1157.87 310.721 1159.87C309.549 1161.85 308.64 1164.04 307.994 1166.46C307.591 1167.96 307.34 1169.52 307.24 1171.12C307.141 1172.73 307.189 1174.32 307.385 1175.9C307.602 1177.48 307.977 1179.01 308.511 1180.48C309.045 1181.94 309.745 1183.29 310.609 1184.52C311.494 1185.75 312.545 1186.81 313.761 1187.71C314.983 1188.59 316.387 1189.24 317.974 1189.67C318.901 1189.92 319.726 1190.1 320.449 1190.2C321.172 1190.31 321.867 1190.35 322.535 1190.33C323.223 1190.31 323.926 1190.25 324.642 1190.13C325.363 1189.99 326.187 1189.81 327.112 1189.57L328.448 1194.1ZM333.329 1198.85L358.686 1162.58L361.424 1156.69L367.092 1157.54L371.441 1209.07L365.259 1207.41L364.411 1192.27L347.875 1187.84L339.017 1200.38L333.329 1198.85ZM363.872 1160.66L359.831 1170.17L350.632 1183.61L364.139 1187.23L362.613 1170.92L363.872 1160.66ZM386.24 1213.03L380.367 1211.46L391.051 1171.58L391.626 1165.11C392.272 1165.17 393.018 1165.27 393.864 1165.41C394.731 1165.56 395.636 1165.72 396.58 1165.91C397.524 1166.1 398.473 1166.31 399.426 1166.54C400.385 1166.75 401.266 1166.97 402.07 1167.18C405.573 1168.12 408.506 1169.25 410.87 1170.57C413.259 1171.87 415.127 1173.31 416.471 1174.88C417.822 1176.44 418.679 1178.1 419.042 1179.88C419.426 1181.66 419.367 1183.49 418.864 1185.36C418.119 1188.15 417 1190.34 415.509 1191.95C414.017 1193.56 412.138 1194.68 409.871 1195.31C407.61 1195.92 404.94 1196.08 401.861 1195.78C398.787 1195.47 395.303 1194.79 391.408 1193.74L386.24 1213.03ZM395.74 1177.58L392.576 1189.38C395.708 1190.22 398.434 1190.77 400.753 1191.01C403.073 1191.26 405.048 1191.18 406.68 1190.78C408.317 1190.36 409.639 1189.58 410.646 1188.46C411.654 1187.34 412.414 1185.82 412.928 1183.91C413.297 1182.52 413.221 1181.2 412.699 1179.93C412.203 1178.65 411.421 1177.49 410.352 1176.46C409.288 1175.4 408.043 1174.48 406.618 1173.7C405.192 1172.92 403.748 1172.34 402.285 1171.94C401.935 1171.85 401.509 1171.75 401.009 1171.63C400.535 1171.51 400.046 1171.4 399.54 1171.31C399.04 1171.2 398.547 1171.1 398.062 1171.01C397.598 1170.93 397.203 1170.88 396.877 1170.86L395.74 1177.58Z" fill="#343434"/>
</g>
</g>
</g>
<g id="key_28" clip-path="url(#clip55_556_11400)">
<g id="keycap_28" clip-path="url(#clip56_556_11400)">
<rect id="A" x="476.814" y="1137.59" width="146" height="147" rx="10" transform="rotate(15 476.814 1137.59)" fill="#D9D9D9"/>
<g id="text left_28">
<path id="label_28" d="M503.816 1244.53L529.172 1208.26L531.91 1202.37L537.578 1203.23L541.927 1254.75L535.745 1253.09L534.898 1237.96L518.361 1233.52L509.503 1246.06L503.816 1244.53ZM534.359 1206.34L530.317 1215.86L521.118 1229.29L534.626 1232.91L533.099 1216.6L534.359 1206.34Z" fill="#343434"/>
</g>
</g>
</g>
<g id="key_29" clip-path="url(#clip57_556_11400)">
<g id="keycap_29" clip-path="url(#clip58_556_11400)">
<rect id="Q" x="520.037" y="976.281" width="146" height="147" rx="10" transform="rotate(15 520.037 976.281)" fill="#D9D9D9"/>
<g id="text left_29">
<path id="label_29" d="M576.963 1080.84C577.531 1080.29 578.088 1079.65 578.633 1078.94C579.184 1078.2 579.706 1077.32 580.199 1076.31C580.712 1075.3 581.216 1074.12 581.71 1072.77C582.209 1071.4 582.699 1069.82 583.179 1068.03C583.565 1066.59 583.883 1065.11 584.13 1063.61C584.399 1062.12 584.55 1060.64 584.585 1059.2C584.625 1057.73 584.538 1056.32 584.322 1054.98C584.107 1053.65 583.703 1052.43 583.11 1051.35C582.523 1050.24 581.743 1049.28 580.768 1048.47C579.793 1047.65 578.574 1047.05 577.111 1046.66C575.71 1046.28 574.405 1046.21 573.195 1046.44C572.012 1046.65 570.912 1047.08 569.898 1047.74C568.883 1048.4 567.953 1049.23 567.108 1050.24C566.263 1051.25 565.501 1052.36 564.824 1053.57C564.152 1054.76 563.561 1056.01 563.053 1057.34C562.57 1058.64 562.161 1059.92 561.824 1061.18C561.382 1062.83 561 1064.46 560.678 1066.07C560.356 1067.69 560.149 1069.25 560.056 1070.75C559.984 1072.25 560.056 1073.67 560.272 1075.01C560.508 1076.35 560.95 1077.59 561.599 1078.71C562.274 1079.82 563.194 1080.8 564.359 1081.64C565.525 1082.48 567.012 1083.15 568.82 1083.66C569.026 1083.72 569.217 1083.75 569.393 1083.75C569.569 1083.75 569.845 1083.75 570.223 1083.74C569.936 1082.67 569.68 1081.73 569.456 1080.92C569.258 1080.09 569.016 1079.39 568.731 1078.8C568.451 1078.2 568.094 1077.71 567.661 1077.35C567.232 1076.97 566.668 1076.69 565.967 1076.5L568.736 1072.47C569.746 1072.75 570.595 1073.2 571.282 1073.85C571.996 1074.49 572.611 1075.32 573.126 1076.37C573.642 1077.41 574.102 1078.66 574.507 1080.12C574.918 1081.55 575.358 1083.2 575.829 1085.08L576.963 1080.84ZM569.417 1089.22C568.693 1089.2 567.931 1089.12 567.131 1088.97C566.352 1088.83 565.468 1088.63 564.479 1088.36C561.924 1087.68 559.852 1086.43 558.263 1084.61C556.694 1082.8 555.553 1080.63 554.84 1078.09C554.128 1075.56 553.822 1072.79 553.925 1069.76C554.048 1066.75 554.524 1063.7 555.352 1060.61C555.932 1058.44 556.644 1056.4 557.489 1054.49C558.339 1052.55 559.308 1050.79 560.395 1049.2C561.509 1047.6 562.723 1046.2 564.036 1045.01C565.371 1043.82 566.805 1042.88 568.338 1042.19C569.876 1041.47 571.513 1041.05 573.249 1040.92C574.99 1040.77 576.809 1040.95 578.705 1041.45C581.487 1042.2 583.784 1043.43 585.597 1045.16C587.411 1046.88 588.758 1048.94 589.638 1051.34C590.519 1053.74 590.947 1056.43 590.923 1059.4C590.92 1062.38 590.484 1065.49 589.618 1068.73C589.088 1070.71 588.444 1072.65 587.687 1074.57C586.936 1076.47 586.076 1078.24 585.107 1079.88C584.158 1081.52 583.087 1083 581.896 1084.32C580.73 1085.62 579.448 1086.65 578.048 1087.43C577.839 1087.55 577.617 1087.67 577.382 1087.81C577.152 1087.93 576.935 1088.03 576.732 1088.13C576.947 1088.9 577.159 1089.51 577.369 1089.96C577.578 1090.41 577.851 1090.8 578.188 1091.11C578.53 1091.4 578.97 1091.65 579.51 1091.86C580.055 1092.05 580.761 1092.26 581.626 1092.49L578.849 1096.55C577.819 1096.28 576.893 1095.94 576.072 1095.54C575.271 1095.15 574.541 1094.58 573.88 1093.83C573.241 1093.08 572.675 1092.1 572.183 1090.89C571.691 1089.68 571.236 1088.12 570.818 1086.22L570.552 1084.99L569.417 1089.22Z" fill="#343434"/>
</g>
</g>
</g>
<g id="key_30" clip-path="url(#clip59_556_11400)">
<g id="keycap_30" clip-path="url(#clip60_556_11400)">
<rect id="1" x="563.259" y="814.972" width="146" height="147" rx="10" transform="rotate(15 563.259 814.972)" fill="#AED3E9"/>
<g id="text left_30">
<path id="label_30" d="M596.629 923.622L597.954 918.676L608.617 921.534L616.618 891.675L620.291 885.139L614.547 889.762L606.437 893.817L604.101 889.182L621.736 879.993L626.207 881.854L615.109 923.273L625.772 926.13L624.447 931.076L596.629 923.622Z" fill="#343434"/>
</g>
</g>
</g>
<g id="key_31" clip-path="url(#clip61_556_11400)">
<g id="keycap_31" clip-path="url(#clip62_556_11400)">
<rect id="F1" x="606.482" y="653.662" width="146" height="147" rx="10" transform="rotate(15 606.482 653.662)" fill="#AED3E9"/>
<g id="text left_31">
<path id="label_31" d="M624.6 758.226L618.728 756.652L629.412 716.779L630.224 710.039L659.433 717.866L657.49 722.646L635.08 716.641L634.125 722.68L631.93 730.871L651.094 736.006L649.893 740.488L630.729 735.353L624.6 758.226ZM659.954 767.699L661.279 762.753L671.943 765.611L679.944 735.752L683.617 729.216L677.872 733.839L669.763 737.894L667.426 733.259L685.062 724.07L689.532 725.931L678.434 767.35L689.098 770.207L687.773 775.153L659.954 767.699Z" fill="#343434"/>
</g>
</g>
</g>
<g id="key_32" clip-path="url(#clip63_556_11400)">
<g id="keycap_32" clip-path="url(#clip64_556_11400)">
<rect id="S1" x="649.705" y="492.353" width="146" height="147" rx="10" transform="rotate(15 649.705 492.353)" fill="#A3DE8E"/>
<g id="text left_32">
<path id="label_32" d="M662.358 592.337L666.413 588.455C666.754 588.833 667.207 589.286 667.772 589.813C668.364 590.324 669.031 590.845 669.772 591.375C670.513 591.905 671.32 592.398 672.192 592.852C673.064 593.307 673.974 593.661 674.922 593.915C676.2 594.257 677.519 594.445 678.879 594.478C680.266 594.496 681.563 594.314 682.77 593.93C684.003 593.532 685.077 592.903 685.992 592.044C686.927 591.19 687.585 590.053 687.966 588.631C688.325 587.291 688.331 586.034 687.983 584.859C687.635 583.683 687.064 582.559 686.27 581.484C685.476 580.41 684.518 579.369 683.396 578.362C682.275 577.355 681.122 576.339 679.939 575.316C678.776 574.297 677.64 573.264 676.529 572.215C675.424 571.146 674.488 570.023 673.722 568.846C672.955 567.669 672.417 566.42 672.108 565.101C671.799 563.781 671.852 562.348 672.266 560.803C672.801 558.804 673.693 557.166 674.941 555.888C676.189 554.61 677.628 553.648 679.259 553.003C680.889 552.358 682.639 552.01 684.508 551.958C686.377 551.907 688.198 552.119 689.97 552.593C694.359 553.769 698.077 556.091 701.123 559.557L697.106 562.556C695.926 561.356 694.739 560.387 693.546 559.647C692.373 558.914 690.993 558.334 689.407 557.909C688.294 557.611 687.141 557.423 685.947 557.346C684.773 557.275 683.664 557.375 682.619 557.647C681.601 557.904 680.692 558.368 679.895 559.037C679.123 559.692 678.58 560.607 678.265 561.781C677.956 562.935 677.997 564.017 678.389 565.028C678.801 566.044 679.421 567.027 680.249 567.978C681.102 568.913 682.098 569.854 683.236 570.799C684.38 571.724 685.546 572.688 686.735 573.691C687.95 574.679 689.104 575.728 690.198 576.839C691.298 577.928 692.214 579.124 692.948 580.425C693.708 581.71 694.212 583.126 694.46 584.673C694.734 586.204 694.623 587.897 694.126 589.751C693.508 592.059 692.493 593.952 691.081 595.429C689.695 596.89 688.075 597.991 686.221 598.731C684.392 599.456 682.411 599.842 680.279 599.889C678.146 599.936 676.049 599.683 673.988 599.131C672.67 598.778 671.466 598.367 670.376 597.898C669.282 597.45 668.258 596.944 667.305 596.379C666.372 595.82 665.498 595.21 664.681 594.55C663.87 593.869 663.095 593.131 662.358 592.337ZM703.177 606.389L704.503 601.443L715.166 604.301L723.167 574.442L726.84 567.906L721.096 572.529L712.986 576.584L710.65 571.949L728.285 562.761L732.756 564.621L721.657 606.04L732.321 608.897L730.996 613.843L703.177 606.389Z" fill="#343434"/>
</g>
</g>
</g>
<g id="key_33" clip-path="url(#clip65_556_11400)">
<g id="keycap_33" clip-path="url(#clip66_556_11400)">
<rect id="TAB" x="349.068" y="930.47" width="146" height="147" rx="10" transform="rotate(15 349.068 930.47)" fill="#AED3E9"/>
<g id="text left_33">
<path id="label_33" d="M352.512 1031.1L363.61 989.683L350.473 986.163L351.798 981.217L383.79 989.789L382.465 994.735L369.483 991.256L358.385 1032.68L352.512 1031.1ZM376.553 1037.54L401.909 1001.27L404.647 995.378L410.315 996.234L414.664 1047.76L408.482 1046.1L407.635 1030.96L391.098 1026.53L382.24 1039.07L376.553 1037.54ZM407.095 999.347L403.054 1008.87L393.855 1022.3L407.362 1025.92L405.836 1009.61L407.095 999.347ZM422.261 1049.79L432.945 1009.92L433.674 1003.49C434.955 1003.65 436.261 1003.85 437.592 1004.07C438.944 1004.3 440.29 1004.6 441.629 1004.96C444.02 1005.6 446.255 1006.36 448.336 1007.25C450.422 1008.12 452.175 1009.16 453.593 1010.38C455.031 1011.61 456.05 1013.04 456.649 1014.68C457.253 1016.3 457.27 1018.17 456.702 1020.29C456.1 1022.54 455.097 1024.35 453.692 1025.71C452.287 1027.08 450.573 1027.96 448.548 1028.34L443.423 1028.43L447.851 1030.08C449.009 1030.79 450.064 1031.59 451.016 1032.48C451.975 1033.36 452.742 1034.33 453.32 1035.39C453.917 1036.45 454.299 1037.63 454.464 1038.91C454.628 1040.19 454.509 1041.58 454.106 1043.08C453.637 1044.84 452.98 1046.34 452.136 1047.59C451.313 1048.85 450.359 1049.9 449.273 1050.73C448.188 1051.57 447.008 1052.23 445.732 1052.7C444.462 1053.16 443.145 1053.45 441.781 1053.6C440.444 1053.72 439.086 1053.72 437.706 1053.6C436.332 1053.45 434.996 1053.2 433.698 1052.86L422.261 1049.79ZM429.305 1046.38L432.705 1047.29C434.745 1047.84 436.597 1048.18 438.261 1048.31C439.951 1048.44 441.433 1048.3 442.707 1047.92C444.008 1047.51 445.098 1046.82 445.979 1045.84C446.865 1044.84 447.538 1043.49 447.996 1041.78C448.41 1040.23 448.495 1038.84 448.252 1037.61C448.009 1036.37 447.487 1035.27 446.686 1034.3C445.905 1033.34 444.865 1032.53 443.568 1031.85C442.275 1031.15 440.795 1030.57 439.126 1030.13L434.025 1028.76L429.305 1046.38ZM437.479 1015.87L435.309 1023.97L438.555 1024.84C439.828 1025.11 441.117 1025.25 442.421 1025.24C443.746 1025.25 444.968 1025.05 446.087 1024.67C447.232 1024.27 448.226 1023.65 449.068 1022.82C449.936 1021.97 450.558 1020.84 450.933 1019.44C451.298 1018.08 451.279 1016.87 450.878 1015.82C450.502 1014.74 449.889 1013.82 449.038 1013.04C448.187 1012.26 447.171 1011.6 445.99 1011.06C444.829 1010.53 443.662 1010.11 442.487 1009.79C441.787 1009.6 441.047 1009.44 440.268 1009.3C439.515 1009.14 438.802 1009.04 438.131 1008.99L437.479 1015.87Z" fill="#343434"/>
</g>
</g>
</g>
<g id="key_34" clip-path="url(#clip67_556_11400)">
<g id="keycap_34" clip-path="url(#clip68_556_11400)">
<rect id="`" x="392.291" y="769.161" width="146" height="147" rx="10" transform="rotate(15 392.291 769.161)" fill="#AED3E9"/>
<g id="text left_34">
<path id="label_34" d="M454.824 845.871L450.188 844.628L445.718 833.492L452.189 834.563L454.824 845.871Z" fill="#343434"/>
</g>
</g>
</g>
<g id="key/2u">
<g id="key_35" clip-path="url(#clip69_556_11400)">
<g id="keycap_35" clip-path="url(#clip70_556_11400)">
<rect id="L1" x="134.876" y="1045.97" width="146" height="314" rx="10" transform="rotate(15 134.876 1045.97)" fill="#CF9BDB"/>
<g id="text left_35">
<path id="label_35" d="M132.208 1226.63L154.772 1232.67L152.829 1237.45L124.855 1229.96L127.13 1223.94L136.158 1190.25L136.97 1183.51L143.781 1184.67L134.008 1221.14L132.208 1226.63ZM166.608 1241.14L167.933 1236.2L178.597 1239.06L186.597 1209.2L190.27 1202.66L184.526 1207.28L176.416 1211.34L174.08 1206.7L191.715 1197.52L196.186 1199.38L185.088 1240.79L195.751 1243.65L194.426 1248.6L166.608 1241.14Z" fill="#343434"/>
</g>
</g>
</g>
</g>
<g id="key/2u_2">
<g id="key_36" clip-path="url(#clip71_556_11400)">
<g id="keycap_36" clip-path="url(#clip72_556_11400)">
<rect id="L2" x="221.322" y="723.35" width="146" height="314" rx="10" transform="rotate(15 221.322 723.35)" fill="#CF9BDB"/>
<g id="text left_36">
<path id="label_36" d="M218.654 904.006L241.218 910.052L239.274 914.832L211.301 907.337L213.576 901.32L222.603 867.629L223.415 860.889L230.227 862.052L220.454 898.525L218.654 904.006ZM251.353 918.069L252.745 912.876C254.096 911.626 255.524 910.418 257.028 909.253C258.533 908.088 260.034 906.978 261.532 905.921C263.056 904.85 264.53 903.842 265.953 902.898C267.382 901.934 268.701 901.051 269.91 900.248C271.313 899.299 272.647 898.442 273.912 897.676C275.203 896.896 276.365 896.103 277.398 895.298C278.431 894.492 279.318 893.614 280.059 892.664C280.805 891.694 281.351 890.559 281.699 889.261C281.964 888.272 282.027 887.295 281.888 886.33C281.755 885.345 281.434 884.441 280.925 883.62C280.442 882.784 279.787 882.057 278.959 881.437C278.137 880.797 277.169 880.328 276.056 880.03C274.799 879.693 273.66 879.576 272.639 879.678C271.644 879.764 270.722 879.992 269.872 880.361C269.043 880.735 268.277 881.203 267.574 881.766C266.897 882.313 266.249 882.879 265.628 883.464L261.767 880.442C262.661 879.246 263.67 878.202 264.792 877.31C265.941 876.403 267.19 875.7 268.538 875.2C269.892 874.679 271.352 874.385 272.915 874.319C274.479 874.252 276.147 874.456 277.92 874.931C280.001 875.488 281.756 876.356 283.185 877.534C284.614 878.712 285.722 880.058 286.509 881.572C287.322 883.071 287.813 884.66 287.982 886.34C288.171 888.025 288.055 889.65 287.636 891.216C287.21 892.803 286.506 894.237 285.522 895.52C284.564 896.787 283.468 897.951 282.234 899.012C281.026 900.057 279.765 901.012 278.452 901.874C277.139 902.737 275.927 903.55 274.817 904.313C273.409 905.283 272.006 906.232 270.609 907.161C269.211 908.089 267.861 909.008 266.557 909.918C265.279 910.812 264.072 911.692 262.934 912.558C261.802 913.403 260.795 914.238 259.911 915.061L281.548 920.859L280.223 925.804L251.353 918.069Z" fill="#343434"/>
</g>
</g>
</g>
</g>
<g id="key/2u_3">
<g id="key_37" clip-path="url(#clip73_556_11400)">
<g id="keycap_37" clip-path="url(#clip74_556_11400)">
<rect id="L3" x="582.283" y="642.014" width="146" height="314" rx="10" transform="rotate(105 582.283 642.014)" fill="#CF9BDB"/>
<g id="text left_37">
<path id="label_37" d="M401.626 639.346L395.58 661.91L390.8 659.966L398.296 631.993L404.312 634.268L438.004 643.295L444.743 644.107L443.581 650.919L407.107 641.146L401.626 639.346ZM428.618 684.503L433.44 686.292L426.98 710.402L422.652 709.242C421.894 708.774 421.142 708.12 420.395 707.279C419.664 706.465 418.942 705.532 418.23 704.479C417.533 703.453 416.869 702.348 416.237 701.163C415.599 699.998 415.006 698.834 414.456 697.671L413.262 692.978C413.248 693.195 413.199 693.458 413.117 693.767C413.049 694.102 412.976 694.414 412.899 694.703C412.364 696.701 411.619 698.49 410.666 700.067C409.708 701.666 408.556 702.958 407.209 703.945C405.878 704.957 404.343 705.617 402.604 705.924C400.88 706.258 398.978 706.145 396.897 705.588C394.898 705.052 393.184 704.195 391.755 703.017C390.325 701.839 389.146 700.43 388.216 698.789C387.302 697.175 386.613 695.378 386.149 693.399C385.706 691.425 385.451 689.369 385.383 687.23C385.31 685.113 385.411 682.964 385.686 680.785C385.961 678.606 386.369 676.507 386.91 674.487L391.855 675.812C391.459 677.539 391.163 679.26 390.969 680.975C390.774 682.69 390.695 684.347 390.73 685.946C390.786 687.551 390.965 689.068 391.267 690.496C391.569 691.924 392.021 693.205 392.623 694.338C393.24 695.497 394.015 696.478 394.948 697.28C395.902 698.088 397.029 698.666 398.327 699.014C399.81 699.411 401.132 699.423 402.293 699.049C403.447 698.696 404.46 698.051 405.329 697.113C406.199 696.176 406.946 694.996 407.57 693.573C408.209 692.176 408.755 690.633 409.208 688.943C409.385 688.284 409.557 687.557 409.726 686.763C409.91 685.995 410.064 685.296 410.188 684.667L414.979 685.951C415.371 686.961 415.826 688.066 416.344 689.265C416.862 690.464 417.408 691.681 417.982 692.917C418.577 694.159 419.18 695.37 419.792 696.549C420.419 697.755 421.018 698.855 421.592 699.848C422.185 700.846 422.751 701.704 423.287 702.422C423.844 703.146 424.327 703.651 424.736 703.937L424.759 698.907L428.618 684.503Z" fill="#343434"/>
</g>
</g>
</g>
</g>
</g>
</g>
<defs>
<clipPath id="clip0_556_11400">
<rect width="2360" height="1640" fill="white"/>
</clipPath>
<clipPath id="clip1_556_11400">
<rect width="177" height="167" fill="white" transform="translate(421.191 1284.51) rotate(15)"/>
</clipPath>
<clipPath id="clip2_556_11400">
<rect width="145.512" height="146.512" fill="white" transform="translate(433.591 1298.9) rotate(15)"/>
</clipPath>
<clipPath id="clip3_556_11400">
<rect width="177" height="167" fill="white" transform="translate(616.921 1237.92) rotate(15)"/>
</clipPath>
<clipPath id="clip4_556_11400">
<rect width="145.512" height="146.512" fill="white" transform="translate(629.32 1252.3) rotate(15)"/>
</clipPath>
<clipPath id="clip5_556_11400">
<rect width="177" height="167" fill="white" transform="translate(660.144 1076.61) rotate(15)"/>
</clipPath>
<clipPath id="clip6_556_11400">
<rect width="145.512" height="146.512" fill="white" transform="translate(672.543 1091) rotate(15)"/>
</clipPath>
<clipPath id="clip7_556_11400">
<rect width="177" height="167" fill="white" transform="translate(703.366 915.297) rotate(15)"/>
</clipPath>
<clipPath id="clip8_556_11400">
<rect width="145.512" height="146.512" fill="white" transform="translate(715.766 929.686) rotate(15)"/>
</clipPath>
<clipPath id="clip9_556_11400">
<rect width="177" height="167" fill="white" transform="translate(746.589 753.988) rotate(15)"/>
</clipPath>
<clipPath id="clip10_556_11400">
<rect width="145.512" height="146.512" fill="white" transform="translate(758.989 768.376) rotate(15)"/>
</clipPath>
<clipPath id="clip11_556_11400">
<rect width="177" height="167" fill="white" transform="translate(789.812 592.678) rotate(15)"/>
</clipPath>
<clipPath id="clip12_556_11400">
<rect width="145.512" height="146.512" fill="white" transform="translate(802.211 607.066) rotate(15)"/>
</clipPath>
<clipPath id="clip13_556_11400">
<rect width="177" height="167" fill="white" transform="translate(833.035 431.368) rotate(15)"/>
</clipPath>
<clipPath id="clip14_556_11400">
<rect width="145.512" height="146.512" fill="white" transform="translate(845.434 445.757) rotate(15)"/>
</clipPath>
<clipPath id="clip15_556_11400">
<rect width="177" height="167" fill="white" transform="translate(793.843 1261.51) rotate(15)"/>
</clipPath>
<clipPath id="clip16_556_11400">
<rect width="145.512" height="146.512" fill="white" transform="translate(806.242 1275.9) rotate(15)"/>
</clipPath>
<clipPath id="clip17_556_11400">
<rect width="177" height="167" fill="white" transform="translate(837.065 1100.2) rotate(15)"/>
</clipPath>
<clipPath id="clip18_556_11400">
<rect width="145.512" height="146.512" fill="white" transform="translate(849.465 1114.59) rotate(15)"/>
</clipPath>
<clipPath id="clip19_556_11400">
<rect width="177" height="167" fill="white" transform="translate(880.288 938.892) rotate(15)"/>
</clipPath>
<clipPath id="clip20_556_11400">
<rect width="145.512" height="146.512" fill="white" transform="translate(892.688 953.28) rotate(15)"/>
</clipPath>
<clipPath id="clip21_556_11400">
<rect width="177" height="167" fill="white" transform="translate(923.898 777.686) rotate(15)"/>
</clipPath>
<clipPath id="clip22_556_11400">
<rect width="145.512" height="146.512" fill="white" transform="translate(936.298 792.074) rotate(15)"/>
</clipPath>
<clipPath id="clip23_556_11400">
<rect width="177" height="167" fill="white" transform="translate(967.122 616.376) rotate(15)"/>
</clipPath>
<clipPath id="clip24_556_11400">
<rect width="145.512" height="146.512" fill="white" transform="translate(979.521 630.765) rotate(15)"/>
</clipPath>
<clipPath id="clip25_556_11400">
<rect width="177" height="167" fill="white" transform="translate(1010.34 455.067) rotate(15)"/>
</clipPath>
<clipPath id="clip26_556_11400">
<rect width="145.512" height="146.512" fill="white" transform="translate(1022.74 469.455) rotate(15)"/>
</clipPath>
<clipPath id="clip27_556_11400">
<rect width="177" height="167" fill="white" transform="translate(958.858 1329.54) rotate(15)"/>
</clipPath>
<clipPath id="clip28_556_11400">
<rect width="145.512" height="146.512" fill="white" transform="translate(971.258 1343.93) rotate(15)"/>
</clipPath>
<clipPath id="clip29_556_11400">
<rect width="177" height="167" fill="white" transform="translate(1002.08 1168.23) rotate(15)"/>
</clipPath>
<clipPath id="clip30_556_11400">
<rect width="145.512" height="146.512" fill="white" transform="translate(1014.48 1182.62) rotate(15)"/>
</clipPath>
<clipPath id="clip31_556_11400">
<rect width="177" height="167" fill="white" transform="translate(1045.3 1006.92) rotate(15)"/>
</clipPath>
<clipPath id="clip32_556_11400">
<rect width="145.512" height="146.512" fill="white" transform="translate(1057.7 1021.31) rotate(15)"/>
</clipPath>
<clipPath id="clip33_556_11400">
<rect width="177" height="167" fill="white" transform="translate(1088.53 845.609) rotate(15)"/>
</clipPath>
<clipPath id="clip34_556_11400">
<rect width="145.512" height="146.512" fill="white" transform="translate(1100.93 859.998) rotate(15)"/>
</clipPath>
<clipPath id="clip35_556_11400">
<rect width="177" height="167" fill="white" transform="translate(1131.75 684.3) rotate(15)"/>
</clipPath>
<clipPath id="clip36_556_11400">
<rect width="145.512" height="146.512" fill="white" transform="translate(1144.15 698.688) rotate(15)"/>
</clipPath>
<clipPath id="clip37_556_11400">
<rect width="177" height="167" fill="white" transform="translate(1174.97 522.99) rotate(15)"/>
</clipPath>
<clipPath id="clip38_556_11400">
<rect width="145.512" height="146.512" fill="white" transform="translate(1187.37 537.379) rotate(15)"/>
</clipPath>
<clipPath id="clip39_556_11400">
<rect width="177" height="167" fill="white" transform="translate(1124.39 1395.63) rotate(15)"/>
</clipPath>
<clipPath id="clip40_556_11400">
<rect width="145.512" height="146.512" fill="white" transform="translate(1136.79 1410.02) rotate(15)"/>
</clipPath>
<clipPath id="clip41_556_11400">
<rect width="177" height="167" fill="white" transform="translate(1167.62 1234.32) rotate(15)"/>
</clipPath>
<clipPath id="clip42_556_11400">
<rect width="145.512" height="146.512" fill="white" transform="translate(1180.01 1248.71) rotate(15)"/>
</clipPath>
<clipPath id="clip43_556_11400">
<rect width="177" height="167" fill="white" transform="translate(1210.84 1073.01) rotate(15)"/>
</clipPath>
<clipPath id="clip44_556_11400">
<rect width="145.512" height="146.512" fill="white" transform="translate(1223.24 1087.4) rotate(15)"/>
</clipPath>
<clipPath id="clip45_556_11400">
<rect width="177" height="167" fill="white" transform="translate(1254.06 911.705) rotate(15)"/>
</clipPath>
<clipPath id="clip46_556_11400">
<rect width="145.512" height="146.512" fill="white" transform="translate(1266.46 926.093) rotate(15)"/>
</clipPath>
<clipPath id="clip47_556_11400">
<rect width="177" height="167" fill="white" transform="translate(1297.28 750.395) rotate(15)"/>
</clipPath>
<clipPath id="clip48_556_11400">
<rect width="145.512" height="146.512" fill="white" transform="translate(1309.68 764.784) rotate(15)"/>
</clipPath>
<clipPath id="clip49_556_11400">
<rect width="177" height="167" fill="white" transform="translate(1340.51 589.086) rotate(15)"/>
</clipPath>
<clipPath id="clip50_556_11400">
<rect width="145.512" height="146.512" fill="white" transform="translate(1352.91 603.474) rotate(15)"/>
</clipPath>
<clipPath id="clip51_556_11400">
<rect width="177" height="167" fill="white" transform="translate(250.223 1238.7) rotate(15)"/>
</clipPath>
<clipPath id="clip52_556_11400">
<rect width="145.512" height="146.512" fill="white" transform="translate(262.622 1253.09) rotate(15)"/>
</clipPath>
<clipPath id="clip53_556_11400">
<rect width="177" height="167" fill="white" transform="translate(293.445 1077.39) rotate(15)"/>
</clipPath>
<clipPath id="clip54_556_11400">
<rect width="145.512" height="146.512" fill="white" transform="translate(305.845 1091.78) rotate(15)"/>
</clipPath>
<clipPath id="clip55_556_11400">
<rect width="177" height="167" fill="white" transform="translate(464.415 1123.2) rotate(15)"/>
</clipPath>
<clipPath id="clip56_556_11400">
<rect width="145.512" height="146.512" fill="white" transform="translate(476.814 1137.59) rotate(15)"/>
</clipPath>
<clipPath id="clip57_556_11400">
<rect width="177" height="167" fill="white" transform="translate(507.637 961.893) rotate(15)"/>
</clipPath>
<clipPath id="clip58_556_11400">
<rect width="145.512" height="146.512" fill="white" transform="translate(520.037 976.281) rotate(15)"/>
</clipPath>
<clipPath id="clip59_556_11400">
<rect width="177" height="167" fill="white" transform="translate(550.86 800.583) rotate(15)"/>
</clipPath>
<clipPath id="clip60_556_11400">
<rect width="145.512" height="146.512" fill="white" transform="translate(563.259 814.972) rotate(15)"/>
</clipPath>
<clipPath id="clip61_556_11400">
<rect width="177" height="167" fill="white" transform="translate(594.083 639.274) rotate(15)"/>
</clipPath>
<clipPath id="clip62_556_11400">
<rect width="145.512" height="146.512" fill="white" transform="translate(606.482 653.662) rotate(15)"/>
</clipPath>
<clipPath id="clip63_556_11400">
<rect width="177" height="167" fill="white" transform="translate(637.306 477.964) rotate(15)"/>
</clipPath>
<clipPath id="clip64_556_11400">
<rect width="145.512" height="146.512" fill="white" transform="translate(649.705 492.353) rotate(15)"/>
</clipPath>
<clipPath id="clip65_556_11400">
<rect width="177" height="167" fill="white" transform="translate(336.668 916.082) rotate(15)"/>
</clipPath>
<clipPath id="clip66_556_11400">
<rect width="145.512" height="146.512" fill="white" transform="translate(349.068 930.47) rotate(15)"/>
</clipPath>
<clipPath id="clip67_556_11400">
<rect width="177" height="167" fill="white" transform="translate(379.891 754.772) rotate(15)"/>
</clipPath>
<clipPath id="clip68_556_11400">
<rect width="145.512" height="146.512" fill="white" transform="translate(392.291 769.161) rotate(15)"/>
</clipPath>
<clipPath id="clip69_556_11400">
<rect width="177" height="334" fill="white" transform="translate(122.477 1031.58) rotate(15)"/>
</clipPath>
<clipPath id="clip70_556_11400">
<rect width="145.512" height="313.512" fill="white" transform="translate(134.876 1045.97) rotate(15)"/>
</clipPath>
<clipPath id="clip71_556_11400">
<rect width="177" height="334" fill="white" transform="translate(208.922 708.961) rotate(15)"/>
</clipPath>
<clipPath id="clip72_556_11400">
<rect width="145.512" height="313.512" fill="white" transform="translate(221.322 723.35) rotate(15)"/>
</clipPath>
<clipPath id="clip73_556_11400">
<rect width="177" height="334" fill="white" transform="translate(596.671 629.615) rotate(105)"/>
</clipPath>
<clipPath id="clip74_556_11400">
<rect width="145.512" height="313.512" fill="white" transform="translate(582.283 642.014) rotate(105)"/>
</clipPath>
</defs>
</svg>
