<svg width="2360" height="1640" viewBox="0 0 2360 1640" fill="none" xmlns="http://www.w3.org/2000/svg">
<g id="iPad_Landscape">
<g id="hand">
<g id="key" clip-path="url(#clip0_556_11400)">
<g id="keycap" clip-path="url(#clip1_556_11400)">
<rect id="Z" x="246.998" y="1200.09" width="146" height="147" rx="10" transform="rotate(15 246.998 1200.09)" fill="#D9D9D9"/>
<g id="text left">
<path id="label" d="M308.367 1310.94L307.66 1316.05L278.605 1308.27L278.401 1306.56L305.389 1275.69L312.568 1271.65L304.045 1270.69L291.836 1267.42L292.543 1262.31L318.074 1269.15L318.356 1269.95L290.95 1301.64L283.957 1305.73L292.479 1306.68L308.367 1310.94Z" fill="#343434"/>
</g>
</g>
</g>
<g id="key_2" clip-path="url(#clip2_556_11400)">
<g id="keycap_2" clip-path="url(#clip3_556_11400)">
<rect id="X" x="429.544" y="1206.56" width="146" height="147" rx="10" transform="rotate(15 429.544 1206.56)" fill="#D9D9D9"/>
<g id="text left_2">
<path id="label_2" d="M486.745 1321.59L482.481 1303.26L481.6 1297.02L478.791 1301.57L464.799 1315.71L458.679 1314.07L479.607 1293.21L472.864 1268.18L479.582 1269.32L483.807 1285.82L484.656 1292.54L487.063 1287.89L498.828 1275.14L505.01 1276.79L486.68 1295.87L493.545 1323.41L486.745 1321.59Z" fill="#343434"/>
</g>
</g>
</g>
<g id="key_3" clip-path="url(#clip4_556_11400)">
<g id="keycap_3" clip-path="url(#clip5_556_11400)">
<rect id="S" x="473.026" y="1044.28" width="146" height="147" rx="10" transform="rotate(15 473.026 1044.28)" fill="#D9D9D9"/>
<g id="text left_3">
<path id="label_3" d="M505.783 1149.65L509.838 1145.77C510.178 1146.15 510.631 1146.6 511.197 1147.13C511.788 1147.64 512.455 1148.16 513.196 1148.69C513.938 1149.22 514.744 1149.71 515.617 1150.17C516.489 1150.62 517.399 1150.98 518.347 1151.23C519.624 1151.57 520.943 1151.76 522.304 1151.79C523.69 1151.81 524.987 1151.63 526.194 1151.25C527.427 1150.85 528.501 1150.22 529.416 1149.36C530.351 1148.51 531.01 1147.37 531.391 1145.95C531.749 1144.61 531.755 1143.35 531.407 1142.17C531.06 1141 530.489 1139.87 529.694 1138.8C528.9 1137.73 527.942 1136.69 526.821 1135.68C525.699 1134.67 524.547 1133.66 523.363 1132.63C522.201 1131.61 521.064 1130.58 519.954 1129.53C518.849 1128.46 517.913 1127.34 517.146 1126.16C516.379 1124.98 515.841 1123.74 515.532 1122.42C515.223 1121.1 515.276 1119.66 515.69 1118.12C516.226 1116.12 517.117 1114.48 518.365 1113.2C519.613 1111.93 521.052 1110.96 522.683 1110.32C524.314 1109.67 526.063 1109.33 527.932 1109.27C529.801 1109.22 531.622 1109.43 533.394 1109.91C537.783 1111.09 541.501 1113.41 544.548 1116.87L540.531 1119.87C539.35 1118.67 538.163 1117.7 536.97 1116.96C535.797 1116.23 534.418 1115.65 532.831 1115.22C531.718 1114.93 530.565 1114.74 529.371 1114.66C528.197 1114.59 527.088 1114.69 526.044 1114.96C525.025 1115.22 524.117 1115.68 523.319 1116.35C522.547 1117.01 522.004 1117.92 521.689 1119.1C521.38 1120.25 521.421 1121.33 521.813 1122.34C522.226 1123.36 522.846 1124.34 523.673 1125.29C524.527 1126.23 525.523 1127.17 526.661 1128.11C527.804 1129.04 528.97 1130 530.159 1131.01C531.374 1131.99 532.529 1133.04 533.623 1134.15C534.722 1135.24 535.639 1136.44 536.372 1137.74C537.132 1139.03 537.636 1140.44 537.884 1141.99C538.159 1143.52 538.047 1145.21 537.55 1147.07C536.932 1149.37 535.917 1151.27 534.505 1152.74C533.12 1154.21 531.5 1155.31 529.645 1156.05C527.816 1156.77 525.836 1157.16 523.703 1157.2C521.57 1157.25 519.473 1157 517.413 1156.45C516.094 1156.09 514.89 1155.68 513.801 1155.21C512.706 1154.77 511.682 1154.26 510.729 1153.7C509.797 1153.14 508.922 1152.53 508.105 1151.87C507.294 1151.18 506.52 1150.45 505.783 1149.65Z" fill="#343434"/>
</g>
</g>
</g>
<g id="key_4" clip-path="url(#clip6_556_11400)">
<g id="keycap_4" clip-path="url(#clip7_556_11400)">
<rect id="W" x="515.283" y="882.713" width="146" height="147" rx="10" transform="rotate(15 515.283 882.713)" fill="#D9D9D9"/>
<g id="text left_4">
<path id="label_4" d="M562.053 971.764L568.333 960.195L572.661 961.354L572.532 974.571L570.585 990.614L570.709 990.647L575.508 976.694L587.194 951.997L592.665 953.463L571.834 997.575L566.24 996.075L566.999 981.371L569.317 965.428L569.193 965.394L563.259 980.369L556.503 993.467L551.001 991.992L554.893 943.342L560.437 944.165L558.507 972.139L555.656 986.614L555.779 986.647L562.053 971.764Z" fill="#343434"/>
</g>
</g>
</g>
<g id="key_5" clip-path="url(#clip8_556_11400)">
<g id="keycap_5" clip-path="url(#clip9_556_11400)">
<rect id="C" x="608.053" y="1228.09" width="146" height="147" rx="10" transform="rotate(15 608.053 1228.09)" fill="#D9D9D9"/>
<g id="text left_5">
<path id="label_5" d="M670.381 1341.05C669.354 1341.51 668.344 1341.86 667.351 1342.1C666.359 1342.34 665.347 1342.49 664.317 1342.54C663.291 1342.58 662.237 1342.52 661.153 1342.36C660.063 1342.22 658.91 1341.99 657.695 1341.66C655.716 1341.13 653.908 1340.34 652.27 1339.28C650.637 1338.21 649.189 1336.93 647.925 1335.47C646.688 1333.99 645.649 1332.34 644.81 1330.53C643.972 1328.71 643.36 1326.79 642.975 1324.77C642.595 1322.72 642.444 1320.6 642.522 1318.42C642.601 1316.23 642.938 1314.02 643.534 1311.8C644.368 1308.69 645.601 1305.86 647.232 1303.31C648.869 1300.75 650.845 1298.65 653.16 1297.02C655.48 1295.36 658.094 1294.26 661.001 1293.72C663.928 1293.18 667.092 1293.36 670.492 1294.27C672.862 1294.91 674.893 1295.86 676.584 1297.13C678.302 1298.39 679.712 1299.92 680.815 1301.74L677.147 1304.31C676.74 1303.84 676.298 1303.39 675.819 1302.96C675.345 1302.5 674.799 1302.06 674.179 1301.66C673.581 1301.25 672.896 1300.88 672.126 1300.54C671.381 1300.19 670.535 1299.88 669.587 1299.63C667.073 1298.96 664.752 1298.84 662.622 1299.29C660.514 1299.74 658.623 1300.61 656.951 1301.91C655.284 1303.18 653.851 1304.82 652.653 1306.82C651.481 1308.8 650.572 1311 649.926 1313.41C649.523 1314.92 649.272 1316.47 649.173 1318.08C649.073 1319.69 649.121 1321.28 649.317 1322.86C649.534 1324.44 649.909 1325.96 650.444 1327.43C650.978 1328.9 651.677 1330.25 652.541 1331.47C653.426 1332.7 654.477 1333.77 655.693 1334.67C656.915 1335.55 658.32 1336.2 659.906 1336.62C660.834 1336.87 661.659 1337.05 662.381 1337.16C663.104 1337.26 663.799 1337.3 664.467 1337.28C665.156 1337.27 665.858 1337.2 666.574 1337.09C667.296 1336.95 668.119 1336.76 669.044 1336.52L670.381 1341.05Z" fill="#343434"/>
</g>
</g>
</g>
<g id="key_6" clip-path="url(#clip10_556_11400)">
<g id="keycap_6" clip-path="url(#clip11_556_11400)">
<rect id="D" x="651.095" y="1067.46" width="146" height="147" rx="10" transform="rotate(15 651.095 1067.46)" fill="#D9D9D9"/>
<g id="text left_6">
<path id="label_6" d="M694.94 1129.22C695.595 1129.33 696.341 1129.48 697.176 1129.66C698.011 1129.83 698.864 1130.03 699.735 1130.24C700.612 1130.43 701.473 1130.64 702.317 1130.87C703.168 1131.07 703.933 1131.27 704.613 1131.45C707.889 1132.33 710.811 1133.54 713.377 1135.09C715.965 1136.64 718.044 1138.57 719.614 1140.87C721.185 1143.17 722.18 1145.84 722.6 1148.89C723.019 1151.94 722.713 1155.39 721.68 1159.25C720.874 1162.25 719.86 1164.89 718.637 1167.14C717.419 1169.38 716.047 1171.29 714.52 1172.86C713.013 1174.45 711.359 1175.72 709.558 1176.67C707.782 1177.61 705.913 1178.28 703.951 1178.68C702.014 1179.07 700.022 1179.21 697.974 1179.1C695.932 1178.97 693.881 1178.63 691.82 1178.08L683.444 1175.83L694.128 1135.96L694.94 1129.22ZM698.841 1141.86L690.642 1172.46L691.26 1172.63C693.918 1173.34 696.309 1173.65 698.432 1173.56C700.556 1173.46 702.433 1173.09 704.063 1172.45C705.72 1171.79 707.158 1170.91 708.376 1169.83C709.601 1168.72 710.64 1167.52 711.495 1166.22C712.371 1164.93 713.079 1163.61 713.619 1162.25C714.18 1160.9 714.621 1159.63 714.941 1158.43C715.41 1156.68 715.772 1155 716.027 1153.39C716.282 1151.78 716.359 1150.26 716.259 1148.82C716.159 1147.37 715.859 1146.02 715.357 1144.76C714.856 1143.5 714.086 1142.34 713.049 1141.26C712.011 1140.19 710.669 1139.22 709.022 1138.36C707.402 1137.49 705.417 1136.73 703.068 1136.1C702.738 1136.02 702.385 1135.93 702.008 1135.85C701.632 1135.77 701.273 1135.71 700.933 1135.66L699.725 1135.47L698.841 1141.86Z" fill="#343434"/>
</g>
</g>
</g>
<g id="key_7" clip-path="url(#clip12_556_11400)">
<g id="keycap_7" clip-path="url(#clip13_556_11400)">
<rect id="E" x="694.136" y="906.825" width="146" height="147" rx="10" transform="rotate(15 694.136 906.825)" fill="#D9D9D9"/>
<g id="text left_7">
<path id="label_7" d="M756.557 1017.96L754.613 1022.74L726.176 1015.12L728.296 1009.06L737.324 975.37L738.136 968.63L766.573 976.25L765.248 981.196L742.838 975.191L741.883 981.229L739.688 989.42L759.316 994.68L758.115 999.162L738.487 993.902L735.174 1006.27L733.374 1011.75L756.557 1017.96Z" fill="#343434"/>
</g>
</g>
</g>
<g id="key_8" clip-path="url(#clip14_556_11400)">
<g id="keycap_8" clip-path="url(#clip15_556_11400)">
<rect id="V" x="774.035" y="1296.38" width="146" height="147" rx="10" transform="rotate(15 774.035 1296.38)" fill="#D9D9D9"/>
<g id="text left_8">
<path id="label_8" d="M822.889 1392.61L821.7 1404.22L825.476 1394.83L843.721 1365.06L849.408 1366.59L826.514 1404.18L824.054 1410.15L817.172 1407.64L815.933 1357.62L821.972 1358.57L822.889 1392.61Z" fill="#343434"/>
</g>
</g>
</g>
<g id="key_9" clip-path="url(#clip16_556_11400)">
<g id="keycap_9" clip-path="url(#clip17_556_11400)">
<rect id="F" x="817.077" y="1135.74" width="146" height="147" rx="10" transform="rotate(15 817.077 1135.74)" fill="#D9D9D9"/>
<g id="text left_9">
<path id="label_9" d="M855.299 1245.69L849.426 1244.12L860.11 1204.25L860.922 1197.51L890.132 1205.33L888.188 1210.11L865.779 1204.11L864.823 1210.15L862.628 1218.34L881.792 1223.47L880.592 1227.96L861.428 1222.82L855.299 1245.69Z" fill="#343434"/>
</g>
</g>
</g>
<g id="key_10" clip-path="url(#clip18_556_11400)">
<g id="keycap_10" clip-path="url(#clip19_556_11400)">
<rect id="R" x="860.118" y="975.112" width="146" height="147" rx="10" transform="rotate(15 860.118 975.112)" fill="#D9D9D9"/>
<g id="text left_10">
<path id="label_10" d="M903.333 1066.06L898.247 1085.04L892.591 1083.52L903.275 1043.65L903.85 1037.18C905.274 1037.38 906.83 1037.63 908.518 1037.93C910.225 1038.23 911.976 1038.62 913.768 1039.1C916.365 1039.8 918.691 1040.72 920.747 1041.87C922.808 1043 924.499 1044.31 925.819 1045.81C927.139 1047.31 928.037 1048.99 928.513 1050.84C928.995 1052.67 928.957 1054.63 928.399 1056.71C927.819 1058.87 926.938 1060.68 925.754 1062.13C924.571 1063.58 923.183 1064.72 921.59 1065.55C920.004 1066.36 918.235 1066.9 916.285 1067.18C914.34 1067.43 912.321 1067.46 910.228 1067.28L914.286 1069.69L921.832 1091.36L914.939 1089.51L907.41 1067.78C907.261 1067.43 907.047 1067.2 906.77 1067.08C906.498 1066.94 906.279 1066.85 906.115 1066.8L903.333 1066.06ZM907.747 1049.58L904.583 1061.39L908.231 1062.37C910.106 1062.87 911.834 1063.06 913.414 1062.93C915 1062.78 916.406 1062.39 917.633 1061.77C918.865 1061.13 919.896 1060.29 920.726 1059.26C921.561 1058.2 922.158 1057 922.517 1055.66C922.832 1054.49 922.946 1053.4 922.859 1052.41C922.773 1051.41 922.529 1050.51 922.129 1049.69C921.728 1048.88 921.208 1048.14 920.567 1047.49C919.931 1046.81 919.217 1046.22 918.423 1045.72C917.65 1045.22 916.827 1044.79 915.953 1044.43C915.1 1044.07 914.251 1043.77 913.406 1043.55C912.541 1043.31 911.75 1043.14 911.033 1043.01C910.341 1042.87 909.639 1042.77 908.926 1042.71L907.747 1049.58Z" fill="#343434"/>
</g>
</g>
</g>
<g id="key_11" clip-path="url(#clip20_556_11400)">
<g id="keycap_11" clip-path="url(#clip21_556_11400)">
<rect id="B" x="939.569" y="1362.47" width="146" height="147" rx="10" transform="rotate(15 939.569 1362.47)" fill="#D9D9D9"/>
<g id="text left_11">
<path id="label_11" d="M972.073 1470.89L982.757 1431.02L983.486 1424.59C984.766 1424.75 986.072 1424.95 987.404 1425.17C988.756 1425.4 990.101 1425.7 991.441 1426.06C993.831 1426.7 996.067 1427.46 998.147 1428.35C1000.23 1429.22 1001.99 1430.26 1003.4 1431.48C1004.84 1432.71 1005.86 1434.14 1006.46 1435.78C1007.06 1437.4 1007.08 1439.27 1006.51 1441.39C1005.91 1443.64 1004.91 1445.44 1003.5 1446.81C1002.1 1448.18 1000.38 1449.06 998.359 1449.44L993.235 1449.53L997.663 1451.18C998.82 1451.89 999.875 1452.69 1000.83 1453.58C1001.79 1454.46 1002.55 1455.43 1003.13 1456.49C1003.73 1457.55 1004.11 1458.73 1004.27 1460.01C1004.44 1461.29 1004.32 1462.68 1003.92 1464.18C1003.45 1465.94 1002.79 1467.44 1001.95 1468.69C1001.12 1469.95 1000.17 1471 999.085 1471.83C998 1472.67 996.819 1473.32 995.543 1473.8C994.273 1474.25 992.956 1474.55 991.593 1474.7C990.255 1474.82 988.897 1474.82 987.518 1474.7C986.143 1474.55 984.807 1474.3 983.509 1473.95L972.073 1470.89ZM979.116 1467.48L982.516 1468.39C984.556 1468.93 986.408 1469.28 988.072 1469.41C989.762 1469.53 991.245 1469.4 992.519 1469.01C993.819 1468.61 994.91 1467.92 995.791 1466.94C996.677 1465.94 997.349 1464.59 997.807 1462.88C998.221 1461.33 998.307 1459.94 998.064 1458.71C997.821 1457.47 997.298 1456.37 996.497 1455.4C995.716 1454.44 994.677 1453.62 993.379 1452.95C992.087 1452.25 990.606 1451.67 988.937 1451.23L983.837 1449.86L979.116 1467.48ZM987.291 1436.97L985.121 1445.07L988.366 1445.94C989.64 1446.21 990.929 1446.35 992.233 1446.34C993.557 1446.35 994.779 1446.15 995.898 1445.77C997.044 1445.37 998.037 1444.75 998.879 1443.92C999.747 1443.07 1000.37 1441.94 1000.74 1440.54C1001.11 1439.18 1001.09 1437.97 1000.69 1436.92C1000.31 1435.84 999.701 1434.92 998.85 1434.14C997.999 1433.36 996.982 1432.7 995.801 1432.16C994.641 1431.63 993.473 1431.21 992.299 1430.89C991.598 1430.7 990.858 1430.54 990.079 1430.39C989.326 1430.24 988.614 1430.13 987.942 1430.09L987.291 1436.97Z" fill="#343434"/>
</g>
</g>
</g>
<g id="key_12" clip-path="url(#clip22_556_11400)">
<g id="keycap_12" clip-path="url(#clip23_556_11400)">
<rect id="G" x="983.576" y="1202.1" width="146" height="147" rx="10" transform="rotate(15 983.576 1202.1)" fill="#D9D9D9"/>
<g id="text left_12">
<path id="label_12" d="M1048 1312.54C1046.91 1313.24 1045.73 1313.87 1044.46 1314.41C1043.19 1314.93 1041.85 1315.32 1040.43 1315.58C1039.02 1315.82 1037.53 1315.91 1035.95 1315.84C1034.38 1315.79 1032.73 1315.54 1031.02 1315.08C1028.06 1314.29 1025.63 1312.95 1023.75 1311.08C1021.89 1309.19 1020.53 1306.95 1019.65 1304.35C1018.8 1301.76 1018.41 1298.89 1018.48 1295.75C1018.55 1292.61 1019.03 1289.38 1019.92 1286.04C1020.48 1283.96 1021.15 1281.98 1021.94 1280.12C1022.75 1278.24 1023.69 1276.52 1024.74 1274.97C1025.8 1273.42 1026.99 1272.07 1028.31 1270.93C1029.66 1269.76 1031.15 1268.86 1032.78 1268.21C1034.42 1267.55 1036.2 1267.17 1038.12 1267.09C1040.07 1267 1042.17 1267.25 1044.44 1267.86C1046.81 1268.49 1048.94 1269.47 1050.84 1270.8C1052.76 1272.11 1054.28 1273.68 1055.38 1275.49L1051.71 1278.06C1050.9 1277.13 1049.82 1276.22 1048.47 1275.33C1047.11 1274.44 1045.47 1273.73 1043.53 1273.21C1041.86 1272.77 1040.34 1272.59 1038.97 1272.69C1037.6 1272.78 1036.34 1273.1 1035.21 1273.63C1034.09 1274.17 1033.09 1274.91 1032.2 1275.84C1031.31 1276.75 1030.51 1277.82 1029.78 1279.04C1029.08 1280.26 1028.45 1281.61 1027.91 1283.07C1027.36 1284.54 1026.87 1286.08 1026.44 1287.68C1026.06 1289.11 1025.74 1290.59 1025.48 1292.13C1025.25 1293.66 1025.11 1295.18 1025.08 1296.7C1025.05 1298.21 1025.17 1299.68 1025.43 1301.1C1025.69 1302.51 1026.13 1303.81 1026.74 1304.99C1027.37 1306.18 1028.21 1307.21 1029.25 1308.08C1030.32 1308.97 1031.65 1309.62 1033.23 1310.04C1034.16 1310.29 1035.11 1310.44 1036.07 1310.47C1037.03 1310.51 1037.96 1310.47 1038.85 1310.36C1039.74 1310.24 1040.55 1310.07 1041.27 1309.85C1042.02 1309.6 1042.63 1309.34 1043.11 1309.05L1046 1298.26L1036.46 1295.04L1037.54 1291.02L1052.68 1295.08L1048 1312.54Z" fill="#343434"/>
</g>
</g>
</g>
<g id="key_13" clip-path="url(#clip24_556_11400)">
<g id="keycap_13" clip-path="url(#clip25_556_11400)">
<rect id="T" x="1026.62" y="1041.47" width="146" height="147" rx="10" transform="rotate(15 1026.62 1041.47)" fill="#D9D9D9"/>
<g id="text left_13">
<path id="label_13" d="M1069.79 1152.74L1080.88 1111.32L1067.75 1107.8L1069.07 1102.86L1101.06 1111.43L1099.74 1116.37L1086.76 1112.9L1075.66 1154.31L1069.79 1152.74Z" fill="#343434"/>
</g>
</g>
</g>
<g id="key_14" clip-path="url(#clip26_556_11400)">
<g id="keycap_14" clip-path="url(#clip27_556_11400)">
<rect id="L_S" x="74.6147" y="1151.83" width="146" height="147" rx="10" transform="rotate(15 74.6147 1151.83)" fill="#D9D9D9"/>
<g id="text left_14">
<path id="label_14" d="M74.0673 1246.09L96.6313 1252.14L94.6879 1256.92L66.7147 1249.42L68.9894 1243.41L78.017 1209.71L78.829 1202.97L85.6402 1204.14L75.8672 1240.61L74.0673 1246.09ZM101.717 1268.74L135.717 1277.85L134.434 1282.64L100.433 1273.53L101.717 1268.74ZM148.061 1268.1L152.116 1264.22C152.457 1264.6 152.91 1265.05 153.475 1265.58C154.067 1266.09 154.733 1266.61 155.475 1267.14C156.216 1267.67 157.023 1268.16 157.895 1268.62C158.767 1269.07 159.677 1269.43 160.625 1269.68C161.903 1270.02 163.222 1270.21 164.582 1270.25C165.969 1270.26 167.265 1270.08 168.472 1269.7C169.705 1269.3 170.779 1268.67 171.694 1267.81C172.63 1266.96 173.288 1265.82 173.669 1264.4C174.028 1263.06 174.034 1261.8 173.686 1260.63C173.338 1259.45 172.767 1258.33 171.973 1257.25C171.178 1256.18 170.221 1255.14 169.099 1254.13C167.978 1253.12 166.825 1252.11 165.642 1251.08C164.479 1250.06 163.342 1249.03 162.232 1247.98C161.127 1246.91 160.191 1245.79 159.424 1244.61C158.658 1243.44 158.12 1242.19 157.811 1240.87C157.502 1239.55 157.554 1238.12 157.968 1236.57C158.504 1234.57 159.396 1232.93 160.644 1231.65C161.892 1230.38 163.331 1229.42 164.961 1228.77C166.592 1228.12 168.342 1227.78 170.211 1227.73C172.08 1227.67 173.9 1227.89 175.672 1228.36C180.062 1229.54 183.779 1231.86 186.826 1235.32L182.809 1238.32C181.629 1237.12 180.442 1236.15 179.249 1235.41C178.076 1234.68 176.696 1234.1 175.11 1233.68C173.997 1233.38 172.843 1233.19 171.649 1233.11C170.476 1233.04 169.367 1233.14 168.322 1233.41C167.303 1233.67 166.395 1234.13 165.597 1234.8C164.826 1235.46 164.282 1236.37 163.968 1237.55C163.658 1238.7 163.7 1239.78 164.092 1240.79C164.504 1241.81 165.124 1242.79 165.951 1243.74C166.805 1244.68 167.801 1245.62 168.939 1246.57C170.083 1247.49 171.249 1248.45 172.438 1249.46C173.653 1250.45 174.807 1251.5 175.901 1252.61C177.001 1253.7 177.917 1254.89 178.651 1256.19C179.41 1257.48 179.914 1258.89 180.163 1260.44C180.437 1261.97 180.326 1263.66 179.829 1265.52C179.211 1267.83 178.195 1269.72 176.784 1271.2C175.398 1272.66 173.778 1273.76 171.923 1274.5C170.095 1275.22 168.114 1275.61 165.981 1275.66C163.848 1275.7 161.752 1275.45 159.691 1274.9C158.372 1274.54 157.168 1274.13 156.079 1273.66C154.984 1273.22 153.961 1272.71 153.008 1272.15C152.075 1271.59 151.2 1270.98 150.384 1270.32C149.572 1269.64 148.798 1268.9 148.061 1268.1Z" fill="#343434"/>
</g>
</g>
</g>
<g id="key_15" clip-path="url(#clip28_556_11400)">
<g id="keycap_15" clip-path="url(#clip29_556_11400)">
<rect id="CAP" x="118.544" y="991.745" width="146" height="147" rx="10" transform="rotate(15 118.544 991.745)" fill="#D9D9D9"/>
<g id="text left_15">
<path id="label_15" d="M141.148 1094.06C140.121 1094.52 139.111 1094.87 138.119 1095.11C137.126 1095.35 136.115 1095.5 135.084 1095.55C134.059 1095.59 133.004 1095.53 131.92 1095.37C130.831 1095.23 129.678 1095 128.462 1094.67C126.484 1094.14 124.676 1093.35 123.038 1092.29C121.405 1091.21 119.957 1089.94 118.693 1088.48C117.455 1087 116.417 1085.35 115.578 1083.54C114.739 1081.72 114.127 1079.8 113.742 1077.78C113.362 1075.73 113.212 1073.61 113.29 1071.43C113.368 1069.24 113.705 1067.03 114.302 1064.81C115.135 1061.7 116.368 1058.87 118 1056.32C119.637 1053.76 121.612 1051.66 123.927 1050.03C126.247 1048.37 128.861 1047.27 131.768 1046.73C134.696 1046.19 137.86 1046.37 141.26 1047.28C143.629 1047.92 145.66 1048.87 147.352 1050.14C149.069 1051.4 150.479 1052.93 151.582 1054.75L147.914 1057.32C147.508 1056.85 147.065 1056.4 146.586 1055.97C146.113 1055.51 145.566 1055.07 144.947 1054.67C144.348 1054.26 143.664 1053.89 142.893 1053.55C142.149 1053.2 141.303 1052.89 140.355 1052.64C137.841 1051.97 135.519 1051.85 133.39 1052.3C131.281 1052.75 129.391 1053.62 127.718 1054.92C126.051 1056.19 124.619 1057.83 123.421 1059.83C122.249 1061.81 121.34 1064.01 120.694 1066.42C120.291 1067.93 120.04 1069.48 119.94 1071.09C119.841 1072.7 119.889 1074.29 120.085 1075.86C120.301 1077.45 120.677 1078.97 121.211 1080.44C121.745 1081.91 122.444 1083.26 123.309 1084.48C124.194 1085.71 125.244 1086.78 126.461 1087.68C127.683 1088.56 129.087 1089.21 130.674 1089.63C131.601 1089.88 132.426 1090.06 133.149 1090.17C133.871 1090.27 134.567 1090.31 135.235 1090.29C135.923 1090.28 136.625 1090.21 137.342 1090.1C138.063 1089.96 138.887 1089.77 139.812 1089.53L141.148 1094.06ZM146.029 1098.82L171.385 1062.54L174.124 1056.65L179.791 1057.51L184.141 1109.03L177.959 1107.37L177.111 1092.24L160.575 1087.81L151.717 1100.34L146.029 1098.82ZM176.572 1060.62L172.531 1070.14L163.331 1083.58L176.839 1087.2L175.313 1070.89L176.572 1060.62ZM198.94 1113L193.067 1111.42L203.751 1071.55L204.326 1065.08C204.971 1065.14 205.717 1065.24 206.564 1065.38C207.431 1065.52 208.336 1065.69 209.28 1065.87C210.224 1066.06 211.172 1066.27 212.126 1066.5C213.085 1066.72 213.966 1066.93 214.77 1067.15C218.273 1068.08 221.206 1069.21 223.57 1070.53C225.959 1071.83 227.826 1073.27 229.171 1074.85C230.521 1076.4 231.378 1078.07 231.742 1079.84C232.126 1081.62 232.067 1083.45 231.564 1085.33C230.819 1088.11 229.7 1090.31 228.209 1091.92C226.717 1093.53 224.838 1094.65 222.571 1095.28C220.31 1095.88 217.64 1096.04 214.56 1095.75C211.487 1095.43 208.002 1094.75 204.108 1093.71L198.94 1113ZM208.439 1077.54L205.276 1089.35C208.408 1090.19 211.134 1090.73 213.453 1090.98C215.772 1091.22 217.748 1091.15 219.379 1090.74C221.017 1090.32 222.339 1089.55 223.346 1088.43C224.353 1087.31 225.114 1085.79 225.627 1083.87C225.997 1082.49 225.921 1081.17 225.399 1079.9C224.903 1078.62 224.121 1077.46 223.051 1076.42C221.988 1075.36 220.743 1074.44 219.317 1073.67C217.892 1072.89 216.448 1072.3 214.985 1071.91C214.634 1071.81 214.209 1071.71 213.709 1071.6C213.235 1071.47 212.745 1071.36 212.24 1071.27C211.74 1071.16 211.247 1071.06 210.762 1070.98C210.298 1070.9 209.903 1070.84 209.577 1070.82L208.439 1077.54Z" fill="#343434"/>
</g>
</g>
</g>
<g id="key_16" clip-path="url(#clip30_556_11400)">
<g id="keycap_16" clip-path="url(#clip31_556_11400)">
<rect id="A" x="290.738" y="1036.85" width="146" height="147" rx="10" transform="rotate(15 290.738 1036.85)" fill="#D9D9D9"/>
<g id="text left_16">
<path id="label_16" d="M317.74 1143.79L343.096 1107.52L345.835 1101.63L351.502 1102.48L355.852 1154L349.67 1152.35L348.822 1137.21L332.286 1132.78L323.428 1145.32L317.74 1143.79ZM348.283 1105.6L344.242 1115.11L335.042 1128.55L348.55 1132.17L347.023 1115.86L348.283 1105.6Z" fill="#343434"/>
</g>
</g>
</g>
<g id="key_17" clip-path="url(#clip32_556_11400)">
<g id="keycap_17" clip-path="url(#clip33_556_11400)">
<rect id="Q" x="333.961" y="875.539" width="146" height="147" rx="10" transform="rotate(15 333.961 875.539)" fill="#D9D9D9"/>
<g id="text left_17">
<path id="label_17" d="M390.888 980.099C391.456 979.544 392.012 978.909 392.557 978.194C393.108 977.458 393.63 976.582 394.123 975.566C394.637 974.555 395.14 973.376 395.634 972.028C396.133 970.66 396.623 969.08 397.103 967.287C397.49 965.845 397.807 964.372 398.055 962.871C398.323 961.375 398.475 959.902 398.509 958.454C398.55 956.985 398.462 955.581 398.246 954.242C398.031 952.904 397.627 951.691 397.035 950.605C396.448 949.498 395.667 948.538 394.692 947.724C393.718 946.911 392.499 946.308 391.036 945.916C389.634 945.541 388.329 945.467 387.119 945.695C385.936 945.908 384.837 946.343 383.822 946.998C382.807 947.654 381.877 948.487 381.032 949.497C380.187 950.508 379.426 951.618 378.748 952.828C378.076 954.017 377.486 955.272 376.977 956.594C376.495 957.9 376.085 959.182 375.748 960.439C375.306 962.087 374.924 963.718 374.602 965.333C374.28 966.947 374.073 968.504 373.98 970.003C373.909 971.508 373.98 972.929 374.196 974.268C374.432 975.612 374.874 976.846 375.523 977.97C376.198 979.078 377.118 980.053 378.284 980.896C379.449 981.738 380.936 982.413 382.744 982.919C382.95 982.974 383.141 983.004 383.317 983.006C383.493 983.009 383.77 983.006 384.148 982.997C383.86 981.926 383.605 980.985 383.38 980.174C383.182 979.348 382.94 978.643 382.655 978.059C382.375 977.454 382.019 976.971 381.585 976.612C381.157 976.233 380.592 975.949 379.892 975.761L382.661 971.732C383.67 972.003 384.519 972.462 385.207 973.11C385.921 973.743 386.535 974.582 387.051 975.625C387.566 976.669 388.026 977.919 388.431 979.374C388.842 980.81 389.282 982.463 389.753 984.333L390.888 980.099ZM383.341 988.479C382.617 988.462 381.855 988.379 381.056 988.231C380.277 988.089 379.393 987.885 378.404 987.62C375.848 986.935 373.776 985.684 372.187 983.867C370.618 982.055 369.478 979.884 368.765 977.351C368.052 974.819 367.747 972.043 367.849 969.023C367.972 966.008 368.448 962.955 369.276 959.864C369.856 957.7 370.568 955.66 371.413 953.744C372.263 951.808 373.232 950.047 374.32 948.461C375.433 946.86 376.647 945.462 377.961 944.268C379.295 943.08 380.729 942.139 382.262 941.445C383.8 940.731 385.438 940.308 387.173 940.177C388.915 940.025 390.733 940.203 392.629 940.711C395.411 941.457 397.708 942.691 399.522 944.414C401.335 946.136 402.682 948.198 403.563 950.598C404.443 952.999 404.872 955.686 404.848 958.661C404.844 961.642 404.409 964.75 403.542 967.985C403.012 969.963 402.368 971.911 401.612 973.829C400.861 975.726 400 977.494 399.031 979.134C398.082 980.779 397.012 982.259 395.82 983.574C394.655 984.874 393.372 985.911 391.972 986.684C391.763 986.805 391.541 986.933 391.306 987.069C391.076 987.184 390.86 987.291 390.656 987.391C390.871 988.156 391.083 988.765 391.293 989.218C391.503 989.672 391.776 990.055 392.112 990.366C392.454 990.656 392.895 990.907 393.434 991.117C393.98 991.308 394.685 991.519 395.551 991.751L392.773 995.81C391.743 995.534 390.817 995.198 389.996 994.801C389.195 994.41 388.465 993.839 387.805 993.087C387.165 992.342 386.6 991.362 386.108 990.148C385.616 988.934 385.161 987.377 384.743 985.476L384.476 984.245L383.341 988.479Z" fill="#343434"/>
</g>
</g>
</g>
<g id="key_18" clip-path="url(#clip34_556_11400)">
<g id="keycap_18" clip-path="url(#clip35_556_11400)">
<rect id="TAB" x="162.026" y="829.469" width="146" height="147" rx="10" transform="rotate(15 162.026 829.469)" fill="#D9D9D9"/>
<g id="text left_18">
<path id="label_18" d="M165.47 930.101L176.568 888.682L163.432 885.162L164.757 880.216L196.748 888.788L195.423 893.734L182.441 890.256L171.343 931.674L165.47 930.101ZM189.511 936.543L214.867 900.269L217.606 894.377L223.273 895.233L227.623 946.755L221.441 945.098L220.593 929.963L204.056 925.532L195.198 938.066L189.511 936.543ZM220.054 898.346L216.013 907.864L206.813 921.301L220.321 924.921L218.794 908.61L220.054 898.346ZM235.22 948.79L245.904 908.917L246.633 902.486C247.913 902.653 249.219 902.848 250.551 903.072C251.903 903.302 253.248 903.596 254.588 903.955C256.978 904.596 259.214 905.36 261.295 906.249C263.381 907.117 265.133 908.161 266.551 909.38C267.99 910.605 269.009 912.038 269.607 913.678C270.211 915.297 270.229 917.168 269.66 919.291C269.058 921.537 268.055 923.344 266.65 924.713C265.246 926.081 263.531 926.958 261.506 927.343L256.382 927.427L260.81 929.078C261.967 929.785 263.022 930.587 263.975 931.483C264.933 932.358 265.701 933.326 266.278 934.386C266.876 935.452 267.257 936.625 267.422 937.906C267.587 939.187 267.468 940.579 267.065 942.084C266.595 943.835 265.939 945.338 265.095 946.591C264.271 947.851 263.317 948.898 262.232 949.734C261.147 950.569 259.966 951.225 258.69 951.7C257.42 952.155 256.103 952.453 254.74 952.596C253.403 952.724 252.044 952.724 250.665 952.597C249.291 952.45 247.954 952.202 246.656 951.855L235.22 948.79ZM242.263 945.377L245.663 946.288C247.703 946.834 249.555 947.176 251.219 947.313C252.909 947.434 254.392 947.301 255.666 946.914C256.966 946.512 258.057 945.821 258.938 944.842C259.824 943.843 260.496 942.488 260.954 940.778C261.368 939.232 261.454 937.842 261.211 936.606C260.968 935.37 260.445 934.27 259.644 933.304C258.863 932.344 257.824 931.524 256.526 930.845C255.234 930.146 253.753 929.572 252.084 929.125L246.984 927.758L242.263 945.377ZM250.438 914.869L248.268 922.967L251.513 923.837C252.787 924.112 254.076 924.247 255.38 924.244C256.704 924.245 257.926 924.053 259.045 923.669C260.191 923.269 261.184 922.652 262.026 921.817C262.894 920.967 263.516 919.842 263.892 918.441C264.256 917.081 264.238 915.872 263.836 914.815C263.461 913.743 262.848 912.816 261.997 912.036C261.146 911.256 260.13 910.597 258.948 910.06C257.788 909.528 256.62 909.105 255.446 908.79C254.745 908.602 254.005 908.437 253.226 908.295C252.473 908.137 251.761 908.035 251.089 907.987L250.438 914.869Z" fill="#343434"/>
</g>
</g>
</g>
</g>
<g id="hand_2">
<g id="key_19" clip-path="url(#clip36_556_11400)">
<g id="keycap_19" clip-path="url(#clip37_556_11400)">
<rect id="/" width="146" height="147" rx="10" transform="matrix(-0.965926 0.258819 0.258819 0.965926 2113.31 1200.09)" fill="#D9D9D9"/>
<g id="text right">
<path id="label_19" d="M2058.85 1317.7L2052.36 1319.44L2060.22 1261.02L2066.41 1259.36L2058.85 1317.7Z" fill="#343434"/>
</g>
</g>
</g>
<g id="key_20" clip-path="url(#clip38_556_11400)">
<g id="keycap_20" clip-path="url(#clip39_556_11400)">
<rect id="." width="146" height="147" rx="10" transform="matrix(-0.965926 0.258819 0.258819 0.965926 1930.76 1206.56)" fill="#D9D9D9"/>
<g id="text right_2">
<path id="label_20" d="M1866.53 1318.51C1866.35 1317.8 1866.3 1317.11 1866.41 1316.42C1866.51 1315.73 1866.73 1315.1 1867.06 1314.52C1867.4 1313.92 1867.84 1313.41 1868.37 1312.98C1868.91 1312.54 1869.54 1312.23 1870.24 1312.05C1870.94 1311.86 1871.63 1311.82 1872.32 1311.92C1873.01 1312.02 1873.65 1312.25 1874.23 1312.6C1874.82 1312.93 1875.34 1313.36 1875.77 1313.91C1876.21 1314.46 1876.52 1315.08 1876.7 1315.78C1876.89 1316.48 1876.94 1317.19 1876.84 1317.9C1876.74 1318.59 1876.52 1319.23 1876.2 1319.83C1875.87 1320.4 1875.43 1320.9 1874.88 1321.34C1874.36 1321.79 1873.75 1322.1 1873.05 1322.29C1872.35 1322.48 1871.64 1322.51 1870.92 1322.4C1870.23 1322.3 1869.59 1322.08 1869 1321.75C1868.42 1321.4 1867.91 1320.95 1867.48 1320.41C1867.04 1319.84 1866.72 1319.21 1866.53 1318.51Z" fill="#343434"/>
</g>
</g>
</g>
<g id="key_21" clip-path="url(#clip40_556_11400)">
<g id="keycap_21" clip-path="url(#clip41_556_11400)">
<rect id="L" width="146" height="147" rx="10" transform="matrix(-0.965926 0.258819 0.258819 0.965926 1887.28 1044.28)" fill="#D9D9D9"/>
<g id="text right_3">
<path id="label_21" d="M1830.6 1153.87L1853.17 1147.83L1853.88 1152.94L1825.9 1160.44L1824.86 1154.09L1815.84 1120.4L1813.17 1114.15L1819.65 1111.75L1829.42 1148.23L1830.6 1153.87Z" fill="#343434"/>
</g>
</g>
</g>
<g id="key_22" clip-path="url(#clip42_556_11400)">
<g id="keycap_22" clip-path="url(#clip43_556_11400)">
<rect id="O" width="146" height="147" rx="10" transform="matrix(-0.965926 0.258819 0.258819 0.965926 1845.02 882.713)" fill="#D9D9D9"/>
<g id="text right_4">
<path id="label_22" d="M1798.07 995.566C1796.21 996.063 1794.43 996.243 1792.71 996.106C1791.01 995.943 1789.39 995.518 1787.83 994.83C1786.29 994.116 1784.86 993.164 1783.52 991.976C1782.19 990.788 1780.96 989.406 1779.83 987.831C1778.71 986.23 1777.72 984.474 1776.86 982.564C1776.01 980.627 1775.29 978.577 1774.71 976.413C1774.13 974.25 1773.73 972.127 1773.5 970.045C1773.27 967.943 1773.23 965.933 1773.38 964.016C1773.54 962.073 1773.9 960.256 1774.44 958.565C1775 956.868 1775.77 955.337 1776.75 953.97C1777.73 952.582 1778.93 951.397 1780.37 950.416C1781.8 949.414 1783.47 948.658 1785.36 948.15C1787.22 947.654 1788.99 947.487 1790.69 947.649C1792.41 947.786 1794.04 948.212 1795.57 948.926C1797.13 949.614 1798.57 950.552 1799.91 951.74C1801.24 952.929 1802.47 954.324 1803.58 955.925C1804.71 957.499 1805.7 959.255 1806.55 961.192C1807.41 963.102 1808.13 965.139 1808.71 967.303C1809.29 969.467 1809.7 971.6 1809.93 973.702C1810.16 975.783 1810.19 977.796 1810.03 979.739C1809.88 981.656 1809.52 983.463 1808.96 985.16C1808.42 986.851 1807.66 988.39 1806.69 989.778C1805.71 991.145 1804.5 992.329 1803.07 993.332C1801.63 994.313 1799.96 995.058 1798.07 995.566ZM1802.54 969.984C1802.16 968.541 1801.71 967.082 1801.2 965.605C1800.72 964.123 1800.14 962.71 1799.47 961.365C1798.82 959.994 1798.07 958.747 1797.24 957.622C1796.41 956.477 1795.46 955.549 1794.41 954.837C1793.37 954.099 1792.2 953.606 1790.9 953.359C1789.62 953.106 1788.19 953.19 1786.63 953.609C1785.14 954.007 1783.92 954.599 1782.96 955.386C1782 956.174 1781.26 957.102 1780.73 958.172C1780.19 959.221 1779.83 960.389 1779.64 961.675C1779.45 962.941 1779.39 964.249 1779.47 965.598C1779.54 966.948 1779.71 968.306 1779.96 969.673C1780.22 971.04 1780.52 972.352 1780.85 973.609C1781.25 975.072 1781.69 976.555 1782.18 978.058C1782.69 979.555 1783.27 980.989 1783.93 982.36C1784.6 983.704 1785.35 984.949 1786.19 986.094C1787.02 987.218 1787.96 988.147 1789.02 988.88C1790.08 989.612 1791.25 990.105 1792.53 990.357C1793.81 990.61 1795.24 990.527 1796.8 990.107C1798.27 989.715 1799.47 989.128 1800.41 988.346C1801.36 987.539 1802.1 986.6 1802.63 985.53C1803.18 984.434 1803.55 983.253 1803.74 981.987C1803.92 980.701 1803.98 979.383 1803.9 978.034C1803.84 976.658 1803.69 975.287 1803.43 973.92C1803.18 972.553 1802.88 971.241 1802.54 969.984Z" fill="#343434"/>
</g>
</g>
</g>
<g id="key_23" clip-path="url(#clip44_556_11400)">
<g id="keycap_23" clip-path="url(#clip45_556_11400)">
<rect id="," width="146" height="147" rx="10" transform="matrix(-0.965926 0.258819 0.258819 0.965926 1752.25 1228.09)" fill="#D9D9D9"/>
<g id="text right_5">
<path id="label_23" d="M1688.71 1340.62C1688.55 1340.02 1688.51 1339.42 1688.6 1338.83C1688.69 1338.2 1688.9 1337.64 1689.2 1337.14C1689.53 1336.63 1689.94 1336.18 1690.43 1335.78C1690.92 1335.39 1691.47 1335.11 1692.09 1334.94C1692.69 1334.78 1693.29 1334.74 1693.88 1334.83C1694.5 1334.88 1695.06 1335.06 1695.59 1335.36C1696.13 1335.66 1696.61 1336.09 1697.03 1336.67C1697.46 1337.21 1697.79 1337.89 1698 1338.69C1698.29 1339.78 1698.51 1340.86 1698.64 1341.93C1698.78 1342.98 1698.78 1344.08 1698.63 1345.25C1698.5 1346.41 1698.19 1347.64 1697.7 1348.94C1697.21 1350.24 1696.48 1351.65 1695.52 1353.17L1693.72 1352.89C1693.95 1351.86 1694.12 1350.81 1694.24 1349.74C1694.33 1348.85 1694.37 1347.89 1694.36 1346.86C1694.37 1345.84 1694.26 1344.87 1694.01 1343.97C1693.49 1344.08 1692.96 1344.11 1692.41 1344.03C1691.86 1343.96 1691.34 1343.8 1690.86 1343.55C1690.37 1343.29 1689.93 1342.91 1689.56 1342.41C1689.18 1341.92 1688.9 1341.32 1688.71 1340.62Z" fill="#343434"/>
</g>
</g>
</g>
<g id="key_24" clip-path="url(#clip46_556_11400)">
<g id="keycap_24" clip-path="url(#clip47_556_11400)">
<rect id="K" width="146" height="147" rx="10" transform="matrix(-0.965926 0.258819 0.258819 0.965926 1709.21 1067.46)" fill="#D9D9D9"/>
<g id="text right_6">
<path id="label_24" d="M1648.36 1183.47L1637.68 1143.6L1635.01 1137.36L1641.67 1134.91L1647.17 1155.43L1658.72 1131L1665.58 1129.16L1654.42 1153.19L1649.72 1156.54L1655.58 1156.89L1678.84 1175.3L1671.51 1177.27L1648.08 1158.83L1654.26 1181.89L1648.36 1183.47Z" fill="#343434"/>
</g>
</g>
</g>
<g id="key_25" clip-path="url(#clip48_556_11400)">
<g id="keycap_25" clip-path="url(#clip49_556_11400)">
<rect id="I" width="146" height="147" rx="10" transform="matrix(-0.965926 0.258819 0.258819 0.965926 1666.17 906.825)" fill="#D9D9D9"/>
<g id="text right_7">
<path id="label_25" d="M1592.74 976.515L1620.56 969.061L1621.88 974.007L1610.82 976.972L1620.59 1013.45L1632.27 1010.31L1632.98 1015.43L1605.16 1022.88L1603.84 1017.93L1614.84 1014.99L1605.07 978.512L1593.45 981.626L1592.74 976.515Z" fill="#343434"/>
</g>
</g>
</g>
<g id="key_26" clip-path="url(#clip50_556_11400)">
<g id="keycap_26" clip-path="url(#clip51_556_11400)">
<rect id="M" width="146" height="147" rx="10" transform="matrix(-0.965926 0.258819 0.258819 0.965926 1586.27 1296.38)" fill="#D9D9D9"/>
<g id="text right_8">
<path id="label_26" d="M1549.16 1406.03L1541.7 1378.18L1539.39 1362.3L1539.23 1362.31L1538.44 1378.39L1536.58 1392.84L1533.49 1393.66L1524.57 1382.14L1515.52 1368.66L1515.35 1368.74L1521.76 1383.52L1529.22 1411.37L1523.66 1412.86L1512.97 1372.99L1510.37 1366.73L1516.82 1364.34L1529.14 1379.92L1533.41 1387.06L1533.47 1378.76L1535.9 1359.89L1542.13 1357.56L1554.72 1404.54L1549.16 1406.03Z" fill="#343434"/>
</g>
</g>
</g>
<g id="key_27" clip-path="url(#clip52_556_11400)">
<g id="keycap_27" clip-path="url(#clip53_556_11400)">
<rect id="J" width="146" height="147" rx="10" transform="matrix(-0.965926 0.258819 0.258819 0.965926 1543.23 1135.74)" fill="#D9D9D9"/>
<g id="text right_9">
<path id="label_27" d="M1475.67 1203.86L1497.31 1198.06L1506.17 1231.14C1506.71 1233.14 1506.95 1235.01 1506.89 1236.78C1506.83 1238.54 1506.44 1240.21 1505.71 1241.79C1504.99 1243.38 1503.85 1244.74 1502.31 1245.89C1500.76 1247.03 1498.73 1247.94 1496.21 1248.61C1494.6 1249.04 1493.11 1249.25 1491.73 1249.22C1490.37 1249.16 1489.11 1248.97 1487.94 1248.64C1486.76 1248.3 1485.68 1247.87 1484.68 1247.36C1483.7 1246.85 1482.79 1246.35 1481.95 1245.84L1484.13 1241.35C1484.39 1241.5 1484.86 1241.74 1485.54 1242.06C1486.22 1242.37 1487.03 1242.65 1487.96 1242.91C1488.88 1243.15 1489.9 1243.3 1491 1243.38C1492.1 1243.46 1493.23 1243.35 1494.39 1243.04C1497.04 1242.33 1498.9 1241.02 1499.96 1239.13C1501.04 1237.23 1501.15 1234.65 1500.28 1231.39L1494.66 1210.43L1493.69 1204.33L1477.62 1208.64L1475.67 1203.86Z" fill="#343434"/>
</g>
</g>
</g>
<g id="key_28" clip-path="url(#clip54_556_11400)">
<g id="keycap_28" clip-path="url(#clip55_556_11400)">
<rect id="U" width="146" height="147" rx="10" transform="matrix(-0.965926 0.258819 0.258819 0.965926 1500.18 975.112)" fill="#D9D9D9"/>
<g id="text right_10">
<path id="label_28" d="M1455.04 1037.22L1463.13 1067.42C1463.88 1070.22 1464.2 1072.77 1464.08 1075.05C1463.98 1077.31 1463.48 1079.3 1462.57 1081.02C1461.68 1082.74 1460.42 1084.2 1458.77 1085.39C1457.12 1086.56 1455.12 1087.46 1452.77 1088.09C1450.25 1088.76 1447.99 1088.9 1445.99 1088.51C1444 1088.1 1442.24 1087.24 1440.7 1085.96C1439.16 1084.65 1437.83 1082.94 1436.71 1080.83C1435.61 1078.72 1434.7 1076.3 1433.97 1073.58L1428.03 1051.42L1425.37 1045.17L1432 1042.73L1440 1072.59C1440.53 1074.55 1441.18 1076.25 1441.97 1077.7C1442.77 1079.12 1443.67 1080.27 1444.68 1081.15C1445.68 1082 1446.77 1082.57 1447.95 1082.85C1449.13 1083.13 1450.37 1083.1 1451.67 1082.75C1454.7 1081.94 1456.65 1080.45 1457.53 1078.3C1458.43 1076.11 1458.39 1073.21 1457.42 1069.58L1449.17 1038.8L1455.04 1037.22Z" fill="#343434"/>
</g>
</g>
</g>
<g id="key_29" clip-path="url(#clip56_556_11400)">
<g id="keycap_29" clip-path="url(#clip57_556_11400)">
<rect id="N" width="146" height="147" rx="10" transform="matrix(-0.965926 0.258819 0.258819 0.965926 1420.73 1362.47)" fill="#D9D9D9"/>
<g id="text right_11">
<path id="label_29" d="M1382.76 1472.36L1359.61 1447.15L1351.27 1435.71L1351.09 1435.79L1356.75 1448.85L1364.37 1477.28L1358.8 1478.78L1348.12 1438.9L1345.45 1432.66L1351.5 1430.38L1374.81 1456.03L1383.39 1467.55L1383.57 1467.47L1377.49 1454.55L1369.87 1426.12L1375.27 1424.01L1387.86 1470.99L1382.76 1472.36Z" fill="#343434"/>
</g>
</g>
</g>
<g id="key_30" clip-path="url(#clip58_556_11400)">
<g id="keycap_30" clip-path="url(#clip59_556_11400)">
<rect id="H" width="146" height="147" rx="10" transform="matrix(-0.965926 0.258819 0.258819 0.965926 1376.73 1202.1)" fill="#D9D9D9"/>
<g id="text right_12">
<path id="label_30" d="M1338.78 1311.97L1332.78 1289.56L1315.22 1294.27L1321.23 1316.68L1315.35 1318.25L1304.67 1278.38L1302.03 1272.13L1308.64 1269.7L1313.9 1289.32L1331.45 1284.62L1326.36 1265.61L1332.07 1263.42L1344.65 1310.4L1338.78 1311.97Z" fill="#343434"/>
</g>
</g>
</g>
<g id="key_31" clip-path="url(#clip60_556_11400)">
<g id="keycap_31" clip-path="url(#clip61_556_11400)">
<rect id="Y" width="146" height="147" rx="10" transform="matrix(-0.965926 0.258819 0.258819 0.965926 1333.69 1041.47)" fill="#D9D9D9"/>
<g id="text right_13">
<path id="label_31" d="M1280.11 1124.55L1284.34 1104.7L1290.27 1103.11L1283.9 1133.11L1289.25 1153.08L1282.76 1154.82L1277.42 1134.88L1256.86 1112.07L1263 1109.76L1276.59 1124.87L1281.09 1131.91L1280.11 1124.55Z" fill="#343434"/>
</g>
</g>
</g>
<g id="key_32" clip-path="url(#clip62_556_11400)">
<g id="keycap_32" clip-path="url(#clip63_556_11400)">
<rect id="R_S" width="146" height="147" rx="10" transform="matrix(-0.965926 0.258819 0.258819 0.965926 2285.69 1151.83)" fill="#D9D9D9"/>
<g id="text right_14">
<path id="label_32" d="M2185.81 1257.96L2190.9 1276.94L2185.24 1278.45L2174.56 1238.58L2171.82 1232.69C2173.15 1232.15 2174.63 1231.59 2176.24 1231.01C2177.87 1230.42 2179.58 1229.88 2181.37 1229.4C2183.97 1228.7 2186.44 1228.34 2188.8 1228.3C2191.15 1228.25 2193.27 1228.54 2195.16 1229.18C2197.06 1229.82 2198.67 1230.83 2200.01 1232.19C2201.34 1233.53 2202.29 1235.25 2202.84 1237.33C2203.42 1239.49 2203.56 1241.5 2203.26 1243.34C2202.96 1245.19 2202.33 1246.87 2201.37 1248.39C2200.4 1249.89 2199.14 1251.24 2197.59 1252.45C2196.03 1253.64 2194.3 1254.68 2192.39 1255.57L2197.11 1255.63L2214.48 1270.62L2207.59 1272.47L2190.2 1257.41C2189.9 1257.18 2189.6 1257.09 2189.3 1257.12C2188.99 1257.14 2188.76 1257.17 2188.59 1257.21L2185.81 1257.96ZM2181.4 1241.48L2184.56 1253.29L2188.21 1252.31C2190.08 1251.81 2191.67 1251.11 2192.98 1250.21C2194.28 1249.29 2195.3 1248.25 2196.05 1247.1C2196.8 1245.93 2197.27 1244.68 2197.47 1243.37C2197.67 1242.04 2197.59 1240.7 2197.23 1239.36C2196.91 1238.19 2196.47 1237.19 2195.9 1236.37C2195.32 1235.56 2194.66 1234.89 2193.91 1234.39C2193.15 1233.88 2192.33 1233.51 2191.45 1233.26C2190.56 1232.99 2189.65 1232.84 2188.71 1232.8C2187.79 1232.76 2186.86 1232.8 2185.92 1232.92C2185.01 1233.03 2184.12 1233.2 2183.28 1233.43C2182.41 1233.66 2181.64 1233.9 2180.95 1234.15C2180.29 1234.37 2179.63 1234.64 2178.98 1234.94L2181.4 1241.48ZM2224.56 1277.86L2258.56 1268.75L2259.85 1273.54L2225.85 1282.65L2224.56 1277.86ZM2264.38 1254.13L2265.95 1248.74C2266.43 1248.9 2267.05 1249.07 2267.81 1249.24C2268.57 1249.39 2269.41 1249.51 2270.32 1249.59C2271.23 1249.68 2272.17 1249.71 2273.15 1249.66C2274.14 1249.62 2275.1 1249.47 2276.05 1249.22C2277.33 1248.88 2278.56 1248.38 2279.76 1247.73C2280.97 1247.05 2282 1246.24 2282.85 1245.31C2283.72 1244.35 2284.34 1243.26 2284.7 1242.06C2285.08 1240.86 2285.08 1239.54 2284.7 1238.12C2284.34 1236.78 2283.72 1235.69 2282.83 1234.84C2281.94 1234 2280.89 1233.31 2279.66 1232.78C2278.44 1232.25 2277.09 1231.82 2275.61 1231.51C2274.14 1231.2 2272.63 1230.9 2271.09 1230.6C2269.58 1230.3 2268.08 1229.98 2266.59 1229.62C2265.1 1229.25 2263.73 1228.74 2262.47 1228.11C2261.22 1227.47 2260.13 1226.66 2259.2 1225.67C2258.28 1224.68 2257.61 1223.42 2257.19 1221.87C2256.66 1219.87 2256.61 1218.01 2257.05 1216.28C2257.49 1214.55 2258.26 1212.99 2259.35 1211.62C2260.44 1210.25 2261.78 1209.07 2263.37 1208.09C2264.96 1207.11 2266.65 1206.38 2268.42 1205.91C2272.81 1204.73 2277.19 1204.88 2281.56 1206.36L2279.58 1210.97C2277.96 1210.52 2276.45 1210.27 2275.04 1210.23C2273.66 1210.18 2272.18 1210.37 2270.59 1210.79C2269.48 1211.09 2268.38 1211.51 2267.31 1212.04C2266.26 1212.56 2265.35 1213.2 2264.58 1213.96C2263.83 1214.69 2263.27 1215.55 2262.92 1216.53C2262.58 1217.48 2262.56 1218.54 2262.88 1219.72C2263.19 1220.87 2263.76 1221.79 2264.61 1222.47C2265.47 1223.14 2266.5 1223.68 2267.69 1224.09C2268.9 1224.48 2270.23 1224.79 2271.69 1225.04C2273.14 1225.27 2274.64 1225.52 2276.17 1225.8C2277.71 1226.05 2279.24 1226.38 2280.74 1226.79C2282.24 1227.19 2283.63 1227.76 2284.91 1228.52C2286.22 1229.26 2287.36 1230.23 2288.35 1231.45C2289.35 1232.63 2290.1 1234.16 2290.6 1236.01C2291.22 1238.32 2291.28 1240.46 2290.8 1242.45C2290.33 1244.41 2289.48 1246.17 2288.24 1247.74C2287.02 1249.28 2285.5 1250.61 2283.67 1251.71C2281.85 1252.82 2279.91 1253.65 2277.85 1254.2C2276.53 1254.56 2275.28 1254.8 2274.1 1254.94C2272.93 1255.1 2271.79 1255.17 2270.68 1255.16C2269.6 1255.14 2268.53 1255.05 2267.5 1254.89C2266.45 1254.7 2265.41 1254.45 2264.38 1254.13Z" fill="#343434"/>
</g>
</g>
</g>
<g id="key_33" clip-path="url(#clip64_556_11400)">
<g id="keycap_33" clip-path="url(#clip65_556_11400)">
<rect id="&#39;" width="146" height="147" rx="10" transform="matrix(-0.965926 0.258819 0.258819 0.965926 2241.76 991.745)" fill="#D9D9D9"/>
<g id="text right_15">
<path id="label_33" d="M2178.61 1072.1C2178.75 1072.61 2178.77 1073.12 2178.69 1073.63C2178.61 1074.14 2178.43 1074.62 2178.18 1075.06C2177.92 1075.49 2177.58 1075.86 2177.16 1076.2C2176.75 1076.5 2176.29 1076.73 2175.78 1076.86C2175.26 1077 2174.75 1077.05 2174.23 1077.02C2173.73 1076.95 2173.25 1076.79 2172.81 1076.53C2172.36 1076.28 2171.96 1075.92 2171.6 1075.47C2171.25 1074.99 2170.98 1074.41 2170.8 1073.73C2170.55 1072.82 2170.37 1071.92 2170.24 1071.03C2170.13 1070.13 2170.13 1069.19 2170.25 1068.21C2170.36 1067.23 2170.62 1066.2 2171.04 1065.11C2171.45 1064.01 2172.06 1062.82 2172.87 1061.54L2174.39 1061.8C2174.21 1062.67 2174.06 1063.54 2173.97 1064.43C2173.89 1065.18 2173.84 1065.99 2173.83 1066.85C2173.83 1067.71 2173.94 1068.52 2174.15 1069.29C2174.58 1069.19 2175.03 1069.18 2175.5 1069.25C2175.95 1069.31 2176.39 1069.45 2176.8 1069.67C2177.21 1069.89 2177.57 1070.2 2177.88 1070.6C2178.21 1071 2178.45 1071.5 2178.61 1072.1Z" fill="#343434"/>
</g>
</g>
</g>
<g id="key_34" clip-path="url(#clip66_556_11400)">
<g id="keycap_34" clip-path="url(#clip67_556_11400)">
<rect id=";" width="146" height="147" rx="10" transform="matrix(-0.965926 0.258819 0.258819 0.965926 2069.56 1036.85)" fill="#D9D9D9"/>
<g id="text right_16">
<path id="label_34" d="M2001.77 1133.49C2001.6 1132.85 2001.56 1132.22 2001.66 1131.6C2001.76 1130.97 2001.96 1130.4 2002.26 1129.88C2002.56 1129.36 2002.95 1128.91 2003.42 1128.54C2003.91 1128.14 2004.48 1127.86 2005.12 1127.69C2005.76 1127.52 2006.39 1127.48 2007.01 1127.58C2007.63 1127.66 2008.2 1127.84 2008.72 1128.15C2009.24 1128.45 2009.69 1128.85 2010.07 1129.34C2010.46 1129.83 2010.75 1130.4 2010.92 1131.04C2011.09 1131.67 2011.13 1132.32 2011.04 1132.96C2010.96 1133.58 2010.77 1134.15 2010.47 1134.67C2010.16 1135.19 2009.77 1135.65 2009.28 1136.05C2008.81 1136.44 2008.27 1136.72 2007.65 1136.88C2007.01 1137.05 2006.37 1137.09 2005.72 1137C2005.1 1136.9 2004.53 1136.7 2004.01 1136.4C2003.48 1136.1 2003.02 1135.7 2002.63 1135.21C2002.23 1134.7 2001.94 1134.13 2001.77 1133.49ZM2006.03 1149.38C2005.87 1148.78 2005.83 1148.18 2005.91 1147.58C2006.01 1146.96 2006.21 1146.4 2006.52 1145.9C2006.85 1145.39 2007.26 1144.94 2007.75 1144.54C2008.24 1144.15 2008.79 1143.86 2009.41 1143.7C2010.01 1143.54 2010.6 1143.5 2011.2 1143.58C2011.81 1143.64 2012.38 1143.82 2012.9 1144.12C2013.44 1144.42 2013.92 1144.85 2014.34 1145.42C2014.78 1145.97 2015.1 1146.65 2015.32 1147.45C2015.61 1148.54 2015.82 1149.62 2015.95 1150.69C2016.1 1151.73 2016.1 1152.84 2015.95 1154.01C2015.82 1155.17 2015.51 1156.4 2015.01 1157.7C2014.52 1159 2013.8 1160.41 2012.83 1161.93L2011.04 1161.65C2011.27 1160.61 2011.44 1159.56 2011.55 1158.5C2011.64 1157.61 2011.69 1156.65 2011.67 1155.61C2011.69 1154.59 2011.57 1153.63 2011.33 1152.72C2010.81 1152.84 2010.27 1152.86 2009.72 1152.79C2009.17 1152.72 2008.66 1152.56 2008.17 1152.31C2007.68 1152.05 2007.25 1151.67 2006.87 1151.17C2006.5 1150.67 2006.21 1150.08 2006.03 1149.38Z" fill="#343434"/>
</g>
</g>
</g>
<g id="key_35" clip-path="url(#clip68_556_11400)">
<g id="keycap_35" clip-path="url(#clip69_556_11400)">
<rect id="P" width="146" height="147" rx="10" transform="matrix(-0.965926 0.258819 0.258819 0.965926 2026.34 875.539)" fill="#D9D9D9"/>
<g id="text right_17">
<path id="label_35" d="M1972.85 989.581L1966.98 991.155L1956.29 951.281L1953.55 945.389C1954.14 945.12 1954.84 944.834 1955.64 944.531C1956.47 944.222 1957.33 943.913 1958.24 943.603C1959.15 943.292 1960.08 943 1961.02 942.725C1961.96 942.43 1962.83 942.175 1963.63 941.959C1967.14 941.021 1970.24 940.531 1972.95 940.491C1975.67 940.424 1978 940.737 1979.96 941.429C1981.9 942.1 1983.48 943.113 1984.68 944.47C1985.9 945.82 1986.77 947.433 1987.27 949.309C1988.02 952.09 1988.14 954.551 1987.66 956.692C1987.17 958.832 1986.1 960.741 1984.46 962.42C1982.8 964.078 1980.57 965.549 1977.75 966.833C1974.93 968.096 1971.58 969.25 1967.68 970.293L1972.85 989.581ZM1963.35 954.128L1966.51 965.935C1969.65 965.096 1972.28 964.203 1974.41 963.256C1976.54 962.31 1978.21 961.254 1979.42 960.09C1980.63 958.906 1981.39 957.576 1981.7 956.101C1982.01 954.626 1981.91 952.93 1981.4 951.014C1981.03 949.633 1980.3 948.525 1979.22 947.69C1978.15 946.828 1976.89 946.215 1975.44 945.851C1973.99 945.467 1972.46 945.294 1970.83 945.331C1969.21 945.369 1967.66 945.584 1966.2 945.976C1965.85 946.07 1965.43 946.193 1964.94 946.346C1964.47 946.473 1963.99 946.624 1963.51 946.797C1963.02 946.951 1962.54 947.111 1962.08 947.279C1961.64 947.442 1961.27 947.596 1960.98 947.74L1963.35 954.128Z" fill="#343434"/>
</g>
</g>
</g>
<g id="key_36" clip-path="url(#clip70_556_11400)">
<g id="keycap_36" clip-path="url(#clip71_556_11400)">
<rect id="[" width="146" height="147" rx="10" transform="matrix(-0.965926 0.258819 0.258819 0.965926 2198.28 829.469)" fill="#D9D9D9"/>
<g id="text right_18">
<path id="label_36" d="M2133.2 902.884L2130.87 896.885L2148.55 892.147L2149.79 896.784L2138.29 899.865L2140.56 905.881L2150.83 944.209L2151.87 950.556L2163.37 947.475L2164.61 952.112L2146.93 956.849L2145.96 950.485L2133.2 902.884Z" fill="#343434"/>
</g>
</g>
</g>
</g>
</g>
<defs>
<clipPath id="clip0_556_11400">
<rect width="177" height="167" fill="white" transform="translate(234.598 1185.7) rotate(15)"/>
</clipPath>
<clipPath id="clip1_556_11400">
<rect width="145.512" height="146.512" fill="white" transform="translate(246.998 1200.09) rotate(15)"/>
</clipPath>
<clipPath id="clip2_556_11400">
<rect width="177" height="167" fill="white" transform="translate(417.145 1192.17) rotate(15)"/>
</clipPath>
<clipPath id="clip3_556_11400">
<rect width="145.512" height="146.512" fill="white" transform="translate(429.544 1206.56) rotate(15)"/>
</clipPath>
<clipPath id="clip4_556_11400">
<rect width="177" height="167" fill="white" transform="translate(460.626 1029.89) rotate(15)"/>
</clipPath>
<clipPath id="clip5_556_11400">
<rect width="145.512" height="146.512" fill="white" transform="translate(473.026 1044.28) rotate(15)"/>
</clipPath>
<clipPath id="clip6_556_11400">
<rect width="177" height="167" fill="white" transform="translate(502.883 868.325) rotate(15)"/>
</clipPath>
<clipPath id="clip7_556_11400">
<rect width="145.512" height="146.512" fill="white" transform="translate(515.283 882.713) rotate(15)"/>
</clipPath>
<clipPath id="clip8_556_11400">
<rect width="177" height="167" fill="white" transform="translate(595.654 1213.7) rotate(15)"/>
</clipPath>
<clipPath id="clip9_556_11400">
<rect width="145.512" height="146.512" fill="white" transform="translate(608.053 1228.09) rotate(15)"/>
</clipPath>
<clipPath id="clip10_556_11400">
<rect width="177" height="167" fill="white" transform="translate(638.695 1053.07) rotate(15)"/>
</clipPath>
<clipPath id="clip11_556_11400">
<rect width="145.512" height="146.512" fill="white" transform="translate(651.095 1067.46) rotate(15)"/>
</clipPath>
<clipPath id="clip12_556_11400">
<rect width="177" height="167" fill="white" transform="translate(681.737 892.437) rotate(15)"/>
</clipPath>
<clipPath id="clip13_556_11400">
<rect width="145.512" height="146.512" fill="white" transform="translate(694.136 906.825) rotate(15)"/>
</clipPath>
<clipPath id="clip14_556_11400">
<rect width="177" height="167" fill="white" transform="translate(761.636 1281.99) rotate(15)"/>
</clipPath>
<clipPath id="clip15_556_11400">
<rect width="145.512" height="146.512" fill="white" transform="translate(774.035 1296.38) rotate(15)"/>
</clipPath>
<clipPath id="clip16_556_11400">
<rect width="177" height="167" fill="white" transform="translate(804.677 1121.36) rotate(15)"/>
</clipPath>
<clipPath id="clip17_556_11400">
<rect width="145.512" height="146.512" fill="white" transform="translate(817.077 1135.74) rotate(15)"/>
</clipPath>
<clipPath id="clip18_556_11400">
<rect width="177" height="167" fill="white" transform="translate(847.719 960.723) rotate(15)"/>
</clipPath>
<clipPath id="clip19_556_11400">
<rect width="145.512" height="146.512" fill="white" transform="translate(860.118 975.112) rotate(15)"/>
</clipPath>
<clipPath id="clip20_556_11400">
<rect width="177" height="167" fill="white" transform="translate(927.169 1348.08) rotate(15)"/>
</clipPath>
<clipPath id="clip21_556_11400">
<rect width="145.512" height="146.512" fill="white" transform="translate(939.569 1362.47) rotate(15)"/>
</clipPath>
<clipPath id="clip22_556_11400">
<rect width="177" height="167" fill="white" transform="translate(971.177 1187.71) rotate(15)"/>
</clipPath>
<clipPath id="clip23_556_11400">
<rect width="145.512" height="146.512" fill="white" transform="translate(983.576 1202.1) rotate(15)"/>
</clipPath>
<clipPath id="clip24_556_11400">
<rect width="177" height="167" fill="white" transform="translate(1014.22 1027.08) rotate(15)"/>
</clipPath>
<clipPath id="clip25_556_11400">
<rect width="145.512" height="146.512" fill="white" transform="translate(1026.62 1041.47) rotate(15)"/>
</clipPath>
<clipPath id="clip26_556_11400">
<rect width="177" height="167" fill="white" transform="translate(62.2153 1137.44) rotate(15)"/>
</clipPath>
<clipPath id="clip27_556_11400">
<rect width="145.512" height="146.512" fill="white" transform="translate(74.6147 1151.83) rotate(15)"/>
</clipPath>
<clipPath id="clip28_556_11400">
<rect width="177" height="167" fill="white" transform="translate(106.145 977.356) rotate(15)"/>
</clipPath>
<clipPath id="clip29_556_11400">
<rect width="145.512" height="146.512" fill="white" transform="translate(118.544 991.745) rotate(15)"/>
</clipPath>
<clipPath id="clip30_556_11400">
<rect width="177" height="167" fill="white" transform="translate(278.339 1022.46) rotate(15)"/>
</clipPath>
<clipPath id="clip31_556_11400">
<rect width="145.512" height="146.512" fill="white" transform="translate(290.738 1036.85) rotate(15)"/>
</clipPath>
<clipPath id="clip32_556_11400">
<rect width="177" height="167" fill="white" transform="translate(321.562 861.151) rotate(15)"/>
</clipPath>
<clipPath id="clip33_556_11400">
<rect width="145.512" height="146.512" fill="white" transform="translate(333.961 875.539) rotate(15)"/>
</clipPath>
<clipPath id="clip34_556_11400">
<rect width="177" height="167" fill="white" transform="translate(149.627 815.081) rotate(15)"/>
</clipPath>
<clipPath id="clip35_556_11400">
<rect width="145.512" height="146.512" fill="white" transform="translate(162.026 829.469) rotate(15)"/>
</clipPath>
<clipPath id="clip36_556_11400">
<rect width="177" height="167" fill="white" transform="matrix(-0.965926 0.258819 0.258819 0.965926 2125.7 1185.7)"/>
</clipPath>
<clipPath id="clip37_556_11400">
<rect width="145.512" height="146.512" fill="white" transform="matrix(-0.965926 0.258819 0.258819 0.965926 2113.31 1200.09)"/>
</clipPath>
<clipPath id="clip38_556_11400">
<rect width="177" height="167" fill="white" transform="matrix(-0.965926 0.258819 0.258819 0.965926 1943.16 1192.17)"/>
</clipPath>
<clipPath id="clip39_556_11400">
<rect width="145.512" height="146.512" fill="white" transform="matrix(-0.965926 0.258819 0.258819 0.965926 1930.76 1206.56)"/>
</clipPath>
<clipPath id="clip40_556_11400">
<rect width="177" height="167" fill="white" transform="matrix(-0.965926 0.258819 0.258819 0.965926 1899.68 1029.89)"/>
</clipPath>
<clipPath id="clip41_556_11400">
<rect width="145.512" height="146.512" fill="white" transform="matrix(-0.965926 0.258819 0.258819 0.965926 1887.28 1044.28)"/>
</clipPath>
<clipPath id="clip42_556_11400">
<rect width="177" height="167" fill="white" transform="matrix(-0.965926 0.258819 0.258819 0.965926 1857.42 868.325)"/>
</clipPath>
<clipPath id="clip43_556_11400">
<rect width="145.512" height="146.512" fill="white" transform="matrix(-0.965926 0.258819 0.258819 0.965926 1845.02 882.713)"/>
</clipPath>
<clipPath id="clip44_556_11400">
<rect width="177" height="167" fill="white" transform="matrix(-0.965926 0.258819 0.258819 0.965926 1764.65 1213.7)"/>
</clipPath>
<clipPath id="clip45_556_11400">
<rect width="145.512" height="146.512" fill="white" transform="matrix(-0.965926 0.258819 0.258819 0.965926 1752.25 1228.09)"/>
</clipPath>
<clipPath id="clip46_556_11400">
<rect width="177" height="167" fill="white" transform="matrix(-0.965926 0.258819 0.258819 0.965926 1721.61 1053.07)"/>
</clipPath>
<clipPath id="clip47_556_11400">
<rect width="145.512" height="146.512" fill="white" transform="matrix(-0.965926 0.258819 0.258819 0.965926 1709.21 1067.46)"/>
</clipPath>
<clipPath id="clip48_556_11400">
<rect width="177" height="167" fill="white" transform="matrix(-0.965926 0.258819 0.258819 0.965926 1678.57 892.437)"/>
</clipPath>
<clipPath id="clip49_556_11400">
<rect width="145.512" height="146.512" fill="white" transform="matrix(-0.965926 0.258819 0.258819 0.965926 1666.17 906.825)"/>
</clipPath>
<clipPath id="clip50_556_11400">
<rect width="177" height="167" fill="white" transform="matrix(-0.965926 0.258819 0.258819 0.965926 1598.67 1281.99)"/>
</clipPath>
<clipPath id="clip51_556_11400">
<rect width="145.512" height="146.512" fill="white" transform="matrix(-0.965926 0.258819 0.258819 0.965926 1586.27 1296.38)"/>
</clipPath>
<clipPath id="clip52_556_11400">
<rect width="177" height="167" fill="white" transform="matrix(-0.965926 0.258819 0.258819 0.965926 1555.63 1121.36)"/>
</clipPath>
<clipPath id="clip53_556_11400">
<rect width="145.512" height="146.512" fill="white" transform="matrix(-0.965926 0.258819 0.258819 0.965926 1543.23 1135.74)"/>
</clipPath>
<clipPath id="clip54_556_11400">
<rect width="177" height="167" fill="white" transform="matrix(-0.965926 0.258819 0.258819 0.965926 1512.58 960.723)"/>
</clipPath>
<clipPath id="clip55_556_11400">
<rect width="145.512" height="146.512" fill="white" transform="matrix(-0.965926 0.258819 0.258819 0.965926 1500.18 975.112)"/>
</clipPath>
<clipPath id="clip56_556_11400">
<rect width="177" height="167" fill="white" transform="matrix(-0.965926 0.258819 0.258819 0.965926 1433.13 1348.08)"/>
</clipPath>
<clipPath id="clip57_556_11400">
<rect width="145.512" height="146.512" fill="white" transform="matrix(-0.965926 0.258819 0.258819 0.965926 1420.73 1362.47)"/>
</clipPath>
<clipPath id="clip58_556_11400">
<rect width="177" height="167" fill="white" transform="matrix(-0.965926 0.258819 0.258819 0.965926 1389.13 1187.71)"/>
</clipPath>
<clipPath id="clip59_556_11400">
<rect width="145.512" height="146.512" fill="white" transform="matrix(-0.965926 0.258819 0.258819 0.965926 1376.73 1202.1)"/>
</clipPath>
<clipPath id="clip60_556_11400">
<rect width="177" height="167" fill="white" transform="matrix(-0.965926 0.258819 0.258819 0.965926 1346.08 1027.08)"/>
</clipPath>
<clipPath id="clip61_556_11400">
<rect width="145.512" height="146.512" fill="white" transform="matrix(-0.965926 0.258819 0.258819 0.965926 1333.69 1041.47)"/>
</clipPath>
<clipPath id="clip62_556_11400">
<rect width="177" height="167" fill="white" transform="matrix(-0.965926 0.258819 0.258819 0.965926 2298.09 1137.44)"/>
</clipPath>
<clipPath id="clip63_556_11400">
<rect width="145.512" height="146.512" fill="white" transform="matrix(-0.965926 0.258819 0.258819 0.965926 2285.69 1151.83)"/>
</clipPath>
<clipPath id="clip64_556_11400">
<rect width="177" height="167" fill="white" transform="matrix(-0.965926 0.258819 0.258819 0.965926 2254.16 977.356)"/>
</clipPath>
<clipPath id="clip65_556_11400">
<rect width="145.512" height="146.512" fill="white" transform="matrix(-0.965926 0.258819 0.258819 0.965926 2241.76 991.745)"/>
</clipPath>
<clipPath id="clip66_556_11400">
<rect width="177" height="167" fill="white" transform="matrix(-0.965926 0.258819 0.258819 0.965926 2081.96 1022.46)"/>
</clipPath>
<clipPath id="clip67_556_11400">
<rect width="145.512" height="146.512" fill="white" transform="matrix(-0.965926 0.258819 0.258819 0.965926 2069.56 1036.85)"/>
</clipPath>
<clipPath id="clip68_556_11400">
<rect width="177" height="167" fill="white" transform="matrix(-0.965926 0.258819 0.258819 0.965926 2038.74 861.151)"/>
</clipPath>
<clipPath id="clip69_556_11400">
<rect width="145.512" height="146.512" fill="white" transform="matrix(-0.965926 0.258819 0.258819 0.965926 2026.34 875.539)"/>
</clipPath>
<clipPath id="clip70_556_11400">
<rect width="177" height="167" fill="white" transform="matrix(-0.965926 0.258819 0.258819 0.965926 2210.68 815.081)"/>
</clipPath>
<clipPath id="clip71_556_11400">
<rect width="145.512" height="146.512" fill="white" transform="matrix(-0.965926 0.258819 0.258819 0.965926 2198.28 829.469)"/>
</clipPath>
</defs>
</svg>
