<svg width="2360" height="1640" viewBox="0 0 2360 1640" fill="none" xmlns="http://www.w3.org/2000/svg">
<g id="iPad_Landscape" clip-path="url(#clip0_556_11400)">
<g id="hand">
<g id="key" clip-path="url(#clip1_556_11400)">
<g id="keycap" clip-path="url(#clip2_556_11400)">
<rect id="Z" x="26.6147" y="1199.83" width="146" height="147" rx="10" transform="rotate(15 26.6147 1199.83)" fill="#D9D9D9"/>
<g id="text left">
<path id="label" d="M87.9841 1310.68L87.2772 1315.79L58.2221 1308.01L58.0181 1306.3L85.0065 1275.43L92.1847 1271.39L83.6624 1270.43L71.4531 1267.16L72.16 1262.05L97.6914 1268.89L97.9728 1269.69L70.567 1301.38L63.5743 1305.47L72.0966 1306.42L87.9841 1310.68Z" fill="#343434"/>
</g>
</g>
</g>
<g id="key_2" clip-path="url(#clip3_556_11400)">
<g id="keycap_2" clip-path="url(#clip4_556_11400)">
<rect id="A" x="70.5444" y="1039.74" width="146" height="147" rx="10" transform="rotate(15 70.5444 1039.74)" fill="#D9D9D9"/>
<g id="text left_2">
<path id="label_2" d="M97.5463 1146.69L122.903 1110.42L125.641 1104.52L131.308 1105.38L135.658 1156.9L129.476 1155.24L128.628 1140.11L112.092 1135.68L103.234 1148.21L97.5463 1146.69ZM128.089 1108.49L124.048 1118.01L114.849 1131.45L128.356 1135.07L126.83 1118.76L128.089 1108.49Z" fill="#343434"/>
</g>
</g>
</g>
<g id="key_3" clip-path="url(#clip5_556_11400)">
<g id="keycap_3" clip-path="url(#clip6_556_11400)">
<rect id="Q" x="114.026" y="877.469" width="146" height="147" rx="10" transform="rotate(15 114.026 877.469)" fill="#D9D9D9"/>
<g id="text left_3">
<path id="label_3" d="M170.953 982.029C171.521 981.474 172.078 980.84 172.623 980.124C173.173 979.388 173.695 978.512 174.188 977.496C174.702 976.485 175.206 975.306 175.699 973.958C176.199 972.59 176.688 971.01 177.169 969.217C177.555 967.775 177.872 966.303 178.12 964.801C178.388 963.305 178.54 961.832 178.575 960.384C178.615 958.915 178.527 957.511 178.312 956.173C178.096 954.834 177.692 953.621 177.1 952.535C176.513 951.428 175.732 950.468 174.758 949.655C173.783 948.841 172.564 948.239 171.101 947.847C169.7 947.471 168.394 947.397 167.185 947.625C166.001 947.838 164.902 948.273 163.887 948.928C162.872 949.584 161.942 950.417 161.097 951.427C160.252 952.438 159.491 953.548 158.814 954.758C158.142 955.947 157.551 957.202 157.043 958.524C156.56 959.83 156.15 961.112 155.814 962.369C155.372 964.017 154.99 965.649 154.668 967.263C154.346 968.877 154.138 970.434 154.046 971.933C153.974 973.438 154.046 974.859 154.261 976.198C154.497 977.542 154.94 978.776 155.588 979.9C156.263 981.008 157.184 981.984 158.349 982.826C159.515 983.668 161.002 984.343 162.809 984.849C163.016 984.905 163.207 984.934 163.382 984.937C163.558 984.94 163.835 984.937 164.213 984.927C163.926 983.856 163.67 982.916 163.446 982.104C163.247 981.278 163.006 980.573 162.72 979.989C162.441 979.384 162.084 978.902 161.65 978.542C161.222 978.163 160.658 977.879 159.957 977.691L162.726 973.663C163.736 973.933 164.584 974.392 165.272 975.041C165.986 975.674 166.601 976.512 167.116 977.555C167.631 978.599 168.092 979.849 168.497 981.305C168.907 982.74 169.348 984.393 169.818 986.264L170.953 982.029ZM163.407 990.409C162.683 990.392 161.921 990.309 161.121 990.161C160.342 990.019 159.458 989.815 158.469 989.55C155.914 988.865 153.842 987.615 152.252 985.797C150.684 983.986 149.543 981.814 148.83 979.282C148.117 976.749 147.812 973.973 147.915 970.953C148.038 967.938 148.514 964.885 149.342 961.794C149.921 959.63 150.634 957.591 151.478 955.675C152.329 953.738 153.297 951.977 154.385 950.391C155.499 948.79 156.712 947.392 158.026 946.198C159.361 945.01 160.794 944.069 162.327 943.375C163.866 942.661 165.503 942.239 167.239 942.107C168.98 941.956 170.799 942.134 172.694 942.642C175.476 943.387 177.774 944.621 179.587 946.344C181.4 948.066 182.747 950.128 183.628 952.528C184.509 954.929 184.937 957.617 184.913 960.592C184.909 963.572 184.474 966.68 183.607 969.915C183.077 971.894 182.434 973.841 181.677 975.759C180.926 977.656 180.066 979.424 179.096 981.064C178.147 982.709 177.077 984.189 175.886 985.504C174.72 986.804 173.437 987.841 172.038 988.614C171.829 988.735 171.606 988.863 171.371 988.999C171.142 989.114 170.925 989.222 170.722 989.322C170.936 990.086 171.149 990.695 171.358 991.149C171.568 991.602 171.841 991.985 172.177 992.296C172.519 992.586 172.96 992.837 173.5 993.048C174.045 993.238 174.751 993.449 175.616 993.681L172.839 997.74C171.808 997.464 170.883 997.128 170.061 996.731C169.261 996.34 168.53 995.769 167.87 995.018C167.231 994.272 166.665 993.292 166.173 992.078C165.681 990.864 165.226 989.307 164.808 987.406L164.541 986.175L163.407 990.409Z" fill="#343434"/>
</g>
</g>
</g>
<g id="key_4" clip-path="url(#clip7_556_11400)">
<g id="keycap_4" clip-path="url(#clip8_556_11400)">
<rect id="X" x="198.998" y="1248.09" width="146" height="147" rx="10" transform="rotate(15 198.998 1248.09)" fill="#D9D9D9"/>
<g id="text left_4">
<path id="label_4" d="M256.198 1363.13L251.935 1344.79L251.054 1338.56L248.245 1343.1L234.252 1357.25L228.132 1355.61L249.061 1334.74L242.317 1309.71L249.036 1310.85L253.26 1327.35L254.11 1334.08L256.517 1329.42L268.281 1316.67L274.463 1318.33L256.134 1337.4L262.998 1364.95L256.198 1363.13Z" fill="#343434"/>
</g>
</g>
</g>
<g id="key_5" clip-path="url(#clip9_556_11400)">
<g id="keycap_5" clip-path="url(#clip10_556_11400)">
<rect id="S" x="242.738" y="1084.85" width="146" height="147" rx="10" transform="rotate(15 242.738 1084.85)" fill="#D9D9D9"/>
<g id="text left_5">
<path id="label_5" d="M275.495 1190.22L279.55 1186.34C279.891 1186.72 280.344 1187.17 280.909 1187.7C281.501 1188.21 282.167 1188.73 282.909 1189.26C283.65 1189.79 284.457 1190.28 285.329 1190.74C286.201 1191.19 287.111 1191.54 288.059 1191.8C289.337 1192.14 290.656 1192.33 292.016 1192.36C293.403 1192.38 294.699 1192.2 295.906 1191.81C297.139 1191.42 298.213 1190.79 299.128 1189.93C300.064 1189.07 300.722 1187.94 301.103 1186.51C301.462 1185.17 301.468 1183.92 301.12 1182.74C300.772 1181.57 300.201 1180.44 299.407 1179.37C298.612 1178.29 297.655 1177.25 296.533 1176.25C295.411 1175.24 294.259 1174.22 293.076 1173.2C291.913 1172.18 290.776 1171.15 289.666 1170.1C288.561 1169.03 287.625 1167.91 286.858 1166.73C286.092 1165.55 285.554 1164.3 285.245 1162.98C284.936 1161.66 284.988 1160.23 285.402 1158.69C285.938 1156.69 286.83 1155.05 288.078 1153.77C289.326 1152.49 290.765 1151.53 292.395 1150.89C294.026 1150.24 295.776 1149.89 297.645 1149.84C299.514 1149.79 301.334 1150 303.106 1150.48C307.496 1151.65 311.213 1153.97 314.26 1157.44L310.243 1160.44C309.063 1159.24 307.876 1158.27 306.683 1157.53C305.51 1156.8 304.13 1156.22 302.544 1155.79C301.431 1155.49 300.277 1155.31 299.083 1155.23C297.91 1155.16 296.801 1155.26 295.756 1155.53C294.737 1155.79 293.829 1156.25 293.031 1156.92C292.26 1157.58 291.716 1158.49 291.402 1159.66C291.092 1160.82 291.134 1161.9 291.526 1162.91C291.938 1163.93 292.558 1164.91 293.385 1165.86C294.239 1166.8 295.235 1167.74 296.373 1168.68C297.517 1169.61 298.683 1170.57 299.872 1171.57C301.087 1172.56 302.241 1173.61 303.335 1174.72C304.435 1175.81 305.351 1177.01 306.085 1178.31C306.844 1179.59 307.348 1181.01 307.597 1182.56C307.871 1184.09 307.76 1185.78 307.263 1187.63C306.644 1189.94 305.629 1191.83 304.218 1193.31C302.832 1194.77 301.212 1195.87 299.357 1196.61C297.529 1197.34 295.548 1197.72 293.415 1197.77C291.282 1197.82 289.186 1197.57 287.125 1197.01C285.806 1196.66 284.602 1196.25 283.513 1195.78C282.418 1195.33 281.395 1194.83 280.442 1194.26C279.509 1193.7 278.634 1193.09 277.818 1192.43C277.006 1191.75 276.232 1191.01 275.495 1190.22Z" fill="#343434"/>
</g>
</g>
</g>
<g id="key_6" clip-path="url(#clip11_556_11400)">
<g id="keycap_6" clip-path="url(#clip12_556_11400)">
<rect id="W" x="285.961" y="923.539" width="146" height="147" rx="10" transform="rotate(15 285.961 923.539)" fill="#D9D9D9"/>
<g id="text left_6">
<path id="label_6" d="M332.731 1012.59L339.012 1001.02L343.339 1002.18L343.21 1015.4L341.263 1031.44L341.387 1031.47L346.186 1017.52L357.872 992.823L363.343 994.289L342.512 1038.4L336.918 1036.9L337.677 1022.2L339.995 1006.25L339.871 1006.22L333.937 1021.2L327.181 1034.29L321.679 1032.82L325.572 984.168L331.115 984.991L329.186 1012.96L326.334 1027.44L326.458 1027.47L332.731 1012.59Z" fill="#343434"/>
</g>
</g>
</g>
<g id="key_7" clip-path="url(#clip13_556_11400)">
<g id="keycap_7" clip-path="url(#clip14_556_11400)">
<rect id="C" x="381.544" y="1254.56" width="146" height="147" rx="10" transform="rotate(15 381.544 1254.56)" fill="#D9D9D9"/>
<g id="text left_7">
<path id="label_7" d="M443.871 1367.52C442.844 1367.97 441.835 1368.32 440.842 1368.56C439.85 1368.81 438.838 1368.95 437.807 1369.01C436.782 1369.04 435.727 1368.98 434.643 1368.82C433.554 1368.69 432.401 1368.46 431.185 1368.13C429.207 1367.6 427.399 1366.81 425.761 1365.75C424.128 1364.67 422.68 1363.4 421.416 1361.93C420.178 1360.45 419.14 1358.81 418.301 1356.99C417.462 1355.18 416.85 1353.26 416.465 1351.23C416.086 1349.19 415.935 1347.07 416.013 1344.88C416.091 1342.7 416.429 1340.49 417.025 1338.26C417.859 1335.15 419.091 1332.32 420.723 1329.78C422.36 1327.21 424.336 1325.12 426.65 1323.48C428.971 1321.83 431.584 1320.73 434.491 1320.18C437.419 1319.64 440.583 1319.83 443.983 1320.74C446.353 1321.37 448.383 1322.33 450.075 1323.6C451.793 1324.85 453.203 1326.39 454.305 1328.21L450.637 1330.77C450.231 1330.31 449.788 1329.86 449.309 1329.42C448.836 1328.96 448.289 1328.53 447.67 1328.12C447.071 1327.72 446.387 1327.35 445.616 1327.01C444.872 1326.65 444.026 1326.35 443.078 1326.1C440.564 1325.42 438.242 1325.31 436.113 1325.75C434.005 1326.2 432.114 1327.08 430.441 1328.38C428.774 1329.65 427.342 1331.29 426.144 1333.29C424.972 1335.27 424.063 1337.47 423.417 1339.88C423.014 1341.38 422.763 1342.94 422.663 1344.54C422.564 1346.15 422.612 1347.74 422.808 1349.32C423.025 1350.9 423.4 1352.43 423.934 1353.9C424.468 1355.36 425.168 1356.71 426.032 1357.94C426.917 1359.17 427.968 1360.23 429.184 1361.13C430.406 1362.01 431.81 1362.67 433.397 1363.09C434.324 1363.34 435.149 1363.52 435.872 1363.62C436.595 1363.73 437.29 1363.77 437.958 1363.75C438.646 1363.74 439.349 1363.67 440.065 1363.55C440.786 1363.41 441.61 1363.23 442.535 1362.99L443.871 1367.52Z" fill="#343434"/>
</g>
</g>
</g>
<g id="key_8" clip-path="url(#clip15_556_11400)">
<g id="keycap_8" clip-path="url(#clip16_556_11400)">
<rect id="D" x="425.026" y="1092.28" width="146" height="147" rx="10" transform="rotate(15 425.026 1092.28)" fill="#D9D9D9"/>
<g id="text left_8">
<path id="label_8" d="M468.871 1154.05C469.526 1154.15 470.272 1154.3 471.107 1154.48C471.942 1154.66 472.796 1154.85 473.667 1155.06C474.543 1155.26 475.404 1155.46 476.249 1155.69C477.099 1155.9 477.864 1156.09 478.544 1156.27C481.821 1157.15 484.742 1158.36 487.309 1159.91C489.896 1161.47 491.975 1163.39 493.545 1165.69C495.116 1167.99 496.111 1170.66 496.531 1173.71C496.95 1176.76 496.644 1180.22 495.612 1184.07C494.805 1187.08 493.791 1189.71 492.568 1191.97C491.35 1194.2 489.978 1196.11 488.451 1197.69C486.944 1199.27 485.29 1200.54 483.489 1201.49C481.714 1202.43 479.844 1203.1 477.882 1203.5C475.945 1203.89 473.953 1204.03 471.905 1203.92C469.864 1203.79 467.812 1203.45 465.752 1202.9L457.375 1200.66L468.059 1160.78L468.871 1154.05ZM472.772 1166.69L464.573 1197.29L465.191 1197.45C467.85 1198.16 470.24 1198.47 472.363 1198.38C474.487 1198.29 476.364 1197.92 477.994 1197.27C479.651 1196.61 481.089 1195.74 482.308 1194.65C483.532 1193.54 484.572 1192.34 485.427 1191.05C486.302 1189.76 487.01 1188.43 487.55 1187.08C488.111 1185.73 488.552 1184.45 488.872 1183.26C489.341 1181.51 489.703 1179.82 489.958 1178.21C490.213 1176.6 490.29 1175.08 490.19 1173.64C490.09 1172.2 489.79 1170.85 489.288 1169.59C488.787 1168.33 488.017 1167.16 486.98 1166.09C485.942 1165.01 484.6 1164.05 482.953 1163.19C481.333 1162.31 479.348 1161.56 476.999 1160.93C476.669 1160.84 476.316 1160.76 475.94 1160.68C475.563 1160.6 475.205 1160.53 474.864 1160.49L473.656 1160.3L472.772 1166.69Z" fill="#343434"/>
</g>
</g>
</g>
<g id="key_9" clip-path="url(#clip17_556_11400)">
<g id="keycap_9" clip-path="url(#clip18_556_11400)">
<rect id="E" x="467.283" y="930.713" width="146" height="147" rx="10" transform="rotate(15 467.283 930.713)" fill="#D9D9D9"/>
<g id="text left_9">
<path id="label_9" d="M529.703 1041.85L527.76 1046.63L499.323 1039.01L501.443 1032.95L510.471 999.258L511.283 992.518L539.719 1000.14L538.394 1005.08L515.985 999.079L515.029 1005.12L512.835 1013.31L532.462 1018.57L531.261 1023.05L511.634 1017.79L508.321 1030.15L506.521 1035.63L529.703 1041.85Z" fill="#343434"/>
</g>
</g>
</g>
<g id="key_10" clip-path="url(#clip19_556_11400)">
<g id="keycap_10" clip-path="url(#clip20_556_11400)">
<rect id="V" x="560.053" y="1276.09" width="146" height="147" rx="10" transform="rotate(15 560.053 1276.09)" fill="#D9D9D9"/>
<g id="text left_10">
<path id="label_10" d="M608.907 1372.33L607.719 1383.93L611.494 1374.54L629.739 1344.78L635.426 1346.3L612.532 1383.9L610.072 1389.86L603.19 1387.36L601.951 1337.33L607.99 1338.29L608.907 1372.33Z" fill="#343434"/>
</g>
</g>
</g>
<g id="key_11" clip-path="url(#clip21_556_11400)">
<g id="keycap_11" clip-path="url(#clip22_556_11400)">
<rect id="F" x="603.095" y="1115.46" width="146" height="147" rx="10" transform="rotate(15 603.095 1115.46)" fill="#D9D9D9"/>
<g id="text left_11">
<path id="label_11" d="M641.317 1225.41L635.444 1223.83L646.128 1183.96L646.94 1177.22L676.15 1185.05L674.206 1189.83L651.797 1183.82L650.841 1189.86L648.647 1198.05L667.811 1203.19L666.61 1207.67L647.446 1202.54L641.317 1225.41Z" fill="#343434"/>
</g>
</g>
</g>
<g id="key_12" clip-path="url(#clip23_556_11400)">
<g id="keycap_12" clip-path="url(#clip24_556_11400)">
<rect id="R" x="646.136" y="954.825" width="146" height="147" rx="10" transform="rotate(15 646.136 954.825)" fill="#D9D9D9"/>
<g id="text left_12">
<path id="label_12" d="M689.351 1045.77L684.266 1064.75L678.609 1063.24L689.293 1023.36L689.868 1016.89C691.293 1017.09 692.849 1017.35 694.536 1017.64C696.243 1017.95 697.994 1018.34 699.786 1018.82C702.383 1019.51 704.709 1020.44 706.765 1021.58C708.826 1022.71 710.517 1024.02 711.837 1025.53C713.157 1027.03 714.055 1028.7 714.531 1030.55C715.013 1032.38 714.975 1034.34 714.417 1036.42C713.837 1038.58 712.956 1040.39 711.772 1041.84C710.589 1043.29 709.201 1044.43 707.608 1045.26C706.022 1046.08 704.253 1046.62 702.303 1046.89C700.358 1047.14 698.339 1047.18 696.246 1046.99L700.304 1049.4L707.85 1071.07L700.957 1069.22L693.428 1047.49C693.279 1047.14 693.065 1046.91 692.788 1046.79C692.516 1046.65 692.298 1046.56 692.133 1046.52L689.351 1045.77ZM693.765 1029.3L690.601 1041.1L694.249 1042.08C696.124 1042.58 697.852 1042.77 699.432 1042.64C701.018 1042.49 702.425 1042.11 703.651 1041.49C704.883 1040.85 705.914 1040.01 706.744 1038.97C707.579 1037.91 708.177 1036.71 708.535 1035.38C708.85 1034.2 708.964 1033.12 708.877 1032.12C708.791 1031.13 708.547 1030.22 708.147 1029.41C707.747 1028.59 707.226 1027.86 706.585 1027.2C705.949 1026.52 705.235 1025.93 704.441 1025.43C703.668 1024.94 702.845 1024.51 701.971 1024.14C701.118 1023.78 700.269 1023.49 699.425 1023.26C698.559 1023.03 697.768 1022.85 697.051 1022.72C696.36 1022.58 695.657 1022.48 694.944 1022.42L693.765 1029.3Z" fill="#343434"/>
</g>
</g>
</g>
<g id="key_13" clip-path="url(#clip25_556_11400)">
<g id="keycap_13" clip-path="url(#clip26_556_11400)">
<rect id="B" x="726.035" y="1344.38" width="146" height="147" rx="10" transform="rotate(15 726.035 1344.38)" fill="#D9D9D9"/>
<g id="text left_13">
<path id="label_13" d="M758.539 1452.79L769.223 1412.92L769.952 1406.49C771.233 1406.66 772.539 1406.85 773.87 1407.08C775.222 1407.31 776.568 1407.6 777.907 1407.96C780.297 1408.6 782.533 1409.37 784.614 1410.25C786.7 1411.12 788.452 1412.17 789.87 1413.39C791.309 1414.61 792.328 1416.04 792.926 1417.68C793.53 1419.3 793.548 1421.17 792.979 1423.3C792.378 1425.54 791.374 1427.35 789.97 1428.72C788.565 1430.09 786.85 1430.96 784.826 1431.35L779.701 1431.43L784.129 1433.08C785.286 1433.79 786.342 1434.59 787.294 1435.49C788.252 1436.36 789.02 1437.33 789.597 1438.39C790.195 1439.46 790.577 1440.63 790.741 1441.91C790.906 1443.19 790.787 1444.58 790.384 1446.09C789.914 1447.84 789.258 1449.34 788.414 1450.6C787.591 1451.86 786.636 1452.9 785.551 1453.74C784.466 1454.57 783.285 1455.23 782.01 1455.7C780.739 1456.16 779.422 1456.46 778.059 1456.6C776.722 1456.73 775.363 1456.73 773.984 1456.6C772.61 1456.45 771.274 1456.21 769.975 1455.86L758.539 1452.79ZM765.582 1449.38L768.982 1450.29C771.022 1450.84 772.874 1451.18 774.538 1451.32C776.229 1451.44 777.711 1451.31 778.985 1450.92C780.286 1450.52 781.376 1449.83 782.257 1448.85C783.143 1447.85 783.815 1446.49 784.274 1444.78C784.688 1443.24 784.773 1441.85 784.53 1440.61C784.287 1439.38 783.765 1438.27 782.963 1437.31C782.183 1436.35 781.143 1435.53 779.845 1434.85C778.553 1434.15 777.072 1433.58 775.403 1433.13L770.303 1431.76L765.582 1449.38ZM773.757 1418.87L771.587 1426.97L774.832 1427.84C776.106 1428.12 777.395 1428.25 778.699 1428.25C780.024 1428.25 781.246 1428.06 782.365 1427.67C783.51 1427.27 784.503 1426.66 785.345 1425.82C786.214 1424.97 786.835 1423.85 787.211 1422.45C787.575 1421.09 787.557 1419.88 787.155 1418.82C786.78 1417.75 786.167 1416.82 785.316 1416.04C784.465 1415.26 783.449 1414.6 782.268 1414.06C781.107 1413.53 779.939 1413.11 778.765 1412.79C778.064 1412.61 777.324 1412.44 776.545 1412.3C775.793 1412.14 775.08 1412.04 774.408 1411.99L773.757 1418.87Z" fill="#343434"/>
</g>
</g>
</g>
<g id="key_14" clip-path="url(#clip27_556_11400)">
<g id="keycap_14" clip-path="url(#clip28_556_11400)">
<rect id="G" x="769.077" y="1183.74" width="146" height="147" rx="10" transform="rotate(15 769.077 1183.74)" fill="#D9D9D9"/>
<g id="text left_14">
<path id="label_14" d="M833.503 1294.19C832.41 1294.89 831.228 1295.51 829.956 1296.05C828.69 1296.58 827.348 1296.97 825.931 1297.23C824.519 1297.47 823.027 1297.56 821.455 1297.49C819.878 1297.44 818.234 1297.19 816.524 1296.73C813.556 1295.93 811.131 1294.6 809.248 1292.73C807.391 1290.84 806.026 1288.59 805.154 1286C804.302 1283.41 803.911 1280.54 803.979 1277.4C804.047 1274.26 804.529 1271.02 805.423 1267.68C805.981 1265.6 806.653 1263.63 807.44 1261.76C808.253 1259.88 809.187 1258.17 810.243 1256.62C811.299 1255.07 812.489 1253.72 813.812 1252.57C815.162 1251.41 816.652 1250.5 818.282 1249.86C819.918 1249.19 821.697 1248.82 823.618 1248.74C825.566 1248.64 827.673 1248.9 829.939 1249.5C832.309 1250.14 834.443 1251.12 836.34 1252.45C838.264 1253.76 839.777 1255.32 840.88 1257.14L837.212 1259.7C836.399 1258.78 835.318 1257.87 833.966 1256.98C832.615 1256.09 830.971 1255.38 829.034 1254.86C827.365 1254.41 825.844 1254.24 824.471 1254.33C823.098 1254.43 821.843 1254.75 820.706 1255.28C819.59 1255.82 818.586 1256.56 817.696 1257.49C816.811 1258.4 816.007 1259.46 815.282 1260.68C814.579 1261.91 813.953 1263.25 813.406 1264.72C812.859 1266.19 812.37 1267.72 811.939 1269.33C811.558 1270.75 811.238 1272.23 810.979 1273.78C810.747 1275.3 810.615 1276.83 810.584 1278.34C810.554 1279.86 810.669 1281.32 810.929 1282.74C811.19 1284.16 811.626 1285.46 812.238 1286.64C812.87 1287.82 813.709 1288.85 814.755 1289.73C815.822 1290.61 817.148 1291.26 818.735 1291.69C819.662 1291.94 820.607 1292.08 821.569 1292.12C822.531 1292.16 823.458 1292.12 824.35 1292C825.242 1291.89 826.049 1291.72 826.772 1291.49C827.522 1291.25 828.134 1290.98 828.61 1290.69L831.5 1279.9L821.961 1276.69L823.037 1272.67L838.183 1276.73L833.503 1294.19Z" fill="#343434"/>
</g>
</g>
</g>
<g id="key_15" clip-path="url(#clip29_556_11400)">
<g id="keycap_15" clip-path="url(#clip30_556_11400)">
<rect id="T" x="812.118" y="1023.11" width="146" height="147" rx="10" transform="rotate(15 812.118 1023.11)" fill="#D9D9D9"/>
<g id="text left_15">
<path id="label_15" d="M855.286 1134.39L866.384 1092.97L853.247 1089.45L854.572 1084.5L886.564 1093.07L885.239 1098.02L872.257 1094.54L861.159 1135.96L855.286 1134.39Z" fill="#343434"/>
</g>
</g>
</g>
<g id="key_16" clip-path="url(#clip31_556_11400)">
<g id="keycap_16" clip-path="url(#clip32_556_11400)">
<rect id="N" x="891.569" y="1410.47" width="146" height="147" rx="10" transform="rotate(15 891.569 1410.47)" fill="#D9D9D9"/>
<g id="text left_16">
<path id="label_16" d="M946.791 1524.98L939.342 1491.58L937.848 1477.49L937.655 1477.47L936.02 1491.61L928.4 1520.05L922.836 1518.56L933.52 1478.69L934.332 1471.95L940.711 1472.99L948.066 1506.87L949.743 1521.13L949.937 1521.15L951.131 1506.93L958.751 1478.49L964.48 1479.36L951.891 1526.34L946.791 1524.98Z" fill="#343434"/>
</g>
</g>
</g>
<g id="key_17" clip-path="url(#clip33_556_11400)">
<g id="keycap_17" clip-path="url(#clip34_556_11400)">
<rect id="H" x="935.576" y="1250.1" width="146" height="147" rx="10" transform="rotate(15 935.576 1250.1)" fill="#D9D9D9"/>
<g id="text left_17">
<path id="label_17" d="M990.829 1364.61L996.834 1342.2L979.277 1337.5L973.273 1359.91L967.4 1358.33L978.084 1318.46L978.927 1311.73L985.862 1312.93L980.603 1332.55L998.159 1337.26L1003.25 1318.25L1009.29 1319.2L996.702 1366.19L990.829 1364.61Z" fill="#343434"/>
</g>
</g>
</g>
<g id="key_18" clip-path="url(#clip35_556_11400)">
<g id="keycap_18" clip-path="url(#clip36_556_11400)">
<rect id="Y" x="978.618" y="1089.47" width="146" height="147" rx="10" transform="rotate(15 978.618 1089.47)" fill="#D9D9D9"/>
<g id="text left_18">
<path id="label_18" d="M1033.73 1172.97L1047.31 1157.89L1053.25 1159.48L1032.73 1182.27L1027.38 1202.24L1020.89 1200.5L1026.23 1180.56L1019.84 1150.53L1026.31 1151.6L1030.52 1171.48L1030.9 1179.83L1033.73 1172.97Z" fill="#343434"/>
</g>
</g>
</g>
</g>
<g id="hand_2">
<g id="key_19" clip-path="url(#clip37_556_11400)">
<g id="keycap_19" clip-path="url(#clip38_556_11400)">
<rect id="SH" width="146" height="147" rx="10" transform="matrix(-0.965926 0.258819 0.258819 0.965926 2333.69 1199.83)" fill="#D9D9D9"/>
<g id="text right">
<path id="label_19" d="M2251.59 1318.42L2253.16 1313.03C2253.64 1313.19 2254.26 1313.36 2255.01 1313.53C2255.78 1313.68 2256.62 1313.8 2257.53 1313.88C2258.43 1313.97 2259.38 1313.99 2260.36 1313.95C2261.34 1313.91 2262.31 1313.76 2263.26 1313.51C2264.53 1313.17 2265.77 1312.67 2266.96 1312.02C2268.17 1311.34 2269.21 1310.53 2270.06 1309.6C2270.93 1308.64 2271.54 1307.55 2271.91 1306.35C2272.29 1305.15 2272.29 1303.83 2271.91 1302.41C2271.55 1301.07 2270.93 1299.98 2270.04 1299.13C2269.15 1298.29 2268.09 1297.6 2266.87 1297.07C2265.64 1296.54 2264.29 1296.11 2262.82 1295.8C2261.34 1295.49 2259.84 1295.19 2258.3 1294.89C2256.78 1294.59 2255.28 1294.26 2253.8 1293.91C2252.31 1293.54 2250.93 1293.03 2249.68 1292.4C2248.43 1291.76 2247.34 1290.95 2246.41 1289.96C2245.48 1288.97 2244.81 1287.71 2244.4 1286.16C2243.86 1284.16 2243.82 1282.3 2244.26 1280.57C2244.7 1278.84 2245.47 1277.28 2246.56 1275.91C2247.64 1274.53 2248.99 1273.36 2250.58 1272.38C2252.17 1271.4 2253.85 1270.67 2255.63 1270.2C2260.02 1269.02 2264.4 1269.17 2268.77 1270.65L2266.79 1275.26C2265.17 1274.81 2263.65 1274.56 2262.25 1274.52C2260.87 1274.47 2259.38 1274.66 2257.8 1275.08C2256.68 1275.38 2255.59 1275.8 2254.52 1276.33C2253.47 1276.85 2252.56 1277.49 2251.79 1278.25C2251.03 1278.98 2250.48 1279.84 2250.12 1280.82C2249.78 1281.77 2249.77 1282.83 2250.08 1284.01C2250.39 1285.16 2250.97 1286.08 2251.81 1286.76C2252.68 1287.43 2253.71 1287.97 2254.9 1288.38C2256.11 1288.77 2257.44 1289.08 2258.9 1289.33C2260.35 1289.56 2261.84 1289.81 2263.37 1290.09C2264.92 1290.34 2266.44 1290.67 2267.95 1291.08C2269.44 1291.48 2270.84 1292.05 2272.12 1292.81C2273.42 1293.55 2274.57 1294.52 2275.55 1295.73C2276.56 1296.92 2277.31 1298.45 2277.8 1300.3C2278.42 1302.61 2278.49 1304.75 2278.01 1306.74C2277.54 1308.7 2276.68 1310.46 2275.45 1312.03C2274.23 1313.57 2272.7 1314.9 2270.88 1316C2269.06 1317.11 2267.12 1317.94 2265.05 1318.49C2263.74 1318.85 2262.49 1319.09 2261.31 1319.23C2260.14 1319.39 2259 1319.46 2257.89 1319.45C2256.8 1319.43 2255.74 1319.34 2254.7 1319.18C2253.66 1318.99 2252.62 1318.74 2251.59 1318.42ZM2315.85 1304.32L2309.84 1281.91L2292.29 1286.61L2298.29 1309.02L2292.42 1310.6L2281.73 1270.72L2279.1 1264.47L2285.7 1262.04L2290.96 1281.67L2308.52 1276.96L2303.42 1257.95L2309.13 1255.76L2321.72 1302.75L2315.85 1304.32Z" fill="#343434"/>
</g>
</g>
</g>
<g id="key_20" clip-path="url(#clip39_556_11400)">
<g id="keycap_20" clip-path="url(#clip40_556_11400)">
<rect id="EN" width="146" height="147" rx="10" transform="matrix(-0.965926 0.258819 0.258819 0.965926 2289.76 1039.74)" fill="#D9D9D9"/>
<g id="text right_2">
<path id="label_20" d="M2236.23 1148.5L2236.93 1153.61L2208.5 1161.23L2207.3 1154.92L2198.28 1121.23L2195.61 1114.99L2224.05 1107.37L2225.37 1112.31L2202.96 1118.32L2205.15 1124.02L2207.35 1132.22L2226.98 1126.96L2228.18 1131.44L2208.55 1136.7L2211.86 1149.06L2213.04 1154.71L2236.23 1148.5ZM2271.89 1144.24L2248.73 1119.04L2240.4 1107.59L2240.22 1107.67L2245.87 1120.73L2253.49 1149.17L2247.93 1150.66L2237.25 1110.79L2234.58 1104.55L2240.63 1102.26L2263.93 1127.92L2272.52 1139.43L2272.7 1139.35L2266.62 1126.44L2259 1098L2264.4 1095.89L2276.99 1142.88L2271.89 1144.24Z" fill="#343434"/>
</g>
</g>
</g>
<g id="key_21" clip-path="url(#clip41_556_11400)">
<g id="keycap_21" clip-path="url(#clip42_556_11400)">
<rect id="]" width="146" height="147" rx="10" transform="matrix(-0.965926 0.258819 0.258819 0.965926 2246.28 877.469)" fill="#D9D9D9"/>
<g id="text right_3">
<path id="label_21" d="M2211.14 993.88L2213.48 999.88L2195.8 1004.62L2194.56 999.981L2206.06 996.9L2203.78 990.884L2193.51 952.556L2192.47 946.208L2180.97 949.289L2179.73 944.653L2197.41 939.915L2198.39 946.279L2211.14 993.88Z" fill="#343434"/>
</g>
</g>
</g>
<g id="key_22" clip-path="url(#clip43_556_11400)">
<g id="keycap_22" clip-path="url(#clip44_556_11400)">
<rect id="SH_2" width="146" height="147" rx="10" transform="matrix(-0.965926 0.258819 0.258819 0.965926 2161.31 1248.09)" fill="#D9D9D9"/>
<g id="text right_4">
<path id="label_22" d="M2079.2 1366.68L2080.77 1361.29C2081.26 1361.45 2081.88 1361.62 2082.63 1361.79C2083.4 1361.94 2084.24 1362.06 2085.14 1362.14C2086.05 1362.23 2086.99 1362.25 2087.98 1362.21C2088.96 1362.17 2089.92 1362.02 2090.87 1361.77C2092.15 1361.43 2093.39 1360.93 2094.58 1360.28C2095.79 1359.6 2096.82 1358.79 2097.68 1357.86C2098.55 1356.9 2099.16 1355.81 2099.52 1354.61C2099.91 1353.41 2099.91 1352.09 2099.53 1350.67C2099.17 1349.33 2098.54 1348.24 2097.66 1347.39C2096.77 1346.55 2095.71 1345.86 2094.49 1345.33C2093.26 1344.8 2091.91 1344.37 2090.44 1344.06C2088.96 1343.75 2087.45 1343.45 2085.92 1343.15C2084.4 1342.85 2082.9 1342.52 2081.41 1342.17C2079.92 1341.8 2078.55 1341.29 2077.3 1340.66C2076.05 1340.02 2074.96 1339.21 2074.03 1338.22C2073.1 1337.23 2072.43 1335.97 2072.02 1334.42C2071.48 1332.42 2071.43 1330.56 2071.88 1328.83C2072.32 1327.1 2073.08 1325.54 2074.17 1324.17C2075.26 1322.8 2076.6 1321.62 2078.2 1320.64C2079.79 1319.66 2081.47 1318.93 2083.24 1318.46C2087.63 1317.28 2092.01 1317.43 2096.38 1318.91L2094.41 1323.52C2092.78 1323.07 2091.27 1322.82 2089.87 1322.78C2088.49 1322.73 2087 1322.92 2085.41 1323.34C2084.3 1323.64 2083.21 1324.06 2082.14 1324.59C2081.08 1325.11 2080.17 1325.75 2079.4 1326.51C2078.65 1327.24 2078.1 1328.1 2077.74 1329.08C2077.4 1330.03 2077.39 1331.09 2077.7 1332.27C2078.01 1333.42 2078.59 1334.34 2079.43 1335.02C2080.3 1335.69 2081.33 1336.23 2082.52 1336.64C2083.72 1337.03 2085.06 1337.34 2086.52 1337.59C2087.97 1337.82 2089.46 1338.07 2090.99 1338.35C2092.54 1338.6 2094.06 1338.93 2095.56 1339.34C2097.06 1339.74 2098.45 1340.31 2099.74 1341.07C2101.04 1341.81 2102.18 1342.78 2103.17 1344C2104.18 1345.18 2104.93 1346.71 2105.42 1348.56C2106.04 1350.87 2106.11 1353.01 2105.62 1355C2105.15 1356.96 2104.3 1358.72 2103.07 1360.29C2101.84 1361.83 2100.32 1363.16 2098.5 1364.26C2096.67 1365.37 2094.73 1366.2 2092.67 1366.75C2091.35 1367.11 2090.11 1367.35 2088.93 1367.49C2087.76 1367.65 2086.62 1367.72 2085.51 1367.71C2084.42 1367.69 2083.36 1367.6 2082.32 1367.44C2081.28 1367.25 2080.24 1367 2079.2 1366.68ZM2143.46 1352.58L2137.46 1330.17L2119.9 1334.87L2125.91 1357.28L2120.03 1358.86L2109.35 1318.98L2106.71 1312.73L2113.32 1310.3L2118.58 1329.93L2136.13 1325.22L2131.04 1306.21L2136.75 1304.02L2149.34 1351.01L2143.46 1352.58Z" fill="#343434"/>
</g>
</g>
</g>
<g id="key_23" clip-path="url(#clip45_556_11400)">
<g id="keycap_23" clip-path="url(#clip46_556_11400)">
<rect id="&#39;" width="146" height="147" rx="10" transform="matrix(-0.965926 0.258819 0.258819 0.965926 2117.56 1084.85)" fill="#D9D9D9"/>
<g id="text right_5">
<path id="label_23" d="M2054.42 1165.2C2054.55 1165.72 2054.58 1166.23 2054.5 1166.74C2054.41 1167.25 2054.24 1167.72 2053.98 1168.17C2053.72 1168.59 2053.38 1168.97 2052.96 1169.3C2052.56 1169.61 2052.1 1169.83 2051.59 1169.97C2051.07 1170.11 2050.55 1170.16 2050.04 1170.12C2049.53 1170.06 2049.06 1169.9 2048.61 1169.64C2048.17 1169.38 2047.77 1169.03 2047.4 1168.57C2047.05 1168.09 2046.79 1167.51 2046.6 1166.83C2046.36 1165.92 2046.17 1165.02 2046.05 1164.13C2045.94 1163.23 2045.94 1162.29 2046.05 1161.31C2046.17 1160.33 2046.43 1159.3 2046.85 1158.22C2047.26 1157.12 2047.87 1155.92 2048.67 1154.65L2050.2 1154.9C2050.01 1155.77 2049.87 1156.65 2049.78 1157.53C2049.69 1158.28 2049.64 1159.09 2049.63 1159.96C2049.64 1160.82 2049.75 1161.63 2049.95 1162.39C2050.39 1162.29 2050.84 1162.28 2051.3 1162.36C2051.76 1162.41 2052.19 1162.55 2052.61 1162.77C2053.02 1162.99 2053.38 1163.3 2053.68 1163.71C2054.01 1164.11 2054.26 1164.6 2054.42 1165.2Z" fill="#343434"/>
</g>
</g>
</g>
<g id="key_24" clip-path="url(#clip47_556_11400)">
<g id="keycap_24" clip-path="url(#clip48_556_11400)">
<rect id="[" width="146" height="147" rx="10" transform="matrix(-0.965926 0.258819 0.258819 0.965926 2074.34 923.539)" fill="#D9D9D9"/>
<g id="text right_6">
<path id="label_24" d="M2009.27 996.954L2006.93 990.954L2024.61 986.217L2025.85 990.854L2014.36 993.934L2016.63 999.951L2026.9 1038.28L2027.94 1044.63L2039.44 1041.55L2040.68 1046.18L2023 1050.92L2022.02 1044.56L2009.27 996.954Z" fill="#343434"/>
</g>
</g>
</g>
<g id="key_25" clip-path="url(#clip49_556_11400)">
<g id="keycap_25" clip-path="url(#clip50_556_11400)">
<rect id="/" width="146" height="147" rx="10" transform="matrix(-0.965926 0.258819 0.258819 0.965926 1978.76 1254.56)" fill="#D9D9D9"/>
<g id="text right_7">
<path id="label_25" d="M1924.3 1372.17L1917.81 1373.91L1925.68 1315.48L1931.86 1313.83L1924.3 1372.17Z" fill="#343434"/>
</g>
</g>
</g>
<g id="key_26" clip-path="url(#clip51_556_11400)">
<g id="keycap_26" clip-path="url(#clip52_556_11400)">
<rect id=";" width="146" height="147" rx="10" transform="matrix(-0.965926 0.258819 0.258819 0.965926 1935.28 1092.28)" fill="#D9D9D9"/>
<g id="text right_8">
<path id="label_26" d="M1867.48 1188.92C1867.31 1188.28 1867.27 1187.65 1867.37 1187.03C1867.47 1186.41 1867.67 1185.83 1867.97 1185.31C1868.27 1184.79 1868.66 1184.34 1869.14 1183.97C1869.63 1183.57 1870.19 1183.29 1870.83 1183.12C1871.47 1182.95 1872.1 1182.91 1872.72 1183.01C1873.34 1183.09 1873.91 1183.28 1874.43 1183.58C1874.95 1183.88 1875.4 1184.28 1875.78 1184.78C1876.18 1185.27 1876.46 1185.83 1876.63 1186.47C1876.8 1187.11 1876.84 1187.75 1876.75 1188.39C1876.67 1189.01 1876.48 1189.58 1876.18 1190.1C1875.88 1190.62 1875.48 1191.08 1874.99 1191.48C1874.52 1191.87 1873.98 1192.15 1873.36 1192.31C1872.72 1192.49 1872.08 1192.52 1871.44 1192.43C1870.81 1192.33 1870.24 1192.13 1869.72 1191.83C1869.2 1191.53 1868.74 1191.13 1868.34 1190.64C1867.94 1190.13 1867.65 1189.56 1867.48 1188.92ZM1871.74 1204.81C1871.58 1204.21 1871.54 1203.61 1871.62 1203.02C1871.72 1202.39 1871.92 1201.83 1872.23 1201.33C1872.56 1200.82 1872.97 1200.37 1873.46 1199.97C1873.95 1199.58 1874.5 1199.3 1875.12 1199.13C1875.72 1198.97 1876.31 1198.93 1876.91 1199.02C1877.52 1199.07 1878.09 1199.25 1878.61 1199.55C1879.16 1199.85 1879.64 1200.28 1880.05 1200.86C1880.49 1201.4 1880.81 1202.08 1881.03 1202.88C1881.32 1203.97 1881.53 1205.05 1881.66 1206.12C1881.81 1207.17 1881.81 1208.27 1881.66 1209.44C1881.53 1210.6 1881.22 1211.83 1880.73 1213.13C1880.24 1214.43 1879.51 1215.84 1878.55 1217.36L1876.75 1217.08C1876.98 1216.05 1877.15 1215 1877.26 1213.93C1877.36 1213.04 1877.4 1212.08 1877.39 1211.05C1877.4 1210.03 1877.28 1209.06 1877.04 1208.16C1876.52 1208.27 1875.99 1208.3 1875.44 1208.22C1874.89 1208.15 1874.37 1207.99 1873.88 1207.74C1873.39 1207.48 1872.96 1207.1 1872.58 1206.6C1872.21 1206.11 1871.93 1205.51 1871.74 1204.81Z" fill="#343434"/>
</g>
</g>
</g>
<g id="key_27" clip-path="url(#clip53_556_11400)">
<g id="keycap_27" clip-path="url(#clip54_556_11400)">
<rect id="P" width="146" height="147" rx="10" transform="matrix(-0.965926 0.258819 0.258819 0.965926 1893.02 930.713)" fill="#D9D9D9"/>
<g id="text right_9">
<path id="label_27" d="M1839.53 1044.75L1833.65 1046.33L1822.97 1006.46L1820.23 1000.56C1820.82 1000.29 1821.52 1000.01 1822.32 999.705C1823.14 999.396 1824.01 999.087 1824.92 998.776C1825.83 998.466 1826.76 998.174 1827.7 997.899C1828.64 997.604 1829.51 997.349 1830.31 997.133C1833.82 996.195 1836.92 995.705 1839.63 995.665C1842.35 995.598 1844.68 995.911 1846.64 996.603C1848.58 997.274 1850.16 998.287 1851.36 999.643C1852.58 1000.99 1853.45 1002.61 1853.95 1004.48C1854.69 1007.26 1854.82 1009.73 1854.34 1011.87C1853.85 1014.01 1852.78 1015.92 1851.13 1017.59C1849.48 1019.25 1847.25 1020.72 1844.43 1022.01C1841.61 1023.27 1838.25 1024.42 1834.36 1025.47L1839.53 1044.75ZM1830.03 1009.3L1833.19 1021.11C1836.32 1020.27 1838.96 1019.38 1841.09 1018.43C1843.22 1017.48 1844.89 1016.43 1846.1 1015.26C1847.31 1014.08 1848.07 1012.75 1848.38 1011.27C1848.69 1009.8 1848.59 1008.1 1848.08 1006.19C1847.71 1004.81 1846.98 1003.7 1845.89 1002.86C1844.82 1002 1843.57 1001.39 1842.12 1001.03C1840.67 1000.64 1839.13 1000.47 1837.51 1000.51C1835.89 1000.54 1834.34 1000.76 1832.88 1001.15C1832.53 1001.24 1832.11 1001.37 1831.62 1001.52C1831.15 1001.65 1830.67 1001.8 1830.18 1001.97C1829.7 1002.12 1829.22 1002.29 1828.76 1002.45C1828.31 1002.62 1827.95 1002.77 1827.65 1002.91L1830.03 1009.3Z" fill="#343434"/>
</g>
</g>
</g>
<g id="key_28" clip-path="url(#clip55_556_11400)">
<g id="keycap_28" clip-path="url(#clip56_556_11400)">
<rect id="." width="146" height="147" rx="10" transform="matrix(-0.965926 0.258819 0.258819 0.965926 1800.25 1276.09)" fill="#D9D9D9"/>
<g id="text right_10">
<path id="label_28" d="M1736.03 1388.04C1735.84 1387.34 1735.8 1386.64 1735.9 1385.95C1736 1385.26 1736.22 1384.63 1736.55 1384.06C1736.9 1383.45 1737.33 1382.94 1737.86 1382.51C1738.4 1382.08 1739.03 1381.77 1739.73 1381.58C1740.43 1381.39 1741.12 1381.35 1741.81 1381.45C1742.5 1381.55 1743.14 1381.78 1743.72 1382.13C1744.32 1382.46 1744.83 1382.9 1745.26 1383.44C1745.7 1383.99 1746.01 1384.61 1746.19 1385.31C1746.38 1386.01 1746.43 1386.72 1746.33 1387.43C1746.23 1388.12 1746.01 1388.76 1745.69 1389.36C1745.36 1389.93 1744.92 1390.44 1744.37 1390.87C1743.85 1391.32 1743.24 1391.64 1742.54 1391.83C1741.84 1392.01 1741.13 1392.05 1740.41 1391.93C1739.72 1391.83 1739.08 1391.62 1738.49 1391.29C1737.91 1390.94 1737.4 1390.49 1736.97 1389.94C1736.53 1389.37 1736.21 1388.74 1736.03 1388.04Z" fill="#343434"/>
</g>
</g>
</g>
<g id="key_29" clip-path="url(#clip57_556_11400)">
<g id="keycap_29" clip-path="url(#clip58_556_11400)">
<rect id="L" width="146" height="147" rx="10" transform="matrix(-0.965926 0.258819 0.258819 0.965926 1757.21 1115.46)" fill="#D9D9D9"/>
<g id="text right_11">
<path id="label_29" d="M1700.54 1225.05L1723.1 1219.01L1723.81 1224.12L1695.83 1231.61L1694.8 1225.26L1685.77 1191.57L1683.1 1185.33L1689.58 1182.93L1699.35 1219.4L1700.54 1225.05Z" fill="#343434"/>
</g>
</g>
</g>
<g id="key_30" clip-path="url(#clip59_556_11400)">
<g id="keycap_30" clip-path="url(#clip60_556_11400)">
<rect id="O" width="146" height="147" rx="10" transform="matrix(-0.965926 0.258819 0.258819 0.965926 1714.17 954.825)" fill="#D9D9D9"/>
<g id="text right_12">
<path id="label_30" d="M1667.21 1067.68C1665.36 1068.18 1663.57 1068.36 1661.86 1068.22C1660.16 1068.06 1658.53 1067.63 1656.98 1066.94C1655.44 1066.23 1654 1065.28 1652.67 1064.09C1651.33 1062.9 1650.1 1061.52 1648.97 1059.94C1647.86 1058.34 1646.87 1056.59 1646.01 1054.68C1645.16 1052.74 1644.44 1050.69 1643.86 1048.53C1643.28 1046.36 1642.88 1044.24 1642.65 1042.16C1642.42 1040.06 1642.38 1038.05 1642.53 1036.13C1642.69 1034.19 1643.04 1032.37 1643.58 1030.68C1644.15 1028.98 1644.92 1027.45 1645.9 1026.08C1646.87 1024.69 1648.08 1023.51 1649.52 1022.53C1650.95 1021.53 1652.61 1020.77 1654.51 1020.26C1656.36 1019.77 1658.14 1019.6 1659.84 1019.76C1661.56 1019.9 1663.18 1020.32 1664.72 1021.04C1666.27 1021.73 1667.72 1022.66 1669.05 1023.85C1670.39 1025.04 1671.61 1026.44 1672.73 1028.04C1673.85 1029.61 1674.84 1031.37 1675.69 1033.3C1676.56 1035.21 1677.28 1037.25 1677.86 1039.42C1678.44 1041.58 1678.85 1043.71 1679.08 1045.81C1679.31 1047.9 1679.34 1049.91 1679.17 1051.85C1679.02 1053.77 1678.67 1055.58 1678.11 1057.27C1677.57 1058.96 1676.81 1060.5 1675.83 1061.89C1674.85 1063.26 1673.65 1064.44 1672.21 1065.44C1670.78 1066.43 1669.11 1067.17 1667.21 1067.68ZM1671.69 1042.1C1671.3 1040.65 1670.86 1039.19 1670.35 1037.72C1669.86 1036.24 1669.29 1034.82 1668.62 1033.48C1667.96 1032.11 1667.22 1030.86 1666.39 1029.73C1665.55 1028.59 1664.61 1027.66 1663.56 1026.95C1662.52 1026.21 1661.35 1025.72 1660.05 1025.47C1658.76 1025.22 1657.34 1025.3 1655.77 1025.72C1654.29 1026.12 1653.07 1026.71 1652.11 1027.5C1651.15 1028.29 1650.4 1029.21 1649.87 1030.28C1649.34 1031.33 1648.98 1032.5 1648.79 1033.79C1648.6 1035.05 1648.54 1036.36 1648.62 1037.71C1648.69 1039.06 1648.86 1040.42 1649.11 1041.79C1649.37 1043.15 1649.66 1044.46 1650 1045.72C1650.39 1047.18 1650.83 1048.67 1651.32 1050.17C1651.84 1051.67 1652.42 1053.1 1653.07 1054.47C1653.74 1055.82 1654.5 1057.06 1655.33 1058.21C1656.16 1059.33 1657.11 1060.26 1658.17 1060.99C1659.22 1061.72 1660.39 1062.22 1661.68 1062.47C1662.96 1062.72 1664.38 1062.64 1665.95 1062.22C1667.41 1061.83 1668.61 1061.24 1669.55 1060.46C1670.51 1059.65 1671.25 1058.71 1671.78 1057.64C1672.33 1056.55 1672.69 1055.37 1672.88 1054.1C1673.07 1052.81 1673.13 1051.5 1673.05 1050.15C1672.99 1048.77 1672.83 1047.4 1672.58 1046.03C1672.32 1044.67 1672.03 1043.35 1671.69 1042.1Z" fill="#343434"/>
</g>
</g>
</g>
<g id="key_31" clip-path="url(#clip61_556_11400)">
<g id="keycap_31" clip-path="url(#clip62_556_11400)">
<rect id="," width="146" height="147" rx="10" transform="matrix(-0.965926 0.258819 0.258819 0.965926 1634.27 1344.38)" fill="#D9D9D9"/>
<g id="text right_13">
<path id="label_31" d="M1570.73 1456.9C1570.57 1456.31 1570.53 1455.71 1570.61 1455.11C1570.71 1454.49 1570.91 1453.93 1571.22 1453.43C1571.55 1452.92 1571.96 1452.47 1572.45 1452.07C1572.94 1451.67 1573.49 1451.39 1574.11 1451.23C1574.71 1451.07 1575.31 1451.03 1575.9 1451.11C1576.51 1451.17 1577.08 1451.35 1577.6 1451.65C1578.15 1451.95 1578.63 1452.38 1579.05 1452.95C1579.48 1453.5 1579.8 1454.17 1580.02 1454.98C1580.31 1456.07 1580.52 1457.15 1580.66 1458.22C1580.8 1459.26 1580.8 1460.37 1580.65 1461.53C1580.52 1462.69 1580.21 1463.93 1579.72 1465.23C1579.23 1466.53 1578.5 1467.94 1577.54 1469.46L1575.74 1469.18C1575.97 1468.14 1576.14 1467.09 1576.25 1466.02C1576.35 1465.14 1576.39 1464.18 1576.38 1463.14C1576.39 1462.12 1576.28 1461.16 1576.03 1460.25C1575.51 1460.37 1574.98 1460.39 1574.43 1460.32C1573.88 1460.25 1573.36 1460.09 1572.87 1459.84C1572.38 1459.57 1571.95 1459.19 1571.57 1458.7C1571.2 1458.2 1570.92 1457.6 1570.73 1456.9Z" fill="#343434"/>
</g>
</g>
</g>
<g id="key_32" clip-path="url(#clip63_556_11400)">
<g id="keycap_32" clip-path="url(#clip64_556_11400)">
<rect id="K" width="146" height="147" rx="10" transform="matrix(-0.965926 0.258819 0.258819 0.965926 1591.23 1183.74)" fill="#D9D9D9"/>
<g id="text right_14">
<path id="label_32" d="M1530.38 1299.76L1519.69 1259.88L1517.03 1253.64L1523.69 1251.19L1529.19 1271.72L1540.73 1247.29L1547.6 1245.45L1536.44 1269.48L1531.74 1272.82L1537.6 1273.17L1560.85 1291.59L1553.53 1293.55L1530.1 1275.12L1536.28 1298.18L1530.38 1299.76Z" fill="#343434"/>
</g>
</g>
</g>
<g id="key_33" clip-path="url(#clip65_556_11400)">
<g id="keycap_33" clip-path="url(#clip66_556_11400)">
<rect id="I" width="146" height="147" rx="10" transform="matrix(-0.965926 0.258819 0.258819 0.965926 1548.18 1023.11)" fill="#D9D9D9"/>
<g id="text right_15">
<path id="label_33" d="M1474.76 1092.8L1502.58 1085.35L1503.9 1090.29L1492.84 1093.26L1502.61 1129.73L1514.29 1126.6L1515 1131.71L1487.18 1139.17L1485.86 1134.22L1496.86 1131.27L1487.09 1094.8L1475.46 1097.91L1474.76 1092.8Z" fill="#343434"/>
</g>
</g>
</g>
<g id="key_34" clip-path="url(#clip67_556_11400)">
<g id="keycap_34" clip-path="url(#clip68_556_11400)">
<rect id="M" width="146" height="147" rx="10" transform="matrix(-0.965926 0.258819 0.258819 0.965926 1468.73 1410.47)" fill="#D9D9D9"/>
<g id="text right_16">
<path id="label_34" d="M1431.62 1520.12L1424.16 1492.28L1421.86 1476.39L1421.7 1476.4L1420.9 1492.49L1419.04 1506.93L1415.95 1507.76L1407.03 1496.23L1397.99 1482.76L1397.81 1482.84L1404.22 1497.62L1411.69 1525.47L1406.12 1526.96L1395.44 1487.08L1392.83 1480.82L1399.28 1478.43L1411.61 1494.02L1415.87 1501.15L1415.94 1492.86L1418.37 1473.98L1424.6 1471.65L1437.19 1518.63L1431.62 1520.12Z" fill="#343434"/>
</g>
</g>
</g>
<g id="key_35" clip-path="url(#clip69_556_11400)">
<g id="keycap_35" clip-path="url(#clip70_556_11400)">
<rect id="J" width="146" height="147" rx="10" transform="matrix(-0.965926 0.258819 0.258819 0.965926 1424.73 1250.1)" fill="#D9D9D9"/>
<g id="text right_17">
<path id="label_35" d="M1357.17 1318.21L1378.81 1312.42L1387.67 1345.49C1388.21 1347.49 1388.45 1349.37 1388.39 1351.13C1388.33 1352.89 1387.94 1354.56 1387.21 1356.15C1386.49 1357.73 1385.35 1359.1 1383.81 1360.24C1382.26 1361.39 1380.23 1362.29 1377.71 1362.97C1376.1 1363.4 1374.61 1363.6 1373.24 1363.57C1371.87 1363.52 1370.61 1363.33 1369.44 1363C1368.26 1362.65 1367.18 1362.22 1366.18 1361.72C1365.2 1361.21 1364.29 1360.7 1363.45 1360.2L1365.63 1355.7C1365.89 1355.85 1366.36 1356.09 1367.04 1356.42C1367.72 1356.72 1368.53 1357 1369.46 1357.26C1370.38 1357.5 1371.4 1357.66 1372.5 1357.74C1373.6 1357.82 1374.73 1357.7 1375.89 1357.39C1378.55 1356.68 1380.4 1355.38 1381.46 1353.48C1382.54 1351.58 1382.65 1349 1381.78 1345.74L1376.16 1324.79L1375.19 1318.69L1359.12 1322.99L1357.17 1318.21Z" fill="#343434"/>
</g>
</g>
</g>
<g id="key_36" clip-path="url(#clip71_556_11400)">
<g id="keycap_36" clip-path="url(#clip72_556_11400)">
<rect id="U" width="146" height="147" rx="10" transform="matrix(-0.965926 0.258819 0.258819 0.965926 1381.69 1089.47)" fill="#D9D9D9"/>
<g id="text right_18">
<path id="label_36" d="M1336.54 1151.58L1344.63 1181.78C1345.38 1184.58 1345.7 1187.12 1345.58 1189.41C1345.48 1191.66 1344.98 1193.65 1344.07 1195.38C1343.18 1197.09 1341.92 1198.55 1340.27 1199.74C1338.62 1200.91 1336.62 1201.81 1334.27 1202.44C1331.75 1203.12 1329.5 1203.26 1327.49 1202.87C1325.5 1202.45 1323.74 1201.6 1322.2 1200.31C1320.66 1199 1319.33 1197.29 1318.21 1195.18C1317.11 1193.07 1316.2 1190.65 1315.47 1187.93L1309.53 1165.77L1306.87 1159.53L1313.5 1157.09L1321.5 1186.95C1322.03 1188.9 1322.68 1190.61 1323.47 1192.05C1324.27 1193.47 1325.17 1194.62 1326.18 1195.5C1327.18 1196.36 1328.27 1196.93 1329.45 1197.21C1330.63 1197.49 1331.87 1197.45 1333.17 1197.11C1336.2 1196.29 1338.15 1194.81 1339.03 1192.65C1339.93 1190.47 1339.89 1187.56 1338.92 1183.94L1330.67 1153.15L1336.54 1151.58Z" fill="#343434"/>
</g>
</g>
</g>
</g>
</g>
<defs>
<clipPath id="clip0_556_11400">
<rect width="2360" height="1640" fill="white"/>
</clipPath>
<clipPath id="clip1_556_11400">
<rect width="177" height="167" fill="white" transform="translate(14.2153 1185.44) rotate(15)"/>
</clipPath>
<clipPath id="clip2_556_11400">
<rect width="145.512" height="146.512" fill="white" transform="translate(26.6147 1199.83) rotate(15)"/>
</clipPath>
<clipPath id="clip3_556_11400">
<rect width="177" height="167" fill="white" transform="translate(58.145 1025.36) rotate(15)"/>
</clipPath>
<clipPath id="clip4_556_11400">
<rect width="145.512" height="146.512" fill="white" transform="translate(70.5444 1039.74) rotate(15)"/>
</clipPath>
<clipPath id="clip5_556_11400">
<rect width="177" height="167" fill="white" transform="translate(101.627 863.081) rotate(15)"/>
</clipPath>
<clipPath id="clip6_556_11400">
<rect width="145.512" height="146.512" fill="white" transform="translate(114.026 877.469) rotate(15)"/>
</clipPath>
<clipPath id="clip7_556_11400">
<rect width="177" height="167" fill="white" transform="translate(186.598 1233.7) rotate(15)"/>
</clipPath>
<clipPath id="clip8_556_11400">
<rect width="145.512" height="146.512" fill="white" transform="translate(198.998 1248.09) rotate(15)"/>
</clipPath>
<clipPath id="clip9_556_11400">
<rect width="177" height="167" fill="white" transform="translate(230.339 1070.46) rotate(15)"/>
</clipPath>
<clipPath id="clip10_556_11400">
<rect width="145.512" height="146.512" fill="white" transform="translate(242.738 1084.85) rotate(15)"/>
</clipPath>
<clipPath id="clip11_556_11400">
<rect width="177" height="167" fill="white" transform="translate(273.562 909.151) rotate(15)"/>
</clipPath>
<clipPath id="clip12_556_11400">
<rect width="145.512" height="146.512" fill="white" transform="translate(285.961 923.539) rotate(15)"/>
</clipPath>
<clipPath id="clip13_556_11400">
<rect width="177" height="167" fill="white" transform="translate(369.145 1240.17) rotate(15)"/>
</clipPath>
<clipPath id="clip14_556_11400">
<rect width="145.512" height="146.512" fill="white" transform="translate(381.544 1254.56) rotate(15)"/>
</clipPath>
<clipPath id="clip15_556_11400">
<rect width="177" height="167" fill="white" transform="translate(412.626 1077.89) rotate(15)"/>
</clipPath>
<clipPath id="clip16_556_11400">
<rect width="145.512" height="146.512" fill="white" transform="translate(425.026 1092.28) rotate(15)"/>
</clipPath>
<clipPath id="clip17_556_11400">
<rect width="177" height="167" fill="white" transform="translate(454.883 916.325) rotate(15)"/>
</clipPath>
<clipPath id="clip18_556_11400">
<rect width="145.512" height="146.512" fill="white" transform="translate(467.283 930.713) rotate(15)"/>
</clipPath>
<clipPath id="clip19_556_11400">
<rect width="177" height="167" fill="white" transform="translate(547.654 1261.7) rotate(15)"/>
</clipPath>
<clipPath id="clip20_556_11400">
<rect width="145.512" height="146.512" fill="white" transform="translate(560.053 1276.09) rotate(15)"/>
</clipPath>
<clipPath id="clip21_556_11400">
<rect width="177" height="167" fill="white" transform="translate(590.695 1101.07) rotate(15)"/>
</clipPath>
<clipPath id="clip22_556_11400">
<rect width="145.512" height="146.512" fill="white" transform="translate(603.095 1115.46) rotate(15)"/>
</clipPath>
<clipPath id="clip23_556_11400">
<rect width="177" height="167" fill="white" transform="translate(633.737 940.437) rotate(15)"/>
</clipPath>
<clipPath id="clip24_556_11400">
<rect width="145.512" height="146.512" fill="white" transform="translate(646.136 954.825) rotate(15)"/>
</clipPath>
<clipPath id="clip25_556_11400">
<rect width="177" height="167" fill="white" transform="translate(713.636 1329.99) rotate(15)"/>
</clipPath>
<clipPath id="clip26_556_11400">
<rect width="145.512" height="146.512" fill="white" transform="translate(726.035 1344.38) rotate(15)"/>
</clipPath>
<clipPath id="clip27_556_11400">
<rect width="177" height="167" fill="white" transform="translate(756.677 1169.36) rotate(15)"/>
</clipPath>
<clipPath id="clip28_556_11400">
<rect width="145.512" height="146.512" fill="white" transform="translate(769.077 1183.74) rotate(15)"/>
</clipPath>
<clipPath id="clip29_556_11400">
<rect width="177" height="167" fill="white" transform="translate(799.719 1008.72) rotate(15)"/>
</clipPath>
<clipPath id="clip30_556_11400">
<rect width="145.512" height="146.512" fill="white" transform="translate(812.118 1023.11) rotate(15)"/>
</clipPath>
<clipPath id="clip31_556_11400">
<rect width="177" height="167" fill="white" transform="translate(879.169 1396.08) rotate(15)"/>
</clipPath>
<clipPath id="clip32_556_11400">
<rect width="145.512" height="146.512" fill="white" transform="translate(891.569 1410.47) rotate(15)"/>
</clipPath>
<clipPath id="clip33_556_11400">
<rect width="177" height="167" fill="white" transform="translate(923.177 1235.71) rotate(15)"/>
</clipPath>
<clipPath id="clip34_556_11400">
<rect width="145.512" height="146.512" fill="white" transform="translate(935.576 1250.1) rotate(15)"/>
</clipPath>
<clipPath id="clip35_556_11400">
<rect width="177" height="167" fill="white" transform="translate(966.218 1075.08) rotate(15)"/>
</clipPath>
<clipPath id="clip36_556_11400">
<rect width="145.512" height="146.512" fill="white" transform="translate(978.618 1089.47) rotate(15)"/>
</clipPath>
<clipPath id="clip37_556_11400">
<rect width="177" height="167" fill="white" transform="matrix(-0.965926 0.258819 0.258819 0.965926 2346.09 1185.44)"/>
</clipPath>
<clipPath id="clip38_556_11400">
<rect width="145.512" height="146.512" fill="white" transform="matrix(-0.965926 0.258819 0.258819 0.965926 2333.69 1199.83)"/>
</clipPath>
<clipPath id="clip39_556_11400">
<rect width="177" height="167" fill="white" transform="matrix(-0.965926 0.258819 0.258819 0.965926 2302.16 1025.36)"/>
</clipPath>
<clipPath id="clip40_556_11400">
<rect width="145.512" height="146.512" fill="white" transform="matrix(-0.965926 0.258819 0.258819 0.965926 2289.76 1039.74)"/>
</clipPath>
<clipPath id="clip41_556_11400">
<rect width="177" height="167" fill="white" transform="matrix(-0.965926 0.258819 0.258819 0.965926 2258.68 863.081)"/>
</clipPath>
<clipPath id="clip42_556_11400">
<rect width="145.512" height="146.512" fill="white" transform="matrix(-0.965926 0.258819 0.258819 0.965926 2246.28 877.469)"/>
</clipPath>
<clipPath id="clip43_556_11400">
<rect width="177" height="167" fill="white" transform="matrix(-0.965926 0.258819 0.258819 0.965926 2173.7 1233.7)"/>
</clipPath>
<clipPath id="clip44_556_11400">
<rect width="145.512" height="146.512" fill="white" transform="matrix(-0.965926 0.258819 0.258819 0.965926 2161.31 1248.09)"/>
</clipPath>
<clipPath id="clip45_556_11400">
<rect width="177" height="167" fill="white" transform="matrix(-0.965926 0.258819 0.258819 0.965926 2129.96 1070.46)"/>
</clipPath>
<clipPath id="clip46_556_11400">
<rect width="145.512" height="146.512" fill="white" transform="matrix(-0.965926 0.258819 0.258819 0.965926 2117.56 1084.85)"/>
</clipPath>
<clipPath id="clip47_556_11400">
<rect width="177" height="167" fill="white" transform="matrix(-0.965926 0.258819 0.258819 0.965926 2086.74 909.151)"/>
</clipPath>
<clipPath id="clip48_556_11400">
<rect width="145.512" height="146.512" fill="white" transform="matrix(-0.965926 0.258819 0.258819 0.965926 2074.34 923.539)"/>
</clipPath>
<clipPath id="clip49_556_11400">
<rect width="177" height="167" fill="white" transform="matrix(-0.965926 0.258819 0.258819 0.965926 1991.16 1240.17)"/>
</clipPath>
<clipPath id="clip50_556_11400">
<rect width="145.512" height="146.512" fill="white" transform="matrix(-0.965926 0.258819 0.258819 0.965926 1978.76 1254.56)"/>
</clipPath>
<clipPath id="clip51_556_11400">
<rect width="177" height="167" fill="white" transform="matrix(-0.965926 0.258819 0.258819 0.965926 1947.68 1077.89)"/>
</clipPath>
<clipPath id="clip52_556_11400">
<rect width="145.512" height="146.512" fill="white" transform="matrix(-0.965926 0.258819 0.258819 0.965926 1935.28 1092.28)"/>
</clipPath>
<clipPath id="clip53_556_11400">
<rect width="177" height="167" fill="white" transform="matrix(-0.965926 0.258819 0.258819 0.965926 1905.42 916.325)"/>
</clipPath>
<clipPath id="clip54_556_11400">
<rect width="145.512" height="146.512" fill="white" transform="matrix(-0.965926 0.258819 0.258819 0.965926 1893.02 930.713)"/>
</clipPath>
<clipPath id="clip55_556_11400">
<rect width="177" height="167" fill="white" transform="matrix(-0.965926 0.258819 0.258819 0.965926 1812.65 1261.7)"/>
</clipPath>
<clipPath id="clip56_556_11400">
<rect width="145.512" height="146.512" fill="white" transform="matrix(-0.965926 0.258819 0.258819 0.965926 1800.25 1276.09)"/>
</clipPath>
<clipPath id="clip57_556_11400">
<rect width="177" height="167" fill="white" transform="matrix(-0.965926 0.258819 0.258819 0.965926 1769.61 1101.07)"/>
</clipPath>
<clipPath id="clip58_556_11400">
<rect width="145.512" height="146.512" fill="white" transform="matrix(-0.965926 0.258819 0.258819 0.965926 1757.21 1115.46)"/>
</clipPath>
<clipPath id="clip59_556_11400">
<rect width="177" height="167" fill="white" transform="matrix(-0.965926 0.258819 0.258819 0.965926 1726.57 940.437)"/>
</clipPath>
<clipPath id="clip60_556_11400">
<rect width="145.512" height="146.512" fill="white" transform="matrix(-0.965926 0.258819 0.258819 0.965926 1714.17 954.825)"/>
</clipPath>
<clipPath id="clip61_556_11400">
<rect width="177" height="167" fill="white" transform="matrix(-0.965926 0.258819 0.258819 0.965926 1646.67 1329.99)"/>
</clipPath>
<clipPath id="clip62_556_11400">
<rect width="145.512" height="146.512" fill="white" transform="matrix(-0.965926 0.258819 0.258819 0.965926 1634.27 1344.38)"/>
</clipPath>
<clipPath id="clip63_556_11400">
<rect width="177" height="167" fill="white" transform="matrix(-0.965926 0.258819 0.258819 0.965926 1603.63 1169.36)"/>
</clipPath>
<clipPath id="clip64_556_11400">
<rect width="145.512" height="146.512" fill="white" transform="matrix(-0.965926 0.258819 0.258819 0.965926 1591.23 1183.74)"/>
</clipPath>
<clipPath id="clip65_556_11400">
<rect width="177" height="167" fill="white" transform="matrix(-0.965926 0.258819 0.258819 0.965926 1560.58 1008.72)"/>
</clipPath>
<clipPath id="clip66_556_11400">
<rect width="145.512" height="146.512" fill="white" transform="matrix(-0.965926 0.258819 0.258819 0.965926 1548.18 1023.11)"/>
</clipPath>
<clipPath id="clip67_556_11400">
<rect width="177" height="167" fill="white" transform="matrix(-0.965926 0.258819 0.258819 0.965926 1481.13 1396.08)"/>
</clipPath>
<clipPath id="clip68_556_11400">
<rect width="145.512" height="146.512" fill="white" transform="matrix(-0.965926 0.258819 0.258819 0.965926 1468.73 1410.47)"/>
</clipPath>
<clipPath id="clip69_556_11400">
<rect width="177" height="167" fill="white" transform="matrix(-0.965926 0.258819 0.258819 0.965926 1437.13 1235.71)"/>
</clipPath>
<clipPath id="clip70_556_11400">
<rect width="145.512" height="146.512" fill="white" transform="matrix(-0.965926 0.258819 0.258819 0.965926 1424.73 1250.1)"/>
</clipPath>
<clipPath id="clip71_556_11400">
<rect width="177" height="167" fill="white" transform="matrix(-0.965926 0.258819 0.258819 0.965926 1394.08 1075.08)"/>
</clipPath>
<clipPath id="clip72_556_11400">
<rect width="145.512" height="146.512" fill="white" transform="matrix(-0.965926 0.258819 0.258819 0.965926 1381.69 1089.47)"/>
</clipPath>
</defs>
</svg>
