<svg width="2360" height="1640" viewBox="0 0 2360 1640" fill="none" xmlns="http://www.w3.org/2000/svg">
<g id="iPad_Landscape" clip-path="url(#clip0_556_11400)">
<g id="hand">
<g id="key" clip-path="url(#clip1_556_11400)">
<g id="keycap" clip-path="url(#clip2_556_11400)">
<rect id="Z" x="351.999" y="1245.13" width="146" height="147" rx="10" transform="rotate(15 351.999 1245.13)" fill="#D9D9D9"/>
<g id="text left">
<path id="label" d="M413.368 1355.98L412.661 1361.09L383.606 1353.31L383.402 1351.6L410.39 1320.73L417.568 1316.69L409.046 1315.73L396.837 1312.46L397.544 1307.35L423.075 1314.19L423.357 1315L395.951 1346.68L388.958 1350.77L397.48 1351.73L413.368 1355.98Z" fill="#343434"/>
</g>
</g>
</g>
<g id="key_2" clip-path="url(#clip3_556_11400)">
<g id="keycap_2" clip-path="url(#clip4_556_11400)">
<rect id="X" x="533.32" y="1252.3" width="146" height="147" rx="10" transform="rotate(15 533.32 1252.3)" fill="#D9D9D9"/>
<g id="text left_2">
<path id="label_2" d="M590.521 1367.34L586.257 1349L585.376 1342.77L582.568 1347.32L568.575 1361.46L562.455 1359.82L583.384 1338.96L576.64 1313.93L583.359 1315.07L587.583 1331.57L588.433 1338.29L590.839 1333.63L602.604 1320.88L608.786 1322.54L590.457 1341.62L597.321 1369.16L590.521 1367.34Z" fill="#343434"/>
</g>
</g>
</g>
<g id="key_3" clip-path="url(#clip5_556_11400)">
<g id="keycap_3" clip-path="url(#clip6_556_11400)">
<rect id="S" x="576.543" y="1091" width="146" height="147" rx="10" transform="rotate(15 576.543 1091)" fill="#D9D9D9"/>
<g id="text left_3">
<path id="label_3" d="M609.3 1196.37L613.355 1192.48C613.695 1192.86 614.148 1193.31 614.714 1193.84C615.305 1194.35 615.972 1194.87 616.713 1195.4C617.455 1195.93 618.262 1196.43 619.134 1196.88C620.006 1197.34 620.916 1197.69 621.864 1197.94C623.141 1198.29 624.46 1198.47 625.821 1198.51C627.207 1198.53 628.504 1198.34 629.711 1197.96C630.944 1197.56 632.018 1196.93 632.933 1196.07C633.868 1195.22 634.527 1194.08 634.908 1192.66C635.267 1191.32 635.272 1190.06 634.925 1188.89C634.577 1187.71 634.006 1186.59 633.212 1185.51C632.417 1184.44 631.459 1183.4 630.338 1182.39C629.216 1181.38 628.064 1180.37 626.88 1179.34C625.718 1178.33 624.581 1177.29 623.471 1176.24C622.366 1175.18 621.43 1174.05 620.663 1172.88C619.896 1171.7 619.358 1170.45 619.049 1169.13C618.74 1167.81 618.793 1166.38 619.207 1164.83C619.743 1162.83 620.634 1161.2 621.882 1159.92C623.13 1158.64 624.57 1157.68 626.2 1157.03C627.831 1156.39 629.58 1156.04 631.449 1155.99C633.318 1155.94 635.139 1156.15 636.911 1156.62C641.3 1157.8 645.018 1160.12 648.065 1163.59L644.048 1166.59C642.867 1165.39 641.681 1164.42 640.487 1163.68C639.315 1162.94 637.935 1162.36 636.348 1161.94C635.235 1161.64 634.082 1161.45 632.888 1161.38C631.714 1161.3 630.605 1161.4 629.561 1161.68C628.542 1161.93 627.634 1162.4 626.836 1163.07C626.064 1163.72 625.521 1164.64 625.206 1165.81C624.897 1166.96 624.938 1168.05 625.33 1169.06C625.743 1170.07 626.363 1171.06 627.19 1172.01C628.044 1172.94 629.04 1173.88 630.178 1174.83C631.321 1175.75 632.488 1176.72 633.676 1177.72C634.891 1178.71 636.046 1179.76 637.14 1180.87C638.239 1181.96 639.156 1183.15 639.889 1184.45C640.649 1185.74 641.153 1187.16 641.401 1188.7C641.676 1190.23 641.565 1191.93 641.068 1193.78C640.449 1196.09 639.434 1197.98 638.022 1199.46C636.637 1200.92 635.017 1202.02 633.162 1202.76C631.333 1203.49 629.353 1203.87 627.22 1203.92C625.087 1203.96 622.99 1203.71 620.93 1203.16C619.611 1202.81 618.407 1202.4 617.318 1201.93C616.223 1201.48 615.199 1200.97 614.246 1200.41C613.314 1199.85 612.439 1199.24 611.622 1198.58C610.811 1197.9 610.037 1197.16 609.3 1196.37Z" fill="#343434"/>
</g>
</g>
</g>
<g id="key_4" clip-path="url(#clip7_556_11400)">
<g id="keycap_4" clip-path="url(#clip8_556_11400)">
<rect id="W" x="619.766" y="929.686" width="146" height="147" rx="10" transform="rotate(15 619.766 929.686)" fill="#D9D9D9"/>
<g id="text left_4">
<path id="label_4" d="M666.536 1018.74L672.816 1007.17L677.144 1008.33L677.015 1021.54L675.068 1037.59L675.192 1037.62L679.991 1023.67L691.677 998.969L697.148 1000.44L676.317 1044.55L670.722 1043.05L671.482 1028.34L673.8 1012.4L673.676 1012.37L667.742 1027.34L660.986 1040.44L655.484 1038.96L659.376 990.314L664.92 991.137L662.99 1019.11L660.139 1033.59L660.262 1033.62L666.536 1018.74Z" fill="#343434"/>
</g>
</g>
</g>
<g id="key_5" clip-path="url(#clip9_556_11400)">
<g id="keycap_5" clip-path="url(#clip10_556_11400)">
<rect id="2" x="662.989" y="768.376" width="146" height="147" rx="10" transform="rotate(15 662.989 768.376)" fill="#AED3E9"/>
<g id="text left_5">
<path id="label_5" d="M694.658 876.57L696.049 871.377C697.4 870.127 698.828 868.92 700.333 867.755C701.838 866.59 703.339 865.479 704.837 864.423C706.361 863.351 707.834 862.344 709.258 861.4C710.687 860.436 712.006 859.552 713.215 858.75C714.617 857.801 715.951 856.943 717.217 856.178C718.508 855.398 719.67 854.605 720.703 853.799C721.736 852.994 722.623 852.116 723.363 851.166C724.109 850.195 724.656 849.061 725.004 847.763C725.269 846.774 725.332 845.797 725.193 844.832C725.059 843.846 724.738 842.943 724.229 842.122C723.747 841.286 723.091 840.558 722.264 839.939C721.441 839.299 720.474 838.83 719.361 838.532C718.104 838.195 716.965 838.077 715.944 838.179C714.949 838.266 714.026 838.494 713.177 838.862C712.347 839.236 711.581 839.705 710.879 840.267C710.202 840.815 709.553 841.381 708.933 841.966L705.071 838.943C705.966 837.747 706.975 836.704 708.097 835.812C709.246 834.905 710.494 834.201 711.843 833.701C713.197 833.181 714.656 832.887 716.22 832.82C717.784 832.753 719.452 832.957 721.224 833.432C723.305 833.99 725.061 834.858 726.49 836.036C727.919 837.214 729.027 838.56 729.814 840.074C730.627 841.573 731.118 843.162 731.286 844.841C731.475 846.526 731.36 848.152 730.94 849.718C730.515 851.304 729.81 852.739 728.826 854.021C727.868 855.289 726.772 856.453 725.538 857.513C724.331 858.559 723.07 859.513 721.757 860.376C720.443 861.239 719.232 862.052 718.122 862.814C716.713 863.784 715.311 864.734 713.913 865.662C712.516 866.591 711.165 867.51 709.862 868.419C708.584 869.314 707.376 870.194 706.239 871.06C705.107 871.905 704.099 872.739 703.216 873.563L724.853 879.36L723.528 884.306L694.658 876.57Z" fill="#343434"/>
</g>
</g>
</g>
<g id="key_6" clip-path="url(#clip11_556_11400)">
<g id="keycap_6" clip-path="url(#clip12_556_11400)">
<rect id="F2" x="706.211" y="607.066" width="146" height="147" rx="10" transform="rotate(15 706.211 607.066)" fill="#AED3E9"/>
<g id="text left_6">
<path id="label_6" d="M724.33 711.63L718.457 710.056L729.141 670.183L729.953 663.443L759.163 671.27L757.219 676.05L734.81 670.045L733.854 676.084L731.66 684.275L750.824 689.41L749.623 693.892L730.459 688.757L724.33 711.63ZM757.984 720.647L759.375 715.454C760.726 714.204 762.154 712.997 763.659 711.832C765.164 710.667 766.665 709.556 768.163 708.5C769.686 707.428 771.16 706.421 772.584 705.477C774.013 704.513 775.331 703.629 776.54 702.827C777.943 701.878 779.277 701.02 780.542 700.255C781.834 699.475 782.996 698.682 784.029 697.876C785.062 697.071 785.948 696.193 786.689 695.243C787.435 694.272 787.982 693.138 788.33 691.84C788.595 690.851 788.658 689.874 788.519 688.909C788.385 687.923 788.064 687.02 787.555 686.199C787.072 685.363 786.417 684.635 785.589 684.016C784.767 683.376 783.799 682.907 782.687 682.609C781.43 682.272 780.291 682.154 779.269 682.256C778.274 682.343 777.352 682.571 776.502 682.939C775.673 683.313 774.907 683.782 774.204 684.344C773.528 684.892 772.879 685.458 772.258 686.043L768.397 683.02C769.292 681.824 770.3 680.781 771.423 679.889C772.571 678.982 773.82 678.278 775.169 677.778C776.523 677.258 777.982 676.964 779.546 676.897C781.11 676.83 782.778 677.034 784.55 677.509C786.631 678.067 788.386 678.935 789.815 680.113C791.245 681.291 792.353 682.637 793.14 684.151C793.953 685.65 794.444 687.239 794.612 688.918C794.801 690.603 794.686 692.229 794.266 693.795C793.841 695.381 793.136 696.816 792.152 698.098C791.194 699.366 790.098 700.53 788.864 701.59C787.656 702.636 786.396 703.59 785.082 704.453C783.769 705.316 782.557 706.129 781.448 706.891C780.039 707.861 778.636 708.811 777.239 709.739C775.842 710.668 774.491 711.587 773.187 712.496C771.91 713.391 770.702 714.271 769.565 715.137C768.433 715.982 767.425 716.816 766.542 717.64L788.178 723.437L786.853 728.383L757.984 720.647Z" fill="#343434"/>
</g>
</g>
</g>
<g id="key_7" clip-path="url(#clip13_556_11400)">
<g id="keycap_7" clip-path="url(#clip14_556_11400)">
<rect id="S2" x="749.434" y="445.757" width="146" height="147" rx="10" transform="rotate(15 749.434 445.757)" fill="#A3DE8E"/>
<g id="text left_7">
<path id="label_7" d="M762.087 545.742L766.142 541.859C766.483 542.237 766.936 542.69 767.501 543.217C768.093 543.729 768.76 544.25 769.501 544.78C770.242 545.31 771.049 545.802 771.921 546.256C772.793 546.711 773.703 547.065 774.651 547.319C775.929 547.661 777.248 547.849 778.608 547.882C779.995 547.901 781.292 547.718 782.499 547.335C783.732 546.936 784.806 546.308 785.721 545.448C786.656 544.595 787.314 543.457 787.695 542.035C788.054 540.696 788.06 539.438 787.712 538.263C787.364 537.088 786.793 535.963 785.999 534.889C785.205 533.814 784.247 532.774 783.125 531.766C782.004 530.759 780.851 529.744 779.668 528.72C778.505 527.702 777.369 526.668 776.258 525.62C775.153 524.551 774.217 523.427 773.451 522.25C772.684 521.073 772.146 519.825 771.837 518.505C771.528 517.185 771.581 515.753 771.995 514.207C772.53 512.208 773.422 510.57 774.67 509.292C775.918 508.014 777.357 507.053 778.988 506.407C780.618 505.762 782.368 505.414 784.237 505.362C786.106 505.311 787.927 505.523 789.699 505.998C794.088 507.174 797.806 509.495 800.852 512.962L796.835 515.96C795.655 514.761 794.468 513.791 793.275 513.052C792.102 512.318 790.722 511.738 789.136 511.313C788.023 511.015 786.87 510.827 785.676 510.75C784.502 510.679 783.393 510.779 782.348 511.051C781.33 511.309 780.421 511.772 779.624 512.442C778.852 513.096 778.309 514.011 777.994 515.185C777.685 516.339 777.726 517.422 778.118 518.432C778.53 519.448 779.15 520.431 779.978 521.382C780.831 522.317 781.827 523.258 782.965 524.203C784.109 525.128 785.275 526.092 786.464 527.095C787.679 528.084 788.833 529.133 789.927 530.243C791.027 531.333 791.943 532.528 792.677 533.829C793.437 535.115 793.941 536.531 794.189 538.077C794.463 539.608 794.352 541.301 793.855 543.156C793.237 545.464 792.222 547.356 790.81 548.833C789.424 550.295 787.804 551.396 785.95 552.135C784.121 552.86 782.14 553.246 780.008 553.293C777.875 553.34 775.778 553.087 773.717 552.535C772.399 552.182 771.195 551.771 770.105 551.302C769.011 550.854 767.987 550.348 767.034 549.784C766.101 549.225 765.227 548.615 764.41 547.954C763.599 547.273 762.824 546.535 762.087 545.742ZM801.206 559.338L802.598 554.145C803.949 552.895 805.377 551.687 806.881 550.522C808.386 549.357 809.887 548.247 811.385 547.19C812.909 546.119 814.383 545.111 815.806 544.167C817.235 543.203 818.554 542.32 819.763 541.517C821.166 540.568 822.5 539.711 823.765 538.945C825.056 538.165 826.218 537.372 827.251 536.567C828.284 535.761 829.171 534.884 829.912 533.933C830.658 532.963 831.204 531.828 831.552 530.53C831.817 529.541 831.88 528.564 831.741 527.599C831.608 526.614 831.287 525.711 830.778 524.89C830.295 524.053 829.64 523.326 828.812 522.706C827.99 522.066 827.022 521.597 825.909 521.299C824.652 520.962 823.513 520.845 822.492 520.947C821.497 521.033 820.575 521.261 819.725 521.63C818.896 522.004 818.13 522.472 817.427 523.035C816.75 523.582 816.102 524.148 815.481 524.733L811.62 521.711C812.514 520.515 813.523 519.471 814.645 518.579C815.794 517.672 817.043 516.969 818.391 516.469C819.745 515.948 821.205 515.654 822.768 515.588C824.332 515.521 826 515.725 827.773 516.2C829.854 516.757 831.609 517.625 833.038 518.803C834.467 519.981 835.575 521.327 836.362 522.841C837.175 524.34 837.666 525.929 837.835 527.609C838.024 529.294 837.908 530.919 837.489 532.485C837.063 534.072 836.359 535.506 835.375 536.789C834.417 538.056 833.321 539.22 832.087 540.281C830.879 541.326 829.619 542.281 828.305 543.144C826.992 544.006 825.78 544.819 824.67 545.582C823.262 546.552 821.859 547.501 820.462 548.43C819.064 549.358 817.714 550.277 816.41 551.187C815.132 552.081 813.925 552.961 812.787 553.827C811.655 554.672 810.648 555.507 809.764 556.33L831.401 562.128L830.076 567.073L801.206 559.338Z" fill="#343434"/>
</g>
</g>
</g>
<g id="key_8" clip-path="url(#clip15_556_11400)">
<g id="keycap_8" clip-path="url(#clip16_556_11400)">
<rect id="C" x="710.242" y="1275.9" width="146" height="147" rx="10" transform="rotate(15 710.242 1275.9)" fill="#D9D9D9"/>
<g id="text left_8">
<path id="label_8" d="M772.57 1388.86C771.543 1389.32 770.533 1389.66 769.54 1389.91C768.548 1390.15 767.536 1390.3 766.506 1390.35C765.48 1390.39 764.426 1390.33 763.342 1390.17C762.252 1390.03 761.099 1389.8 759.884 1389.47C757.905 1388.94 756.097 1388.15 754.459 1387.09C752.826 1386.01 751.378 1384.74 750.114 1383.28C748.877 1381.8 747.838 1380.15 746.999 1378.33C746.161 1376.52 745.549 1374.6 745.163 1372.57C744.784 1370.53 744.633 1368.41 744.711 1366.23C744.79 1364.04 745.127 1361.83 745.723 1359.61C746.557 1356.49 747.79 1353.67 749.421 1351.12C751.058 1348.56 753.034 1346.46 755.349 1344.83C757.669 1343.17 760.283 1342.07 763.19 1341.53C766.117 1340.99 769.281 1341.17 772.681 1342.08C775.051 1342.72 777.082 1343.67 778.773 1344.94C780.491 1346.2 781.901 1347.73 783.004 1349.55L779.336 1352.11C778.929 1351.65 778.487 1351.2 778.008 1350.76C777.534 1350.31 776.988 1349.87 776.368 1349.46C775.77 1349.06 775.085 1348.69 774.315 1348.35C773.57 1348 772.724 1347.69 771.776 1347.44C769.262 1346.76 766.941 1346.65 764.811 1347.1C762.703 1347.55 760.812 1348.42 759.14 1349.72C757.473 1350.99 756.04 1352.63 754.842 1354.63C753.67 1356.61 752.761 1358.81 752.115 1361.22C751.712 1362.72 751.461 1364.28 751.362 1365.89C751.262 1367.49 751.31 1369.09 751.506 1370.66C751.723 1372.25 752.098 1373.77 752.633 1375.24C753.167 1376.71 753.866 1378.05 754.73 1379.28C755.615 1380.51 756.666 1381.58 757.882 1382.48C759.104 1383.36 760.509 1384.01 762.095 1384.43C763.023 1384.68 763.848 1384.86 764.57 1384.96C765.293 1385.07 765.988 1385.11 766.656 1385.09C767.345 1385.08 768.047 1385.01 768.763 1384.89C769.485 1384.76 770.308 1384.57 771.233 1384.33L772.57 1388.86Z" fill="#343434"/>
</g>
</g>
</g>
<g id="key_9" clip-path="url(#clip17_556_11400)">
<g id="keycap_9" clip-path="url(#clip18_556_11400)">
<rect id="D" x="753.465" y="1114.59" width="146" height="147" rx="10" transform="rotate(15 753.465 1114.59)" fill="#D9D9D9"/>
<g id="text left_9">
<path id="label_9" d="M797.31 1176.35C797.965 1176.46 798.711 1176.61 799.546 1176.79C800.381 1176.97 801.235 1177.16 802.106 1177.37C802.982 1177.56 803.843 1177.77 804.688 1178C805.538 1178.2 806.303 1178.4 806.983 1178.58C810.26 1179.46 813.181 1180.67 815.748 1182.22C818.335 1183.78 820.414 1185.7 821.984 1188C823.555 1190.3 824.55 1192.97 824.97 1196.02C825.389 1199.07 825.083 1202.52 824.05 1206.38C823.244 1209.39 822.23 1212.02 821.007 1214.27C819.789 1216.51 818.417 1218.42 816.89 1220C815.383 1221.58 813.729 1222.85 811.928 1223.8C810.152 1224.74 808.283 1225.41 806.321 1225.81C804.384 1226.2 802.392 1226.34 800.344 1226.23C798.302 1226.1 796.251 1225.76 794.191 1225.21L785.814 1222.97L796.498 1183.09L797.31 1176.35ZM801.211 1188.99L793.012 1219.59L793.63 1219.76C796.288 1220.47 798.679 1220.78 800.802 1220.69C802.926 1220.59 804.803 1220.22 806.433 1219.58C808.09 1218.92 809.528 1218.05 810.747 1216.96C811.971 1215.85 813.011 1214.65 813.865 1213.36C814.741 1212.07 815.449 1210.74 815.989 1209.39C816.55 1208.03 816.991 1206.76 817.311 1205.57C817.78 1203.81 818.142 1202.13 818.397 1200.52C818.652 1198.91 818.729 1197.39 818.629 1195.95C818.529 1194.51 818.229 1193.16 817.727 1191.9C817.226 1190.63 816.456 1189.47 815.419 1188.39C814.381 1187.32 813.039 1186.35 811.392 1185.49C809.772 1184.62 807.787 1183.86 805.438 1183.24C805.108 1183.15 804.755 1183.06 804.379 1182.98C804.002 1182.91 803.644 1182.84 803.303 1182.8L802.095 1182.6L801.211 1188.99Z" fill="#343434"/>
</g>
</g>
</g>
<g id="key_10" clip-path="url(#clip19_556_11400)">
<g id="keycap_10" clip-path="url(#clip20_556_11400)">
<rect id="E" x="796.688" y="953.28" width="146" height="147" rx="10" transform="rotate(15 796.688 953.28)" fill="#D9D9D9"/>
<g id="text left_10">
<path id="label_10" d="M859.108 1064.41L857.164 1069.19L828.728 1061.57L830.848 1055.52L839.875 1021.82L840.687 1015.09L869.124 1022.7L867.799 1027.65L845.39 1021.65L844.434 1027.68L842.239 1035.88L861.867 1041.13L860.666 1045.62L841.038 1040.36L837.726 1052.72L835.926 1058.2L859.108 1064.41Z" fill="#343434"/>
</g>
</g>
</g>
<g id="key_11" clip-path="url(#clip21_556_11400)">
<g id="keycap_11" clip-path="url(#clip22_556_11400)">
<rect id="3" x="840.298" y="792.074" width="146" height="147" rx="10" transform="rotate(15 840.298 792.074)" fill="#AED3E9"/>
<g id="text left_11">
<path id="label_11" d="M884.425 859.214L886.214 854.393L910.324 860.853L909.164 865.18C908.696 865.938 908.042 866.691 907.201 867.437C906.387 868.169 905.453 868.89 904.401 869.602C903.375 870.299 902.27 870.964 901.084 871.596C899.92 872.233 898.756 872.827 897.592 873.377L892.899 874.571C893.117 874.585 893.38 874.633 893.689 874.716C894.024 874.784 894.336 874.856 894.624 874.934C896.623 875.469 898.411 876.213 899.989 877.166C901.588 878.125 902.88 879.277 903.867 880.624C904.879 881.955 905.539 883.49 905.846 885.229C906.179 886.952 906.067 888.855 905.509 890.936C904.974 892.935 904.117 894.649 902.939 896.078C901.761 897.507 900.352 898.687 898.711 899.616C897.097 900.531 895.3 901.22 893.32 901.684C891.347 902.126 889.29 902.382 887.152 902.449C885.034 902.522 882.886 902.421 880.707 902.147C878.528 901.872 876.428 901.464 874.409 900.923L875.734 895.977C877.461 896.374 879.182 896.669 880.897 896.864C882.611 897.058 884.269 897.138 885.868 897.103C887.473 897.047 888.99 896.868 890.418 896.566C891.846 896.264 893.127 895.812 894.26 895.21C895.419 894.593 896.4 893.818 897.202 892.884C898.01 891.93 898.588 890.804 898.936 889.506C899.333 888.022 899.345 886.7 898.971 885.54C898.618 884.385 897.973 883.373 897.035 882.503C896.098 881.634 894.917 880.887 893.495 880.263C892.098 879.623 890.554 879.077 888.865 878.625C888.205 878.448 887.479 878.275 886.684 878.107C885.917 877.923 885.218 877.769 884.589 877.645L885.872 872.854C886.883 872.462 887.988 872.007 889.187 871.489C890.386 870.971 891.603 870.425 892.839 869.85C894.081 869.255 895.291 868.652 896.471 868.041C897.677 867.414 898.777 866.814 899.769 866.241C900.768 865.647 901.626 865.082 902.344 864.546C903.067 863.989 903.572 863.505 903.859 863.096L898.829 863.074L884.425 859.214Z" fill="#343434"/>
</g>
</g>
</g>
<g id="key_12" clip-path="url(#clip23_556_11400)">
<g id="keycap_12" clip-path="url(#clip24_556_11400)">
<rect id="F3" x="883.521" y="630.765" width="146" height="147" rx="10" transform="rotate(15 883.521 630.765)" fill="#AED3E9"/>
<g id="text left_12">
<path id="label_12" d="M901.639 735.328L895.767 733.755L906.451 693.881L907.263 687.142L936.472 694.968L934.529 699.748L912.119 693.744L911.164 699.782L908.969 707.973L928.133 713.108L926.932 717.59L907.768 712.455L901.639 735.328ZM947.751 703.291L949.54 698.47L973.65 704.93L972.49 709.257C972.022 710.015 971.368 710.768 970.527 711.514C969.713 712.246 968.78 712.967 967.728 713.679C966.702 714.376 965.596 715.041 964.411 715.673C963.246 716.31 962.082 716.904 960.919 717.454L956.226 718.648C956.443 718.662 956.706 718.71 957.015 718.793C957.35 718.861 957.662 718.933 957.951 719.011C959.949 719.546 961.738 720.29 963.316 721.243C964.914 722.202 966.206 723.354 967.193 724.701C968.205 726.032 968.865 727.567 969.172 729.306C969.506 731.029 969.393 732.932 968.836 735.013C968.3 737.012 967.443 738.726 966.265 740.155C965.087 741.584 963.678 742.764 962.037 743.693C960.423 744.608 958.626 745.297 956.647 745.761C954.673 746.203 952.617 746.459 950.478 746.526C948.361 746.599 946.212 746.498 944.033 746.224C941.854 745.949 939.755 745.541 937.735 745L939.06 740.054C940.787 740.451 942.508 740.746 944.223 740.941C945.938 741.135 947.595 741.215 949.194 741.18C950.8 741.124 952.316 740.945 953.744 740.643C955.172 740.341 956.453 739.889 957.586 739.287C958.745 738.67 959.726 737.895 960.528 736.961C961.336 736.007 961.914 734.881 962.262 733.583C962.659 732.099 962.671 730.777 962.298 729.617C961.944 728.462 961.299 727.45 960.361 726.58C959.424 725.711 958.244 724.964 956.821 724.34C955.424 723.7 953.881 723.154 952.191 722.702C951.532 722.525 950.805 722.352 950.011 722.184C949.243 722 948.544 721.846 947.915 721.722L949.199 716.931C950.209 716.539 951.314 716.084 952.513 715.566C953.712 715.048 954.929 714.502 956.165 713.927C957.407 713.332 958.618 712.729 959.797 712.118C961.003 711.491 962.103 710.891 963.096 710.318C964.094 709.724 964.952 709.159 965.67 708.623C966.394 708.066 966.899 707.582 967.185 707.173L962.155 707.151L947.751 703.291Z" fill="#343434"/>
</g>
</g>
</g>
<g id="key_13" clip-path="url(#clip25_556_11400)">
<g id="keycap_13" clip-path="url(#clip26_556_11400)">
<rect id="S3" x="926.744" y="469.455" width="146" height="147" rx="10" transform="rotate(15 926.744 469.455)" fill="#A3DE8E"/>
<g id="text left_13">
<path id="label_13" d="M939.397 569.44L943.452 565.557C943.792 565.936 944.245 566.388 944.811 566.915C945.403 567.427 946.069 567.948 946.811 568.478C947.552 569.008 948.359 569.5 949.231 569.955C950.103 570.409 951.013 570.764 951.961 571.018C953.238 571.36 954.557 571.548 955.918 571.581C957.304 571.599 958.601 571.417 959.808 571.033C961.041 570.635 962.115 570.006 963.03 569.147C963.966 568.293 964.624 567.155 965.005 565.734C965.364 564.394 965.369 563.137 965.022 561.961C964.674 560.786 964.103 559.661 963.309 558.587C962.514 557.513 961.556 556.472 960.435 555.465C959.313 554.458 958.161 553.442 956.978 552.418C955.815 551.4 954.678 550.367 953.568 549.318C952.463 548.249 951.527 547.126 950.76 545.949C949.993 544.771 949.456 543.523 949.147 542.203C948.838 540.884 948.89 539.451 949.304 537.906C949.84 535.907 950.732 534.269 951.979 532.991C953.227 531.713 954.667 530.751 956.297 530.106C957.928 529.461 959.678 529.112 961.547 529.061C963.416 529.01 965.236 529.221 967.008 529.696C971.397 530.872 975.115 533.194 978.162 536.66L974.145 539.659C972.965 538.459 971.778 537.49 970.584 536.75C969.412 536.016 968.032 535.437 966.445 535.012C965.333 534.713 964.179 534.526 962.985 534.449C961.812 534.377 960.702 534.478 959.658 534.75C958.639 535.007 957.731 535.47 956.933 536.14C956.161 536.795 955.618 537.709 955.303 538.884C954.994 540.038 955.036 541.12 955.427 542.131C955.84 543.147 956.46 544.13 957.287 545.08C958.141 546.016 959.137 546.956 960.275 547.902C961.418 548.827 962.585 549.791 963.774 550.794C964.989 551.782 966.143 552.831 967.237 553.942C968.336 555.031 969.253 556.226 969.986 557.527C970.746 558.813 971.25 560.229 971.499 561.775C971.773 563.307 971.662 565 971.165 566.854C970.546 569.162 969.531 571.054 968.12 572.531C966.734 573.993 965.114 575.094 963.259 575.834C961.431 576.559 959.45 576.945 957.317 576.992C955.184 577.038 953.088 576.786 951.027 576.234C949.708 575.88 948.504 575.469 947.415 575.001C946.32 574.553 945.296 574.047 944.343 573.482C943.411 572.923 942.536 572.313 941.719 571.653C940.908 570.971 940.134 570.234 939.397 569.44ZM990.974 541.982L992.763 537.16L1016.87 543.62L1015.71 547.948C1015.24 548.706 1014.59 549.458 1013.75 550.205C1012.94 550.936 1012 551.658 1010.95 552.37C1009.92 553.067 1008.82 553.731 1007.63 554.363C1006.47 555.001 1005.3 555.594 1004.14 556.144L999.448 557.338C999.665 557.352 999.929 557.401 1000.24 557.483C1000.57 557.551 1000.88 557.624 1001.17 557.701C1003.17 558.237 1004.96 558.981 1006.54 559.934C1008.14 560.892 1009.43 562.044 1010.42 563.391C1011.43 564.722 1012.09 566.257 1012.39 567.996C1012.73 569.72 1012.62 571.622 1012.06 573.704C1011.52 575.702 1010.67 577.416 1009.49 578.845C1008.31 580.275 1006.9 581.454 1005.26 582.384C1003.65 583.298 1001.85 583.988 999.869 584.451C997.895 584.894 995.839 585.149 993.701 585.217C991.583 585.29 989.435 585.189 987.256 584.914C985.077 584.639 982.977 584.232 980.958 583.69L982.283 578.745C984.01 579.141 985.731 579.437 987.445 579.631C989.16 579.826 990.817 579.905 992.417 579.87C994.022 579.814 995.539 579.635 996.967 579.333C998.395 579.031 999.676 578.58 1000.81 577.978C1001.97 577.361 1002.95 576.585 1003.75 575.652C1004.56 574.698 1005.14 573.572 1005.48 572.273C1005.88 570.79 1005.89 569.468 1005.52 568.307C1005.17 567.153 1004.52 566.141 1003.58 565.271C1002.65 564.401 1001.47 563.654 1000.04 563.03C998.647 562.391 997.103 561.845 995.414 561.392C994.754 561.215 994.027 561.043 993.233 560.874C992.465 560.69 991.767 560.536 991.138 560.412L992.421 555.621C993.432 555.229 994.537 554.774 995.735 554.256C996.934 553.738 998.152 553.192 999.388 552.618C1000.63 552.023 1001.84 551.42 1003.02 550.808C1004.23 550.182 1005.33 549.582 1006.32 549.008C1007.32 548.415 1008.17 547.849 1008.89 547.313C1009.62 546.756 1010.12 546.273 1010.41 545.864L1005.38 545.841L990.974 541.982Z" fill="#343434"/>
</g>
</g>
</g>
<g id="key_14" clip-path="url(#clip27_556_11400)">
<g id="keycap_14" clip-path="url(#clip28_556_11400)">
<rect id="V" x="875.258" y="1343.93" width="146" height="147" rx="10" transform="rotate(15 875.258 1343.93)" fill="#D9D9D9"/>
<g id="text left_14">
<path id="label_14" d="M924.112 1440.16L922.923 1451.77L926.698 1442.38L944.944 1412.61L950.631 1414.14L927.736 1451.73L925.276 1457.7L918.394 1455.19L917.156 1405.17L923.194 1406.12L924.112 1440.16Z" fill="#343434"/>
</g>
</g>
</g>
<g id="key_15" clip-path="url(#clip29_556_11400)">
<g id="keycap_15" clip-path="url(#clip30_556_11400)">
<rect id="F" x="918.481" y="1182.62" width="146" height="147" rx="10" transform="rotate(15 918.481 1182.62)" fill="#D9D9D9"/>
<g id="text left_15">
<path id="label_15" d="M956.703 1292.57L950.83 1290.99L961.514 1251.12L962.326 1244.38L991.536 1252.21L989.592 1256.99L967.183 1250.98L966.228 1257.02L964.033 1265.21L983.197 1270.35L981.996 1274.83L962.832 1269.69L956.703 1292.57Z" fill="#343434"/>
</g>
</g>
</g>
<g id="key_16" clip-path="url(#clip31_556_11400)">
<g id="keycap_16" clip-path="url(#clip32_556_11400)">
<rect id="R" x="961.704" y="1021.31" width="146" height="147" rx="10" transform="rotate(15 961.704 1021.31)" fill="#D9D9D9"/>
<g id="text left_16">
<path id="label_16" d="M1004.92 1112.25L999.833 1131.23L994.176 1129.72L1004.86 1089.84L1005.44 1083.37C1006.86 1083.58 1008.42 1083.83 1010.1 1084.13C1011.81 1084.43 1013.56 1084.82 1015.35 1085.3C1017.95 1086 1020.28 1086.92 1022.33 1088.07C1024.39 1089.19 1026.08 1090.51 1027.4 1092.01C1028.72 1093.51 1029.62 1095.19 1030.1 1097.04C1030.58 1098.87 1030.54 1100.82 1029.98 1102.9C1029.4 1105.07 1028.52 1106.87 1027.34 1108.32C1026.16 1109.77 1024.77 1110.91 1023.18 1111.75C1021.59 1112.56 1019.82 1113.1 1017.87 1113.37C1015.93 1113.62 1013.91 1113.66 1011.81 1113.47L1015.87 1115.89L1023.42 1137.55L1016.52 1135.71L1009 1113.98C1008.85 1113.63 1008.63 1113.39 1008.36 1113.27C1008.08 1113.14 1007.86 1113.04 1007.7 1113L1004.92 1112.25ZM1009.33 1095.78L1006.17 1107.59L1009.82 1108.56C1011.69 1109.07 1013.42 1109.25 1015 1109.12C1016.59 1108.98 1017.99 1108.59 1019.22 1107.97C1020.45 1107.33 1021.48 1106.49 1022.31 1105.45C1023.15 1104.4 1023.74 1103.2 1024.1 1101.86C1024.42 1100.68 1024.53 1099.6 1024.44 1098.6C1024.36 1097.61 1024.11 1096.7 1023.71 1095.89C1023.31 1095.08 1022.79 1094.34 1022.15 1093.68C1021.52 1093 1020.8 1092.41 1020.01 1091.91C1019.24 1091.42 1018.41 1090.99 1017.54 1090.62C1016.69 1090.26 1015.84 1089.97 1014.99 1089.74C1014.13 1089.51 1013.34 1089.33 1012.62 1089.21C1011.93 1089.06 1011.22 1088.97 1010.51 1088.91L1009.33 1095.78Z" fill="#343434"/>
</g>
</g>
</g>
<g id="key_17" clip-path="url(#clip33_556_11400)">
<g id="keycap_17" clip-path="url(#clip34_556_11400)">
<rect id="4" x="1004.93" y="859.998" width="146" height="147" rx="10" transform="rotate(15 1004.93 859.998)" fill="#AED3E9"/>
<g id="text left_17">
<path id="label_17" d="M1068.54 966.812L1062.97 965.321L1060.49 974.594L1054 972.855L1056.48 963.582L1038.09 958.654L1039.51 953.369L1063.16 924.953L1068.83 927.137L1048.55 951.518L1044.52 955.075L1057.81 958.637L1061.18 946.056L1067.53 948.321L1064.3 960.376L1070.33 961.991L1068.54 966.812Z" fill="#343434"/>
</g>
</g>
</g>
<g id="key_18" clip-path="url(#clip35_556_11400)">
<g id="keycap_18" clip-path="url(#clip36_556_11400)">
<rect id="F4" x="1048.15" y="698.688" width="146" height="147" rx="10" transform="rotate(15 1048.15 698.688)" fill="#AED3E9"/>
<g id="text left_18">
<path id="label_18" d="M1066.27 803.252L1060.39 801.678L1071.08 761.804L1071.89 755.065L1101.1 762.892L1099.16 767.672L1076.75 761.667L1075.79 767.705L1073.6 775.897L1092.76 781.031L1091.56 785.513L1072.4 780.378L1066.27 803.252ZM1131.86 810.889L1126.3 809.398L1123.81 818.671L1117.32 816.932L1119.81 807.659L1101.42 802.731L1102.83 797.446L1126.48 769.03L1132.16 771.214L1111.88 795.595L1107.84 799.152L1121.13 802.714L1124.5 790.133L1130.85 792.398L1127.62 804.453L1133.65 806.068L1131.86 810.889Z" fill="#343434"/>
</g>
</g>
</g>
<g id="key_19" clip-path="url(#clip37_556_11400)">
<g id="keycap_19" clip-path="url(#clip38_556_11400)">
<rect id="S4" x="1091.37" y="537.379" width="146" height="147" rx="10" transform="rotate(15 1091.37 537.379)" fill="#A3DE8E"/>
<g id="text left_19">
<path id="label_19" d="M1104.03 637.363L1108.08 633.481C1108.42 633.859 1108.87 634.312 1109.44 634.839C1110.03 635.351 1110.7 635.871 1111.44 636.401C1112.18 636.931 1112.99 637.424 1113.86 637.878C1114.73 638.333 1115.64 638.687 1116.59 638.941C1117.87 639.283 1119.19 639.471 1120.55 639.504C1121.93 639.522 1123.23 639.34 1124.44 638.957C1125.67 638.558 1126.74 637.929 1127.66 637.07C1128.59 636.217 1129.25 635.079 1129.63 633.657C1129.99 632.318 1130 631.06 1129.65 629.885C1129.3 628.709 1128.73 627.585 1127.94 626.51C1127.14 625.436 1126.18 624.396 1125.06 623.388C1123.94 622.381 1122.79 621.365 1121.61 620.342C1120.44 619.323 1119.31 618.29 1118.2 617.241C1117.09 616.172 1116.16 615.049 1115.39 613.872C1114.62 612.695 1114.08 611.446 1113.77 610.127C1113.47 608.807 1113.52 607.375 1113.93 605.829C1114.47 603.83 1115.36 602.192 1116.61 600.914C1117.86 599.636 1119.3 598.675 1120.93 598.029C1122.56 597.384 1124.31 597.036 1126.17 596.984C1128.04 596.933 1129.86 597.145 1131.64 597.62C1136.03 598.796 1139.74 601.117 1142.79 604.584L1138.77 607.582C1137.59 606.382 1136.41 605.413 1135.21 604.673C1134.04 603.94 1132.66 603.36 1131.07 602.935C1129.96 602.637 1128.81 602.449 1127.61 602.372C1126.44 602.301 1125.33 602.401 1124.29 602.673C1123.27 602.93 1122.36 603.394 1121.56 604.063C1120.79 604.718 1120.25 605.633 1119.93 606.807C1119.62 607.961 1119.66 609.043 1120.06 610.054C1120.47 611.07 1121.09 612.053 1121.92 613.004C1122.77 613.939 1123.77 614.88 1124.9 615.825C1126.05 616.75 1127.21 617.714 1128.4 618.717C1129.62 619.705 1130.77 620.755 1131.87 621.865C1132.96 622.955 1133.88 624.15 1134.61 625.451C1135.37 626.736 1135.88 628.153 1136.13 629.699C1136.4 631.23 1136.29 632.923 1135.79 634.777C1135.17 637.085 1134.16 638.978 1132.75 640.455C1131.36 641.917 1129.74 643.017 1127.89 643.757C1126.06 644.482 1124.08 644.868 1121.95 644.915C1119.81 644.962 1117.72 644.709 1115.66 644.157C1114.34 643.804 1113.13 643.393 1112.04 642.924C1110.95 642.476 1109.92 641.97 1108.97 641.405C1108.04 640.846 1107.16 640.237 1106.35 639.576C1105.54 638.895 1104.76 638.157 1104.03 637.363ZM1175.09 649.58L1169.52 648.089L1167.04 657.362L1160.55 655.622L1163.03 646.349L1144.64 641.422L1146.06 636.136L1169.7 607.72L1175.38 609.904L1155.1 634.285L1151.07 637.843L1164.36 641.404L1167.73 628.824L1174.08 631.088L1170.85 643.143L1176.87 644.758L1175.09 649.58Z" fill="#343434"/>
</g>
</g>
</g>
<g id="key_20" clip-path="url(#clip39_556_11400)">
<g id="keycap_20" clip-path="url(#clip40_556_11400)">
<rect id="B" x="1040.79" y="1410.02" width="146" height="147" rx="10" transform="rotate(15 1040.79 1410.02)" fill="#D9D9D9"/>
<g id="text left_20">
<path id="label_20" d="M1073.3 1518.44L1083.98 1478.57L1084.71 1472.14C1085.99 1472.3 1087.29 1472.5 1088.63 1472.72C1089.98 1472.95 1091.32 1473.25 1092.66 1473.61C1095.05 1474.25 1097.29 1475.01 1099.37 1475.9C1101.46 1476.77 1103.21 1477.81 1104.63 1479.03C1106.07 1480.26 1107.08 1481.69 1107.68 1483.33C1108.29 1484.95 1108.3 1486.82 1107.74 1488.94C1107.13 1491.19 1106.13 1492.99 1104.73 1494.36C1103.32 1495.73 1101.61 1496.61 1099.58 1496.99L1094.46 1497.08L1098.89 1498.73C1100.04 1499.44 1101.1 1500.24 1102.05 1501.13C1103.01 1502.01 1103.78 1502.98 1104.35 1504.04C1104.95 1505.1 1105.33 1506.27 1105.5 1507.56C1105.66 1508.84 1105.54 1510.23 1105.14 1511.73C1104.67 1513.49 1104.01 1514.99 1103.17 1516.24C1102.35 1517.5 1101.39 1518.55 1100.31 1519.38C1099.22 1520.22 1098.04 1520.87 1096.77 1521.35C1095.5 1521.8 1094.18 1522.1 1092.82 1522.25C1091.48 1522.37 1090.12 1522.37 1088.74 1522.25C1087.37 1522.1 1086.03 1521.85 1084.73 1521.5L1073.3 1518.44ZM1080.34 1515.03L1083.74 1515.94C1085.78 1516.48 1087.63 1516.83 1089.29 1516.96C1090.98 1517.08 1092.47 1516.95 1093.74 1516.56C1095.04 1516.16 1096.13 1515.47 1097.01 1514.49C1097.9 1513.49 1098.57 1512.14 1099.03 1510.43C1099.44 1508.88 1099.53 1507.49 1099.29 1506.26C1099.04 1505.02 1098.52 1503.92 1097.72 1502.95C1096.94 1501.99 1095.9 1501.17 1094.6 1500.5C1093.31 1499.8 1091.83 1499.22 1090.16 1498.77L1085.06 1497.41L1080.34 1515.03ZM1088.51 1484.52L1086.34 1492.62L1089.59 1493.49C1090.86 1493.76 1092.15 1493.9 1093.46 1493.89C1094.78 1493.89 1096 1493.7 1097.12 1493.32C1098.27 1492.92 1099.26 1492.3 1100.1 1491.47C1100.97 1490.62 1101.59 1489.49 1101.97 1488.09C1102.33 1486.73 1102.31 1485.52 1101.91 1484.46C1101.54 1483.39 1100.92 1482.47 1100.07 1481.69C1099.22 1480.91 1098.21 1480.25 1097.02 1479.71C1095.86 1479.18 1094.7 1478.75 1093.52 1478.44C1092.82 1478.25 1092.08 1478.09 1091.3 1477.94C1090.55 1477.79 1089.84 1477.68 1089.16 1477.64L1088.51 1484.52Z" fill="#343434"/>
</g>
</g>
</g>
<g id="key_21" clip-path="url(#clip41_556_11400)">
<g id="keycap_21" clip-path="url(#clip42_556_11400)">
<rect id="G" x="1084.01" y="1248.71" width="146" height="147" rx="10" transform="rotate(15 1084.01 1248.71)" fill="#D9D9D9"/>
<g id="text left_21">
<path id="label_21" d="M1148.44 1359.16C1147.35 1359.86 1146.17 1360.48 1144.89 1361.02C1143.63 1361.55 1142.29 1361.94 1140.87 1362.2C1139.46 1362.44 1137.97 1362.52 1136.39 1362.46C1134.82 1362.41 1133.17 1362.16 1131.46 1361.7C1128.49 1360.9 1126.07 1359.57 1124.19 1357.69C1122.33 1355.81 1120.96 1353.56 1120.09 1350.97C1119.24 1348.37 1118.85 1345.51 1118.92 1342.37C1118.99 1339.23 1119.47 1335.99 1120.36 1332.65C1120.92 1330.57 1121.59 1328.6 1122.38 1326.73C1123.19 1324.85 1124.13 1323.14 1125.18 1321.59C1126.24 1320.04 1127.43 1318.69 1128.75 1317.54C1130.1 1316.38 1131.59 1315.47 1133.22 1314.83C1134.86 1314.16 1136.64 1313.79 1138.56 1313.71C1140.5 1313.61 1142.61 1313.87 1144.88 1314.47C1147.25 1315.11 1149.38 1316.09 1151.28 1317.41C1153.2 1318.72 1154.72 1320.29 1155.82 1322.11L1152.15 1324.67C1151.34 1323.75 1150.26 1322.84 1148.9 1321.95C1147.55 1321.05 1145.91 1320.35 1143.97 1319.83C1142.3 1319.38 1140.78 1319.21 1139.41 1319.3C1138.04 1319.4 1136.78 1319.71 1135.64 1320.25C1134.53 1320.79 1133.52 1321.52 1132.63 1322.46C1131.75 1323.37 1130.94 1324.43 1130.22 1325.65C1129.52 1326.88 1128.89 1328.22 1128.34 1329.69C1127.8 1331.15 1127.31 1332.69 1126.88 1334.3C1126.5 1335.72 1126.18 1337.2 1125.92 1338.74C1125.68 1340.27 1125.55 1341.79 1125.52 1343.31C1125.49 1344.83 1125.61 1346.29 1125.87 1347.71C1126.13 1349.13 1126.56 1350.42 1127.18 1351.6C1127.81 1352.79 1128.65 1353.82 1129.69 1354.7C1130.76 1355.58 1132.09 1356.23 1133.67 1356.66C1134.6 1356.91 1135.55 1357.05 1136.51 1357.09C1137.47 1357.12 1138.4 1357.08 1139.29 1356.97C1140.18 1356.86 1140.99 1356.69 1141.71 1356.46C1142.46 1356.22 1143.07 1355.95 1143.55 1355.66L1146.44 1344.87L1136.9 1341.65L1137.98 1337.64L1153.12 1341.69L1148.44 1359.16Z" fill="#343434"/>
</g>
</g>
</g>
<g id="key_22" clip-path="url(#clip43_556_11400)">
<g id="keycap_22" clip-path="url(#clip44_556_11400)">
<rect id="T" x="1127.24" y="1087.4" width="146" height="147" rx="10" transform="rotate(15 1127.24 1087.4)" fill="#D9D9D9"/>
<g id="text left_22">
<path id="label_22" d="M1170.4 1198.68L1181.5 1157.26L1168.37 1153.74L1169.69 1148.79L1201.68 1157.37L1200.36 1162.31L1187.38 1158.83L1176.28 1200.25L1170.4 1198.68Z" fill="#343434"/>
</g>
</g>
</g>
<g id="key_23" clip-path="url(#clip45_556_11400)">
<g id="keycap_23" clip-path="url(#clip46_556_11400)">
<rect id="5" x="1170.46" y="926.093" width="146" height="147" rx="10" transform="rotate(15 1170.46 926.093)" fill="#AED3E9"/>
<g id="text left_23">
<path id="label_23" d="M1218.7 1006.2C1218.87 1006.15 1219.15 1006.08 1219.55 1005.99C1219.97 1005.91 1220.47 1005.84 1221.06 1005.8C1221.64 1005.76 1222.29 1005.77 1223.01 1005.83C1223.75 1005.87 1224.54 1006 1225.38 1006.23C1227.53 1006.8 1229.34 1007.66 1230.83 1008.78C1232.34 1009.89 1233.52 1011.19 1234.36 1012.68C1235.22 1014.14 1235.74 1015.74 1235.92 1017.47C1236.12 1019.2 1235.98 1020.95 1235.51 1022.72C1234.95 1024.81 1234.06 1026.63 1232.85 1028.21C1231.63 1029.76 1230.19 1031.07 1228.51 1032.15C1226.86 1033.21 1225.02 1034.04 1223 1034.65C1221.01 1035.26 1218.93 1035.67 1216.77 1035.89C1214.64 1036.09 1212.5 1036.1 1210.34 1035.92C1208.18 1035.72 1206.12 1035.36 1204.14 1034.83L1205.46 1029.88C1207.02 1030.25 1208.64 1030.49 1210.31 1030.58C1211.99 1030.68 1213.63 1030.63 1215.25 1030.45C1216.89 1030.27 1218.45 1029.95 1219.95 1029.49C1221.46 1029.03 1222.82 1028.44 1224.04 1027.7C1225.27 1026.97 1226.32 1026.1 1227.18 1025.1C1228.05 1024.09 1228.65 1022.95 1229 1021.68C1229.28 1020.62 1229.38 1019.56 1229.29 1018.47C1229.23 1017.4 1228.96 1016.39 1228.48 1015.44C1228.03 1014.48 1227.37 1013.63 1226.48 1012.89C1225.6 1012.14 1224.49 1011.59 1223.15 1011.23C1222.1 1010.95 1221.13 1010.77 1220.25 1010.68C1219.37 1010.58 1218.57 1010.55 1217.86 1010.57C1217.14 1010.6 1216.51 1010.68 1215.95 1010.79C1215.41 1010.89 1214.96 1011 1214.6 1011.13L1210.76 1010.1L1216.56 988.461L1239.84 994.698L1238.51 999.643L1221.67 995.13L1218.7 1006.2Z" fill="#343434"/>
</g>
</g>
</g>
<g id="key_24" clip-path="url(#clip47_556_11400)">
<g id="keycap_24" clip-path="url(#clip48_556_11400)">
<rect id="F5" x="1213.68" y="764.784" width="146" height="147" rx="10" transform="rotate(15 1213.68 764.784)" fill="#AED3E9"/>
<g id="text left_24">
<path id="label_24" d="M1231.8 869.347L1225.93 867.773L1236.61 827.9L1237.42 821.16L1266.63 828.987L1264.69 833.767L1242.28 827.762L1241.33 833.801L1239.13 841.992L1258.29 847.127L1257.09 851.609L1237.93 846.474L1231.8 869.347ZM1282.03 850.272C1282.19 850.229 1282.48 850.161 1282.88 850.069C1283.3 849.983 1283.8 849.919 1284.38 849.877C1284.97 849.835 1285.62 849.844 1286.33 849.902C1287.07 849.946 1287.86 850.081 1288.71 850.307C1290.85 850.881 1292.67 851.732 1294.15 852.859C1295.67 853.971 1296.84 855.269 1297.68 856.753C1298.55 858.222 1299.07 859.819 1299.25 861.546C1299.45 863.277 1299.31 865.029 1298.83 866.801C1298.28 868.883 1297.39 870.71 1296.17 872.283C1294.96 873.836 1293.52 875.149 1291.84 876.223C1290.18 877.282 1288.35 878.116 1286.33 878.723C1284.33 879.337 1282.25 879.752 1280.1 879.969C1277.97 880.171 1275.82 880.182 1273.66 880.001C1271.51 879.799 1269.44 879.433 1267.46 878.903L1268.79 873.957C1270.35 874.33 1271.96 874.564 1273.64 874.66C1275.31 874.755 1276.96 874.711 1278.58 874.526C1280.21 874.346 1281.78 874.026 1283.27 873.564C1284.79 873.109 1286.15 872.513 1287.36 871.778C1288.6 871.048 1289.65 870.181 1290.51 869.176C1291.38 868.171 1291.98 867.03 1292.32 865.753C1292.6 864.702 1292.7 863.635 1292.62 862.552C1292.55 861.474 1292.28 860.463 1291.81 859.519C1291.36 858.559 1290.69 857.707 1289.81 856.962C1288.93 856.218 1287.81 855.666 1286.47 855.307C1285.42 855.026 1284.46 854.844 1283.57 854.762C1282.7 854.659 1281.9 854.622 1281.18 854.652C1280.47 854.681 1279.83 854.753 1279.27 854.868C1278.74 854.967 1278.29 855.079 1277.92 855.202L1274.09 854.175L1279.89 832.538L1303.16 838.775L1301.84 843.72L1284.99 839.207L1282.03 850.272Z" fill="#343434"/>
</g>
</g>
</g>
<g id="key_25" clip-path="url(#clip49_556_11400)">
<g id="keycap_25" clip-path="url(#clip50_556_11400)">
<rect id="S5" x="1256.91" y="603.474" width="146" height="147" rx="10" transform="rotate(15 1256.91 603.474)" fill="#A3DE8E"/>
<g id="text left_25">
<path id="label_25" d="M1269.56 703.459L1273.61 699.576C1273.95 699.954 1274.41 700.407 1274.97 700.934C1275.56 701.446 1276.23 701.967 1276.97 702.497C1277.71 703.027 1278.52 703.519 1279.39 703.974C1280.26 704.428 1281.17 704.782 1282.12 705.036C1283.4 705.379 1284.72 705.567 1286.08 705.6C1287.47 705.618 1288.76 705.435 1289.97 705.052C1291.2 704.654 1292.28 704.025 1293.19 703.166C1294.13 702.312 1294.79 701.174 1295.17 699.752C1295.53 698.413 1295.53 697.156 1295.18 695.98C1294.84 694.805 1294.27 693.68 1293.47 692.606C1292.68 691.532 1291.72 690.491 1290.6 689.484C1289.48 688.476 1288.32 687.461 1287.14 686.437C1285.98 685.419 1284.84 684.385 1283.73 683.337C1282.62 682.268 1281.69 681.145 1280.92 679.967C1280.16 678.79 1279.62 677.542 1279.31 676.222C1279 674.903 1279.05 673.47 1279.47 671.925C1280 669.926 1280.89 668.287 1282.14 667.01C1283.39 665.732 1284.83 664.77 1286.46 664.125C1288.09 663.479 1289.84 663.131 1291.71 663.08C1293.58 663.028 1295.4 663.24 1297.17 663.715C1301.56 664.891 1305.28 667.212 1308.32 670.679L1304.31 673.678C1303.13 672.478 1301.94 671.508 1300.75 670.769C1299.57 670.035 1298.19 669.456 1296.61 669.03C1295.49 668.732 1294.34 668.545 1293.15 668.468C1291.97 668.396 1290.86 668.497 1289.82 668.769C1288.8 669.026 1287.89 669.489 1287.1 670.159C1286.32 670.814 1285.78 671.728 1285.47 672.903C1285.16 674.057 1285.2 675.139 1285.59 676.149C1286 677.165 1286.62 678.149 1287.45 679.099C1288.3 680.035 1289.3 680.975 1290.44 681.921C1291.58 682.845 1292.75 683.809 1293.94 684.813C1295.15 685.801 1296.31 686.85 1297.4 687.96C1298.5 689.05 1299.41 690.245 1300.15 691.546C1300.91 692.832 1301.41 694.248 1301.66 695.794C1301.94 697.325 1301.82 699.018 1301.33 700.873C1300.71 703.181 1299.69 705.073 1298.28 706.55C1296.9 708.012 1295.28 709.113 1293.42 709.853C1291.59 710.578 1289.61 710.963 1287.48 711.01C1285.35 711.057 1283.25 710.805 1281.19 710.252C1279.87 709.899 1278.67 709.488 1277.58 709.02C1276.48 708.572 1275.46 708.065 1274.51 707.501C1273.57 706.942 1272.7 706.332 1271.88 705.671C1271.07 704.99 1270.3 704.253 1269.56 703.459ZM1325.25 688.963C1325.42 688.919 1325.7 688.851 1326.1 688.76C1326.52 688.674 1327.02 688.61 1327.61 688.568C1328.19 688.526 1328.84 688.534 1329.56 688.593C1330.3 688.636 1331.09 688.771 1331.93 688.998C1334.08 689.572 1335.89 690.422 1337.38 691.55C1338.89 692.662 1340.07 693.96 1340.91 695.444C1341.77 696.912 1342.29 698.51 1342.47 700.236C1342.67 701.968 1342.53 703.72 1342.06 705.492C1341.5 707.573 1340.61 709.4 1339.39 710.974C1338.18 712.527 1336.74 713.84 1335.06 714.914C1333.41 715.973 1331.57 716.806 1329.55 717.414C1327.56 718.027 1325.48 718.442 1323.32 718.66C1321.19 718.862 1319.05 718.872 1316.89 718.691C1314.73 718.489 1312.67 718.123 1310.69 717.593L1312.01 712.648C1313.57 713.021 1315.18 713.255 1316.86 713.35C1318.53 713.446 1320.18 713.401 1321.8 713.216C1323.44 713.037 1325 712.716 1326.5 712.255C1328.01 711.799 1329.37 711.204 1330.59 710.469C1331.82 709.739 1332.87 708.872 1333.73 707.867C1334.6 706.862 1335.2 705.721 1335.55 704.443C1335.83 703.392 1335.93 702.325 1335.84 701.242C1335.78 700.165 1335.51 699.154 1335.03 698.209C1334.58 697.249 1333.91 696.397 1333.03 695.653C1332.15 694.908 1331.04 694.357 1329.7 693.998C1328.65 693.716 1327.68 693.534 1326.8 693.452C1325.92 693.349 1325.12 693.313 1324.41 693.342C1323.69 693.371 1323.06 693.443 1322.49 693.558C1321.96 693.658 1321.51 693.769 1321.15 693.893L1317.31 692.866L1323.11 671.229L1346.39 677.465L1345.06 682.411L1328.21 677.897L1325.25 688.963Z" fill="#343434"/>
</g>
</g>
</g>
<g id="key_26" clip-path="url(#clip51_556_11400)">
<g id="keycap_26" clip-path="url(#clip52_556_11400)">
<rect id="LS" x="181.03" y="1199.32" width="146" height="147" rx="10" transform="rotate(15 181.03 1199.32)" fill="#AED3E9"/>
<g id="text left_26">
<path id="label_26" d="M200.103 1298.84L222.667 1304.88L220.723 1309.66L192.75 1302.17L195.025 1296.15L204.052 1262.46L204.864 1255.72L211.675 1256.88L201.902 1293.36L200.103 1298.84ZM233.89 1310.08L237.945 1306.2C238.285 1306.57 238.738 1307.03 239.304 1307.55C239.895 1308.07 240.562 1308.59 241.303 1309.12C242.045 1309.65 242.852 1310.14 243.724 1310.59C244.596 1311.05 245.506 1311.4 246.454 1311.66C247.731 1312 249.05 1312.19 250.411 1312.22C251.797 1312.24 253.094 1312.05 254.301 1311.67C255.534 1311.27 256.608 1310.64 257.523 1309.78C258.458 1308.93 259.117 1307.79 259.498 1306.37C259.856 1305.03 259.862 1303.77 259.514 1302.6C259.167 1301.42 258.596 1300.3 257.801 1299.23C257.007 1298.15 256.049 1297.11 254.928 1296.1C253.806 1295.1 252.654 1294.08 251.47 1293.06C250.308 1292.04 249.171 1291 248.061 1289.96C246.956 1288.89 246.02 1287.76 245.253 1286.59C244.486 1285.41 243.948 1284.16 243.639 1282.84C243.33 1281.52 243.383 1280.09 243.797 1278.54C244.333 1276.54 245.224 1274.91 246.472 1273.63C247.72 1272.35 249.159 1271.39 250.79 1270.74C252.421 1270.1 254.17 1269.75 256.039 1269.7C257.908 1269.65 259.729 1269.86 261.501 1270.33C265.89 1271.51 269.608 1273.83 272.655 1277.3L268.638 1280.3C267.457 1279.1 266.27 1278.13 265.077 1277.39C263.905 1276.65 262.525 1276.07 260.938 1275.65C259.825 1275.35 258.672 1275.16 257.478 1275.09C256.304 1275.02 255.195 1275.12 254.151 1275.39C253.132 1275.65 252.224 1276.11 251.426 1276.78C250.654 1277.43 250.111 1278.35 249.796 1279.52C249.487 1280.68 249.528 1281.76 249.92 1282.77C250.333 1283.78 250.953 1284.77 251.78 1285.72C252.634 1286.65 253.63 1287.59 254.768 1288.54C255.911 1289.46 257.077 1290.43 258.266 1291.43C259.481 1292.42 260.636 1293.47 261.73 1294.58C262.829 1295.67 263.746 1296.86 264.479 1298.17C265.239 1299.45 265.743 1300.87 265.991 1302.41C266.266 1303.94 266.154 1305.64 265.657 1307.49C265.039 1309.8 264.024 1311.69 262.612 1313.17C261.227 1314.63 259.607 1315.73 257.752 1316.47C255.923 1317.2 253.943 1317.58 251.81 1317.63C249.677 1317.68 247.58 1317.42 245.52 1316.87C244.201 1316.52 242.997 1316.11 241.908 1315.64C240.813 1315.19 239.789 1314.68 238.836 1314.12C237.904 1313.56 237.029 1312.95 236.212 1312.29C235.401 1311.61 234.627 1310.87 233.89 1310.08Z" fill="#343434"/>
</g>
</g>
</g>
<g id="key_27" clip-path="url(#clip53_556_11400)">
<g id="keycap_27" clip-path="url(#clip54_556_11400)">
<rect id="CAP" x="224.252" y="1038.01" width="146" height="147" rx="10" transform="rotate(15 224.252 1038.01)" fill="#AED3E9"/>
<g id="text left_27">
<path id="label_27" d="M246.856 1140.33C245.829 1140.78 244.819 1141.13 243.827 1141.37C242.834 1141.62 241.823 1141.76 240.792 1141.82C239.767 1141.85 238.712 1141.79 237.628 1141.63C236.539 1141.5 235.386 1141.27 234.17 1140.94C232.192 1140.41 230.384 1139.62 228.746 1138.56C227.113 1137.48 225.665 1136.21 224.401 1134.74C223.163 1133.26 222.125 1131.62 221.286 1129.8C220.447 1127.99 219.835 1126.07 219.45 1124.04C219.07 1122 218.92 1119.88 218.998 1117.69C219.076 1115.5 219.413 1113.3 220.01 1111.07C220.843 1107.96 222.076 1105.13 223.708 1102.59C225.345 1100.02 227.32 1097.92 229.635 1096.29C231.955 1094.64 234.569 1093.54 237.476 1092.99C240.404 1092.45 243.568 1092.64 246.968 1093.55C249.338 1094.18 251.368 1095.14 253.06 1096.41C254.777 1097.66 256.187 1099.2 257.29 1101.02L253.622 1103.58C253.216 1103.12 252.773 1102.67 252.294 1102.23C251.821 1101.77 251.274 1101.34 250.655 1100.93C250.056 1100.53 249.372 1100.16 248.601 1099.82C247.857 1099.46 247.011 1099.16 246.063 1098.91C243.549 1098.23 241.227 1098.12 239.098 1098.56C236.989 1099.01 235.099 1099.89 233.426 1101.18C231.759 1102.46 230.327 1104.1 229.129 1106.1C227.957 1108.08 227.048 1110.28 226.402 1112.69C225.999 1114.19 225.748 1115.75 225.648 1117.35C225.549 1118.96 225.597 1120.55 225.793 1122.13C226.009 1123.71 226.385 1125.24 226.919 1126.71C227.453 1128.17 228.152 1129.52 229.017 1130.75C229.902 1131.98 230.952 1133.04 232.169 1133.94C233.391 1134.82 234.795 1135.47 236.382 1135.9C237.309 1136.15 238.134 1136.33 238.857 1136.43C239.579 1136.54 240.275 1136.58 240.943 1136.56C241.631 1136.54 242.333 1136.48 243.05 1136.36C243.771 1136.22 244.595 1136.04 245.52 1135.8L246.856 1140.33ZM251.737 1145.08L277.093 1108.81L279.832 1102.92L285.499 1103.77L289.849 1155.3L283.667 1153.64L282.819 1138.5L266.283 1134.07L257.425 1146.61L251.737 1145.08ZM282.28 1106.89L278.239 1116.41L269.039 1129.84L282.547 1133.46L281.021 1117.15L282.28 1106.89ZM304.648 1159.26L298.775 1157.69L309.459 1117.81L310.034 1111.34C310.679 1111.4 311.425 1111.5 312.272 1111.64C313.139 1111.79 314.044 1111.95 314.988 1112.14C315.932 1112.33 316.88 1112.54 317.834 1112.77C318.793 1112.98 319.674 1113.2 320.478 1113.41C323.981 1114.35 326.914 1115.48 329.278 1116.8C331.667 1118.1 333.534 1119.54 334.879 1121.11C336.229 1122.67 337.086 1124.33 337.45 1126.11C337.834 1127.89 337.775 1129.72 337.272 1131.59C336.527 1134.38 335.408 1136.57 333.917 1138.18C332.425 1139.79 330.546 1140.91 328.279 1141.54C326.018 1142.15 323.348 1142.31 320.268 1142.01C317.195 1141.7 313.71 1141.02 309.816 1139.97L304.648 1159.26ZM314.147 1123.81L310.984 1135.61C314.116 1136.45 316.842 1137 319.161 1137.24C321.48 1137.49 323.456 1137.41 325.087 1137.01C326.725 1136.59 328.047 1135.81 329.054 1134.69C330.061 1133.57 330.822 1132.05 331.335 1130.14C331.705 1128.75 331.629 1127.43 331.107 1126.17C330.611 1124.88 329.829 1123.72 328.759 1122.69C327.696 1121.63 326.451 1120.71 325.025 1119.93C323.6 1119.15 322.156 1118.57 320.693 1118.17C320.342 1118.08 319.917 1117.98 319.417 1117.86C318.943 1117.74 318.453 1117.63 317.948 1117.54C317.448 1117.43 316.955 1117.33 316.47 1117.24C316.006 1117.16 315.611 1117.11 315.285 1117.09L314.147 1123.81Z" fill="#343434"/>
</g>
</g>
</g>
<g id="key_28" clip-path="url(#clip55_556_11400)">
<g id="keycap_28" clip-path="url(#clip56_556_11400)">
<rect id="A" x="395.221" y="1083.82" width="146" height="147" rx="10" transform="rotate(15 395.221 1083.82)" fill="#D9D9D9"/>
<g id="text left_28">
<path id="label_28" d="M422.223 1190.76L447.579 1154.49L450.318 1148.6L455.985 1149.46L460.335 1200.98L454.153 1199.32L453.305 1184.19L436.768 1179.75L427.91 1192.29L422.223 1190.76ZM452.766 1152.57L448.725 1162.09L439.525 1175.52L453.033 1179.14L451.506 1162.83L452.766 1152.57Z" fill="#343434"/>
</g>
</g>
</g>
<g id="key_29" clip-path="url(#clip57_556_11400)">
<g id="keycap_29" clip-path="url(#clip58_556_11400)">
<rect id="Q" x="438.444" y="922.512" width="146" height="147" rx="10" transform="rotate(15 438.444 922.512)" fill="#D9D9D9"/>
<g id="text left_29">
<path id="label_29" d="M495.371 1027.07C495.939 1026.52 496.496 1025.88 497.041 1025.17C497.591 1024.43 498.113 1023.55 498.606 1022.54C499.12 1021.53 499.624 1020.35 500.117 1019C500.617 1017.63 501.106 1016.05 501.587 1014.26C501.973 1012.82 502.29 1011.34 502.538 1009.84C502.806 1008.35 502.958 1006.87 502.993 1005.43C503.033 1003.96 502.945 1002.55 502.73 1001.21C502.514 999.876 502.11 998.664 501.518 997.577C500.931 996.47 500.15 995.51 499.176 994.697C498.201 993.883 496.982 993.281 495.519 992.889C494.118 992.513 492.812 992.44 491.603 992.668C490.419 992.881 489.32 993.315 488.305 993.971C487.29 994.626 486.36 995.459 485.515 996.47C484.67 997.48 483.909 998.59 483.232 999.8C482.56 1000.99 481.969 1002.24 481.461 1003.57C480.978 1004.87 480.568 1006.15 480.232 1007.41C479.79 1009.06 479.408 1010.69 479.086 1012.31C478.764 1013.92 478.556 1015.48 478.464 1016.98C478.392 1018.48 478.464 1019.9 478.679 1021.24C478.915 1022.58 479.358 1023.82 480.006 1024.94C480.681 1026.05 481.601 1027.03 482.767 1027.87C483.933 1028.71 485.42 1029.39 487.227 1029.89C487.434 1029.95 487.624 1029.98 487.8 1029.98C487.976 1029.98 488.253 1029.98 488.631 1029.97C488.344 1028.9 488.088 1027.96 487.864 1027.15C487.665 1026.32 487.424 1025.62 487.138 1025.03C486.859 1024.43 486.502 1023.94 486.068 1023.58C485.64 1023.2 485.076 1022.92 484.375 1022.73L487.144 1018.7C488.154 1018.98 489.002 1019.43 489.69 1020.08C490.404 1020.72 491.019 1021.55 491.534 1022.6C492.049 1023.64 492.51 1024.89 492.915 1026.35C493.325 1027.78 493.766 1029.43 494.236 1031.31L495.371 1027.07ZM487.825 1035.45C487.101 1035.43 486.339 1035.35 485.539 1035.2C484.76 1035.06 483.876 1034.86 482.887 1034.59C480.332 1033.91 478.26 1032.66 476.67 1030.84C475.102 1029.03 473.961 1026.86 473.248 1024.32C472.535 1021.79 472.23 1019.02 472.333 1016C472.456 1012.98 472.931 1009.93 473.76 1006.84C474.339 1004.67 475.052 1002.63 475.896 1000.72C476.747 998.78 477.715 997.019 478.803 995.433C479.917 993.832 481.13 992.435 482.444 991.241C483.778 990.052 485.212 989.111 486.745 988.418C488.284 987.704 489.921 987.281 491.657 987.15C493.398 986.998 495.217 987.176 497.112 987.684C499.894 988.429 502.192 989.663 504.005 991.386C505.818 993.109 507.165 995.17 508.046 997.571C508.927 999.971 509.355 1002.66 509.331 1005.63C509.327 1008.61 508.892 1011.72 508.025 1014.96C507.495 1016.94 506.852 1018.88 506.095 1020.8C505.344 1022.7 504.484 1024.47 503.514 1026.11C502.565 1027.75 501.495 1029.23 500.304 1030.55C499.138 1031.85 497.855 1032.88 496.456 1033.66C496.247 1033.78 496.024 1033.91 495.789 1034.04C495.56 1034.16 495.343 1034.26 495.14 1034.36C495.354 1035.13 495.567 1035.74 495.776 1036.19C495.986 1036.64 496.259 1037.03 496.595 1037.34C496.937 1037.63 497.378 1037.88 497.918 1038.09C498.463 1038.28 499.169 1038.49 500.034 1038.72L497.257 1042.78C496.226 1042.51 495.301 1042.17 494.479 1041.77C493.679 1041.38 492.948 1040.81 492.288 1040.06C491.649 1039.31 491.083 1038.33 490.591 1037.12C490.099 1035.91 489.644 1034.35 489.226 1032.45L488.959 1031.22L487.825 1035.45Z" fill="#343434"/>
</g>
</g>
</g>
<g id="key_30" clip-path="url(#clip59_556_11400)">
<g id="keycap_30" clip-path="url(#clip60_556_11400)">
<rect id="1" x="481.667" y="761.202" width="146" height="147" rx="10" transform="rotate(15 481.667 761.202)" fill="#AED3E9"/>
<g id="text left_30">
<path id="label_30" d="M515.036 869.852L516.361 864.906L527.025 867.763L535.026 837.905L538.699 831.369L532.954 835.991L524.845 840.047L522.508 835.412L540.144 826.223L544.614 828.084L533.516 869.503L544.18 872.36L542.855 877.306L515.036 869.852Z" fill="#343434"/>
</g>
</g>
</g>
<g id="key_31" clip-path="url(#clip61_556_11400)">
<g id="keycap_31" clip-path="url(#clip62_556_11400)">
<rect id="F1" x="524.89" y="599.892" width="146" height="147" rx="10" transform="rotate(15 524.89 599.892)" fill="#AED3E9"/>
<g id="text left_31">
<path id="label_31" d="M543.008 704.456L537.135 702.882L547.819 663.009L548.631 656.269L577.841 664.096L575.898 668.876L553.488 662.871L552.533 668.91L550.338 677.101L569.502 682.236L568.301 686.717L549.137 681.583L543.008 704.456ZM578.362 713.929L579.687 708.983L590.351 711.84L598.352 681.982L602.024 675.446L596.28 680.068L588.17 684.124L585.834 679.489L603.469 670.3L607.94 672.161L596.842 713.58L607.506 716.437L606.181 721.383L578.362 713.929Z" fill="#343434"/>
</g>
</g>
</g>
<g id="key_32" clip-path="url(#clip63_556_11400)">
<g id="keycap_32" clip-path="url(#clip64_556_11400)">
<rect id="S1" x="568.112" y="438.583" width="146" height="147" rx="10" transform="rotate(15 568.112 438.583)" fill="#A3DE8E"/>
<g id="text left_32">
<path id="label_32" d="M580.766 538.568L584.821 534.685C585.161 535.063 585.614 535.516 586.18 536.043C586.771 536.555 587.438 537.076 588.179 537.606C588.921 538.136 589.727 538.628 590.599 539.082C591.472 539.537 592.382 539.891 593.329 540.145C594.607 540.487 595.926 540.675 597.286 540.708C598.673 540.727 599.97 540.544 601.177 540.161C602.41 539.762 603.484 539.133 604.399 538.274C605.334 537.421 605.992 536.283 606.373 534.861C606.732 533.522 606.738 532.264 606.39 531.089C606.043 529.914 605.472 528.789 604.677 527.715C603.883 526.64 602.925 525.6 601.803 524.592C600.682 523.585 599.53 522.57 598.346 521.546C597.183 520.527 596.047 519.494 594.936 518.446C593.831 517.377 592.896 516.253 592.129 515.076C591.362 513.899 590.824 512.65 590.515 511.331C590.206 510.011 590.259 508.579 590.673 507.033C591.208 505.034 592.1 503.396 593.348 502.118C594.596 500.84 596.035 499.879 597.666 499.233C599.296 498.588 601.046 498.24 602.915 498.188C604.784 498.137 606.605 498.349 608.377 498.824C612.766 500 616.484 502.321 619.531 505.788L615.514 508.786C614.333 507.587 613.146 506.617 611.953 505.878C610.78 505.144 609.401 504.564 607.814 504.139C606.701 503.841 605.548 503.653 604.354 503.576C603.18 503.505 602.071 503.605 601.026 503.877C600.008 504.135 599.1 504.598 598.302 505.268C597.53 505.922 596.987 506.837 596.672 508.011C596.363 509.165 596.404 510.247 596.796 511.258C597.208 512.274 597.828 513.257 598.656 514.208C599.51 515.143 600.505 516.084 601.644 517.029C602.787 517.954 603.953 518.918 605.142 519.921C606.357 520.909 607.512 521.959 608.606 523.069C609.705 524.159 610.622 525.354 611.355 526.655C612.115 527.941 612.619 529.357 612.867 530.903C613.142 532.434 613.03 534.127 612.533 535.982C611.915 538.289 610.9 540.182 609.488 541.659C608.103 543.121 606.482 544.222 604.628 544.961C602.799 545.686 600.819 546.072 598.686 546.119C596.553 546.166 594.456 545.913 592.396 545.361C591.077 545.008 589.873 544.597 588.784 544.128C587.689 543.68 586.665 543.174 585.712 542.61C584.78 542.05 583.905 541.441 583.088 540.78C582.277 540.099 581.503 539.361 580.766 538.568ZM621.585 552.619L622.91 547.674L633.574 550.531L641.574 520.672L645.247 514.136L639.503 518.759L631.393 522.814L629.057 518.18L646.692 508.991L651.163 510.851L640.065 552.27L650.728 555.128L649.403 560.073L621.585 552.619Z" fill="#343434"/>
</g>
</g>
</g>
<g id="key_33" clip-path="url(#clip65_556_11400)">
<g id="keycap_33" clip-path="url(#clip66_556_11400)">
<rect id="TAB" x="267.475" y="876.701" width="146" height="147" rx="10" transform="rotate(15 267.475 876.701)" fill="#AED3E9"/>
<g id="text left_33">
<path id="label_33" d="M270.919 977.332L282.017 935.913L268.88 932.393L270.206 927.448L302.197 936.02L300.872 940.965L287.89 937.487L276.792 978.906L270.919 977.332ZM294.96 983.774L320.316 947.5L323.054 941.608L328.722 942.464L333.071 993.986L326.889 992.329L326.042 977.194L309.505 972.763L300.647 985.298L294.96 983.774ZM325.503 945.577L321.461 955.096L312.262 968.533L325.77 972.152L324.243 955.841L325.503 945.577ZM340.668 996.021L351.352 956.148L352.082 949.718C353.362 949.884 354.668 950.079 355.999 950.303C357.351 950.533 358.697 950.828 360.036 951.186C362.427 951.827 364.662 952.592 366.743 953.48C368.83 954.349 370.582 955.392 372 956.612C373.439 957.836 374.457 959.269 375.056 960.909C375.66 962.529 375.678 964.4 375.109 966.522C374.507 968.768 373.504 970.575 372.099 971.944C370.694 973.312 368.98 974.189 366.955 974.574L361.831 974.659L366.258 976.309C367.416 977.017 368.471 977.818 369.424 978.714C370.382 979.589 371.15 980.557 371.727 981.617C372.325 982.683 372.706 983.856 372.871 985.137C373.036 986.418 372.916 987.811 372.513 989.315C372.044 991.066 371.387 992.569 370.543 993.823C369.72 995.082 368.766 996.129 367.681 996.965C366.595 997.8 365.415 998.456 364.139 998.931C362.869 999.386 361.552 999.685 360.189 999.827C358.851 999.955 357.493 999.955 356.113 999.828C354.739 999.681 353.403 999.434 352.105 999.086L340.668 996.021ZM347.712 992.608L351.112 993.519C353.152 994.066 355.004 994.407 356.668 994.544C358.358 994.666 359.84 994.533 361.115 994.145C362.415 993.743 363.506 993.052 364.386 992.073C365.273 991.074 365.945 989.719 366.403 988.009C366.817 986.463 366.903 985.073 366.66 983.837C366.416 982.601 365.894 981.501 365.093 980.535C364.312 979.575 363.273 978.755 361.975 978.076C360.683 977.377 359.202 976.803 357.533 976.356L352.433 974.989L347.712 992.608ZM355.886 962.1L353.716 970.199L356.962 971.068C358.236 971.343 359.524 971.479 360.828 971.475C362.153 971.476 363.375 971.285 364.494 970.9C365.639 970.5 366.633 969.883 367.475 969.048C368.343 968.199 368.965 967.073 369.34 965.672C369.705 964.312 369.686 963.103 369.285 962.046C368.91 960.974 368.297 960.048 367.445 959.267C366.594 958.487 365.578 957.828 364.397 957.291C363.237 956.759 362.069 956.336 360.894 956.021C360.194 955.833 359.454 955.668 358.675 955.526C357.922 955.368 357.21 955.266 356.538 955.218L355.886 962.1Z" fill="#343434"/>
</g>
</g>
</g>
<g id="key_34" clip-path="url(#clip67_556_11400)">
<g id="keycap_34" clip-path="url(#clip68_556_11400)">
<rect id="`" x="310.698" y="715.391" width="146" height="147" rx="10" transform="rotate(15 310.698 715.391)" fill="#AED3E9"/>
<g id="text left_34">
<path id="label_34" d="M373.232 792.101L368.595 790.859L364.125 779.722L370.597 780.794L373.232 792.101Z" fill="#343434"/>
</g>
</g>
</g>
<g id="key_35" clip-path="url(#clip69_556_11400)">
<g id="keycap_35" clip-path="url(#clip70_556_11400)">
<rect id="L_N" x="139.729" y="669.58" width="146" height="147" rx="10" transform="rotate(15 139.729 669.58)" fill="#A3DE8E"/>
<g id="text left_35">
<path id="label_35" d="M139.182 763.841L161.746 769.887L159.802 774.667L131.829 767.172L134.104 761.156L143.131 727.464L143.943 720.725L150.754 721.887L140.981 758.36L139.182 763.841ZM166.831 786.489L200.832 795.6L199.548 800.391L165.547 791.28L166.831 786.489ZM235.641 794.988L228.192 761.586L226.698 747.504L226.504 747.485L224.869 761.623L217.25 790.06L211.686 788.569L222.37 748.696L223.182 741.957L229.56 743.003L236.916 776.877L238.593 791.141L238.787 791.16L239.981 776.936L247.601 748.499L253.33 749.372L240.741 796.355L235.641 794.988Z" fill="#343434"/>
</g>
</g>
</g>
<g id="key_36" clip-path="url(#clip71_556_11400)">
<g id="keycap_36" clip-path="url(#clip72_556_11400)">
<rect id="ESC" x="353.921" y="554.082" width="146" height="147" rx="10" transform="rotate(15 353.921 554.082)" fill="#AED3E9"/>
<g id="text left_36">
<path id="label_36" d="M376.617 654.571L374.674 659.351L346.237 651.731L348.357 645.674L357.385 611.982L358.197 605.243L386.634 612.862L385.309 617.808L362.899 611.803L361.944 617.842L359.749 626.033L379.377 631.292L378.176 635.774L358.548 630.515L355.235 642.878L353.435 648.359L376.617 654.571ZM387.161 659.583L391.216 655.7C391.556 656.078 392.009 656.531 392.575 657.058C393.166 657.57 393.833 658.091 394.574 658.621C395.316 659.15 396.122 659.643 396.994 660.097C397.867 660.552 398.777 660.906 399.724 661.16C401.002 661.502 402.321 661.69 403.681 661.723C405.068 661.742 406.365 661.559 407.572 661.176C408.805 660.777 409.879 660.148 410.794 659.289C411.729 658.436 412.388 657.298 412.769 655.876C413.127 654.537 413.133 653.279 412.785 652.104C412.438 650.929 411.867 649.804 411.072 648.73C410.278 647.655 409.32 646.615 408.199 645.607C407.077 644.6 405.925 643.585 404.741 642.561C403.579 641.542 402.442 640.509 401.331 639.461C400.226 638.391 399.291 637.268 398.524 636.091C397.757 634.914 397.219 633.665 396.91 632.346C396.601 631.026 396.654 629.594 397.068 628.048C397.603 626.049 398.495 624.411 399.743 623.133C400.991 621.855 402.43 620.894 404.061 620.248C405.691 619.603 407.441 619.255 409.31 619.203C411.179 619.152 413 619.364 414.772 619.839C419.161 621.015 422.879 623.336 425.926 626.803L421.909 629.801C420.728 628.601 419.541 627.632 418.348 626.893C417.175 626.159 415.796 625.579 414.209 625.154C413.096 624.856 411.943 624.668 410.749 624.591C409.575 624.52 408.466 624.62 407.421 624.892C406.403 625.15 405.495 625.613 404.697 626.283C403.925 626.937 403.382 627.852 403.067 629.026C402.758 630.18 402.799 631.262 403.191 632.273C403.604 633.289 404.223 634.272 405.051 635.223C405.905 636.158 406.9 637.099 408.039 638.044C409.182 638.969 410.348 639.933 411.537 640.936C412.752 641.924 413.907 642.974 415.001 644.084C416.1 645.174 417.017 646.369 417.75 647.67C418.51 648.956 419.014 650.372 419.262 651.918C419.537 653.449 419.425 655.142 418.928 656.997C418.31 659.304 417.295 661.197 415.883 662.674C414.498 664.136 412.878 665.237 411.023 665.976C409.194 666.701 407.214 667.087 405.081 667.134C402.948 667.181 400.851 666.928 398.791 666.376C397.472 666.023 396.268 665.612 395.179 665.143C394.084 664.695 393.06 664.189 392.107 663.624C391.175 663.065 390.3 662.456 389.483 661.795C388.672 661.114 387.898 660.376 387.161 659.583ZM456.938 677.948C455.911 678.402 454.901 678.749 453.909 678.992C452.916 679.234 451.905 679.382 450.874 679.437C449.849 679.472 448.794 679.41 447.71 679.252C446.62 679.115 445.468 678.883 444.252 678.557C442.274 678.027 440.466 677.234 438.827 676.176C437.195 675.098 435.746 673.827 434.483 672.362C433.245 670.882 432.207 669.234 431.368 667.419C430.529 665.604 429.917 663.684 429.532 661.66C429.152 659.614 429.001 657.498 429.08 655.31C429.158 653.123 429.495 650.916 430.091 648.691C430.925 645.579 432.158 642.751 433.789 640.207C435.426 637.642 437.402 635.543 439.717 633.91C442.037 632.257 444.651 631.158 447.558 630.611C450.486 630.071 453.649 630.256 457.05 631.167C459.419 631.802 461.45 632.755 463.141 634.025C464.859 635.28 466.269 636.818 467.372 638.637L463.704 641.199C463.298 640.737 462.855 640.287 462.376 639.849C461.902 639.391 461.356 638.958 460.737 638.549C460.138 638.145 459.453 637.774 458.683 637.435C457.938 637.081 457.092 636.777 456.144 636.523C453.63 635.849 451.309 635.735 449.18 636.181C447.071 636.632 445.181 637.506 443.508 638.802C441.841 640.078 440.408 641.715 439.21 643.713C438.039 645.696 437.13 647.893 436.484 650.304C436.081 651.808 435.829 653.364 435.73 654.972C435.63 656.58 435.679 658.172 435.875 659.748C436.091 661.33 436.467 662.855 437.001 664.324C437.535 665.792 438.234 667.139 439.098 668.364C439.983 669.595 441.034 670.661 442.251 671.561C443.473 672.441 444.877 673.093 446.464 673.518C447.391 673.767 448.216 673.943 448.939 674.049C449.661 674.154 450.357 674.197 451.024 674.177C451.713 674.163 452.415 674.097 453.131 673.98C453.853 673.842 454.676 673.654 455.601 673.416L456.938 677.948Z" fill="#343434"/>
</g>
</g>
</g>
<g id="key_37" clip-path="url(#clip73_556_11400)">
<g id="keycap_37" clip-path="url(#clip74_556_11400)">
<rect id="L_F" x="182.952" y="508.271" width="146" height="147" rx="10" transform="rotate(15 182.952 508.271)" fill="#A3DE8E"/>
<g id="text left_37">
<path id="label_37" d="M182.405 602.532L204.969 608.578L203.025 613.358L175.052 605.862L177.327 599.846L186.354 566.154L187.166 559.415L193.978 560.577L184.205 597.051L182.405 602.532ZM210.054 625.18L244.055 634.29L242.771 639.081L208.77 629.971L210.054 625.18ZM261.864 629.123L255.991 627.55L266.675 587.676L267.487 580.937L296.697 588.764L294.753 593.543L272.344 587.539L271.388 593.577L269.194 601.768L288.357 606.903L287.157 611.385L267.993 606.25L261.864 629.123Z" fill="#343434"/>
</g>
</g>
</g>
<g id="key_38" clip-path="url(#clip75_556_11400)">
<g id="keycap_38" clip-path="url(#clip76_556_11400)">
<rect id="S0" x="397.144" y="392.772" width="146" height="147" rx="10" transform="rotate(15 397.144 392.772)" fill="#A3DE8E"/>
<g id="text left_38">
<path id="label_38" d="M409.797 492.757L413.852 488.874C414.192 489.252 414.645 489.705 415.211 490.232C415.802 490.744 416.469 491.265 417.21 491.795C417.952 492.324 418.759 492.817 419.631 493.271C420.503 493.726 421.413 494.08 422.361 494.334C423.638 494.676 424.957 494.864 426.318 494.897C427.704 494.916 429.001 494.733 430.208 494.35C431.441 493.951 432.515 493.322 433.43 492.463C434.365 491.61 435.024 490.472 435.405 489.05C435.764 487.711 435.769 486.453 435.422 485.278C435.074 484.103 434.503 482.978 433.709 481.904C432.914 480.829 431.956 479.789 430.835 478.781C429.713 477.774 428.561 476.759 427.377 475.735C426.215 474.716 425.078 473.683 423.968 472.635C422.863 471.565 421.927 470.442 421.16 469.265C420.393 468.088 419.855 466.839 419.546 465.52C419.237 464.2 419.29 462.768 419.704 461.222C420.24 459.223 421.131 457.585 422.379 456.307C423.627 455.029 425.067 454.068 426.697 453.422C428.328 452.777 430.077 452.429 431.946 452.377C433.815 452.326 435.636 452.538 437.408 453.013C441.797 454.189 445.515 456.51 448.562 459.977L444.545 462.975C443.364 461.775 442.178 460.806 440.984 460.067C439.812 459.333 438.432 458.753 436.845 458.328C435.732 458.03 434.579 457.842 433.385 457.765C432.211 457.694 431.102 457.794 430.058 458.066C429.039 458.324 428.131 458.787 427.333 459.457C426.561 460.111 426.018 461.026 425.703 462.2C425.394 463.354 425.435 464.436 425.827 465.447C426.24 466.463 426.86 467.446 427.687 468.397C428.541 469.332 429.537 470.273 430.675 471.218C431.818 472.143 432.985 473.107 434.173 474.11C435.388 475.098 436.543 476.148 437.637 477.258C438.736 478.348 439.653 479.543 440.386 480.844C441.146 482.13 441.65 483.546 441.898 485.092C442.173 486.623 442.062 488.316 441.565 490.171C440.946 492.478 439.931 494.371 438.519 495.848C437.134 497.31 435.514 498.411 433.659 499.15C431.831 499.875 429.85 500.261 427.717 500.308C425.584 500.355 423.487 500.102 421.427 499.55C420.108 499.197 418.904 498.786 417.815 498.317C416.72 497.869 415.696 497.363 414.743 496.798C413.811 496.239 412.936 495.63 412.119 494.969C411.308 494.288 410.534 493.55 409.797 492.757ZM463.241 510.754C461.489 510.285 459.97 509.524 458.684 508.473C457.403 507.401 456.33 506.131 455.465 504.662C454.62 503.199 453.961 501.576 453.49 499.793C453.038 498.015 452.748 496.171 452.62 494.259C452.518 492.332 452.574 490.393 452.788 488.44C453.002 486.488 453.349 484.615 453.829 482.822C454.326 480.968 454.952 479.126 455.708 477.296C456.463 475.467 457.343 473.748 458.348 472.14C459.353 470.532 460.472 469.076 461.705 467.772C462.964 466.453 464.322 465.381 465.78 464.557C467.258 463.739 468.838 463.201 470.519 462.945C472.22 462.694 474.029 462.825 475.946 463.339C477.697 463.808 479.213 464.579 480.494 465.651C481.781 466.702 482.846 467.959 483.691 469.423C484.556 470.891 485.215 472.514 485.666 474.292C486.138 476.075 486.425 477.929 486.527 479.856C486.655 481.768 486.613 483.7 486.399 485.652C486.185 487.605 485.838 489.478 485.357 491.27C484.86 493.125 484.234 494.967 483.479 496.796C482.724 498.626 481.843 500.345 480.838 501.953C479.833 503.561 478.701 505.024 477.442 506.343C476.209 507.647 474.854 508.709 473.376 509.527C471.918 510.352 470.338 510.889 468.637 511.14C466.935 511.391 465.137 511.262 463.241 510.754ZM460.584 483.208C460.264 484.403 459.951 485.733 459.647 487.197C459.349 488.641 459.127 490.128 458.982 491.657C458.843 493.166 458.808 494.658 458.876 496.134C458.965 497.616 459.216 498.986 459.63 500.245C460.069 501.49 460.708 502.566 461.547 503.476C462.406 504.391 463.536 505.036 464.937 505.411C466.194 505.748 467.35 505.804 468.404 505.578C469.485 505.338 470.475 504.896 471.376 504.254C472.283 503.592 473.099 502.772 473.824 501.796C474.555 500.799 475.212 499.705 475.796 498.515C476.401 497.329 476.934 496.081 477.396 494.769C477.858 493.457 478.26 492.163 478.603 490.885C478.923 489.69 479.232 488.37 479.531 486.926C479.835 485.462 480.057 483.975 480.196 482.467C480.335 480.958 480.36 479.463 480.271 477.981C480.209 476.485 479.957 475.114 479.518 473.87C479.099 472.631 478.46 471.555 477.6 470.64C476.762 469.73 475.642 469.088 474.241 468.713C472.984 468.376 471.815 468.328 470.735 468.568C469.68 468.794 468.703 469.227 467.802 469.869C466.901 470.512 466.085 471.331 465.354 472.328C464.623 473.325 463.956 474.416 463.351 475.601C462.767 476.791 462.244 478.043 461.782 479.355C461.325 480.646 460.926 481.93 460.584 483.208Z" fill="#343434"/>
</g>
</g>
</g>
<g id="key_39" clip-path="url(#clip77_556_11400)">
<g id="keycap_39" clip-path="url(#clip78_556_11400)">
<rect id="L_S" x="226.175" y="346.961" width="146" height="147" rx="10" transform="rotate(15 226.175 346.961)" fill="#A3DE8E"/>
<g id="text left_39">
<path id="label_39" d="M225.627 441.222L248.191 447.268L246.248 452.048L218.275 444.553L220.549 438.536L229.577 404.845L230.389 398.105L237.2 399.268L227.427 435.741L225.627 441.222ZM253.277 463.87L287.277 472.981L285.994 477.771L251.993 468.661L253.277 463.87ZM299.621 463.235L303.676 459.353C304.017 459.731 304.47 460.183 305.035 460.71C305.627 461.222 306.293 461.743 307.035 462.273C307.776 462.803 308.583 463.295 309.455 463.75C310.327 464.205 311.237 464.559 312.185 464.813C313.463 465.155 314.782 465.343 316.142 465.376C317.529 465.394 318.825 465.212 320.032 464.828C321.266 464.43 322.34 463.801 323.254 462.942C324.19 462.088 324.848 460.951 325.229 459.529C325.588 458.189 325.594 456.932 325.246 455.757C324.898 454.581 324.327 453.456 323.533 452.382C322.739 451.308 321.781 450.267 320.659 449.26C319.538 448.253 318.385 447.237 317.202 446.213C316.039 445.195 314.902 444.162 313.792 443.113C312.687 442.044 311.751 440.921 310.984 439.744C310.218 438.567 309.68 437.318 309.371 435.999C309.062 434.679 309.114 433.246 309.528 431.701C310.064 429.702 310.956 428.064 312.204 426.786C313.452 425.508 314.891 424.546 316.521 423.901C318.152 423.256 319.902 422.907 321.771 422.856C323.64 422.805 325.46 423.017 327.233 423.491C331.622 424.667 335.34 426.989 338.386 430.455L334.369 433.454C333.189 432.254 332.002 431.285 330.809 430.545C329.636 429.811 328.256 429.232 326.67 428.807C325.557 428.509 324.403 428.321 323.209 428.244C322.036 428.173 320.927 428.273 319.882 428.545C318.863 428.802 317.955 429.266 317.157 429.935C316.386 430.59 315.842 431.504 315.528 432.679C315.219 433.833 315.26 434.915 315.652 435.926C316.064 436.942 316.684 437.925 317.512 438.876C318.365 439.811 319.361 440.752 320.499 441.697C321.643 442.622 322.809 443.586 323.998 444.589C325.213 445.577 326.367 446.626 327.461 447.737C328.561 448.826 329.477 450.022 330.211 451.323C330.971 452.608 331.475 454.024 331.723 455.571C331.997 457.102 331.886 458.795 331.389 460.649C330.771 462.957 329.756 464.85 328.344 466.327C326.958 467.788 325.338 468.889 323.483 469.629C321.655 470.354 319.674 470.74 317.541 470.787C315.409 470.834 313.312 470.581 311.251 470.029C309.932 469.675 308.728 469.264 307.639 468.796C306.544 468.348 305.521 467.842 304.568 467.277C303.635 466.718 302.761 466.108 301.944 465.448C301.132 464.767 300.358 464.029 299.621 463.235Z" fill="#343434"/>
</g>
</g>
</g>
</g>
</g>
<defs>
<clipPath id="clip0_556_11400">
<rect width="2360" height="1640" fill="white"/>
</clipPath>
<clipPath id="clip1_556_11400">
<rect width="177" height="167" fill="white" transform="translate(339.599 1230.74) rotate(15)"/>
</clipPath>
<clipPath id="clip2_556_11400">
<rect width="145.512" height="146.512" fill="white" transform="translate(351.999 1245.13) rotate(15)"/>
</clipPath>
<clipPath id="clip3_556_11400">
<rect width="177" height="167" fill="white" transform="translate(520.921 1237.92) rotate(15)"/>
</clipPath>
<clipPath id="clip4_556_11400">
<rect width="145.512" height="146.512" fill="white" transform="translate(533.32 1252.3) rotate(15)"/>
</clipPath>
<clipPath id="clip5_556_11400">
<rect width="177" height="167" fill="white" transform="translate(564.144 1076.61) rotate(15)"/>
</clipPath>
<clipPath id="clip6_556_11400">
<rect width="145.512" height="146.512" fill="white" transform="translate(576.543 1091) rotate(15)"/>
</clipPath>
<clipPath id="clip7_556_11400">
<rect width="177" height="167" fill="white" transform="translate(607.366 915.297) rotate(15)"/>
</clipPath>
<clipPath id="clip8_556_11400">
<rect width="145.512" height="146.512" fill="white" transform="translate(619.766 929.686) rotate(15)"/>
</clipPath>
<clipPath id="clip9_556_11400">
<rect width="177" height="167" fill="white" transform="translate(650.589 753.988) rotate(15)"/>
</clipPath>
<clipPath id="clip10_556_11400">
<rect width="145.512" height="146.512" fill="white" transform="translate(662.989 768.376) rotate(15)"/>
</clipPath>
<clipPath id="clip11_556_11400">
<rect width="177" height="167" fill="white" transform="translate(693.812 592.678) rotate(15)"/>
</clipPath>
<clipPath id="clip12_556_11400">
<rect width="145.512" height="146.512" fill="white" transform="translate(706.211 607.066) rotate(15)"/>
</clipPath>
<clipPath id="clip13_556_11400">
<rect width="177" height="167" fill="white" transform="translate(737.035 431.368) rotate(15)"/>
</clipPath>
<clipPath id="clip14_556_11400">
<rect width="145.512" height="146.512" fill="white" transform="translate(749.434 445.757) rotate(15)"/>
</clipPath>
<clipPath id="clip15_556_11400">
<rect width="177" height="167" fill="white" transform="translate(697.843 1261.51) rotate(15)"/>
</clipPath>
<clipPath id="clip16_556_11400">
<rect width="145.512" height="146.512" fill="white" transform="translate(710.242 1275.9) rotate(15)"/>
</clipPath>
<clipPath id="clip17_556_11400">
<rect width="177" height="167" fill="white" transform="translate(741.065 1100.2) rotate(15)"/>
</clipPath>
<clipPath id="clip18_556_11400">
<rect width="145.512" height="146.512" fill="white" transform="translate(753.465 1114.59) rotate(15)"/>
</clipPath>
<clipPath id="clip19_556_11400">
<rect width="177" height="167" fill="white" transform="translate(784.288 938.892) rotate(15)"/>
</clipPath>
<clipPath id="clip20_556_11400">
<rect width="145.512" height="146.512" fill="white" transform="translate(796.688 953.28) rotate(15)"/>
</clipPath>
<clipPath id="clip21_556_11400">
<rect width="177" height="167" fill="white" transform="translate(827.898 777.686) rotate(15)"/>
</clipPath>
<clipPath id="clip22_556_11400">
<rect width="145.512" height="146.512" fill="white" transform="translate(840.298 792.074) rotate(15)"/>
</clipPath>
<clipPath id="clip23_556_11400">
<rect width="177" height="167" fill="white" transform="translate(871.122 616.376) rotate(15)"/>
</clipPath>
<clipPath id="clip24_556_11400">
<rect width="145.512" height="146.512" fill="white" transform="translate(883.521 630.765) rotate(15)"/>
</clipPath>
<clipPath id="clip25_556_11400">
<rect width="177" height="167" fill="white" transform="translate(914.344 455.067) rotate(15)"/>
</clipPath>
<clipPath id="clip26_556_11400">
<rect width="145.512" height="146.512" fill="white" transform="translate(926.744 469.455) rotate(15)"/>
</clipPath>
<clipPath id="clip27_556_11400">
<rect width="177" height="167" fill="white" transform="translate(862.858 1329.54) rotate(15)"/>
</clipPath>
<clipPath id="clip28_556_11400">
<rect width="145.512" height="146.512" fill="white" transform="translate(875.258 1343.93) rotate(15)"/>
</clipPath>
<clipPath id="clip29_556_11400">
<rect width="177" height="167" fill="white" transform="translate(906.082 1168.23) rotate(15)"/>
</clipPath>
<clipPath id="clip30_556_11400">
<rect width="145.512" height="146.512" fill="white" transform="translate(918.481 1182.62) rotate(15)"/>
</clipPath>
<clipPath id="clip31_556_11400">
<rect width="177" height="167" fill="white" transform="translate(949.304 1006.92) rotate(15)"/>
</clipPath>
<clipPath id="clip32_556_11400">
<rect width="145.512" height="146.512" fill="white" transform="translate(961.704 1021.31) rotate(15)"/>
</clipPath>
<clipPath id="clip33_556_11400">
<rect width="177" height="167" fill="white" transform="translate(992.527 845.609) rotate(15)"/>
</clipPath>
<clipPath id="clip34_556_11400">
<rect width="145.512" height="146.512" fill="white" transform="translate(1004.93 859.998) rotate(15)"/>
</clipPath>
<clipPath id="clip35_556_11400">
<rect width="177" height="167" fill="white" transform="translate(1035.75 684.3) rotate(15)"/>
</clipPath>
<clipPath id="clip36_556_11400">
<rect width="145.512" height="146.512" fill="white" transform="translate(1048.15 698.688) rotate(15)"/>
</clipPath>
<clipPath id="clip37_556_11400">
<rect width="177" height="167" fill="white" transform="translate(1078.97 522.99) rotate(15)"/>
</clipPath>
<clipPath id="clip38_556_11400">
<rect width="145.512" height="146.512" fill="white" transform="translate(1091.37 537.379) rotate(15)"/>
</clipPath>
<clipPath id="clip39_556_11400">
<rect width="177" height="167" fill="white" transform="translate(1028.39 1395.63) rotate(15)"/>
</clipPath>
<clipPath id="clip40_556_11400">
<rect width="145.512" height="146.512" fill="white" transform="translate(1040.79 1410.02) rotate(15)"/>
</clipPath>
<clipPath id="clip41_556_11400">
<rect width="177" height="167" fill="white" transform="translate(1071.62 1234.32) rotate(15)"/>
</clipPath>
<clipPath id="clip42_556_11400">
<rect width="145.512" height="146.512" fill="white" transform="translate(1084.01 1248.71) rotate(15)"/>
</clipPath>
<clipPath id="clip43_556_11400">
<rect width="177" height="167" fill="white" transform="translate(1114.84 1073.01) rotate(15)"/>
</clipPath>
<clipPath id="clip44_556_11400">
<rect width="145.512" height="146.512" fill="white" transform="translate(1127.24 1087.4) rotate(15)"/>
</clipPath>
<clipPath id="clip45_556_11400">
<rect width="177" height="167" fill="white" transform="translate(1158.06 911.705) rotate(15)"/>
</clipPath>
<clipPath id="clip46_556_11400">
<rect width="145.512" height="146.512" fill="white" transform="translate(1170.46 926.093) rotate(15)"/>
</clipPath>
<clipPath id="clip47_556_11400">
<rect width="177" height="167" fill="white" transform="translate(1201.28 750.395) rotate(15)"/>
</clipPath>
<clipPath id="clip48_556_11400">
<rect width="145.512" height="146.512" fill="white" transform="translate(1213.68 764.784) rotate(15)"/>
</clipPath>
<clipPath id="clip49_556_11400">
<rect width="177" height="167" fill="white" transform="translate(1244.51 589.086) rotate(15)"/>
</clipPath>
<clipPath id="clip50_556_11400">
<rect width="145.512" height="146.512" fill="white" transform="translate(1256.91 603.474) rotate(15)"/>
</clipPath>
<clipPath id="clip51_556_11400">
<rect width="177" height="167" fill="white" transform="translate(168.63 1184.93) rotate(15)"/>
</clipPath>
<clipPath id="clip52_556_11400">
<rect width="145.512" height="146.512" fill="white" transform="translate(181.03 1199.32) rotate(15)"/>
</clipPath>
<clipPath id="clip53_556_11400">
<rect width="177" height="167" fill="white" transform="translate(211.853 1023.62) rotate(15)"/>
</clipPath>
<clipPath id="clip54_556_11400">
<rect width="145.512" height="146.512" fill="white" transform="translate(224.252 1038.01) rotate(15)"/>
</clipPath>
<clipPath id="clip55_556_11400">
<rect width="177" height="167" fill="white" transform="translate(382.822 1069.43) rotate(15)"/>
</clipPath>
<clipPath id="clip56_556_11400">
<rect width="145.512" height="146.512" fill="white" transform="translate(395.221 1083.82) rotate(15)"/>
</clipPath>
<clipPath id="clip57_556_11400">
<rect width="177" height="167" fill="white" transform="translate(426.045 908.123) rotate(15)"/>
</clipPath>
<clipPath id="clip58_556_11400">
<rect width="145.512" height="146.512" fill="white" transform="translate(438.444 922.512) rotate(15)"/>
</clipPath>
<clipPath id="clip59_556_11400">
<rect width="177" height="167" fill="white" transform="translate(469.268 746.813) rotate(15)"/>
</clipPath>
<clipPath id="clip60_556_11400">
<rect width="145.512" height="146.512" fill="white" transform="translate(481.667 761.202) rotate(15)"/>
</clipPath>
<clipPath id="clip61_556_11400">
<rect width="177" height="167" fill="white" transform="translate(512.49 585.504) rotate(15)"/>
</clipPath>
<clipPath id="clip62_556_11400">
<rect width="145.512" height="146.512" fill="white" transform="translate(524.89 599.892) rotate(15)"/>
</clipPath>
<clipPath id="clip63_556_11400">
<rect width="177" height="167" fill="white" transform="translate(555.713 424.194) rotate(15)"/>
</clipPath>
<clipPath id="clip64_556_11400">
<rect width="145.512" height="146.512" fill="white" transform="translate(568.112 438.583) rotate(15)"/>
</clipPath>
<clipPath id="clip65_556_11400">
<rect width="177" height="167" fill="white" transform="translate(255.076 862.312) rotate(15)"/>
</clipPath>
<clipPath id="clip66_556_11400">
<rect width="145.512" height="146.512" fill="white" transform="translate(267.475 876.701) rotate(15)"/>
</clipPath>
<clipPath id="clip67_556_11400">
<rect width="177" height="167" fill="white" transform="translate(298.299 701.003) rotate(15)"/>
</clipPath>
<clipPath id="clip68_556_11400">
<rect width="145.512" height="146.512" fill="white" transform="translate(310.698 715.391) rotate(15)"/>
</clipPath>
<clipPath id="clip69_556_11400">
<rect width="177" height="167" fill="white" transform="translate(127.33 655.192) rotate(15)"/>
</clipPath>
<clipPath id="clip70_556_11400">
<rect width="145.512" height="146.512" fill="white" transform="translate(139.729 669.58) rotate(15)"/>
</clipPath>
<clipPath id="clip71_556_11400">
<rect width="177" height="167" fill="white" transform="translate(341.521 539.693) rotate(15)"/>
</clipPath>
<clipPath id="clip72_556_11400">
<rect width="145.512" height="146.512" fill="white" transform="translate(353.921 554.082) rotate(15)"/>
</clipPath>
<clipPath id="clip73_556_11400">
<rect width="177" height="167" fill="white" transform="translate(170.553 493.882) rotate(15)"/>
</clipPath>
<clipPath id="clip74_556_11400">
<rect width="145.512" height="146.512" fill="white" transform="translate(182.952 508.271) rotate(15)"/>
</clipPath>
<clipPath id="clip75_556_11400">
<rect width="177" height="167" fill="white" transform="translate(384.744 378.383) rotate(15)"/>
</clipPath>
<clipPath id="clip76_556_11400">
<rect width="145.512" height="146.512" fill="white" transform="translate(397.144 392.772) rotate(15)"/>
</clipPath>
<clipPath id="clip77_556_11400">
<rect width="177" height="167" fill="white" transform="translate(213.775 332.573) rotate(15)"/>
</clipPath>
<clipPath id="clip78_556_11400">
<rect width="145.512" height="146.512" fill="white" transform="translate(226.175 346.961) rotate(15)"/>
</clipPath>
</defs>
</svg>
