<svg width="2414" height="1775" viewBox="0 0 2414 1775" fill="none" xmlns="http://www.w3.org/2000/svg">
<g clip-path="url(#clip0_556_11400)">
<rect width="2413" height="1775" transform="translate(0.75)" fill="white"/>
<g clip-path="url(#clip1_556_11400)">
<rect x="53.9631" y="1199.83" width="145.512" height="146.512" rx="10" transform="rotate(15 53.9631 1199.83)" fill="#D4D4D4"/>
<path d="M107.667 1309.17L115.357 1320.68L112.191 1322.35L104.537 1310.95L107.667 1309.17ZM123.851 1291.15L122.589 1295.86C121.764 1298.94 120.615 1301.62 119.142 1303.9C117.674 1306.16 115.958 1307.98 113.994 1309.35C112.03 1310.72 109.865 1311.59 107.499 1311.97C105.153 1312.36 102.682 1312.2 100.086 1311.51C97.53 1310.82 95.3224 1309.73 93.4628 1308.21C91.6234 1306.71 90.1763 1304.86 89.1214 1302.68C88.0866 1300.51 87.4883 1298.07 87.3265 1295.38C87.1902 1292.66 87.5345 1289.77 88.3595 1286.69L89.6212 1281.98C90.4462 1278.9 91.5928 1276.23 93.0609 1273.97C94.5546 1271.7 96.2933 1269.88 98.2771 1268.51C100.261 1267.15 102.426 1266.27 104.772 1265.89C107.118 1265.5 109.569 1265.65 112.125 1266.34C114.721 1267.03 116.939 1268.13 118.778 1269.64C120.638 1271.15 122.085 1272.99 123.12 1275.17C124.154 1277.34 124.74 1279.79 124.876 1282.5C125.018 1285.19 124.676 1288.07 123.851 1291.15ZM118.907 1294.88L120.185 1290.11C120.88 1287.51 121.204 1285.1 121.156 1282.86C121.107 1280.63 120.696 1278.62 119.923 1276.84C119.169 1275.06 118.063 1273.56 116.603 1272.32C115.163 1271.1 113.377 1270.2 111.243 1269.63C109.171 1269.07 107.204 1268.96 105.344 1269.31C103.483 1269.65 101.773 1270.4 100.212 1271.55C98.6512 1272.71 97.2812 1274.24 96.102 1276.15C94.9429 1278.06 94.0156 1280.31 93.32 1282.91L92.0421 1287.68C91.3411 1290.29 91.0221 1292.73 91.0852 1294.99C91.1536 1297.23 91.5719 1299.25 92.3401 1301.05C93.1136 1302.84 94.2203 1304.34 95.6601 1305.57C97.1201 1306.8 98.8864 1307.69 100.959 1308.25C103.092 1308.82 105.089 1308.93 106.949 1308.59C108.83 1308.25 110.541 1307.51 112.081 1306.34C113.627 1305.16 114.97 1303.61 116.109 1301.7C117.273 1299.77 118.206 1297.49 118.907 1294.88Z" fill="black"/>
</g>
<g clip-path="url(#clip2_556_11400)">
<rect x="97.8928" y="1039.74" width="145.512" height="146.512" rx="10" transform="rotate(15 97.8928 1039.74)" fill="#D4D4D4"/>
<path d="M151.597 1149.09L159.287 1160.6L156.121 1162.27L148.467 1150.87L151.597 1149.09ZM167.781 1131.07L166.519 1135.78C165.694 1138.86 164.545 1141.54 163.071 1143.82C161.603 1146.07 159.887 1147.89 157.924 1149.26C155.96 1150.63 153.795 1151.51 151.429 1151.89C149.082 1152.27 146.611 1152.12 144.015 1151.42C141.46 1150.74 139.252 1149.64 137.393 1148.13C135.553 1146.62 134.106 1144.78 133.051 1142.6C132.016 1140.42 131.418 1137.99 131.256 1135.29C131.12 1132.58 131.464 1129.68 132.289 1126.61L133.551 1121.9C134.376 1118.82 135.522 1116.15 136.991 1113.89C138.484 1111.61 140.223 1109.79 142.207 1108.43C144.191 1107.06 146.356 1106.19 148.702 1105.8C151.048 1105.42 153.499 1105.57 156.055 1106.25C158.651 1106.95 160.868 1108.05 162.708 1109.55C164.567 1111.07 166.014 1112.91 167.049 1115.08C168.084 1117.26 168.669 1119.7 168.806 1122.41C168.948 1125.1 168.606 1127.99 167.781 1131.07ZM162.837 1134.79L164.114 1130.02C164.81 1127.43 165.134 1125.01 165.085 1122.78C165.037 1120.54 164.626 1118.53 163.853 1116.75C163.099 1114.98 161.992 1113.47 160.533 1112.24C159.093 1111.01 157.306 1110.11 155.173 1109.54C153.1 1108.99 151.134 1108.88 149.273 1109.22C147.413 1109.56 145.702 1110.31 144.142 1111.47C142.581 1112.63 141.211 1114.16 140.032 1116.06C138.873 1117.97 137.945 1120.23 137.25 1122.82L135.972 1127.59C135.271 1130.21 134.952 1132.65 135.015 1134.91C135.083 1137.15 135.502 1139.17 136.27 1140.97C137.043 1142.75 138.15 1144.26 139.59 1145.48C141.05 1146.71 142.816 1147.61 144.889 1148.16C147.022 1148.74 149.019 1148.85 150.879 1148.51C152.76 1148.17 154.47 1147.42 156.011 1146.26C157.557 1145.08 158.899 1143.53 160.038 1141.61C161.203 1139.68 162.136 1137.41 162.837 1134.79Z" fill="black"/>
</g>
<g clip-path="url(#clip3_556_11400)">
<rect x="141.375" y="877.469" width="145.512" height="146.512" rx="10" transform="rotate(15 141.375 877.469)" fill="#D4D4D4"/>
<path d="M195.078 986.812L202.768 998.32L199.602 999.995L191.948 988.594L195.078 986.812ZM211.262 968.793L210.001 973.502C209.176 976.581 208.026 979.26 206.553 981.54C205.085 983.799 203.369 985.615 201.405 986.987C199.441 988.359 197.276 989.235 194.91 989.614C192.564 989.999 190.093 989.844 187.497 989.148C184.941 988.464 182.733 987.365 180.874 985.853C179.035 984.347 177.587 982.503 176.533 980.322C175.498 978.147 174.899 975.711 174.738 973.015C174.601 970.304 174.946 967.409 175.771 964.33L177.032 959.621C177.857 956.542 179.004 953.873 180.472 951.614C181.966 949.34 183.704 947.519 185.688 946.153C187.672 944.786 189.837 943.911 192.183 943.525C194.53 943.14 196.981 943.29 199.536 943.975C202.132 944.671 204.35 945.772 206.189 947.278C208.049 948.79 209.496 950.634 210.531 952.809C211.565 954.984 212.151 957.428 212.287 960.139C212.429 962.829 212.087 965.714 211.262 968.793ZM206.318 972.515L207.596 967.746C208.292 965.15 208.615 962.735 208.567 960.501C208.518 958.266 208.108 956.258 207.334 954.476C206.581 952.7 205.474 951.195 204.014 949.963C202.574 948.736 200.788 947.837 198.655 947.265C196.582 946.71 194.615 946.604 192.755 946.946C190.894 947.289 189.184 948.038 187.623 949.195C186.062 950.351 184.692 951.882 183.513 953.787C182.354 955.698 181.427 957.952 180.731 960.548L179.453 965.317C178.752 967.933 178.433 970.371 178.496 972.631C178.565 974.871 178.983 976.892 179.751 978.694C180.525 980.475 181.631 981.98 183.071 983.207C184.531 984.439 186.298 985.333 188.37 985.888C190.503 986.46 192.5 986.574 194.361 986.232C196.241 985.894 197.952 985.145 199.492 983.983C201.038 982.801 202.381 981.252 203.52 979.336C204.684 977.405 205.617 975.131 206.318 972.515Z" fill="black"/>
</g>
<g clip-path="url(#clip4_556_11400)">
<rect x="226.346" y="1248.09" width="145.512" height="146.512" rx="10" transform="rotate(15 226.346 1248.09)" fill="#D4D4D4"/>
<path d="M280.05 1357.43L287.74 1368.94L284.574 1370.62L276.92 1359.21L280.05 1357.43ZM296.234 1339.41L294.972 1344.12C294.147 1347.2 292.998 1349.88 291.524 1352.16C290.056 1354.42 288.34 1356.24 286.377 1357.61C284.413 1358.98 282.248 1359.86 279.882 1360.23C277.535 1360.62 275.064 1360.46 272.468 1359.77C269.913 1359.08 267.705 1357.99 265.846 1356.47C264.006 1354.97 262.559 1353.12 261.504 1350.94C260.469 1348.77 259.871 1346.33 259.709 1343.64C259.573 1340.92 259.917 1338.03 260.742 1334.95L262.004 1330.24C262.829 1327.16 263.976 1324.49 265.444 1322.23C266.937 1319.96 268.676 1318.14 270.66 1316.77C272.644 1315.41 274.809 1314.53 277.155 1314.15C279.501 1313.76 281.952 1313.91 284.508 1314.6C287.104 1315.29 289.321 1316.39 291.161 1317.9C293.02 1319.41 294.468 1321.25 295.502 1323.43C296.537 1325.61 297.123 1328.05 297.259 1330.76C297.401 1333.45 297.059 1336.33 296.234 1339.41ZM291.29 1343.14L292.568 1338.37C293.263 1335.77 293.587 1333.36 293.538 1331.12C293.49 1328.89 293.079 1326.88 292.306 1325.1C291.552 1323.32 290.446 1321.82 288.986 1320.58C287.546 1319.36 285.759 1318.46 283.626 1317.89C281.554 1317.33 279.587 1317.22 277.727 1317.57C275.866 1317.91 274.156 1318.66 272.595 1319.82C271.034 1320.97 269.664 1322.5 268.485 1324.41C267.326 1326.32 266.398 1328.57 265.703 1331.17L264.425 1335.94C263.724 1338.55 263.405 1340.99 263.468 1343.25C263.536 1345.49 263.955 1347.51 264.723 1349.31C265.496 1351.1 266.603 1352.6 268.043 1353.83C269.503 1355.06 271.269 1355.95 273.342 1356.51C275.475 1357.08 277.472 1357.19 279.332 1356.85C281.213 1356.52 282.923 1355.77 284.464 1354.6C286.01 1353.42 287.353 1351.87 288.492 1349.96C289.656 1348.03 290.589 1345.75 291.29 1343.14Z" fill="black"/>
</g>
<g clip-path="url(#clip5_556_11400)">
<rect x="270.087" y="1084.85" width="145.512" height="146.512" rx="10" transform="rotate(15 270.087 1084.85)" fill="#D4D4D4"/>
<path d="M323.791 1194.19L331.481 1205.7L328.314 1207.37L320.661 1195.97L323.791 1194.19ZM339.975 1176.17L338.713 1180.88C337.888 1183.96 336.739 1186.64 335.265 1188.92C333.797 1191.18 332.081 1192.99 330.118 1194.37C328.154 1195.74 325.989 1196.61 323.622 1196.99C321.276 1197.38 318.805 1197.22 316.209 1196.53C313.653 1195.84 311.446 1194.74 309.586 1193.23C307.747 1191.73 306.3 1189.88 305.245 1187.7C304.21 1185.53 303.612 1183.09 303.45 1180.39C303.314 1177.68 303.658 1174.79 304.483 1171.71L305.745 1167C306.57 1163.92 307.716 1161.25 309.184 1158.99C310.678 1156.72 312.417 1154.9 314.401 1153.53C316.384 1152.17 318.549 1151.29 320.896 1150.9C323.242 1150.52 325.693 1150.67 328.249 1151.35C330.845 1152.05 333.062 1153.15 334.902 1154.66C336.761 1156.17 338.208 1158.01 339.243 1160.19C340.278 1162.36 340.863 1164.81 341 1167.52C341.141 1170.21 340.8 1173.09 339.975 1176.17ZM335.03 1179.89L336.308 1175.13C337.004 1172.53 337.328 1170.11 337.279 1167.88C337.231 1165.65 336.82 1163.64 336.046 1161.86C335.293 1160.08 334.186 1158.57 332.726 1157.34C331.287 1156.12 329.5 1155.22 327.367 1154.64C325.294 1154.09 323.328 1153.98 321.467 1154.33C319.607 1154.67 317.896 1155.42 316.336 1156.57C314.775 1157.73 313.405 1159.26 312.226 1161.17C311.066 1163.08 310.139 1165.33 309.444 1167.93L308.166 1172.7C307.465 1175.31 307.146 1177.75 307.209 1180.01C307.277 1182.25 307.695 1184.27 308.464 1186.07C309.237 1187.85 310.344 1189.36 311.784 1190.59C313.244 1191.82 315.01 1192.71 317.083 1193.27C319.216 1193.84 321.213 1193.95 323.073 1193.61C324.953 1193.27 326.664 1192.52 328.205 1191.36C329.751 1190.18 331.093 1188.63 332.232 1186.72C333.397 1184.78 334.329 1182.51 335.03 1179.89Z" fill="black"/>
</g>
<g clip-path="url(#clip6_556_11400)">
<rect x="313.31" y="923.539" width="145.512" height="146.512" rx="10" transform="rotate(15 313.31 923.539)" fill="#D4D4D4"/>
<path d="M367.014 1032.88L374.703 1044.39L371.537 1046.06L363.883 1034.66L367.014 1032.88ZM383.197 1014.86L381.936 1019.57C381.111 1022.65 379.961 1025.33 378.488 1027.61C377.02 1029.87 375.304 1031.68 373.34 1033.06C371.377 1034.43 369.212 1035.3 366.845 1035.68C364.499 1036.07 362.028 1035.91 359.432 1035.22C356.876 1034.53 354.669 1033.43 352.809 1031.92C350.97 1030.42 349.522 1028.57 348.468 1026.39C347.433 1024.22 346.835 1021.78 346.673 1019.08C346.536 1016.37 346.881 1013.48 347.706 1010.4L348.967 1005.69C349.792 1002.61 350.939 999.943 352.407 997.684C353.901 995.409 355.64 993.589 357.623 992.223C359.607 990.856 361.772 989.98 364.118 989.595C366.465 989.21 368.916 989.36 371.471 990.045C374.067 990.741 376.285 991.842 378.124 993.348C379.984 994.86 381.431 996.704 382.466 998.879C383.5 1001.05 384.086 1003.5 384.222 1006.21C384.364 1008.9 384.022 1011.78 383.197 1014.86ZM378.253 1018.59L379.531 1013.82C380.227 1011.22 380.55 1008.8 380.502 1006.57C380.454 1004.34 380.043 1002.33 379.269 1000.55C378.516 998.77 377.409 997.265 375.949 996.033C374.509 994.806 372.723 993.907 370.59 993.335C368.517 992.78 366.55 992.673 364.69 993.016C362.83 993.359 361.119 994.108 359.558 995.264C357.997 996.421 356.627 997.952 355.448 999.857C354.289 1001.77 353.362 1004.02 352.666 1006.62L351.388 1011.39C350.687 1014 350.368 1016.44 350.431 1018.7C350.5 1020.94 350.918 1022.96 351.686 1024.76C352.46 1026.55 353.567 1028.05 355.006 1029.28C356.466 1030.51 358.233 1031.4 360.305 1031.96C362.438 1032.53 364.435 1032.64 366.296 1032.3C368.176 1031.96 369.887 1031.21 371.427 1030.05C372.973 1028.87 374.316 1027.32 375.455 1025.41C376.619 1023.47 377.552 1021.2 378.253 1018.59Z" fill="black"/>
</g>
<g clip-path="url(#clip7_556_11400)">
<rect x="408.893" y="1254.56" width="145.512" height="146.512" rx="10" transform="rotate(15 408.893 1254.56)" fill="#D4D4D4"/>
<path d="M462.597 1363.9L470.286 1375.41L467.12 1377.08L459.466 1365.68L462.597 1363.9ZM478.78 1345.88L477.519 1350.59C476.694 1353.67 475.544 1356.35 474.071 1358.63C472.603 1360.89 470.887 1362.7 468.923 1364.07C466.96 1365.45 464.795 1366.32 462.428 1366.7C460.082 1367.09 457.611 1366.93 455.015 1366.24C452.459 1365.55 450.252 1364.45 448.392 1362.94C446.553 1361.43 445.105 1359.59 444.051 1357.41C443.016 1355.23 442.418 1352.8 442.256 1350.1C442.119 1347.39 442.464 1344.5 443.289 1341.42L444.55 1336.71C445.375 1333.63 446.522 1330.96 447.99 1328.7C449.484 1326.43 451.223 1324.61 453.206 1323.24C455.19 1321.87 457.355 1321 459.701 1320.61C462.048 1320.23 464.499 1320.38 467.054 1321.06C469.65 1321.76 471.868 1322.86 473.707 1324.37C475.567 1325.88 477.014 1327.72 478.049 1329.9C479.083 1332.07 479.669 1334.52 479.805 1337.23C479.947 1339.92 479.605 1342.8 478.78 1345.88ZM473.836 1349.6L475.114 1344.83C475.81 1342.24 476.133 1339.82 476.085 1337.59C476.037 1335.35 475.626 1333.35 474.852 1331.56C474.099 1329.79 472.992 1328.28 471.532 1327.05C470.092 1325.82 468.306 1324.92 466.173 1324.35C464.1 1323.8 462.133 1323.69 460.273 1324.03C458.413 1324.38 456.702 1325.13 455.141 1326.28C453.58 1327.44 452.21 1328.97 451.031 1330.87C449.872 1332.79 448.945 1335.04 448.249 1337.64L446.971 1342.4C446.27 1345.02 445.951 1347.46 446.014 1349.72C446.083 1351.96 446.501 1353.98 447.269 1355.78C448.043 1357.56 449.15 1359.07 450.589 1360.29C452.049 1361.53 453.816 1362.42 455.888 1362.98C458.021 1363.55 460.018 1363.66 461.879 1363.32C463.759 1362.98 465.47 1362.23 467.01 1361.07C468.556 1359.89 469.899 1358.34 471.038 1356.42C472.202 1354.49 473.135 1352.22 473.836 1349.6Z" fill="black"/>
</g>
<g clip-path="url(#clip8_556_11400)">
<rect x="452.375" y="1092.28" width="145.512" height="146.512" rx="10" transform="rotate(15 452.375 1092.28)" fill="#D4D4D4"/>
<path d="M506.078 1201.62L513.768 1213.13L510.602 1214.81L502.948 1203.41L506.078 1201.62ZM522.262 1183.61L521.001 1188.31C520.176 1191.39 519.026 1194.07 517.553 1196.35C516.085 1198.61 514.369 1200.43 512.405 1201.8C510.441 1203.17 508.276 1204.05 505.91 1204.43C503.564 1204.81 501.093 1204.66 498.497 1203.96C495.941 1203.28 493.733 1202.18 491.874 1200.67C490.035 1199.16 488.587 1197.32 487.533 1195.13C486.498 1192.96 485.899 1190.52 485.738 1187.83C485.601 1185.12 485.946 1182.22 486.771 1179.14L488.032 1174.43C488.857 1171.35 490.004 1168.69 491.472 1166.43C492.966 1164.15 494.704 1162.33 496.688 1160.96C498.672 1159.6 500.837 1158.72 503.183 1158.34C505.53 1157.95 507.981 1158.1 510.536 1158.79C513.132 1159.48 515.35 1160.58 517.189 1162.09C519.049 1163.6 520.496 1165.45 521.531 1167.62C522.565 1169.8 523.151 1172.24 523.287 1174.95C523.429 1177.64 523.087 1180.53 522.262 1183.61ZM517.318 1187.33L518.596 1182.56C519.292 1179.96 519.615 1177.55 519.567 1175.31C519.518 1173.08 519.108 1171.07 518.334 1169.29C517.581 1167.51 516.474 1166.01 515.014 1164.78C513.574 1163.55 511.788 1162.65 509.655 1162.08C507.582 1161.52 505.615 1161.42 503.755 1161.76C501.894 1162.1 500.184 1162.85 498.623 1164.01C497.062 1165.16 495.692 1166.69 494.513 1168.6C493.354 1170.51 492.427 1172.76 491.731 1175.36L490.453 1180.13C489.752 1182.75 489.433 1185.18 489.496 1187.44C489.565 1189.68 489.983 1191.7 490.751 1193.51C491.525 1195.29 492.631 1196.79 494.071 1198.02C495.531 1199.25 497.298 1200.14 499.37 1200.7C501.503 1201.27 503.5 1201.39 505.361 1201.04C507.241 1200.71 508.952 1199.96 510.492 1198.8C512.038 1197.61 513.381 1196.06 514.52 1194.15C515.684 1192.22 516.617 1189.94 517.318 1187.33Z" fill="black"/>
</g>
<g clip-path="url(#clip9_556_11400)">
<rect x="494.631" y="930.713" width="145.512" height="146.512" rx="10" transform="rotate(15 494.631 930.713)" fill="#D4D4D4"/>
<path d="M548.335 1040.06L556.025 1051.56L552.859 1053.24L545.205 1041.84L548.335 1040.06ZM564.519 1022.04L563.257 1026.75C562.432 1029.82 561.283 1032.5 559.81 1034.78C558.341 1037.04 556.626 1038.86 554.662 1040.23C552.698 1041.6 550.533 1042.48 548.167 1042.86C545.821 1043.24 543.35 1043.09 540.754 1042.39C538.198 1041.71 535.99 1040.61 534.131 1039.1C532.291 1037.59 530.844 1035.75 529.789 1033.57C528.755 1031.39 528.156 1028.95 527.994 1026.26C527.858 1023.55 528.202 1020.65 529.027 1017.57L530.289 1012.86C531.114 1009.79 532.261 1007.12 533.729 1004.86C535.223 1002.58 536.961 1000.76 538.945 999.396C540.929 998.03 543.094 997.154 545.44 996.769C547.786 996.384 550.237 996.534 552.793 997.219C555.389 997.914 557.607 999.015 559.446 1000.52C561.306 1002.03 562.753 1003.88 563.787 1006.05C564.822 1008.23 565.408 1010.67 565.544 1013.38C565.686 1016.07 565.344 1018.96 564.519 1022.04ZM559.575 1025.76L560.853 1020.99C561.548 1018.39 561.872 1015.98 561.824 1013.74C561.775 1011.51 561.364 1009.5 560.591 1007.72C559.837 1005.94 558.731 1004.44 557.271 1003.21C555.831 1001.98 554.045 1001.08 551.911 1000.51C549.839 999.954 547.872 999.847 546.012 1000.19C544.151 1000.53 542.441 1001.28 540.88 1002.44C539.319 1003.59 537.949 1005.13 536.77 1007.03C535.611 1008.94 534.684 1011.2 533.988 1013.79L532.71 1018.56C532.009 1021.18 531.69 1023.61 531.753 1025.87C531.822 1028.11 532.24 1030.14 533.008 1031.94C533.782 1033.72 534.888 1035.22 536.328 1036.45C537.788 1037.68 539.554 1038.58 541.627 1039.13C543.76 1039.7 545.757 1039.82 547.617 1039.48C549.498 1039.14 551.209 1038.39 552.749 1037.23C554.295 1036.05 555.638 1034.5 556.777 1032.58C557.941 1030.65 558.874 1028.38 559.575 1025.76Z" fill="black"/>
</g>
<g clip-path="url(#clip10_556_11400)">
<rect x="587.402" y="1276.09" width="145.512" height="146.512" rx="10" transform="rotate(15 587.402 1276.09)" fill="#D4D4D4"/>
<path d="M641.106 1385.43L648.796 1396.94L645.629 1398.62L637.975 1387.22L641.106 1385.43ZM657.29 1367.41L656.028 1372.12C655.203 1375.2 654.054 1377.88 652.58 1380.16C651.112 1382.42 649.396 1384.24 647.432 1385.61C645.469 1386.98 643.304 1387.86 640.937 1388.24C638.591 1388.62 636.12 1388.47 633.524 1387.77C630.968 1387.09 628.761 1385.99 626.901 1384.47C625.062 1382.97 623.615 1381.12 622.56 1378.94C621.525 1376.77 620.927 1374.33 620.765 1371.64C620.629 1368.93 620.973 1366.03 621.798 1362.95L623.06 1358.24C623.885 1355.16 625.031 1352.49 626.499 1350.24C627.993 1347.96 629.732 1346.14 631.716 1344.77C633.699 1343.41 635.864 1342.53 638.211 1342.15C640.557 1341.76 643.008 1341.91 645.564 1342.6C648.159 1343.29 650.377 1344.39 652.217 1345.9C654.076 1347.41 655.523 1349.26 656.558 1351.43C657.593 1353.61 658.178 1356.05 658.315 1358.76C658.456 1361.45 658.115 1364.34 657.29 1367.41ZM652.345 1371.14L653.623 1366.37C654.319 1363.77 654.642 1361.36 654.594 1359.12C654.546 1356.89 654.135 1354.88 653.361 1353.1C652.608 1351.32 651.501 1349.82 650.041 1348.58C648.601 1347.36 646.815 1346.46 644.682 1345.89C642.609 1345.33 640.643 1345.23 638.782 1345.57C636.922 1345.91 635.211 1346.66 633.65 1347.82C632.09 1348.97 630.72 1350.5 629.54 1352.41C628.381 1354.32 627.454 1356.57 626.758 1359.17L625.481 1363.94C624.78 1366.55 624.461 1368.99 624.524 1371.25C624.592 1373.49 625.01 1375.51 625.779 1377.32C626.552 1379.1 627.659 1380.6 629.099 1381.83C630.559 1383.06 632.325 1383.95 634.398 1384.51C636.531 1385.08 638.527 1385.2 640.388 1384.85C642.268 1384.52 643.979 1383.77 645.52 1382.6C647.066 1381.42 648.408 1379.87 649.547 1377.96C650.712 1376.03 651.644 1373.75 652.345 1371.14Z" fill="black"/>
</g>
<g clip-path="url(#clip11_556_11400)">
<rect x="630.443" y="1115.46" width="145.512" height="146.512" rx="10" transform="rotate(15 630.443 1115.46)" fill="#D4D4D4"/>
<path d="M684.147 1224.8L691.837 1236.31L688.671 1237.98L681.017 1226.58L684.147 1224.8ZM700.331 1206.78L699.069 1211.49C698.244 1214.57 697.095 1217.25 695.622 1219.53C694.153 1221.79 692.438 1223.6 690.474 1224.98C688.51 1226.35 686.345 1227.22 683.979 1227.6C681.633 1227.99 679.162 1227.83 676.566 1227.14C674.01 1226.45 671.802 1225.35 669.943 1223.84C668.103 1222.34 666.656 1220.49 665.601 1218.31C664.567 1216.14 663.968 1213.7 663.806 1211C663.67 1208.29 664.014 1205.4 664.839 1202.32L666.101 1197.61C666.926 1194.53 668.073 1191.86 669.541 1189.6C671.035 1187.33 672.773 1185.51 674.757 1184.14C676.741 1182.77 678.906 1181.9 681.252 1181.51C683.598 1181.13 686.049 1181.28 688.605 1181.96C691.201 1182.66 693.419 1183.76 695.258 1185.27C697.118 1186.78 698.565 1188.62 699.599 1190.8C700.634 1192.97 701.22 1195.42 701.356 1198.13C701.498 1200.82 701.156 1203.7 700.331 1206.78ZM695.387 1210.5L696.665 1205.73C697.36 1203.14 697.684 1200.72 697.636 1198.49C697.587 1196.25 697.176 1194.25 696.403 1192.46C695.649 1190.69 694.543 1189.18 693.083 1187.95C691.643 1186.72 689.857 1185.83 687.723 1185.25C685.651 1184.7 683.684 1184.59 681.824 1184.93C679.963 1185.28 678.253 1186.03 676.692 1187.18C675.131 1188.34 673.761 1189.87 672.582 1191.78C671.423 1193.69 670.496 1195.94 669.8 1198.54L668.522 1203.31C667.821 1205.92 667.502 1208.36 667.565 1210.62C667.634 1212.86 668.052 1214.88 668.82 1216.68C669.594 1218.46 670.7 1219.97 672.14 1221.2C673.6 1222.43 675.366 1223.32 677.439 1223.88C679.572 1224.45 681.569 1224.56 683.429 1224.22C685.31 1223.88 687.021 1223.13 688.561 1221.97C690.107 1220.79 691.45 1219.24 692.589 1217.32C693.753 1215.39 694.686 1213.12 695.387 1210.5Z" fill="black"/>
</g>
<g clip-path="url(#clip12_556_11400)">
<rect x="673.485" y="954.825" width="145.512" height="146.512" rx="10" transform="rotate(15 673.485 954.825)" fill="#D4D4D4"/>
<path d="M727.189 1064.17L734.879 1075.68L731.712 1077.35L724.059 1065.95L727.189 1064.17ZM743.373 1046.15L742.111 1050.86C741.286 1053.94 740.137 1056.62 738.663 1058.9C737.195 1061.16 735.479 1062.97 733.515 1064.34C731.552 1065.71 729.387 1066.59 727.02 1066.97C724.674 1067.36 722.203 1067.2 719.607 1066.5C717.051 1065.82 714.844 1064.72 712.984 1063.21C711.145 1061.7 709.698 1059.86 708.643 1057.68C707.608 1055.5 707.01 1053.07 706.848 1050.37C706.712 1047.66 707.056 1044.77 707.881 1041.69L709.143 1036.98C709.968 1033.9 711.114 1031.23 712.582 1028.97C714.076 1026.7 715.815 1024.88 717.799 1023.51C719.782 1022.14 721.947 1021.27 724.294 1020.88C726.64 1020.5 729.091 1020.65 731.647 1021.33C734.242 1022.03 736.46 1023.13 738.3 1024.63C740.159 1026.15 741.606 1027.99 742.641 1030.17C743.676 1032.34 744.261 1034.78 744.398 1037.49C744.539 1040.19 744.198 1043.07 743.373 1046.15ZM738.428 1049.87L739.706 1045.1C740.402 1042.51 740.725 1040.09 740.677 1037.86C740.629 1035.62 740.218 1033.61 739.444 1031.83C738.691 1030.06 737.584 1028.55 736.124 1027.32C734.684 1026.09 732.898 1025.19 730.765 1024.62C728.692 1024.07 726.726 1023.96 724.865 1024.3C723.005 1024.64 721.294 1025.39 719.733 1026.55C718.173 1027.71 716.803 1029.24 715.623 1031.14C714.464 1033.05 713.537 1035.31 712.841 1037.9L711.564 1042.67C710.863 1045.29 710.544 1047.73 710.607 1049.99C710.675 1052.23 711.093 1054.25 711.862 1056.05C712.635 1057.83 713.742 1059.34 715.182 1060.56C716.642 1061.8 718.408 1062.69 720.481 1063.24C722.614 1063.82 724.61 1063.93 726.471 1063.59C728.351 1063.25 730.062 1062.5 731.603 1061.34C733.149 1060.16 734.491 1058.61 735.63 1056.69C736.795 1054.76 737.727 1052.49 738.428 1049.87Z" fill="black"/>
</g>
<g clip-path="url(#clip13_556_11400)">
<rect x="753.384" y="1344.38" width="145.512" height="146.512" rx="10" transform="rotate(15 753.384 1344.38)" fill="#D4D4D4"/>
<path d="M807.088 1453.72L814.778 1465.23L811.611 1466.9L803.957 1455.5L807.088 1453.72ZM823.272 1435.7L822.01 1440.41C821.185 1443.49 820.036 1446.17 818.562 1448.45C817.094 1450.71 815.378 1452.52 813.414 1453.89C811.451 1455.27 809.286 1456.14 806.919 1456.52C804.573 1456.91 802.102 1456.75 799.506 1456.06C796.95 1455.37 794.743 1454.27 792.883 1452.76C791.044 1451.25 789.597 1449.41 788.542 1447.23C787.507 1445.05 786.909 1442.62 786.747 1439.92C786.611 1437.21 786.955 1434.32 787.78 1431.24L789.042 1426.53C789.867 1423.45 791.013 1420.78 792.481 1418.52C793.975 1416.25 795.714 1414.43 797.698 1413.06C799.681 1411.69 801.846 1410.82 804.193 1410.43C806.539 1410.05 808.99 1410.2 811.545 1410.88C814.141 1411.58 816.359 1412.68 818.198 1414.19C820.058 1415.7 821.505 1417.54 822.54 1419.72C823.575 1421.89 824.16 1424.34 824.297 1427.05C824.438 1429.74 824.097 1432.62 823.272 1435.7ZM818.327 1439.42L819.605 1434.65C820.301 1432.06 820.624 1429.64 820.576 1427.41C820.528 1425.17 820.117 1423.17 819.343 1421.38C818.59 1419.61 817.483 1418.1 816.023 1416.87C814.583 1415.64 812.797 1414.74 810.664 1414.17C808.591 1413.62 806.625 1413.51 804.764 1413.85C802.904 1414.2 801.193 1414.95 799.632 1416.1C798.072 1417.26 796.702 1418.79 795.522 1420.69C794.363 1422.61 793.436 1424.86 792.74 1427.46L791.462 1432.22C790.762 1434.84 790.443 1437.28 790.506 1439.54C790.574 1441.78 790.992 1443.8 791.76 1445.6C792.534 1447.38 793.641 1448.89 795.081 1450.11C796.541 1451.35 798.307 1452.24 800.38 1452.8C802.513 1453.37 804.509 1453.48 806.37 1453.14C808.25 1452.8 809.961 1452.05 811.502 1450.89C813.048 1449.71 814.39 1448.16 815.529 1446.24C816.694 1444.31 817.626 1442.04 818.327 1439.42Z" fill="black"/>
</g>
<g clip-path="url(#clip14_556_11400)">
<rect x="796.425" y="1183.74" width="145.512" height="146.512" rx="10" transform="rotate(15 796.425 1183.74)" fill="#D4D4D4"/>
<path d="M850.129 1293.09L857.819 1304.59L854.653 1306.27L846.999 1294.87L850.129 1293.09ZM866.313 1275.07L865.051 1279.78C864.226 1282.86 863.077 1285.54 861.604 1287.81C860.135 1290.07 858.42 1291.89 856.456 1293.26C854.492 1294.63 852.327 1295.51 849.961 1295.89C847.615 1296.27 845.143 1296.12 842.548 1295.42C839.992 1294.74 837.784 1293.64 835.925 1292.13C834.085 1290.62 832.638 1288.78 831.583 1286.6C830.549 1284.42 829.95 1281.99 829.788 1279.29C829.652 1276.58 829.996 1273.68 830.821 1270.61L832.083 1265.9C832.908 1262.82 834.055 1260.15 835.523 1257.89C837.017 1255.61 838.755 1253.79 840.739 1252.43C842.723 1251.06 844.888 1250.19 847.234 1249.8C849.58 1249.42 852.031 1249.57 854.587 1250.25C857.183 1250.95 859.401 1252.05 861.24 1253.55C863.1 1255.07 864.547 1256.91 865.581 1259.08C866.616 1261.26 867.202 1263.7 867.338 1266.41C867.48 1269.1 867.138 1271.99 866.313 1275.07ZM861.369 1278.79L862.647 1274.02C863.342 1271.42 863.666 1269.01 863.618 1266.78C863.569 1264.54 863.158 1262.53 862.385 1260.75C861.631 1258.97 860.525 1257.47 859.065 1256.24C857.625 1255.01 855.838 1254.11 853.705 1253.54C851.633 1252.98 849.666 1252.88 847.806 1253.22C845.945 1253.56 844.235 1254.31 842.674 1255.47C841.113 1256.63 839.743 1258.16 838.564 1260.06C837.405 1261.97 836.477 1264.23 835.782 1266.82L834.504 1271.59C833.803 1274.21 833.484 1276.65 833.547 1278.91C833.616 1281.15 834.034 1283.17 834.802 1284.97C835.576 1286.75 836.682 1288.25 838.122 1289.48C839.582 1290.71 841.348 1291.61 843.421 1292.16C845.554 1292.73 847.551 1292.85 849.411 1292.51C851.292 1292.17 853.002 1291.42 854.543 1290.26C856.089 1289.08 857.432 1287.53 858.571 1285.61C859.735 1283.68 860.668 1281.41 861.369 1278.79Z" fill="black"/>
</g>
<g clip-path="url(#clip15_556_11400)">
<rect x="839.467" y="1023.11" width="145.512" height="146.512" rx="10" transform="rotate(15 839.467 1023.11)" fill="#D4D4D4"/>
<path d="M893.171 1132.45L900.861 1143.96L897.694 1145.64L890.04 1134.24L893.171 1132.45ZM909.355 1114.44L908.093 1119.14C907.268 1122.22 906.119 1124.9 904.645 1127.18C903.177 1129.44 901.461 1131.26 899.497 1132.63C897.534 1134 895.369 1134.88 893.002 1135.26C890.656 1135.64 888.185 1135.49 885.589 1134.79C883.033 1134.11 880.826 1133.01 878.966 1131.5C877.127 1129.99 875.68 1128.15 874.625 1125.96C873.59 1123.79 872.992 1121.35 872.83 1118.66C872.694 1115.95 873.038 1113.05 873.863 1109.97L875.125 1105.26C875.95 1102.18 877.096 1099.52 878.564 1097.26C880.058 1094.98 881.797 1093.16 883.781 1091.79C885.764 1090.43 887.929 1089.55 890.276 1089.17C892.622 1088.78 895.073 1088.93 897.628 1089.62C900.224 1090.31 902.442 1091.41 904.281 1092.92C906.141 1094.43 907.588 1096.28 908.623 1098.45C909.658 1100.63 910.243 1103.07 910.38 1105.78C910.521 1108.47 910.18 1111.36 909.355 1114.44ZM904.41 1118.16L905.688 1113.39C906.384 1110.79 906.707 1108.38 906.659 1106.14C906.611 1103.91 906.2 1101.9 905.426 1100.12C904.673 1098.34 903.566 1096.84 902.106 1095.61C900.666 1094.38 898.88 1093.48 896.747 1092.91C894.674 1092.35 892.708 1092.25 890.847 1092.59C888.987 1092.93 887.276 1093.68 885.715 1094.84C884.155 1095.99 882.785 1097.52 881.605 1099.43C880.446 1101.34 879.519 1103.59 878.823 1106.19L877.545 1110.96C876.845 1113.58 876.526 1116.01 876.589 1118.27C876.657 1120.51 877.075 1122.53 877.844 1124.34C878.617 1126.12 879.724 1127.62 881.164 1128.85C882.624 1130.08 884.39 1130.98 886.463 1131.53C888.596 1132.1 890.592 1132.22 892.453 1131.87C894.333 1131.54 896.044 1130.79 897.585 1129.63C899.131 1128.44 900.473 1126.89 901.612 1124.98C902.777 1123.05 903.709 1120.77 904.41 1118.16Z" fill="black"/>
</g>
<g clip-path="url(#clip16_556_11400)">
<rect x="918.917" y="1410.47" width="145.512" height="146.512" rx="10" transform="rotate(15 918.917 1410.47)" fill="#D4D4D4"/>
<path d="M972.621 1519.82L980.311 1531.32L977.145 1533L969.491 1521.6L972.621 1519.82ZM988.805 1501.8L987.544 1506.51C986.719 1509.58 985.569 1512.26 984.096 1514.54C982.628 1516.8 980.912 1518.62 978.948 1519.99C976.984 1521.36 974.819 1522.24 972.453 1522.62C970.107 1523 967.636 1522.85 965.04 1522.15C962.484 1521.47 960.276 1520.37 958.417 1518.86C956.578 1517.35 955.13 1515.51 954.075 1513.33C953.041 1511.15 952.442 1508.71 952.281 1506.02C952.144 1503.31 952.489 1500.41 953.314 1497.33L954.575 1492.62C955.4 1489.55 956.547 1486.88 958.015 1484.62C959.509 1482.34 961.247 1480.52 963.231 1479.16C965.215 1477.79 967.38 1476.91 969.726 1476.53C972.073 1476.14 974.523 1476.29 977.079 1476.98C979.675 1477.67 981.893 1478.77 983.732 1480.28C985.592 1481.79 987.039 1483.64 988.074 1485.81C989.108 1487.99 989.694 1490.43 989.83 1493.14C989.972 1495.83 989.63 1498.72 988.805 1501.8ZM983.861 1505.52L985.139 1500.75C985.834 1498.15 986.158 1495.74 986.11 1493.5C986.061 1491.27 985.651 1489.26 984.877 1487.48C984.124 1485.7 983.017 1484.2 981.557 1482.97C980.117 1481.74 978.331 1480.84 976.198 1480.27C974.125 1479.71 972.158 1479.61 970.298 1479.95C968.437 1480.29 966.727 1481.04 965.166 1482.2C963.605 1483.35 962.235 1484.88 961.056 1486.79C959.897 1488.7 958.97 1490.95 958.274 1493.55L956.996 1498.32C956.295 1500.94 955.976 1503.37 956.039 1505.63C956.108 1507.87 956.526 1509.89 957.294 1511.7C958.068 1513.48 959.174 1514.98 960.614 1516.21C962.074 1517.44 963.841 1518.34 965.913 1518.89C968.046 1519.46 970.043 1519.58 971.904 1519.23C973.784 1518.9 975.495 1518.15 977.035 1516.99C978.581 1515.8 979.924 1514.26 981.063 1512.34C982.227 1510.41 983.16 1508.13 983.861 1505.52Z" fill="black"/>
</g>
<g clip-path="url(#clip17_556_11400)">
<rect x="962.925" y="1250.1" width="145.512" height="146.512" rx="10" transform="rotate(15 962.925 1250.1)" fill="#D4D4D4"/>
<path d="M1016.63 1359.44L1024.32 1370.95L1021.15 1372.62L1013.5 1361.22L1016.63 1359.44ZM1032.81 1341.42L1031.55 1346.13C1030.73 1349.21 1029.58 1351.89 1028.1 1354.17C1026.63 1356.43 1024.92 1358.24 1022.96 1359.62C1020.99 1360.99 1018.83 1361.86 1016.46 1362.24C1014.11 1362.63 1011.64 1362.47 1009.05 1361.78C1006.49 1361.09 1004.28 1359.99 1002.42 1358.48C1000.58 1356.98 999.138 1355.13 998.083 1352.95C997.048 1350.78 996.45 1348.34 996.288 1345.64C996.152 1342.93 996.496 1340.04 997.321 1336.96L998.583 1332.25C999.408 1329.17 1000.55 1326.5 1002.02 1324.24C1003.52 1321.97 1005.25 1320.15 1007.24 1318.78C1009.22 1317.42 1011.39 1316.54 1013.73 1316.15C1016.08 1315.77 1018.53 1315.92 1021.09 1316.6C1023.68 1317.3 1025.9 1318.4 1027.74 1319.91C1029.6 1321.42 1031.05 1323.26 1032.08 1325.44C1033.12 1327.61 1033.7 1330.06 1033.84 1332.77C1033.98 1335.46 1033.64 1338.34 1032.81 1341.42ZM1027.87 1345.14L1029.15 1340.38C1029.84 1337.78 1030.17 1335.36 1030.12 1333.13C1030.07 1330.89 1029.66 1328.89 1028.88 1327.11C1028.13 1325.33 1027.02 1323.82 1025.56 1322.59C1024.12 1321.37 1022.34 1320.47 1020.2 1319.89C1018.13 1319.34 1016.17 1319.23 1014.31 1319.58C1012.44 1319.92 1010.73 1320.67 1009.17 1321.82C1007.61 1322.98 1006.24 1324.51 1005.06 1326.42C1003.9 1328.33 1002.98 1330.58 1002.28 1333.18L1001 1337.95C1000.3 1340.56 999.984 1343 1000.05 1345.26C1000.12 1347.5 1000.53 1349.52 1001.3 1351.32C1002.08 1353.1 1003.18 1354.61 1004.62 1355.84C1006.08 1357.07 1007.85 1357.96 1009.92 1358.52C1012.05 1359.09 1014.05 1359.2 1015.91 1358.86C1017.79 1358.52 1019.5 1357.77 1021.04 1356.61C1022.59 1355.43 1023.93 1353.88 1025.07 1351.96C1026.23 1350.03 1027.17 1347.76 1027.87 1345.14Z" fill="black"/>
</g>
<g clip-path="url(#clip18_556_11400)">
<rect x="1005.97" y="1089.47" width="145.512" height="146.512" rx="10" transform="rotate(15 1005.97 1089.47)" fill="#D4D4D4"/>
<path d="M1059.67 1198.81L1067.36 1210.32L1064.19 1211.99L1056.54 1200.59L1059.67 1198.81ZM1075.85 1180.79L1074.59 1185.5C1073.77 1188.58 1072.62 1191.26 1071.14 1193.54C1069.68 1195.8 1067.96 1197.61 1066 1198.98C1064.03 1200.36 1061.87 1201.23 1059.5 1201.61C1057.16 1202 1054.68 1201.84 1052.09 1201.14C1049.53 1200.46 1047.33 1199.36 1045.47 1197.85C1043.63 1196.34 1042.18 1194.5 1041.12 1192.32C1040.09 1190.14 1039.49 1187.71 1039.33 1185.01C1039.19 1182.3 1039.54 1179.41 1040.36 1176.33L1041.62 1171.62C1042.45 1168.54 1043.6 1165.87 1045.06 1163.61C1046.56 1161.34 1048.3 1159.52 1050.28 1158.15C1052.26 1156.78 1054.43 1155.91 1056.78 1155.52C1059.12 1155.14 1061.57 1155.29 1064.13 1155.97C1066.72 1156.67 1068.94 1157.77 1070.78 1159.27C1072.64 1160.79 1074.09 1162.63 1075.12 1164.81C1076.16 1166.98 1076.74 1169.42 1076.88 1172.13C1077.02 1174.83 1076.68 1177.71 1075.85 1180.79ZM1070.91 1184.51L1072.19 1179.74C1072.88 1177.15 1073.21 1174.73 1073.16 1172.5C1073.11 1170.26 1072.7 1168.25 1071.93 1166.47C1071.17 1164.7 1070.07 1163.19 1068.61 1161.96C1067.17 1160.73 1065.38 1159.83 1063.25 1159.26C1061.17 1158.71 1059.21 1158.6 1057.35 1158.94C1055.49 1159.29 1053.78 1160.03 1052.21 1161.19C1050.65 1162.35 1049.28 1163.88 1048.1 1165.78C1046.95 1167.69 1046.02 1169.95 1045.32 1172.54L1044.04 1177.31C1043.34 1179.93 1043.03 1182.37 1043.09 1184.63C1043.16 1186.87 1043.57 1188.89 1044.34 1190.69C1045.12 1192.47 1046.22 1193.98 1047.66 1195.2C1049.12 1196.44 1050.89 1197.33 1052.96 1197.88C1055.1 1198.46 1057.09 1198.57 1058.95 1198.23C1060.83 1197.89 1062.54 1197.14 1064.08 1195.98C1065.63 1194.8 1066.97 1193.25 1068.11 1191.33C1069.28 1189.4 1070.21 1187.13 1070.91 1184.51Z" fill="black"/>
</g>
<g clip-path="url(#clip19_556_11400)">
<rect width="145.512" height="146.512" rx="10" transform="matrix(-0.965926 0.258819 0.258819 0.965926 2361.04 1199.83)" fill="#D4D4D4"/>
<path d="M2307.33 1309.17L2299.64 1320.68L2302.81 1322.35L2310.46 1310.95L2307.33 1309.17ZM2291.15 1291.15L2292.41 1295.86C2293.24 1298.94 2294.38 1301.62 2295.86 1303.9C2297.33 1306.16 2299.04 1307.98 2301.01 1309.35C2302.97 1310.72 2305.13 1311.59 2307.5 1311.97C2309.85 1312.36 2312.32 1312.2 2314.91 1311.51C2317.47 1310.82 2319.68 1309.73 2321.54 1308.21C2323.38 1306.71 2324.82 1304.86 2325.88 1302.68C2326.91 1300.51 2327.51 1298.07 2327.67 1295.38C2327.81 1292.66 2327.47 1289.77 2326.64 1286.69L2325.38 1281.98C2324.55 1278.9 2323.41 1276.23 2321.94 1273.97C2320.45 1271.7 2318.71 1269.88 2316.72 1268.51C2314.74 1267.15 2312.57 1266.27 2310.23 1265.89C2307.88 1265.5 2305.43 1265.65 2302.87 1266.34C2300.28 1267.03 2298.06 1268.13 2296.22 1269.64C2294.36 1271.15 2292.92 1272.99 2291.88 1275.17C2290.85 1277.34 2290.26 1279.79 2290.12 1282.5C2289.98 1285.19 2290.32 1288.07 2291.15 1291.15ZM2296.09 1294.88L2294.82 1290.11C2294.12 1287.51 2293.8 1285.1 2293.84 1282.86C2293.89 1280.63 2294.3 1278.62 2295.08 1276.84C2295.83 1275.06 2296.94 1273.56 2298.4 1272.32C2299.84 1271.1 2301.62 1270.2 2303.76 1269.63C2305.83 1269.07 2307.8 1268.96 2309.66 1269.31C2311.52 1269.65 2313.23 1270.4 2314.79 1271.55C2316.35 1272.71 2317.72 1274.24 2318.9 1276.15C2320.06 1278.06 2320.98 1280.31 2321.68 1282.91L2322.96 1287.68C2323.66 1290.29 2323.98 1292.73 2323.91 1294.99C2323.85 1297.23 2323.43 1299.25 2322.66 1301.05C2321.89 1302.84 2320.78 1304.34 2319.34 1305.57C2317.88 1306.8 2316.11 1307.69 2314.04 1308.25C2311.91 1308.82 2309.91 1308.93 2308.05 1308.59C2306.17 1308.25 2304.46 1307.51 2302.92 1306.34C2301.37 1305.16 2300.03 1303.61 2298.89 1301.7C2297.73 1299.77 2296.79 1297.49 2296.09 1294.88Z" fill="black"/>
</g>
<g clip-path="url(#clip20_556_11400)">
<rect width="145.512" height="146.512" rx="10" transform="matrix(-0.965926 0.258819 0.258819 0.965926 2317.11 1039.74)" fill="#D4D4D4"/>
<path d="M2263.4 1149.09L2255.71 1160.6L2258.88 1162.27L2266.53 1150.87L2263.4 1149.09ZM2247.22 1131.07L2248.48 1135.78C2249.31 1138.86 2250.46 1141.54 2251.93 1143.82C2253.4 1146.07 2255.11 1147.89 2257.08 1149.26C2259.04 1150.63 2261.2 1151.51 2263.57 1151.89C2265.92 1152.27 2268.39 1152.12 2270.98 1151.42C2273.54 1150.74 2275.75 1149.64 2277.61 1148.13C2279.45 1146.62 2280.89 1144.78 2281.95 1142.6C2282.98 1140.42 2283.58 1137.99 2283.74 1135.29C2283.88 1132.58 2283.54 1129.68 2282.71 1126.61L2281.45 1121.9C2280.62 1118.82 2279.48 1116.15 2278.01 1113.89C2276.52 1111.61 2274.78 1109.79 2272.79 1108.43C2270.81 1107.06 2268.64 1106.19 2266.3 1105.8C2263.95 1105.42 2261.5 1105.57 2258.95 1106.25C2256.35 1106.95 2254.13 1108.05 2252.29 1109.55C2250.43 1111.07 2248.99 1112.91 2247.95 1115.08C2246.92 1117.26 2246.33 1119.7 2246.19 1122.41C2246.05 1125.1 2246.39 1127.99 2247.22 1131.07ZM2252.16 1134.79L2250.89 1130.02C2250.19 1127.43 2249.87 1125.01 2249.91 1122.78C2249.96 1120.54 2250.37 1118.53 2251.15 1116.75C2251.9 1114.98 2253.01 1113.47 2254.47 1112.24C2255.91 1111.01 2257.69 1110.11 2259.83 1109.54C2261.9 1108.99 2263.87 1108.88 2265.73 1109.22C2267.59 1109.56 2269.3 1110.31 2270.86 1111.47C2272.42 1112.63 2273.79 1114.16 2274.97 1116.06C2276.13 1117.97 2277.05 1120.23 2277.75 1122.82L2279.03 1127.59C2279.73 1130.21 2280.05 1132.65 2279.99 1134.91C2279.92 1137.15 2279.5 1139.17 2278.73 1140.97C2277.96 1142.75 2276.85 1144.26 2275.41 1145.48C2273.95 1146.71 2272.18 1147.61 2270.11 1148.16C2267.98 1148.74 2265.98 1148.85 2264.12 1148.51C2262.24 1148.17 2260.53 1147.42 2258.99 1146.26C2257.44 1145.08 2256.1 1143.53 2254.96 1141.61C2253.8 1139.68 2252.86 1137.41 2252.16 1134.79Z" fill="black"/>
</g>
<g clip-path="url(#clip21_556_11400)">
<rect width="145.512" height="146.512" rx="10" transform="matrix(-0.965926 0.258819 0.258819 0.965926 2273.62 877.469)" fill="#D4D4D4"/>
<path d="M2219.92 986.812L2212.23 998.32L2215.4 999.995L2223.05 988.594L2219.92 986.812ZM2203.74 968.793L2205 973.502C2205.82 976.581 2206.97 979.26 2208.45 981.54C2209.91 983.799 2211.63 985.615 2213.59 986.987C2215.56 988.359 2217.72 989.235 2220.09 989.614C2222.44 989.999 2224.91 989.844 2227.5 989.148C2230.06 988.464 2232.27 987.365 2234.13 985.853C2235.96 984.347 2237.41 982.503 2238.47 980.322C2239.5 978.147 2240.1 975.711 2240.26 973.015C2240.4 970.304 2240.05 967.409 2239.23 964.33L2237.97 959.621C2237.14 956.542 2236 953.873 2234.53 951.614C2233.03 949.34 2231.3 947.519 2229.31 946.153C2227.33 944.786 2225.16 943.911 2222.82 943.525C2220.47 943.14 2218.02 943.29 2215.46 943.975C2212.87 944.671 2210.65 945.772 2208.81 947.278C2206.95 948.79 2205.5 950.634 2204.47 952.809C2203.43 954.984 2202.85 957.428 2202.71 960.139C2202.57 962.829 2202.91 965.714 2203.74 968.793ZM2208.68 972.515L2207.4 967.746C2206.71 965.15 2206.38 962.735 2206.43 960.501C2206.48 958.266 2206.89 956.258 2207.67 954.476C2208.42 952.7 2209.53 951.195 2210.99 949.963C2212.43 948.736 2214.21 947.837 2216.34 947.265C2218.42 946.71 2220.38 946.604 2222.24 946.946C2224.11 947.289 2225.82 948.038 2227.38 949.195C2228.94 950.351 2230.31 951.882 2231.49 953.787C2232.65 955.698 2233.57 957.952 2234.27 960.548L2235.55 965.317C2236.25 967.933 2236.57 970.371 2236.5 972.631C2236.43 974.871 2236.02 976.892 2235.25 978.694C2234.47 980.475 2233.37 981.98 2231.93 983.207C2230.47 984.439 2228.7 985.333 2226.63 985.888C2224.5 986.46 2222.5 986.574 2220.64 986.232C2218.76 985.894 2217.05 985.145 2215.51 983.983C2213.96 982.801 2212.62 981.252 2211.48 979.336C2210.32 977.405 2209.38 975.131 2208.68 972.515Z" fill="black"/>
</g>
<g clip-path="url(#clip22_556_11400)">
<rect width="145.512" height="146.512" rx="10" transform="matrix(-0.965926 0.258819 0.258819 0.965926 2188.65 1248.09)" fill="#D4D4D4"/>
<path d="M2134.95 1357.43L2127.26 1368.94L2130.43 1370.62L2138.08 1359.21L2134.95 1357.43ZM2118.77 1339.41L2120.03 1344.12C2120.85 1347.2 2122 1349.88 2123.48 1352.16C2124.94 1354.42 2126.66 1356.24 2128.62 1357.61C2130.59 1358.98 2132.75 1359.86 2135.12 1360.23C2137.46 1360.62 2139.94 1360.46 2142.53 1359.77C2145.09 1359.08 2147.29 1357.99 2149.15 1356.47C2150.99 1354.97 2152.44 1353.12 2153.5 1350.94C2154.53 1348.77 2155.13 1346.33 2155.29 1343.64C2155.43 1340.92 2155.08 1338.03 2154.26 1334.95L2153 1330.24C2152.17 1327.16 2151.02 1324.49 2149.56 1322.23C2148.06 1319.96 2146.32 1318.14 2144.34 1316.77C2142.36 1315.41 2140.19 1314.53 2137.85 1314.15C2135.5 1313.76 2133.05 1313.91 2130.49 1314.6C2127.9 1315.29 2125.68 1316.39 2123.84 1317.9C2121.98 1319.41 2120.53 1321.25 2119.5 1323.43C2118.46 1325.61 2117.88 1328.05 2117.74 1330.76C2117.6 1333.45 2117.94 1336.33 2118.77 1339.41ZM2123.71 1343.14L2122.43 1338.37C2121.74 1335.77 2121.41 1333.36 2121.46 1331.12C2121.51 1328.89 2121.92 1326.88 2122.69 1325.1C2123.45 1323.32 2124.55 1321.82 2126.01 1320.58C2127.45 1319.36 2129.24 1318.46 2131.37 1317.89C2133.45 1317.33 2135.41 1317.22 2137.27 1317.57C2139.13 1317.91 2140.84 1318.66 2142.41 1319.82C2143.97 1320.97 2145.34 1322.5 2146.52 1324.41C2147.67 1326.32 2148.6 1328.57 2149.3 1331.17L2150.58 1335.94C2151.28 1338.55 2151.6 1340.99 2151.53 1343.25C2151.46 1345.49 2151.05 1347.51 2150.28 1349.31C2149.5 1351.1 2148.4 1352.6 2146.96 1353.83C2145.5 1355.06 2143.73 1355.95 2141.66 1356.51C2139.52 1357.08 2137.53 1357.19 2135.67 1356.85C2133.79 1356.52 2132.08 1355.77 2130.54 1354.6C2128.99 1353.42 2127.65 1351.87 2126.51 1349.96C2125.34 1348.03 2124.41 1345.75 2123.71 1343.14Z" fill="black"/>
</g>
<g clip-path="url(#clip23_556_11400)">
<rect width="145.512" height="146.512" rx="10" transform="matrix(-0.965926 0.258819 0.258819 0.965926 2144.91 1084.85)" fill="#D4D4D4"/>
<path d="M2091.21 1194.19L2083.52 1205.7L2086.69 1207.37L2094.34 1195.97L2091.21 1194.19ZM2075.03 1176.17L2076.29 1180.88C2077.11 1183.96 2078.26 1186.64 2079.73 1188.92C2081.2 1191.18 2082.92 1192.99 2084.88 1194.37C2086.85 1195.74 2089.01 1196.61 2091.38 1196.99C2093.72 1197.38 2096.19 1197.22 2098.79 1196.53C2101.35 1195.84 2103.55 1194.74 2105.41 1193.23C2107.25 1191.73 2108.7 1189.88 2109.76 1187.7C2110.79 1185.53 2111.39 1183.09 2111.55 1180.39C2111.69 1177.68 2111.34 1174.79 2110.52 1171.71L2109.26 1167C2108.43 1163.92 2107.28 1161.25 2105.82 1158.99C2104.32 1156.72 2102.58 1154.9 2100.6 1153.53C2098.62 1152.17 2096.45 1151.29 2094.1 1150.9C2091.76 1150.52 2089.31 1150.67 2086.75 1151.35C2084.16 1152.05 2081.94 1153.15 2080.1 1154.66C2078.24 1156.17 2076.79 1158.01 2075.76 1160.19C2074.72 1162.36 2074.14 1164.81 2074 1167.52C2073.86 1170.21 2074.2 1173.09 2075.03 1176.17ZM2079.97 1179.89L2078.69 1175.13C2078 1172.53 2077.67 1170.11 2077.72 1167.88C2077.77 1165.65 2078.18 1163.64 2078.95 1161.86C2079.71 1160.08 2080.81 1158.57 2082.27 1157.34C2083.71 1156.12 2085.5 1155.22 2087.63 1154.64C2089.71 1154.09 2091.67 1153.98 2093.53 1154.33C2095.39 1154.67 2097.1 1155.42 2098.66 1156.57C2100.23 1157.73 2101.6 1159.26 2102.77 1161.17C2103.93 1163.08 2104.86 1165.33 2105.56 1167.93L2106.83 1172.7C2107.54 1175.31 2107.85 1177.75 2107.79 1180.01C2107.72 1182.25 2107.3 1184.27 2106.54 1186.07C2105.76 1187.85 2104.66 1189.36 2103.22 1190.59C2101.76 1191.82 2099.99 1192.71 2097.92 1193.27C2095.78 1193.84 2093.79 1193.95 2091.93 1193.61C2090.05 1193.27 2088.34 1192.52 2086.8 1191.36C2085.25 1190.18 2083.91 1188.63 2082.77 1186.72C2081.6 1184.78 2080.67 1182.51 2079.97 1179.89Z" fill="black"/>
</g>
<g clip-path="url(#clip24_556_11400)">
<rect width="145.512" height="146.512" rx="10" transform="matrix(-0.965926 0.258819 0.258819 0.965926 2101.69 923.539)" fill="#D4D4D4"/>
<path d="M2047.99 1032.88L2040.3 1044.39L2043.46 1046.06L2051.12 1034.66L2047.99 1032.88ZM2031.8 1014.86L2033.06 1019.57C2033.89 1022.65 2035.04 1025.33 2036.51 1027.61C2037.98 1029.87 2039.7 1031.68 2041.66 1033.06C2043.62 1034.43 2045.79 1035.3 2048.15 1035.68C2050.5 1036.07 2052.97 1035.91 2055.57 1035.22C2058.12 1034.53 2060.33 1033.43 2062.19 1031.92C2064.03 1030.42 2065.48 1028.57 2066.53 1026.39C2067.57 1024.22 2068.17 1021.78 2068.33 1019.08C2068.46 1016.37 2068.12 1013.48 2067.29 1010.4L2066.03 1005.69C2065.21 1002.61 2064.06 999.943 2062.59 997.684C2061.1 995.409 2059.36 993.589 2057.38 992.223C2055.39 990.856 2053.23 989.98 2050.88 989.595C2048.54 989.21 2046.08 989.36 2043.53 990.045C2040.93 990.741 2038.72 991.842 2036.88 993.348C2035.02 994.86 2033.57 996.704 2032.53 998.879C2031.5 1001.05 2030.91 1003.5 2030.78 1006.21C2030.64 1008.9 2030.98 1011.78 2031.8 1014.86ZM2036.75 1018.59L2035.47 1013.82C2034.77 1011.22 2034.45 1008.8 2034.5 1006.57C2034.55 1004.34 2034.96 1002.33 2035.73 1000.55C2036.48 998.77 2037.59 997.265 2039.05 996.033C2040.49 994.806 2042.28 993.907 2044.41 993.335C2046.48 992.78 2048.45 992.673 2050.31 993.016C2052.17 993.359 2053.88 994.108 2055.44 995.264C2057 996.421 2058.37 997.952 2059.55 999.857C2060.71 1001.77 2061.64 1004.02 2062.33 1006.62L2063.61 1011.39C2064.31 1014 2064.63 1016.44 2064.57 1018.7C2064.5 1020.94 2064.08 1022.96 2063.31 1024.76C2062.54 1026.55 2061.43 1028.05 2059.99 1029.28C2058.53 1030.51 2056.77 1031.4 2054.69 1031.96C2052.56 1032.53 2050.56 1032.64 2048.7 1032.3C2046.82 1031.96 2045.11 1031.21 2043.57 1030.05C2042.03 1028.87 2040.68 1027.32 2039.55 1025.41C2038.38 1023.47 2037.45 1021.2 2036.75 1018.59Z" fill="black"/>
</g>
<g clip-path="url(#clip25_556_11400)">
<rect width="145.512" height="146.512" rx="10" transform="matrix(-0.965926 0.258819 0.258819 0.965926 2006.11 1254.56)" fill="#D4D4D4"/>
<path d="M1952.4 1363.9L1944.71 1375.41L1947.88 1377.08L1955.53 1365.68L1952.4 1363.9ZM1936.22 1345.88L1937.48 1350.59C1938.31 1353.67 1939.46 1356.35 1940.93 1358.63C1942.4 1360.89 1944.11 1362.7 1946.08 1364.07C1948.04 1365.45 1950.21 1366.32 1952.57 1366.7C1954.92 1367.09 1957.39 1366.93 1959.99 1366.24C1962.54 1365.55 1964.75 1364.45 1966.61 1362.94C1968.45 1361.43 1969.89 1359.59 1970.95 1357.41C1971.98 1355.23 1972.58 1352.8 1972.74 1350.1C1972.88 1347.39 1972.54 1344.5 1971.71 1341.42L1970.45 1336.71C1969.62 1333.63 1968.48 1330.96 1967.01 1328.7C1965.52 1326.43 1963.78 1324.61 1961.79 1323.24C1959.81 1321.87 1957.64 1321 1955.3 1320.61C1952.95 1320.23 1950.5 1320.38 1947.95 1321.06C1945.35 1321.76 1943.13 1322.86 1941.29 1324.37C1939.43 1325.88 1937.99 1327.72 1936.95 1329.9C1935.92 1332.07 1935.33 1334.52 1935.19 1337.23C1935.05 1339.92 1935.39 1342.8 1936.22 1345.88ZM1941.16 1349.6L1939.89 1344.83C1939.19 1342.24 1938.87 1339.82 1938.92 1337.59C1938.96 1335.35 1939.37 1333.35 1940.15 1331.56C1940.9 1329.79 1942.01 1328.28 1943.47 1327.05C1944.91 1325.82 1946.69 1324.92 1948.83 1324.35C1950.9 1323.8 1952.87 1323.69 1954.73 1324.03C1956.59 1324.38 1958.3 1325.13 1959.86 1326.28C1961.42 1327.44 1962.79 1328.97 1963.97 1330.87C1965.13 1332.79 1966.06 1335.04 1966.75 1337.64L1968.03 1342.4C1968.73 1345.02 1969.05 1347.46 1968.99 1349.72C1968.92 1351.96 1968.5 1353.98 1967.73 1355.78C1966.96 1357.56 1965.85 1359.07 1964.41 1360.29C1962.95 1361.53 1961.18 1362.42 1959.11 1362.98C1956.98 1363.55 1954.98 1363.66 1953.12 1363.32C1951.24 1362.98 1949.53 1362.23 1947.99 1361.07C1946.44 1359.89 1945.1 1358.34 1943.96 1356.42C1942.8 1354.49 1941.86 1352.22 1941.16 1349.6Z" fill="black"/>
</g>
<g clip-path="url(#clip26_556_11400)">
<rect width="145.512" height="146.512" rx="10" transform="matrix(-0.965926 0.258819 0.258819 0.965926 1962.63 1092.28)" fill="#D4D4D4"/>
<path d="M1908.92 1201.62L1901.23 1213.13L1904.4 1214.81L1912.05 1203.41L1908.92 1201.62ZM1892.74 1183.61L1894 1188.31C1894.82 1191.39 1895.97 1194.07 1897.45 1196.35C1898.92 1198.61 1900.63 1200.43 1902.59 1201.8C1904.56 1203.17 1906.72 1204.05 1909.09 1204.43C1911.44 1204.81 1913.91 1204.66 1916.5 1203.96C1919.06 1203.28 1921.27 1202.18 1923.13 1200.67C1924.97 1199.16 1926.41 1197.32 1927.47 1195.13C1928.5 1192.96 1929.1 1190.52 1929.26 1187.83C1929.4 1185.12 1929.05 1182.22 1928.23 1179.14L1926.97 1174.43C1926.14 1171.35 1925 1168.69 1923.53 1166.43C1922.03 1164.15 1920.3 1162.33 1918.31 1160.96C1916.33 1159.6 1914.16 1158.72 1911.82 1158.34C1909.47 1157.95 1907.02 1158.1 1904.46 1158.79C1901.87 1159.48 1899.65 1160.58 1897.81 1162.09C1895.95 1163.6 1894.5 1165.45 1893.47 1167.62C1892.43 1169.8 1891.85 1172.24 1891.71 1174.95C1891.57 1177.64 1891.91 1180.53 1892.74 1183.61ZM1897.68 1187.33L1896.4 1182.56C1895.71 1179.96 1895.38 1177.55 1895.43 1175.31C1895.48 1173.08 1895.89 1171.07 1896.67 1169.29C1897.42 1167.51 1898.53 1166.01 1899.99 1164.78C1901.43 1163.55 1903.21 1162.65 1905.35 1162.08C1907.42 1161.52 1909.38 1161.42 1911.25 1161.76C1913.11 1162.1 1914.82 1162.85 1916.38 1164.01C1917.94 1165.16 1919.31 1166.69 1920.49 1168.6C1921.65 1170.51 1922.57 1172.76 1923.27 1175.36L1924.55 1180.13C1925.25 1182.75 1925.57 1185.18 1925.5 1187.44C1925.44 1189.68 1925.02 1191.7 1924.25 1193.51C1923.48 1195.29 1922.37 1196.79 1920.93 1198.02C1919.47 1199.25 1917.7 1200.14 1915.63 1200.7C1913.5 1201.27 1911.5 1201.39 1909.64 1201.04C1907.76 1200.71 1906.05 1199.96 1904.51 1198.8C1902.96 1197.61 1901.62 1196.06 1900.48 1194.15C1899.32 1192.22 1898.38 1189.94 1897.68 1187.33Z" fill="black"/>
</g>
<g clip-path="url(#clip27_556_11400)">
<rect width="145.512" height="146.512" rx="10" transform="matrix(-0.965926 0.258819 0.258819 0.965926 1920.37 930.713)" fill="#D4D4D4"/>
<path d="M1866.66 1040.06L1858.97 1051.56L1862.14 1053.24L1869.8 1041.84L1866.66 1040.06ZM1850.48 1022.04L1851.74 1026.75C1852.57 1029.82 1853.72 1032.5 1855.19 1034.78C1856.66 1037.04 1858.37 1038.86 1860.34 1040.23C1862.3 1041.6 1864.47 1042.48 1866.83 1042.86C1869.18 1043.24 1871.65 1043.09 1874.25 1042.39C1876.8 1041.71 1879.01 1040.61 1880.87 1039.1C1882.71 1037.59 1884.16 1035.75 1885.21 1033.57C1886.25 1031.39 1886.84 1028.95 1887.01 1026.26C1887.14 1023.55 1886.8 1020.65 1885.97 1017.57L1884.71 1012.86C1883.89 1009.79 1882.74 1007.12 1881.27 1004.86C1879.78 1002.58 1878.04 1000.76 1876.05 999.396C1874.07 998.03 1871.91 997.154 1869.56 996.769C1867.21 996.384 1864.76 996.534 1862.21 997.219C1859.61 997.914 1857.39 999.015 1855.55 1000.52C1853.69 1002.03 1852.25 1003.88 1851.21 1006.05C1850.18 1008.23 1849.59 1010.67 1849.46 1013.38C1849.31 1016.07 1849.66 1018.96 1850.48 1022.04ZM1855.43 1025.76L1854.15 1020.99C1853.45 1018.39 1853.13 1015.98 1853.18 1013.74C1853.22 1011.51 1853.64 1009.5 1854.41 1007.72C1855.16 1005.94 1856.27 1004.44 1857.73 1003.21C1859.17 1001.98 1860.96 1001.08 1863.09 1000.51C1865.16 999.954 1867.13 999.847 1868.99 1000.19C1870.85 1000.53 1872.56 1001.28 1874.12 1002.44C1875.68 1003.59 1877.05 1005.13 1878.23 1007.03C1879.39 1008.94 1880.32 1011.2 1881.01 1013.79L1882.29 1018.56C1882.99 1021.18 1883.31 1023.61 1883.25 1025.87C1883.18 1028.11 1882.76 1030.14 1881.99 1031.94C1881.22 1033.72 1880.11 1035.22 1878.67 1036.45C1877.21 1037.68 1875.45 1038.58 1873.37 1039.13C1871.24 1039.7 1869.24 1039.82 1867.38 1039.48C1865.5 1039.14 1863.79 1038.39 1862.25 1037.23C1860.7 1036.05 1859.36 1034.5 1858.22 1032.58C1857.06 1030.65 1856.13 1028.38 1855.43 1025.76Z" fill="black"/>
</g>
<g clip-path="url(#clip28_556_11400)">
<rect width="145.512" height="146.512" rx="10" transform="matrix(-0.965926 0.258819 0.258819 0.965926 1827.6 1276.09)" fill="#D4D4D4"/>
<path d="M1773.89 1385.43L1766.2 1396.94L1769.37 1398.62L1777.02 1387.22L1773.89 1385.43ZM1757.71 1367.41L1758.97 1372.12C1759.8 1375.2 1760.95 1377.88 1762.42 1380.16C1763.89 1382.42 1765.6 1384.24 1767.57 1385.61C1769.53 1386.98 1771.7 1387.86 1774.06 1388.24C1776.41 1388.62 1778.88 1388.47 1781.48 1387.77C1784.03 1387.09 1786.24 1385.99 1788.1 1384.47C1789.94 1382.97 1791.39 1381.12 1792.44 1378.94C1793.47 1376.77 1794.07 1374.33 1794.24 1371.64C1794.37 1368.93 1794.03 1366.03 1793.2 1362.95L1791.94 1358.24C1791.12 1355.16 1789.97 1352.49 1788.5 1350.24C1787.01 1347.96 1785.27 1346.14 1783.28 1344.77C1781.3 1343.41 1779.14 1342.53 1776.79 1342.15C1774.44 1341.76 1771.99 1341.91 1769.44 1342.6C1766.84 1343.29 1764.62 1344.39 1762.78 1345.9C1760.92 1347.41 1759.48 1349.26 1758.44 1351.43C1757.41 1353.61 1756.82 1356.05 1756.69 1358.76C1756.54 1361.45 1756.89 1364.34 1757.71 1367.41ZM1762.65 1371.14L1761.38 1366.37C1760.68 1363.77 1760.36 1361.36 1760.41 1359.12C1760.45 1356.89 1760.87 1354.88 1761.64 1353.1C1762.39 1351.32 1763.5 1349.82 1764.96 1348.58C1766.4 1347.36 1768.18 1346.46 1770.32 1345.89C1772.39 1345.33 1774.36 1345.23 1776.22 1345.57C1778.08 1345.91 1779.79 1346.66 1781.35 1347.82C1782.91 1348.97 1784.28 1350.5 1785.46 1352.41C1786.62 1354.32 1787.55 1356.57 1788.24 1359.17L1789.52 1363.94C1790.22 1366.55 1790.54 1368.99 1790.48 1371.25C1790.41 1373.49 1789.99 1375.51 1789.22 1377.32C1788.45 1379.1 1787.34 1380.6 1785.9 1381.83C1784.44 1383.06 1782.68 1383.95 1780.6 1384.51C1778.47 1385.08 1776.47 1385.2 1774.61 1384.85C1772.73 1384.52 1771.02 1383.77 1769.48 1382.6C1767.93 1381.42 1766.59 1379.87 1765.45 1377.96C1764.29 1376.03 1763.36 1373.75 1762.65 1371.14Z" fill="black"/>
</g>
<g clip-path="url(#clip29_556_11400)">
<rect width="145.512" height="146.512" rx="10" transform="matrix(-0.965926 0.258819 0.258819 0.965926 1784.56 1115.46)" fill="#D4D4D4"/>
<path d="M1730.85 1224.8L1723.16 1236.31L1726.33 1237.98L1733.98 1226.58L1730.85 1224.8ZM1714.67 1206.78L1715.93 1211.49C1716.76 1214.57 1717.9 1217.25 1719.38 1219.53C1720.85 1221.79 1722.56 1223.6 1724.53 1224.98C1726.49 1226.35 1728.65 1227.22 1731.02 1227.6C1733.37 1227.99 1735.84 1227.83 1738.43 1227.14C1740.99 1226.45 1743.2 1225.35 1745.06 1223.84C1746.9 1222.34 1748.34 1220.49 1749.4 1218.31C1750.43 1216.14 1751.03 1213.7 1751.19 1211C1751.33 1208.29 1750.99 1205.4 1750.16 1202.32L1748.9 1197.61C1748.07 1194.53 1746.93 1191.86 1745.46 1189.6C1743.97 1187.33 1742.23 1185.51 1740.24 1184.14C1738.26 1182.77 1736.09 1181.9 1733.75 1181.51C1731.4 1181.13 1728.95 1181.28 1726.39 1181.96C1723.8 1182.66 1721.58 1183.76 1719.74 1185.27C1717.88 1186.78 1716.44 1188.62 1715.4 1190.8C1714.37 1192.97 1713.78 1195.42 1713.64 1198.13C1713.5 1200.82 1713.84 1203.7 1714.67 1206.78ZM1719.61 1210.5L1718.34 1205.73C1717.64 1203.14 1717.32 1200.72 1717.36 1198.49C1717.41 1196.25 1717.82 1194.25 1718.6 1192.46C1719.35 1190.69 1720.46 1189.18 1721.92 1187.95C1723.36 1186.72 1725.14 1185.83 1727.28 1185.25C1729.35 1184.7 1731.32 1184.59 1733.18 1184.93C1735.04 1185.28 1736.75 1186.03 1738.31 1187.18C1739.87 1188.34 1741.24 1189.87 1742.42 1191.78C1743.58 1193.69 1744.5 1195.94 1745.2 1198.54L1746.48 1203.31C1747.18 1205.92 1747.5 1208.36 1747.43 1210.62C1747.37 1212.86 1746.95 1214.88 1746.18 1216.68C1745.41 1218.46 1744.3 1219.97 1742.86 1221.2C1741.4 1222.43 1739.63 1223.32 1737.56 1223.88C1735.43 1224.45 1733.43 1224.56 1731.57 1224.22C1729.69 1223.88 1727.98 1223.13 1726.44 1221.97C1724.89 1220.79 1723.55 1219.24 1722.41 1217.32C1721.25 1215.39 1720.31 1213.12 1719.61 1210.5Z" fill="black"/>
</g>
<g clip-path="url(#clip30_556_11400)">
<rect width="145.512" height="146.512" rx="10" transform="matrix(-0.965926 0.258819 0.258819 0.965926 1741.52 954.825)" fill="#D4D4D4"/>
<path d="M1687.81 1064.17L1680.12 1075.68L1683.29 1077.35L1690.94 1065.95L1687.81 1064.17ZM1671.63 1046.15L1672.89 1050.86C1673.71 1053.94 1674.86 1056.62 1676.34 1058.9C1677.81 1061.16 1679.52 1062.97 1681.48 1064.34C1683.45 1065.71 1685.61 1066.59 1687.98 1066.97C1690.33 1067.36 1692.8 1067.2 1695.39 1066.5C1697.95 1065.82 1700.16 1064.72 1702.02 1063.21C1703.86 1061.7 1705.3 1059.86 1706.36 1057.68C1707.39 1055.5 1707.99 1053.07 1708.15 1050.37C1708.29 1047.66 1707.94 1044.77 1707.12 1041.69L1705.86 1036.98C1705.03 1033.9 1703.89 1031.23 1702.42 1028.97C1700.92 1026.7 1699.19 1024.88 1697.2 1023.51C1695.22 1022.14 1693.05 1021.27 1690.71 1020.88C1688.36 1020.5 1685.91 1020.65 1683.35 1021.33C1680.76 1022.03 1678.54 1023.13 1676.7 1024.63C1674.84 1026.15 1673.39 1027.99 1672.36 1030.17C1671.32 1032.34 1670.74 1034.78 1670.6 1037.49C1670.46 1040.19 1670.8 1043.07 1671.63 1046.15ZM1676.57 1049.87L1675.29 1045.1C1674.6 1042.51 1674.27 1040.09 1674.32 1037.86C1674.37 1035.62 1674.78 1033.61 1675.56 1031.83C1676.31 1030.06 1677.42 1028.55 1678.88 1027.32C1680.32 1026.09 1682.1 1025.19 1684.24 1024.62C1686.31 1024.07 1688.27 1023.96 1690.13 1024.3C1692 1024.64 1693.71 1025.39 1695.27 1026.55C1696.83 1027.71 1698.2 1029.24 1699.38 1031.14C1700.54 1033.05 1701.46 1035.31 1702.16 1037.9L1703.44 1042.67C1704.14 1045.29 1704.46 1047.73 1704.39 1049.99C1704.32 1052.23 1703.91 1054.25 1703.14 1056.05C1702.36 1057.83 1701.26 1059.34 1699.82 1060.56C1698.36 1061.8 1696.59 1062.69 1694.52 1063.24C1692.39 1063.82 1690.39 1063.93 1688.53 1063.59C1686.65 1063.25 1684.94 1062.5 1683.4 1061.34C1681.85 1060.16 1680.51 1058.61 1679.37 1056.69C1678.21 1054.76 1677.27 1052.49 1676.57 1049.87Z" fill="black"/>
</g>
<g clip-path="url(#clip31_556_11400)">
<rect width="145.512" height="146.512" rx="10" transform="matrix(-0.965926 0.258819 0.258819 0.965926 1661.62 1344.38)" fill="#D4D4D4"/>
<path d="M1607.91 1453.72L1600.22 1465.23L1603.39 1466.9L1611.04 1455.5L1607.91 1453.72ZM1591.73 1435.7L1592.99 1440.41C1593.82 1443.49 1594.96 1446.17 1596.44 1448.45C1597.91 1450.71 1599.62 1452.52 1601.59 1453.89C1603.55 1455.27 1605.71 1456.14 1608.08 1456.52C1610.43 1456.91 1612.9 1456.75 1615.49 1456.06C1618.05 1455.37 1620.26 1454.27 1622.12 1452.76C1623.96 1451.25 1625.4 1449.41 1626.46 1447.23C1627.49 1445.05 1628.09 1442.62 1628.25 1439.92C1628.39 1437.21 1628.05 1434.32 1627.22 1431.24L1625.96 1426.53C1625.13 1423.45 1623.99 1420.78 1622.52 1418.52C1621.02 1416.25 1619.29 1414.43 1617.3 1413.06C1615.32 1411.69 1613.15 1410.82 1610.81 1410.43C1608.46 1410.05 1606.01 1410.2 1603.45 1410.88C1600.86 1411.58 1598.64 1412.68 1596.8 1414.19C1594.94 1415.7 1593.49 1417.54 1592.46 1419.72C1591.43 1421.89 1590.84 1424.34 1590.7 1427.05C1590.56 1429.74 1590.9 1432.62 1591.73 1435.7ZM1596.67 1439.42L1595.39 1434.65C1594.7 1432.06 1594.38 1429.64 1594.42 1427.41C1594.47 1425.17 1594.88 1423.17 1595.66 1421.38C1596.41 1419.61 1597.52 1418.1 1598.98 1416.87C1600.42 1415.64 1602.2 1414.74 1604.34 1414.17C1606.41 1413.62 1608.38 1413.51 1610.24 1413.85C1612.1 1414.2 1613.81 1414.95 1615.37 1416.1C1616.93 1417.26 1618.3 1418.79 1619.48 1420.69C1620.64 1422.61 1621.56 1424.86 1622.26 1427.46L1623.54 1432.22C1624.24 1434.84 1624.56 1437.28 1624.49 1439.54C1624.43 1441.78 1624.01 1443.8 1623.24 1445.6C1622.47 1447.38 1621.36 1448.89 1619.92 1450.11C1618.46 1451.35 1616.69 1452.24 1614.62 1452.8C1612.49 1453.37 1610.49 1453.48 1608.63 1453.14C1606.75 1452.8 1605.04 1452.05 1603.5 1450.89C1601.95 1449.71 1600.61 1448.16 1599.47 1446.24C1598.31 1444.31 1597.37 1442.04 1596.67 1439.42Z" fill="black"/>
</g>
<g clip-path="url(#clip32_556_11400)">
<rect width="145.512" height="146.512" rx="10" transform="matrix(-0.965926 0.258819 0.258819 0.965926 1618.57 1183.74)" fill="#D4D4D4"/>
<path d="M1564.87 1293.09L1557.18 1304.59L1560.35 1306.27L1568 1294.87L1564.87 1293.09ZM1548.69 1275.07L1549.95 1279.78C1550.77 1282.86 1551.92 1285.54 1553.4 1287.81C1554.86 1290.07 1556.58 1291.89 1558.54 1293.26C1560.51 1294.63 1562.67 1295.51 1565.04 1295.89C1567.39 1296.27 1569.86 1296.12 1572.45 1295.42C1575.01 1294.74 1577.22 1293.64 1579.08 1292.13C1580.91 1290.62 1582.36 1288.78 1583.42 1286.6C1584.45 1284.42 1585.05 1281.99 1585.21 1279.29C1585.35 1276.58 1585 1273.68 1584.18 1270.61L1582.92 1265.9C1582.09 1262.82 1580.95 1260.15 1579.48 1257.89C1577.98 1255.61 1576.24 1253.79 1574.26 1252.43C1572.28 1251.06 1570.11 1250.19 1567.77 1249.8C1565.42 1249.42 1562.97 1249.57 1560.41 1250.25C1557.82 1250.95 1555.6 1252.05 1553.76 1253.55C1551.9 1255.07 1550.45 1256.91 1549.42 1259.08C1548.38 1261.26 1547.8 1263.7 1547.66 1266.41C1547.52 1269.1 1547.86 1271.99 1548.69 1275.07ZM1553.63 1278.79L1552.35 1274.02C1551.66 1271.42 1551.33 1269.01 1551.38 1266.78C1551.43 1264.54 1551.84 1262.53 1552.62 1260.75C1553.37 1258.97 1554.48 1257.47 1555.94 1256.24C1557.38 1255.01 1559.16 1254.11 1561.29 1253.54C1563.37 1252.98 1565.33 1252.88 1567.19 1253.22C1569.05 1253.56 1570.77 1254.31 1572.33 1255.47C1573.89 1256.63 1575.26 1258.16 1576.44 1260.06C1577.6 1261.97 1578.52 1264.23 1579.22 1266.82L1580.5 1271.59C1581.2 1274.21 1581.52 1276.65 1581.45 1278.91C1581.38 1281.15 1580.97 1283.17 1580.2 1284.97C1579.42 1286.75 1578.32 1288.25 1576.88 1289.48C1575.42 1290.71 1573.65 1291.61 1571.58 1292.16C1569.45 1292.73 1567.45 1292.85 1565.59 1292.51C1563.71 1292.17 1562 1291.42 1560.46 1290.26C1558.91 1289.08 1557.57 1287.53 1556.43 1285.61C1555.26 1283.68 1554.33 1281.41 1553.63 1278.79Z" fill="black"/>
</g>
<g clip-path="url(#clip33_556_11400)">
<rect width="145.512" height="146.512" rx="10" transform="matrix(-0.965926 0.258819 0.258819 0.965926 1575.53 1023.11)" fill="#D4D4D4"/>
<path d="M1521.83 1132.45L1514.14 1143.96L1517.31 1145.64L1524.96 1134.24L1521.83 1132.45ZM1505.65 1114.44L1506.91 1119.14C1507.73 1122.22 1508.88 1124.9 1510.35 1127.18C1511.82 1129.44 1513.54 1131.26 1515.5 1132.63C1517.47 1134 1519.63 1134.88 1522 1135.26C1524.34 1135.64 1526.82 1135.49 1529.41 1134.79C1531.97 1134.11 1534.17 1133.01 1536.03 1131.5C1537.87 1129.99 1539.32 1128.15 1540.38 1125.96C1541.41 1123.79 1542.01 1121.35 1542.17 1118.66C1542.31 1115.95 1541.96 1113.05 1541.14 1109.97L1539.88 1105.26C1539.05 1102.18 1537.9 1099.52 1536.44 1097.26C1534.94 1094.98 1533.2 1093.16 1531.22 1091.79C1529.24 1090.43 1527.07 1089.55 1524.72 1089.17C1522.38 1088.78 1519.93 1088.93 1517.37 1089.62C1514.78 1090.31 1512.56 1091.41 1510.72 1092.92C1508.86 1094.43 1507.41 1096.28 1506.38 1098.45C1505.34 1100.63 1504.76 1103.07 1504.62 1105.78C1504.48 1108.47 1504.82 1111.36 1505.65 1114.44ZM1510.59 1118.16L1509.31 1113.39C1508.62 1110.79 1508.29 1108.38 1508.34 1106.14C1508.39 1103.91 1508.8 1101.9 1509.57 1100.12C1510.33 1098.34 1511.43 1096.84 1512.89 1095.61C1514.33 1094.38 1516.12 1093.48 1518.25 1092.91C1520.33 1092.35 1522.29 1092.25 1524.15 1092.59C1526.01 1092.93 1527.72 1093.68 1529.28 1094.84C1530.85 1095.99 1532.22 1097.52 1533.39 1099.43C1534.55 1101.34 1535.48 1103.59 1536.18 1106.19L1537.45 1110.96C1538.16 1113.58 1538.47 1116.01 1538.41 1118.27C1538.34 1120.51 1537.92 1122.53 1537.16 1124.34C1536.38 1126.12 1535.28 1127.62 1533.84 1128.85C1532.38 1130.08 1530.61 1130.98 1528.54 1131.53C1526.4 1132.1 1524.41 1132.22 1522.55 1131.87C1520.67 1131.54 1518.96 1130.79 1517.42 1129.63C1515.87 1128.44 1514.53 1126.89 1513.39 1124.98C1512.22 1123.05 1511.29 1120.77 1510.59 1118.16Z" fill="black"/>
</g>
<g clip-path="url(#clip34_556_11400)">
<rect width="145.512" height="146.512" rx="10" transform="matrix(-0.965926 0.258819 0.258819 0.965926 1496.08 1410.47)" fill="#D4D4D4"/>
<path d="M1442.38 1519.82L1434.69 1531.32L1437.86 1533L1445.51 1521.6L1442.38 1519.82ZM1426.19 1501.8L1427.46 1506.51C1428.28 1509.58 1429.43 1512.26 1430.9 1514.54C1432.37 1516.8 1434.09 1518.62 1436.05 1519.99C1438.02 1521.36 1440.18 1522.24 1442.55 1522.62C1444.89 1523 1447.36 1522.85 1449.96 1522.15C1452.52 1521.47 1454.72 1520.37 1456.58 1518.86C1458.42 1517.35 1459.87 1515.51 1460.92 1513.33C1461.96 1511.15 1462.56 1508.71 1462.72 1506.02C1462.86 1503.31 1462.51 1500.41 1461.69 1497.33L1460.42 1492.62C1459.6 1489.55 1458.45 1486.88 1456.98 1484.62C1455.49 1482.34 1453.75 1480.52 1451.77 1479.16C1449.79 1477.79 1447.62 1476.91 1445.27 1476.53C1442.93 1476.14 1440.48 1476.29 1437.92 1476.98C1435.32 1477.67 1433.11 1478.77 1431.27 1480.28C1429.41 1481.79 1427.96 1483.64 1426.93 1485.81C1425.89 1487.99 1425.31 1490.43 1425.17 1493.14C1425.03 1495.83 1425.37 1498.72 1426.19 1501.8ZM1431.14 1505.52L1429.86 1500.75C1429.17 1498.15 1428.84 1495.74 1428.89 1493.5C1428.94 1491.27 1429.35 1489.26 1430.12 1487.48C1430.88 1485.7 1431.98 1484.2 1433.44 1482.97C1434.88 1481.74 1436.67 1480.84 1438.8 1480.27C1440.88 1479.71 1442.84 1479.61 1444.7 1479.95C1446.56 1480.29 1448.27 1481.04 1449.83 1482.2C1451.39 1483.35 1452.76 1484.88 1453.94 1486.79C1455.1 1488.7 1456.03 1490.95 1456.73 1493.55L1458 1498.32C1458.7 1500.94 1459.02 1503.37 1458.96 1505.63C1458.89 1507.87 1458.47 1509.89 1457.71 1511.7C1456.93 1513.48 1455.83 1514.98 1454.39 1516.21C1452.93 1517.44 1451.16 1518.34 1449.09 1518.89C1446.95 1519.46 1444.96 1519.58 1443.1 1519.23C1441.22 1518.9 1439.51 1518.15 1437.96 1516.99C1436.42 1515.8 1435.08 1514.26 1433.94 1512.34C1432.77 1510.41 1431.84 1508.13 1431.14 1505.52Z" fill="black"/>
</g>
<g clip-path="url(#clip35_556_11400)">
<rect width="145.512" height="146.512" rx="10" transform="matrix(-0.965926 0.258819 0.258819 0.965926 1452.08 1250.1)" fill="#D4D4D4"/>
<path d="M1398.37 1359.44L1390.68 1370.95L1393.85 1372.62L1401.5 1361.22L1398.37 1359.44ZM1382.19 1341.42L1383.45 1346.13C1384.27 1349.21 1385.42 1351.89 1386.9 1354.17C1388.37 1356.43 1390.08 1358.24 1392.04 1359.62C1394.01 1360.99 1396.17 1361.86 1398.54 1362.24C1400.89 1362.63 1403.36 1362.47 1405.95 1361.78C1408.51 1361.09 1410.72 1359.99 1412.58 1358.48C1414.42 1356.98 1415.86 1355.13 1416.92 1352.95C1417.95 1350.78 1418.55 1348.34 1418.71 1345.64C1418.85 1342.93 1418.5 1340.04 1417.68 1336.96L1416.42 1332.25C1415.59 1329.17 1414.45 1326.5 1412.98 1324.24C1411.48 1321.97 1409.75 1320.15 1407.76 1318.78C1405.78 1317.42 1403.61 1316.54 1401.27 1316.15C1398.92 1315.77 1396.47 1315.92 1393.91 1316.6C1391.32 1317.3 1389.1 1318.4 1387.26 1319.91C1385.4 1321.42 1383.95 1323.26 1382.92 1325.44C1381.88 1327.61 1381.3 1330.06 1381.16 1332.77C1381.02 1335.46 1381.36 1338.34 1382.19 1341.42ZM1387.13 1345.14L1385.85 1340.38C1385.16 1337.78 1384.83 1335.36 1384.88 1333.13C1384.93 1330.89 1385.34 1328.89 1386.12 1327.11C1386.87 1325.33 1387.98 1323.82 1389.44 1322.59C1390.88 1321.37 1392.66 1320.47 1394.8 1319.89C1396.87 1319.34 1398.83 1319.23 1400.69 1319.58C1402.56 1319.92 1404.27 1320.67 1405.83 1321.82C1407.39 1322.98 1408.76 1324.51 1409.94 1326.42C1411.1 1328.33 1412.02 1330.58 1412.72 1333.18L1414 1337.95C1414.7 1340.56 1415.02 1343 1414.95 1345.26C1414.88 1347.5 1414.47 1349.52 1413.7 1351.32C1412.92 1353.1 1411.82 1354.61 1410.38 1355.84C1408.92 1357.07 1407.15 1357.96 1405.08 1358.52C1402.95 1359.09 1400.95 1359.2 1399.09 1358.86C1397.21 1358.52 1395.5 1357.77 1393.96 1356.61C1392.41 1355.43 1391.07 1353.88 1389.93 1351.96C1388.77 1350.03 1387.83 1347.76 1387.13 1345.14Z" fill="black"/>
</g>
<g clip-path="url(#clip36_556_11400)">
<rect width="145.512" height="146.512" rx="10" transform="matrix(-0.965926 0.258819 0.258819 0.965926 1409.03 1089.47)" fill="#D4D4D4"/>
<path d="M1355.33 1198.81L1347.64 1210.32L1350.81 1211.99L1358.46 1200.59L1355.33 1198.81ZM1339.15 1180.79L1340.41 1185.5C1341.23 1188.58 1342.38 1191.26 1343.86 1193.54C1345.32 1195.8 1347.04 1197.61 1349 1198.98C1350.97 1200.36 1353.13 1201.23 1355.5 1201.61C1357.84 1202 1360.32 1201.84 1362.91 1201.14C1365.47 1200.46 1367.67 1199.36 1369.53 1197.85C1371.37 1196.34 1372.82 1194.5 1373.88 1192.32C1374.91 1190.14 1375.51 1187.71 1375.67 1185.01C1375.81 1182.3 1375.46 1179.41 1374.64 1176.33L1373.38 1171.62C1372.55 1168.54 1371.4 1165.87 1369.94 1163.61C1368.44 1161.34 1366.7 1159.52 1364.72 1158.15C1362.74 1156.78 1360.57 1155.91 1358.22 1155.52C1355.88 1155.14 1353.43 1155.29 1350.87 1155.97C1348.28 1156.67 1346.06 1157.77 1344.22 1159.27C1342.36 1160.79 1340.91 1162.63 1339.88 1164.81C1338.84 1166.98 1338.26 1169.42 1338.12 1172.13C1337.98 1174.83 1338.32 1177.71 1339.15 1180.79ZM1344.09 1184.51L1342.81 1179.74C1342.12 1177.15 1341.79 1174.73 1341.84 1172.5C1341.89 1170.26 1342.3 1168.25 1343.07 1166.47C1343.83 1164.7 1344.93 1163.19 1346.39 1161.96C1347.83 1160.73 1349.62 1159.83 1351.75 1159.26C1353.83 1158.71 1355.79 1158.6 1357.65 1158.94C1359.51 1159.29 1361.22 1160.03 1362.79 1161.19C1364.35 1162.35 1365.72 1163.88 1366.9 1165.78C1368.05 1167.69 1368.98 1169.95 1369.68 1172.54L1370.96 1177.31C1371.66 1179.93 1371.97 1182.37 1371.91 1184.63C1371.84 1186.87 1371.43 1188.89 1370.66 1190.69C1369.88 1192.47 1368.78 1193.98 1367.34 1195.2C1365.88 1196.44 1364.11 1197.33 1362.04 1197.88C1359.9 1198.46 1357.91 1198.57 1356.05 1198.23C1354.17 1197.89 1352.46 1197.14 1350.92 1195.98C1349.37 1194.8 1348.03 1193.25 1346.89 1191.33C1345.72 1189.4 1344.79 1187.13 1344.09 1184.51Z" fill="black"/>
</g>
</g>
<defs>
<clipPath id="clip0_556_11400">
<rect width="2413" height="1775" fill="white" transform="translate(0.75)"/>
</clipPath>
<clipPath id="clip1_556_11400">
<rect width="177" height="167" fill="white" transform="translate(41.564 1185.44) rotate(15)"/>
</clipPath>
<clipPath id="clip2_556_11400">
<rect width="177" height="167" fill="white" transform="translate(85.4937 1025.36) rotate(15)"/>
</clipPath>
<clipPath id="clip3_556_11400">
<rect width="177" height="167" fill="white" transform="translate(128.975 863.081) rotate(15)"/>
</clipPath>
<clipPath id="clip4_556_11400">
<rect width="177" height="167" fill="white" transform="translate(213.947 1233.7) rotate(15)"/>
</clipPath>
<clipPath id="clip5_556_11400">
<rect width="177" height="167" fill="white" transform="translate(257.688 1070.46) rotate(15)"/>
</clipPath>
<clipPath id="clip6_556_11400">
<rect width="177" height="167" fill="white" transform="translate(300.91 909.151) rotate(15)"/>
</clipPath>
<clipPath id="clip7_556_11400">
<rect width="177" height="167" fill="white" transform="translate(396.493 1240.17) rotate(15)"/>
</clipPath>
<clipPath id="clip8_556_11400">
<rect width="177" height="167" fill="white" transform="translate(439.975 1077.89) rotate(15)"/>
</clipPath>
<clipPath id="clip9_556_11400">
<rect width="177" height="167" fill="white" transform="translate(482.232 916.325) rotate(15)"/>
</clipPath>
<clipPath id="clip10_556_11400">
<rect width="177" height="167" fill="white" transform="translate(575.002 1261.7) rotate(15)"/>
</clipPath>
<clipPath id="clip11_556_11400">
<rect width="177" height="167" fill="white" transform="translate(618.044 1101.07) rotate(15)"/>
</clipPath>
<clipPath id="clip12_556_11400">
<rect width="177" height="167" fill="white" transform="translate(661.085 940.437) rotate(15)"/>
</clipPath>
<clipPath id="clip13_556_11400">
<rect width="177" height="167" fill="white" transform="translate(740.984 1329.99) rotate(15)"/>
</clipPath>
<clipPath id="clip14_556_11400">
<rect width="177" height="167" fill="white" transform="translate(784.026 1169.36) rotate(15)"/>
</clipPath>
<clipPath id="clip15_556_11400">
<rect width="177" height="167" fill="white" transform="translate(827.067 1008.72) rotate(15)"/>
</clipPath>
<clipPath id="clip16_556_11400">
<rect width="177" height="167" fill="white" transform="translate(906.518 1396.08) rotate(15)"/>
</clipPath>
<clipPath id="clip17_556_11400">
<rect width="177" height="167" fill="white" transform="translate(950.525 1235.71) rotate(15)"/>
</clipPath>
<clipPath id="clip18_556_11400">
<rect width="177" height="167" fill="white" transform="translate(993.567 1075.08) rotate(15)"/>
</clipPath>
<clipPath id="clip19_556_11400">
<rect width="177" height="167" fill="white" transform="matrix(-0.965926 0.258819 0.258819 0.965926 2373.44 1185.44)"/>
</clipPath>
<clipPath id="clip20_556_11400">
<rect width="177" height="167" fill="white" transform="matrix(-0.965926 0.258819 0.258819 0.965926 2329.51 1025.36)"/>
</clipPath>
<clipPath id="clip21_556_11400">
<rect width="177" height="167" fill="white" transform="matrix(-0.965926 0.258819 0.258819 0.965926 2286.02 863.081)"/>
</clipPath>
<clipPath id="clip22_556_11400">
<rect width="177" height="167" fill="white" transform="matrix(-0.965926 0.258819 0.258819 0.965926 2201.05 1233.7)"/>
</clipPath>
<clipPath id="clip23_556_11400">
<rect width="177" height="167" fill="white" transform="matrix(-0.965926 0.258819 0.258819 0.965926 2157.31 1070.46)"/>
</clipPath>
<clipPath id="clip24_556_11400">
<rect width="177" height="167" fill="white" transform="matrix(-0.965926 0.258819 0.258819 0.965926 2114.09 909.151)"/>
</clipPath>
<clipPath id="clip25_556_11400">
<rect width="177" height="167" fill="white" transform="matrix(-0.965926 0.258819 0.258819 0.965926 2018.51 1240.17)"/>
</clipPath>
<clipPath id="clip26_556_11400">
<rect width="177" height="167" fill="white" transform="matrix(-0.965926 0.258819 0.258819 0.965926 1975.02 1077.89)"/>
</clipPath>
<clipPath id="clip27_556_11400">
<rect width="177" height="167" fill="white" transform="matrix(-0.965926 0.258819 0.258819 0.965926 1932.77 916.325)"/>
</clipPath>
<clipPath id="clip28_556_11400">
<rect width="177" height="167" fill="white" transform="matrix(-0.965926 0.258819 0.258819 0.965926 1840 1261.7)"/>
</clipPath>
<clipPath id="clip29_556_11400">
<rect width="177" height="167" fill="white" transform="matrix(-0.965926 0.258819 0.258819 0.965926 1796.96 1101.07)"/>
</clipPath>
<clipPath id="clip30_556_11400">
<rect width="177" height="167" fill="white" transform="matrix(-0.965926 0.258819 0.258819 0.965926 1753.91 940.437)"/>
</clipPath>
<clipPath id="clip31_556_11400">
<rect width="177" height="167" fill="white" transform="matrix(-0.965926 0.258819 0.258819 0.965926 1674.02 1329.99)"/>
</clipPath>
<clipPath id="clip32_556_11400">
<rect width="177" height="167" fill="white" transform="matrix(-0.965926 0.258819 0.258819 0.965926 1630.97 1169.36)"/>
</clipPath>
<clipPath id="clip33_556_11400">
<rect width="177" height="167" fill="white" transform="matrix(-0.965926 0.258819 0.258819 0.965926 1587.93 1008.72)"/>
</clipPath>
<clipPath id="clip34_556_11400">
<rect width="177" height="167" fill="white" transform="matrix(-0.965926 0.258819 0.258819 0.965926 1508.48 1396.08)"/>
</clipPath>
<clipPath id="clip35_556_11400">
<rect width="177" height="167" fill="white" transform="matrix(-0.965926 0.258819 0.258819 0.965926 1464.47 1235.71)"/>
</clipPath>
<clipPath id="clip36_556_11400">
<rect width="177" height="167" fill="white" transform="matrix(-0.965926 0.258819 0.258819 0.965926 1421.43 1075.08)"/>
</clipPath>
</defs>
</svg>
