<svg width="2360" height="1640" viewBox="0 0 2360 1640" fill="none" xmlns="http://www.w3.org/2000/svg">
<g id="iPad_Landscape" clip-path="url(#clip0_556_11400)">
<g id="hand">
<g id="key" clip-path="url(#clip1_556_11400)">
<g id="keycap" clip-path="url(#clip2_556_11400)">
<rect id="Z" x="198.998" y="1248.09" width="146" height="147" rx="10" transform="rotate(15 198.998 1248.09)" fill="#D9D9D9"/>
<g id="text left">
<path id="label" d="M260.367 1358.94L259.66 1364.05L230.605 1356.27L230.401 1354.56L257.389 1323.69L264.568 1319.65L256.045 1318.69L243.836 1315.42L244.543 1310.31L270.074 1317.15L270.356 1317.95L242.95 1349.64L235.957 1353.73L244.479 1354.68L260.367 1358.94Z" fill="#343434"/>
</g>
</g>
</g>
<g id="key_2" clip-path="url(#clip3_556_11400)">
<g id="keycap_2" clip-path="url(#clip4_556_11400)">
<rect id="X" x="381.544" y="1254.56" width="146" height="147" rx="10" transform="rotate(15 381.544 1254.56)" fill="#D9D9D9"/>
<g id="text left_2">
<path id="label_2" d="M438.745 1369.59L434.481 1351.26L433.6 1345.02L430.791 1349.57L416.799 1363.71L410.679 1362.07L431.607 1341.21L424.864 1316.18L431.582 1317.32L435.807 1333.82L436.656 1340.54L439.063 1335.89L450.828 1323.14L457.01 1324.79L438.68 1343.87L445.545 1371.41L438.745 1369.59Z" fill="#343434"/>
</g>
</g>
</g>
<g id="key_3" clip-path="url(#clip5_556_11400)">
<g id="keycap_3" clip-path="url(#clip6_556_11400)">
<rect id="S" x="425.026" y="1092.28" width="146" height="147" rx="10" transform="rotate(15 425.026 1092.28)" fill="#D9D9D9"/>
<g id="text left_3">
<path id="label_3" d="M457.783 1197.65L461.838 1193.77C462.178 1194.15 462.631 1194.6 463.197 1195.13C463.788 1195.64 464.455 1196.16 465.196 1196.69C465.938 1197.22 466.744 1197.71 467.617 1198.17C468.489 1198.62 469.399 1198.98 470.347 1199.23C471.624 1199.57 472.943 1199.76 474.304 1199.79C475.69 1199.81 476.987 1199.63 478.194 1199.25C479.427 1198.85 480.501 1198.22 481.416 1197.36C482.351 1196.51 483.01 1195.37 483.391 1193.95C483.749 1192.61 483.755 1191.35 483.407 1190.17C483.06 1189 482.489 1187.87 481.694 1186.8C480.9 1185.73 479.942 1184.69 478.821 1183.68C477.699 1182.67 476.547 1181.66 475.363 1180.63C474.201 1179.61 473.064 1178.58 471.954 1177.53C470.849 1176.46 469.913 1175.34 469.146 1174.16C468.379 1172.98 467.841 1171.74 467.532 1170.42C467.223 1169.1 467.276 1167.66 467.69 1166.12C468.226 1164.12 469.117 1162.48 470.365 1161.2C471.613 1159.93 473.052 1158.96 474.683 1158.32C476.314 1157.67 478.063 1157.33 479.932 1157.27C481.801 1157.22 483.622 1157.43 485.394 1157.91C489.783 1159.09 493.501 1161.41 496.548 1164.87L492.531 1167.87C491.35 1166.67 490.163 1165.7 488.97 1164.96C487.797 1164.23 486.418 1163.65 484.831 1163.22C483.718 1162.93 482.565 1162.74 481.371 1162.66C480.197 1162.59 479.088 1162.69 478.044 1162.96C477.025 1163.22 476.117 1163.68 475.319 1164.35C474.547 1165.01 474.004 1165.92 473.689 1167.1C473.38 1168.25 473.421 1169.33 473.813 1170.34C474.226 1171.36 474.846 1172.34 475.673 1173.29C476.527 1174.23 477.523 1175.17 478.661 1176.11C479.804 1177.04 480.97 1178 482.159 1179.01C483.374 1179.99 484.529 1181.04 485.623 1182.15C486.722 1183.24 487.639 1184.44 488.372 1185.74C489.132 1187.03 489.636 1188.44 489.884 1189.99C490.159 1191.52 490.047 1193.21 489.55 1195.07C488.932 1197.37 487.917 1199.27 486.505 1200.74C485.12 1202.21 483.5 1203.31 481.645 1204.05C479.816 1204.77 477.836 1205.16 475.703 1205.2C473.57 1205.25 471.473 1205 469.413 1204.45C468.094 1204.09 466.89 1203.68 465.801 1203.21C464.706 1202.77 463.682 1202.26 462.729 1201.7C461.797 1201.14 460.922 1200.53 460.105 1199.87C459.294 1199.18 458.52 1198.45 457.783 1197.65Z" fill="#343434"/>
</g>
</g>
</g>
<g id="key_4" clip-path="url(#clip7_556_11400)">
<g id="keycap_4" clip-path="url(#clip8_556_11400)">
<rect id="W" x="467.283" y="930.713" width="146" height="147" rx="10" transform="rotate(15 467.283 930.713)" fill="#D9D9D9"/>
<g id="text left_4">
<path id="label_4" d="M514.053 1019.76L520.333 1008.19L524.661 1009.35L524.532 1022.57L522.585 1038.61L522.709 1038.65L527.508 1024.69L539.194 999.997L544.665 1001.46L523.834 1045.57L518.24 1044.08L518.999 1029.37L521.317 1013.43L521.193 1013.39L515.259 1028.37L508.503 1041.47L503.001 1039.99L506.893 991.342L512.437 992.165L510.507 1020.14L507.656 1034.61L507.779 1034.65L514.053 1019.76Z" fill="#343434"/>
</g>
</g>
</g>
<g id="key_5" clip-path="url(#clip9_556_11400)">
<g id="keycap_5" clip-path="url(#clip10_556_11400)">
<rect id="C" x="560.053" y="1276.09" width="146" height="147" rx="10" transform="rotate(15 560.053 1276.09)" fill="#D9D9D9"/>
<g id="text left_5">
<path id="label_5" d="M622.381 1389.05C621.354 1389.51 620.344 1389.86 619.351 1390.1C618.359 1390.34 617.347 1390.49 616.317 1390.54C615.291 1390.58 614.237 1390.52 613.153 1390.36C612.063 1390.22 610.91 1389.99 609.695 1389.66C607.716 1389.13 605.908 1388.34 604.27 1387.28C602.637 1386.21 601.189 1384.93 599.925 1383.47C598.688 1381.99 597.649 1380.34 596.81 1378.53C595.972 1376.71 595.36 1374.79 594.975 1372.77C594.595 1370.72 594.444 1368.6 594.522 1366.42C594.601 1364.23 594.938 1362.02 595.534 1359.8C596.368 1356.69 597.601 1353.86 599.232 1351.31C600.869 1348.75 602.845 1346.65 605.16 1345.02C607.48 1343.36 610.094 1342.26 613.001 1341.72C615.928 1341.18 619.092 1341.36 622.492 1342.27C624.862 1342.91 626.893 1343.86 628.584 1345.13C630.302 1346.39 631.712 1347.92 632.815 1349.74L629.147 1352.31C628.74 1351.84 628.298 1351.39 627.819 1350.96C627.345 1350.5 626.799 1350.06 626.179 1349.66C625.581 1349.25 624.896 1348.88 624.126 1348.54C623.381 1348.19 622.535 1347.88 621.587 1347.63C619.073 1346.96 616.752 1346.84 614.622 1347.29C612.514 1347.74 610.623 1348.61 608.951 1349.91C607.284 1351.18 605.851 1352.82 604.653 1354.82C603.481 1356.8 602.572 1359 601.926 1361.41C601.523 1362.92 601.272 1364.47 601.173 1366.08C601.073 1367.69 601.121 1369.28 601.317 1370.86C601.534 1372.44 601.909 1373.96 602.444 1375.43C602.978 1376.9 603.677 1378.25 604.541 1379.47C605.426 1380.7 606.477 1381.77 607.693 1382.67C608.915 1383.55 610.32 1384.2 611.906 1384.62C612.834 1384.87 613.659 1385.05 614.381 1385.16C615.104 1385.26 615.799 1385.3 616.467 1385.28C617.156 1385.27 617.858 1385.2 618.574 1385.09C619.296 1384.95 620.119 1384.76 621.044 1384.52L622.381 1389.05Z" fill="#343434"/>
</g>
</g>
</g>
<g id="key_6" clip-path="url(#clip11_556_11400)">
<g id="keycap_6" clip-path="url(#clip12_556_11400)">
<rect id="D" x="603.095" y="1115.46" width="146" height="147" rx="10" transform="rotate(15 603.095 1115.46)" fill="#D9D9D9"/>
<g id="text left_6">
<path id="label_6" d="M646.94 1177.22C647.595 1177.33 648.341 1177.48 649.176 1177.66C650.011 1177.83 650.864 1178.03 651.735 1178.24C652.612 1178.43 653.473 1178.64 654.317 1178.87C655.168 1179.07 655.933 1179.27 656.613 1179.45C659.889 1180.33 662.811 1181.54 665.377 1183.09C667.965 1184.64 670.044 1186.57 671.614 1188.87C673.185 1191.17 674.18 1193.84 674.6 1196.89C675.019 1199.94 674.713 1203.39 673.68 1207.25C672.874 1210.25 671.86 1212.89 670.637 1215.14C669.419 1217.38 668.047 1219.29 666.52 1220.86C665.013 1222.45 663.359 1223.72 661.558 1224.67C659.782 1225.61 657.913 1226.28 655.951 1226.68C654.014 1227.07 652.022 1227.21 649.974 1227.1C647.932 1226.97 645.881 1226.63 643.82 1226.08L635.444 1223.83L646.128 1183.96L646.94 1177.22ZM650.841 1189.86L642.642 1220.46L643.26 1220.63C645.918 1221.34 648.309 1221.65 650.432 1221.56C652.556 1221.46 654.433 1221.09 656.063 1220.45C657.72 1219.79 659.158 1218.91 660.376 1217.83C661.601 1216.72 662.64 1215.52 663.495 1214.22C664.371 1212.93 665.079 1211.61 665.619 1210.25C666.18 1208.9 666.621 1207.63 666.941 1206.43C667.41 1204.68 667.772 1203 668.027 1201.39C668.282 1199.78 668.359 1198.26 668.259 1196.82C668.159 1195.37 667.859 1194.02 667.357 1192.76C666.856 1191.5 666.086 1190.34 665.049 1189.26C664.011 1188.19 662.669 1187.22 661.022 1186.36C659.402 1185.49 657.417 1184.73 655.068 1184.1C654.738 1184.02 654.385 1183.93 654.008 1183.85C653.632 1183.77 653.273 1183.71 652.933 1183.66L651.725 1183.47L650.841 1189.86Z" fill="#343434"/>
</g>
</g>
</g>
<g id="key_7" clip-path="url(#clip13_556_11400)">
<g id="keycap_7" clip-path="url(#clip14_556_11400)">
<rect id="E" x="646.136" y="954.825" width="146" height="147" rx="10" transform="rotate(15 646.136 954.825)" fill="#D9D9D9"/>
<g id="text left_7">
<path id="label_7" d="M708.557 1065.96L706.613 1070.74L678.176 1063.12L680.296 1057.06L689.324 1023.37L690.136 1016.63L718.573 1024.25L717.248 1029.2L694.838 1023.19L693.883 1029.23L691.688 1037.42L711.316 1042.68L710.115 1047.16L690.487 1041.9L687.174 1054.27L685.374 1059.75L708.557 1065.96Z" fill="#343434"/>
</g>
</g>
</g>
<g id="key_8" clip-path="url(#clip15_556_11400)">
<g id="keycap_8" clip-path="url(#clip16_556_11400)">
<rect id="V" x="726.035" y="1344.38" width="146" height="147" rx="10" transform="rotate(15 726.035 1344.38)" fill="#D9D9D9"/>
<g id="text left_8">
<path id="label_8" d="M774.889 1440.61L773.7 1452.22L777.476 1442.83L795.721 1413.06L801.408 1414.59L778.514 1452.18L776.054 1458.15L769.172 1455.64L767.933 1405.62L773.972 1406.57L774.889 1440.61Z" fill="#343434"/>
</g>
</g>
</g>
<g id="key_9" clip-path="url(#clip17_556_11400)">
<g id="keycap_9" clip-path="url(#clip18_556_11400)">
<rect id="F" x="769.077" y="1183.74" width="146" height="147" rx="10" transform="rotate(15 769.077 1183.74)" fill="#D9D9D9"/>
<g id="text left_9">
<path id="label_9" d="M807.299 1293.69L801.426 1292.12L812.11 1252.25L812.922 1245.51L842.132 1253.33L840.188 1258.11L817.779 1252.11L816.823 1258.15L814.628 1266.34L833.792 1271.47L832.592 1275.96L813.428 1270.82L807.299 1293.69Z" fill="#343434"/>
</g>
</g>
</g>
<g id="key_10" clip-path="url(#clip19_556_11400)">
<g id="keycap_10" clip-path="url(#clip20_556_11400)">
<rect id="R" x="812.118" y="1023.11" width="146" height="147" rx="10" transform="rotate(15 812.118 1023.11)" fill="#D9D9D9"/>
<g id="text left_10">
<path id="label_10" d="M855.333 1114.06L850.247 1133.04L844.591 1131.52L855.275 1091.65L855.85 1085.18C857.274 1085.38 858.83 1085.63 860.518 1085.93C862.225 1086.23 863.976 1086.62 865.768 1087.1C868.365 1087.8 870.691 1088.72 872.747 1089.87C874.808 1091 876.499 1092.31 877.819 1093.81C879.139 1095.31 880.037 1096.99 880.513 1098.84C880.995 1100.67 880.957 1102.63 880.399 1104.71C879.819 1106.87 878.938 1108.68 877.754 1110.13C876.571 1111.58 875.183 1112.72 873.59 1113.55C872.004 1114.36 870.235 1114.9 868.285 1115.18C866.34 1115.43 864.321 1115.46 862.228 1115.28L866.286 1117.69L873.832 1139.36L866.939 1137.51L859.41 1115.78C859.261 1115.43 859.047 1115.2 858.77 1115.08C858.498 1114.94 858.279 1114.85 858.115 1114.8L855.333 1114.06ZM859.747 1097.58L856.583 1109.39L860.231 1110.37C862.106 1110.87 863.834 1111.06 865.414 1110.93C867 1110.78 868.406 1110.39 869.633 1109.77C870.865 1109.13 871.896 1108.29 872.726 1107.26C873.561 1106.2 874.158 1105 874.517 1103.66C874.832 1102.49 874.946 1101.4 874.859 1100.41C874.773 1099.41 874.529 1098.51 874.129 1097.69C873.728 1096.88 873.208 1096.14 872.567 1095.49C871.931 1094.81 871.217 1094.22 870.423 1093.72C869.65 1093.22 868.827 1092.79 867.953 1092.43C867.1 1092.07 866.251 1091.77 865.406 1091.55C864.541 1091.31 863.75 1091.14 863.033 1091.01C862.341 1090.87 861.639 1090.77 860.926 1090.71L859.747 1097.58Z" fill="#343434"/>
</g>
</g>
</g>
<g id="key_11" clip-path="url(#clip21_556_11400)">
<g id="keycap_11" clip-path="url(#clip22_556_11400)">
<rect id="B" x="891.569" y="1410.47" width="146" height="147" rx="10" transform="rotate(15 891.569 1410.47)" fill="#D9D9D9"/>
<g id="text left_11">
<path id="label_11" d="M924.073 1518.89L934.757 1479.02L935.486 1472.59C936.766 1472.75 938.072 1472.95 939.404 1473.17C940.756 1473.4 942.101 1473.7 943.441 1474.06C945.831 1474.7 948.067 1475.46 950.147 1476.35C952.234 1477.22 953.986 1478.26 955.404 1479.48C956.843 1480.71 957.862 1482.14 958.46 1483.78C959.064 1485.4 959.082 1487.27 958.513 1489.39C957.911 1491.64 956.908 1493.44 955.503 1494.81C954.099 1496.18 952.384 1497.06 950.359 1497.44L945.235 1497.53L949.663 1499.18C950.82 1499.89 951.875 1500.69 952.828 1501.58C953.786 1502.46 954.554 1503.43 955.131 1504.49C955.729 1505.55 956.11 1506.73 956.275 1508.01C956.44 1509.29 956.321 1510.68 955.917 1512.18C955.448 1513.94 954.792 1515.44 953.948 1516.69C953.124 1517.95 952.17 1519 951.085 1519.83C950 1520.67 948.819 1521.32 947.543 1521.8C946.273 1522.25 944.956 1522.55 943.593 1522.7C942.255 1522.82 940.897 1522.82 939.518 1522.7C938.143 1522.55 936.807 1522.3 935.509 1521.95L924.073 1518.89ZM931.116 1515.48L934.516 1516.39C936.556 1516.93 938.408 1517.28 940.072 1517.41C941.762 1517.53 943.245 1517.4 944.519 1517.01C945.819 1516.61 946.91 1515.92 947.791 1514.94C948.677 1513.94 949.349 1512.59 949.807 1510.88C950.221 1509.33 950.307 1507.94 950.064 1506.71C949.821 1505.47 949.298 1504.37 948.497 1503.4C947.716 1502.44 946.677 1501.62 945.379 1500.95C944.087 1500.25 942.606 1499.67 940.937 1499.23L935.837 1497.86L931.116 1515.48ZM939.291 1484.97L937.121 1493.07L940.366 1493.94C941.64 1494.21 942.929 1494.35 944.233 1494.34C945.557 1494.35 946.779 1494.15 947.898 1493.77C949.044 1493.37 950.037 1492.75 950.879 1491.92C951.747 1491.07 952.369 1489.94 952.745 1488.54C953.109 1487.18 953.091 1485.97 952.689 1484.92C952.314 1483.84 951.701 1482.92 950.85 1482.14C949.999 1481.36 948.982 1480.7 947.801 1480.16C946.641 1479.63 945.473 1479.21 944.299 1478.89C943.598 1478.7 942.858 1478.54 942.079 1478.39C941.326 1478.24 940.614 1478.13 939.942 1478.09L939.291 1484.97Z" fill="#343434"/>
</g>
</g>
</g>
<g id="key_12" clip-path="url(#clip23_556_11400)">
<g id="keycap_12" clip-path="url(#clip24_556_11400)">
<rect id="G" x="935.576" y="1250.1" width="146" height="147" rx="10" transform="rotate(15 935.576 1250.1)" fill="#D9D9D9"/>
<g id="text left_12">
<path id="label_12" d="M1000 1360.54C998.91 1361.24 997.727 1361.87 996.455 1362.41C995.189 1362.93 993.847 1363.32 992.43 1363.58C991.019 1363.82 989.527 1363.91 987.955 1363.84C986.377 1363.79 984.733 1363.54 983.023 1363.08C980.056 1362.29 977.63 1360.95 975.747 1359.08C973.89 1357.19 972.526 1354.95 971.653 1352.35C970.802 1349.76 970.41 1346.89 970.478 1343.75C970.547 1340.61 971.028 1337.38 971.923 1334.04C972.48 1331.96 973.153 1329.98 973.94 1328.12C974.753 1326.24 975.687 1324.52 976.743 1322.97C977.799 1321.42 978.988 1320.07 980.312 1318.93C981.661 1317.76 983.151 1316.86 984.782 1316.21C986.418 1315.55 988.197 1315.17 990.118 1315.09C992.065 1315 994.172 1315.25 996.439 1315.86C998.809 1316.49 1000.94 1317.47 1002.84 1318.8C1004.76 1320.11 1006.28 1321.68 1007.38 1323.49L1003.71 1326.06C1002.9 1325.13 1001.82 1324.22 1000.47 1323.33C999.115 1322.44 997.471 1321.73 995.534 1321.21C993.865 1320.77 992.344 1320.59 990.971 1320.69C989.598 1320.78 988.343 1321.1 987.206 1321.63C986.089 1322.17 985.086 1322.91 984.195 1323.84C983.311 1324.75 982.506 1325.82 981.782 1327.04C981.078 1328.26 980.453 1329.61 979.906 1331.07C979.358 1332.54 978.869 1334.08 978.439 1335.68C978.058 1337.11 977.738 1338.59 977.479 1340.13C977.246 1341.66 977.114 1343.18 977.084 1344.7C977.053 1346.21 977.168 1347.68 977.429 1349.1C977.69 1350.51 978.126 1351.81 978.737 1352.99C979.369 1354.18 980.208 1355.21 981.255 1356.08C982.321 1356.97 983.648 1357.62 985.235 1358.04C986.162 1358.29 987.107 1358.44 988.068 1358.47C989.03 1358.51 989.957 1358.47 990.849 1358.36C991.741 1358.24 992.549 1358.07 993.272 1357.85C994.021 1357.6 994.634 1357.34 995.11 1357.05L998 1346.26L988.46 1343.04L989.537 1339.02L1004.68 1343.08L1000 1360.54Z" fill="#343434"/>
</g>
</g>
</g>
<g id="key_13" clip-path="url(#clip25_556_11400)">
<g id="keycap_13" clip-path="url(#clip26_556_11400)">
<rect id="T" x="978.618" y="1089.47" width="146" height="147" rx="10" transform="rotate(15 978.618 1089.47)" fill="#D9D9D9"/>
<g id="text left_13">
<path id="label_13" d="M1021.79 1200.74L1032.88 1159.32L1019.75 1155.8L1021.07 1150.86L1053.06 1159.43L1051.74 1164.37L1038.76 1160.9L1027.66 1202.31L1021.79 1200.74Z" fill="#343434"/>
</g>
</g>
</g>
<g id="key_14" clip-path="url(#clip27_556_11400)">
<g id="keycap_14" clip-path="url(#clip28_556_11400)">
<rect id="L_S" x="26.6147" y="1199.83" width="146" height="147" rx="10" transform="rotate(15 26.6147 1199.83)" fill="#D9D9D9"/>
<g id="text left_14">
<path id="label_14" d="M26.0673 1294.09L48.6313 1300.14L46.6879 1304.92L18.7147 1297.42L20.9894 1291.41L30.017 1257.71L30.829 1250.97L37.6402 1252.14L27.8672 1288.61L26.0673 1294.09ZM53.7167 1316.74L87.7173 1325.85L86.4335 1330.64L52.4329 1321.53L53.7167 1316.74ZM100.061 1316.1L104.116 1312.22C104.457 1312.6 104.91 1313.05 105.475 1313.58C106.067 1314.09 106.733 1314.61 107.475 1315.14C108.216 1315.67 109.023 1316.16 109.895 1316.62C110.767 1317.07 111.677 1317.43 112.625 1317.68C113.903 1318.02 115.222 1318.21 116.582 1318.25C117.969 1318.26 119.265 1318.08 120.472 1317.7C121.705 1317.3 122.779 1316.67 123.694 1315.81C124.63 1314.96 125.288 1313.82 125.669 1312.4C126.028 1311.06 126.034 1309.8 125.686 1308.63C125.338 1307.45 124.767 1306.33 123.973 1305.25C123.178 1304.18 122.221 1303.14 121.099 1302.13C119.978 1301.12 118.825 1300.11 117.642 1299.08C116.479 1298.06 115.342 1297.03 114.232 1295.98C113.127 1294.91 112.191 1293.79 111.424 1292.61C110.658 1291.44 110.12 1290.19 109.811 1288.87C109.502 1287.55 109.554 1286.12 109.968 1284.57C110.504 1282.57 111.396 1280.93 112.644 1279.65C113.892 1278.38 115.331 1277.42 116.961 1276.77C118.592 1276.12 120.342 1275.78 122.211 1275.73C124.08 1275.67 125.9 1275.89 127.672 1276.36C132.062 1277.54 135.779 1279.86 138.826 1283.32L134.809 1286.32C133.629 1285.12 132.442 1284.15 131.249 1283.41C130.076 1282.68 128.696 1282.1 127.11 1281.68C125.997 1281.38 124.843 1281.19 123.649 1281.11C122.476 1281.04 121.367 1281.14 120.322 1281.41C119.303 1281.67 118.395 1282.13 117.597 1282.8C116.826 1283.46 116.282 1284.37 115.968 1285.55C115.658 1286.7 115.7 1287.78 116.092 1288.79C116.504 1289.81 117.124 1290.79 117.951 1291.74C118.805 1292.68 119.801 1293.62 120.939 1294.57C122.083 1295.49 123.249 1296.45 124.438 1297.46C125.653 1298.45 126.807 1299.5 127.901 1300.61C129.001 1301.7 129.917 1302.89 130.651 1304.19C131.41 1305.48 131.914 1306.89 132.163 1308.44C132.437 1309.97 132.326 1311.66 131.829 1313.52C131.211 1315.83 130.195 1317.72 128.784 1319.2C127.398 1320.66 125.778 1321.76 123.923 1322.5C122.095 1323.22 120.114 1323.61 117.981 1323.66C115.848 1323.7 113.752 1323.45 111.691 1322.9C110.372 1322.54 109.168 1322.13 108.079 1321.66C106.984 1321.22 105.961 1320.71 105.008 1320.15C104.075 1319.59 103.2 1318.98 102.384 1318.32C101.572 1317.64 100.798 1316.9 100.061 1316.1Z" fill="#343434"/>
</g>
</g>
</g>
<g id="key_15" clip-path="url(#clip29_556_11400)">
<g id="keycap_15" clip-path="url(#clip30_556_11400)">
<rect id="CAP" x="70.5444" y="1039.74" width="146" height="147" rx="10" transform="rotate(15 70.5444 1039.74)" fill="#D9D9D9"/>
<g id="text left_15">
<path id="label_15" d="M93.1481 1142.06C92.121 1142.52 91.1113 1142.87 90.1188 1143.11C89.1263 1143.35 88.1148 1143.5 87.084 1143.55C86.0588 1143.59 85.0042 1143.53 83.9202 1143.37C82.8306 1143.23 81.6779 1143 80.4621 1142.67C78.4839 1142.14 76.6757 1141.35 75.0376 1140.29C73.4049 1139.21 71.9567 1137.94 70.6928 1136.48C69.455 1135 68.4167 1133.35 67.5779 1131.54C66.739 1129.72 66.1271 1127.8 65.742 1125.78C65.3624 1123.73 65.2117 1121.61 65.2899 1119.43C65.3681 1117.24 65.7054 1115.03 66.3017 1112.81C67.1354 1109.7 68.368 1106.87 69.9995 1104.32C71.6365 1101.76 73.6124 1099.66 75.9271 1098.03C78.2474 1096.37 80.861 1095.27 83.7681 1094.73C86.6958 1094.19 89.8597 1094.37 93.2598 1095.28C95.6295 1095.92 97.6601 1096.87 99.3516 1098.14C101.069 1099.4 102.479 1100.93 103.582 1102.75L99.914 1105.32C99.5078 1104.85 99.0652 1104.4 98.5861 1103.97C98.1125 1103.51 97.5661 1103.07 96.9468 1102.67C96.3482 1102.26 95.6636 1101.89 94.8931 1101.55C94.1487 1101.2 93.3025 1100.89 92.3546 1100.64C89.8406 1099.97 87.5191 1099.85 85.3899 1100.3C83.2813 1100.75 81.3907 1101.62 79.7182 1102.92C78.0511 1104.19 76.6186 1105.83 75.4207 1107.83C74.2488 1109.81 73.3399 1112.01 72.6939 1114.42C72.2908 1115.93 72.0396 1117.48 71.9401 1119.09C71.8406 1120.7 71.8888 1122.29 72.0848 1123.86C72.3014 1125.45 72.6768 1126.97 73.211 1128.44C73.7452 1129.91 74.4444 1131.26 75.3087 1132.48C76.1936 1133.71 77.2443 1134.78 78.4607 1135.68C79.6827 1136.56 81.0871 1137.21 82.6737 1137.63C83.601 1137.88 84.426 1138.06 85.1487 1138.17C85.8714 1138.27 86.5667 1138.31 87.2346 1138.29C87.9231 1138.28 88.6254 1138.21 89.3415 1138.1C90.0631 1137.96 90.8865 1137.77 91.8116 1137.53L93.1481 1142.06ZM98.0292 1146.82L123.385 1110.54L126.124 1104.65L131.791 1105.51L136.141 1157.03L129.959 1155.37L129.111 1140.24L112.575 1135.81L103.717 1148.34L98.0292 1146.82ZM128.572 1108.62L124.531 1118.14L115.331 1131.58L128.839 1135.2L127.313 1118.89L128.572 1108.62ZM150.94 1161L145.067 1159.42L155.751 1119.55L156.326 1113.08C156.971 1113.14 157.717 1113.24 158.564 1113.38C159.431 1113.52 160.336 1113.69 161.28 1113.87C162.224 1114.06 163.172 1114.27 164.126 1114.5C165.085 1114.72 165.966 1114.93 166.77 1115.15C170.273 1116.08 173.206 1117.21 175.57 1118.53C177.959 1119.83 179.826 1121.27 181.171 1122.85C182.521 1124.4 183.378 1126.07 183.742 1127.84C184.126 1129.62 184.067 1131.45 183.564 1133.33C182.819 1136.11 181.7 1138.31 180.209 1139.92C178.717 1141.53 176.838 1142.65 174.571 1143.28C172.31 1143.88 169.64 1144.04 166.56 1143.75C163.487 1143.43 160.002 1142.75 156.108 1141.71L150.94 1161ZM160.439 1125.54L157.276 1137.35C160.408 1138.19 163.134 1138.73 165.453 1138.98C167.772 1139.22 169.748 1139.15 171.379 1138.74C173.017 1138.32 174.339 1137.55 175.346 1136.43C176.353 1135.31 177.114 1133.79 177.627 1131.87C177.997 1130.49 177.921 1129.17 177.399 1127.9C176.903 1126.62 176.121 1125.46 175.051 1124.42C173.988 1123.36 172.743 1122.44 171.317 1121.67C169.892 1120.89 168.448 1120.3 166.985 1119.91C166.634 1119.81 166.209 1119.71 165.709 1119.6C165.235 1119.47 164.745 1119.36 164.24 1119.27C163.74 1119.16 163.247 1119.06 162.762 1118.98C162.298 1118.9 161.903 1118.84 161.577 1118.82L160.439 1125.54Z" fill="#343434"/>
</g>
</g>
</g>
<g id="key_16" clip-path="url(#clip31_556_11400)">
<g id="keycap_16" clip-path="url(#clip32_556_11400)">
<rect id="A" x="242.738" y="1084.85" width="146" height="147" rx="10" transform="rotate(15 242.738 1084.85)" fill="#D9D9D9"/>
<g id="text left_16">
<path id="label_16" d="M269.74 1191.79L295.096 1155.52L297.835 1149.63L303.502 1150.48L307.852 1202L301.67 1200.35L300.822 1185.21L284.286 1180.78L275.428 1193.32L269.74 1191.79ZM300.283 1153.6L296.242 1163.11L287.042 1176.55L300.55 1180.17L299.023 1163.86L300.283 1153.6Z" fill="#343434"/>
</g>
</g>
</g>
<g id="key_17" clip-path="url(#clip33_556_11400)">
<g id="keycap_17" clip-path="url(#clip34_556_11400)">
<rect id="Q" x="285.961" y="923.539" width="146" height="147" rx="10" transform="rotate(15 285.961 923.539)" fill="#D9D9D9"/>
<g id="text left_17">
<path id="label_17" d="M342.888 1028.1C343.456 1027.54 344.012 1026.91 344.557 1026.19C345.108 1025.46 345.63 1024.58 346.123 1023.57C346.637 1022.55 347.14 1021.38 347.634 1020.03C348.133 1018.66 348.623 1017.08 349.103 1015.29C349.49 1013.84 349.807 1012.37 350.055 1010.87C350.323 1009.37 350.475 1007.9 350.509 1006.45C350.55 1004.98 350.462 1003.58 350.246 1002.24C350.031 1000.9 349.627 999.691 349.035 998.605C348.448 997.498 347.667 996.538 346.692 995.724C345.718 994.911 344.499 994.308 343.036 993.916C341.634 993.541 340.329 993.467 339.119 993.695C337.936 993.908 336.837 994.343 335.822 994.998C334.807 995.654 333.877 996.487 333.032 997.497C332.187 998.508 331.426 999.618 330.748 1000.83C330.076 1002.02 329.486 1003.27 328.977 1004.59C328.495 1005.9 328.085 1007.18 327.748 1008.44C327.306 1010.09 326.924 1011.72 326.602 1013.33C326.28 1014.95 326.073 1016.5 325.98 1018C325.909 1019.51 325.98 1020.93 326.196 1022.27C326.432 1023.61 326.874 1024.85 327.523 1025.97C328.198 1027.08 329.118 1028.05 330.284 1028.9C331.449 1029.74 332.936 1030.41 334.744 1030.92C334.95 1030.97 335.141 1031 335.317 1031.01C335.493 1031.01 335.77 1031.01 336.148 1031C335.86 1029.93 335.605 1028.99 335.38 1028.17C335.182 1027.35 334.94 1026.64 334.655 1026.06C334.375 1025.45 334.019 1024.97 333.585 1024.61C333.157 1024.23 332.592 1023.95 331.892 1023.76L334.661 1019.73C335.67 1020 336.519 1020.46 337.207 1021.11C337.921 1021.74 338.535 1022.58 339.051 1023.63C339.566 1024.67 340.026 1025.92 340.431 1027.37C340.842 1028.81 341.282 1030.46 341.753 1032.33L342.888 1028.1ZM335.341 1036.48C334.617 1036.46 333.855 1036.38 333.056 1036.23C332.277 1036.09 331.393 1035.89 330.404 1035.62C327.848 1034.94 325.776 1033.68 324.187 1031.87C322.618 1030.06 321.478 1027.88 320.765 1025.35C320.052 1022.82 319.747 1020.04 319.849 1017.02C319.972 1014.01 320.448 1010.95 321.276 1007.86C321.856 1005.7 322.568 1003.66 323.413 1001.74C324.263 999.808 325.232 998.047 326.32 996.461C327.433 994.86 328.647 993.462 329.961 992.268C331.295 991.08 332.729 990.139 334.262 989.445C335.8 988.731 337.438 988.308 339.173 988.177C340.915 988.025 342.733 988.203 344.629 988.711C347.411 989.457 349.708 990.691 351.522 992.414C353.335 994.136 354.682 996.198 355.563 998.598C356.443 1001 356.872 1003.69 356.848 1006.66C356.844 1009.64 356.409 1012.75 355.542 1015.99C355.012 1017.96 354.368 1019.91 353.612 1021.83C352.861 1023.73 352 1025.49 351.031 1027.13C350.082 1028.78 349.012 1030.26 347.82 1031.57C346.655 1032.87 345.372 1033.91 343.972 1034.68C343.763 1034.8 343.541 1034.93 343.306 1035.07C343.076 1035.18 342.86 1035.29 342.656 1035.39C342.871 1036.16 343.083 1036.76 343.293 1037.22C343.503 1037.67 343.776 1038.05 344.112 1038.37C344.454 1038.66 344.895 1038.91 345.434 1039.12C345.98 1039.31 346.685 1039.52 347.551 1039.75L344.773 1043.81C343.743 1043.53 342.817 1043.2 341.996 1042.8C341.195 1042.41 340.465 1041.84 339.805 1041.09C339.165 1040.34 338.6 1039.36 338.108 1038.15C337.616 1036.93 337.161 1035.38 336.743 1033.48L336.476 1032.24L335.341 1036.48Z" fill="#343434"/>
</g>
</g>
</g>
<g id="key_18" clip-path="url(#clip35_556_11400)">
<g id="keycap_18" clip-path="url(#clip36_556_11400)">
<rect id="TAB" x="114.026" y="877.469" width="146" height="147" rx="10" transform="rotate(15 114.026 877.469)" fill="#D9D9D9"/>
<g id="text left_18">
<path id="label_18" d="M117.47 978.101L128.568 936.682L115.432 933.162L116.757 928.216L148.748 936.788L147.423 941.734L134.441 938.256L123.343 979.674L117.47 978.101ZM141.511 984.543L166.867 948.269L169.606 942.377L175.273 943.233L179.623 994.755L173.441 993.098L172.593 977.963L156.056 973.532L147.198 986.066L141.511 984.543ZM172.054 946.346L168.013 955.864L158.813 969.301L172.321 972.921L170.794 956.61L172.054 946.346ZM187.22 996.79L197.904 956.917L198.633 950.486C199.913 950.653 201.219 950.848 202.551 951.072C203.903 951.302 205.248 951.596 206.588 951.955C208.978 952.596 211.214 953.36 213.295 954.249C215.381 955.117 217.133 956.161 218.551 957.38C219.99 958.605 221.009 960.038 221.607 961.678C222.211 963.297 222.229 965.168 221.66 967.291C221.058 969.537 220.055 971.344 218.65 972.713C217.246 974.081 215.531 974.958 213.506 975.343L208.382 975.427L212.81 977.078C213.967 977.785 215.022 978.587 215.975 979.483C216.933 980.358 217.701 981.326 218.278 982.386C218.876 983.452 219.257 984.625 219.422 985.906C219.587 987.187 219.468 988.579 219.065 990.084C218.595 991.835 217.939 993.338 217.095 994.591C216.271 995.851 215.317 996.898 214.232 997.734C213.147 998.569 211.966 999.225 210.69 999.7C209.42 1000.15 208.103 1000.45 206.74 1000.6C205.403 1000.72 204.044 1000.72 202.665 1000.6C201.291 1000.45 199.954 1000.2 198.656 999.855L187.22 996.79ZM194.263 993.377L197.663 994.288C199.703 994.834 201.555 995.176 203.219 995.313C204.909 995.434 206.392 995.301 207.666 994.914C208.966 994.512 210.057 993.821 210.938 992.842C211.824 991.843 212.496 990.488 212.954 988.778C213.368 987.232 213.454 985.842 213.211 984.606C212.968 983.37 212.445 982.27 211.644 981.304C210.863 980.344 209.824 979.524 208.526 978.845C207.234 978.146 205.753 977.572 204.084 977.125L198.984 975.758L194.263 993.377ZM202.438 962.869L200.268 970.967L203.513 971.837C204.787 972.112 206.076 972.247 207.38 972.244C208.704 972.245 209.926 972.053 211.045 971.669C212.191 971.269 213.184 970.652 214.026 969.817C214.894 968.967 215.516 967.842 215.892 966.441C216.256 965.081 216.238 963.872 215.836 962.815C215.461 961.743 214.848 960.816 213.997 960.036C213.146 959.256 212.13 958.597 210.948 958.06C209.788 957.528 208.62 957.105 207.446 956.79C206.745 956.602 206.005 956.437 205.226 956.295C204.473 956.137 203.761 956.035 203.089 955.987L202.438 962.869Z" fill="#343434"/>
</g>
</g>
</g>
</g>
<g id="hand_2">
<g id="key_19" clip-path="url(#clip37_556_11400)">
<g id="keycap_19" clip-path="url(#clip38_556_11400)">
<rect id="/" width="146" height="147" rx="10" transform="matrix(-0.965926 0.258819 0.258819 0.965926 2161.31 1248.09)" fill="#D9D9D9"/>
<g id="text right">
<path id="label_19" d="M2106.85 1365.7L2100.36 1367.44L2108.22 1309.02L2114.41 1307.36L2106.85 1365.7Z" fill="#343434"/>
</g>
</g>
</g>
<g id="key_20" clip-path="url(#clip39_556_11400)">
<g id="keycap_20" clip-path="url(#clip40_556_11400)">
<rect id="." width="146" height="147" rx="10" transform="matrix(-0.965926 0.258819 0.258819 0.965926 1978.76 1254.56)" fill="#D9D9D9"/>
<g id="text right_2">
<path id="label_20" d="M1914.53 1366.51C1914.35 1365.8 1914.3 1365.11 1914.41 1364.42C1914.51 1363.73 1914.73 1363.1 1915.06 1362.52C1915.4 1361.92 1915.84 1361.41 1916.37 1360.98C1916.91 1360.54 1917.54 1360.23 1918.24 1360.05C1918.94 1359.86 1919.63 1359.82 1920.32 1359.92C1921.01 1360.02 1921.65 1360.25 1922.23 1360.6C1922.82 1360.93 1923.34 1361.36 1923.77 1361.91C1924.21 1362.46 1924.52 1363.08 1924.7 1363.78C1924.89 1364.48 1924.94 1365.19 1924.84 1365.9C1924.74 1366.59 1924.52 1367.23 1924.2 1367.83C1923.87 1368.4 1923.43 1368.9 1922.88 1369.34C1922.36 1369.79 1921.75 1370.1 1921.05 1370.29C1920.35 1370.48 1919.64 1370.51 1918.92 1370.4C1918.23 1370.3 1917.59 1370.08 1917 1369.75C1916.42 1369.4 1915.91 1368.95 1915.48 1368.41C1915.04 1367.84 1914.72 1367.21 1914.53 1366.51Z" fill="#343434"/>
</g>
</g>
</g>
<g id="key_21" clip-path="url(#clip41_556_11400)">
<g id="keycap_21" clip-path="url(#clip42_556_11400)">
<rect id="L" width="146" height="147" rx="10" transform="matrix(-0.965926 0.258819 0.258819 0.965926 1935.28 1092.28)" fill="#D9D9D9"/>
<g id="text right_3">
<path id="label_21" d="M1878.6 1201.87L1901.17 1195.83L1901.88 1200.94L1873.9 1208.44L1872.86 1202.09L1863.84 1168.4L1861.17 1162.15L1867.65 1159.75L1877.42 1196.23L1878.6 1201.87Z" fill="#343434"/>
</g>
</g>
</g>
<g id="key_22" clip-path="url(#clip43_556_11400)">
<g id="keycap_22" clip-path="url(#clip44_556_11400)">
<rect id="O" width="146" height="147" rx="10" transform="matrix(-0.965926 0.258819 0.258819 0.965926 1893.02 930.713)" fill="#D9D9D9"/>
<g id="text right_4">
<path id="label_22" d="M1846.07 1043.57C1844.21 1044.06 1842.43 1044.24 1840.71 1044.11C1839.01 1043.94 1837.39 1043.52 1835.83 1042.83C1834.29 1042.12 1832.86 1041.16 1831.52 1039.98C1830.19 1038.79 1828.96 1037.41 1827.83 1035.83C1826.71 1034.23 1825.72 1032.47 1824.86 1030.56C1824.01 1028.63 1823.29 1026.58 1822.71 1024.41C1822.13 1022.25 1821.73 1020.13 1821.5 1018.05C1821.27 1015.94 1821.23 1013.93 1821.38 1012.02C1821.54 1010.07 1821.9 1008.26 1822.44 1006.56C1823 1004.87 1823.77 1003.34 1824.75 1001.97C1825.73 1000.58 1826.93 999.397 1828.37 998.416C1829.8 997.414 1831.47 996.658 1833.36 996.15C1835.22 995.654 1836.99 995.487 1838.69 995.649C1840.41 995.786 1842.04 996.212 1843.57 996.926C1845.13 997.614 1846.57 998.552 1847.91 999.74C1849.24 1000.93 1850.47 1002.32 1851.58 1003.92C1852.71 1005.5 1853.7 1007.26 1854.55 1009.19C1855.41 1011.1 1856.13 1013.14 1856.71 1015.3C1857.29 1017.47 1857.7 1019.6 1857.93 1021.7C1858.16 1023.78 1858.19 1025.8 1858.03 1027.74C1857.88 1029.66 1857.52 1031.46 1856.96 1033.16C1856.42 1034.85 1855.66 1036.39 1854.69 1037.78C1853.71 1039.14 1852.5 1040.33 1851.07 1041.33C1849.63 1042.31 1847.96 1043.06 1846.07 1043.57ZM1850.54 1017.98C1850.16 1016.54 1849.71 1015.08 1849.2 1013.61C1848.72 1012.12 1848.14 1010.71 1847.47 1009.37C1846.82 1007.99 1846.07 1006.75 1845.24 1005.62C1844.41 1004.48 1843.46 1003.55 1842.41 1002.84C1841.37 1002.1 1840.2 1001.61 1838.9 1001.36C1837.62 1001.11 1836.19 1001.19 1834.63 1001.61C1833.14 1002.01 1831.92 1002.6 1830.96 1003.39C1830 1004.17 1829.26 1005.1 1828.73 1006.17C1828.19 1007.22 1827.83 1008.39 1827.64 1009.68C1827.45 1010.94 1827.39 1012.25 1827.47 1013.6C1827.54 1014.95 1827.71 1016.31 1827.96 1017.67C1828.22 1019.04 1828.52 1020.35 1828.85 1021.61C1829.25 1023.07 1829.69 1024.55 1830.18 1026.06C1830.69 1027.55 1831.27 1028.99 1831.93 1030.36C1832.6 1031.7 1833.35 1032.95 1834.19 1034.09C1835.02 1035.22 1835.96 1036.15 1837.02 1036.88C1838.08 1037.61 1839.25 1038.1 1840.53 1038.36C1841.81 1038.61 1843.24 1038.53 1844.8 1038.11C1846.27 1037.71 1847.47 1037.13 1848.41 1036.35C1849.36 1035.54 1850.1 1034.6 1850.63 1033.53C1851.18 1032.43 1851.55 1031.25 1851.74 1029.99C1851.92 1028.7 1851.98 1027.38 1851.9 1026.03C1851.84 1024.66 1851.69 1023.29 1851.43 1021.92C1851.18 1020.55 1850.88 1019.24 1850.54 1017.98Z" fill="#343434"/>
</g>
</g>
</g>
<g id="key_23" clip-path="url(#clip45_556_11400)">
<g id="keycap_23" clip-path="url(#clip46_556_11400)">
<rect id="," width="146" height="147" rx="10" transform="matrix(-0.965926 0.258819 0.258819 0.965926 1800.25 1276.09)" fill="#D9D9D9"/>
<g id="text right_5">
<path id="label_23" d="M1736.71 1388.62C1736.55 1388.02 1736.51 1387.42 1736.6 1386.83C1736.69 1386.2 1736.9 1385.64 1737.2 1385.14C1737.53 1384.63 1737.94 1384.18 1738.43 1383.78C1738.92 1383.39 1739.47 1383.11 1740.09 1382.94C1740.69 1382.78 1741.29 1382.74 1741.88 1382.83C1742.5 1382.88 1743.06 1383.06 1743.59 1383.36C1744.13 1383.66 1744.61 1384.09 1745.03 1384.67C1745.46 1385.21 1745.79 1385.89 1746 1386.69C1746.29 1387.78 1746.51 1388.86 1746.64 1389.93C1746.78 1390.98 1746.78 1392.08 1746.63 1393.25C1746.5 1394.41 1746.19 1395.64 1745.7 1396.94C1745.21 1398.24 1744.48 1399.65 1743.52 1401.17L1741.72 1400.89C1741.95 1399.86 1742.12 1398.81 1742.24 1397.74C1742.33 1396.85 1742.37 1395.89 1742.36 1394.86C1742.37 1393.84 1742.26 1392.87 1742.01 1391.97C1741.49 1392.08 1740.96 1392.11 1740.41 1392.03C1739.86 1391.96 1739.34 1391.8 1738.86 1391.55C1738.37 1391.29 1737.93 1390.91 1737.56 1390.41C1737.18 1389.92 1736.9 1389.32 1736.71 1388.62Z" fill="#343434"/>
</g>
</g>
</g>
<g id="key_24" clip-path="url(#clip47_556_11400)">
<g id="keycap_24" clip-path="url(#clip48_556_11400)">
<rect id="K" width="146" height="147" rx="10" transform="matrix(-0.965926 0.258819 0.258819 0.965926 1757.21 1115.46)" fill="#D9D9D9"/>
<g id="text right_6">
<path id="label_24" d="M1696.36 1231.47L1685.68 1191.6L1683.01 1185.36L1689.67 1182.91L1695.17 1203.43L1706.72 1179L1713.58 1177.16L1702.42 1201.19L1697.72 1204.54L1703.58 1204.89L1726.84 1223.3L1719.51 1225.27L1696.08 1206.83L1702.26 1229.89L1696.36 1231.47Z" fill="#343434"/>
</g>
</g>
</g>
<g id="key_25" clip-path="url(#clip49_556_11400)">
<g id="keycap_25" clip-path="url(#clip50_556_11400)">
<rect id="I" width="146" height="147" rx="10" transform="matrix(-0.965926 0.258819 0.258819 0.965926 1714.17 954.825)" fill="#D9D9D9"/>
<g id="text right_7">
<path id="label_25" d="M1640.74 1024.52L1668.56 1017.06L1669.88 1022.01L1658.82 1024.97L1668.59 1061.45L1680.27 1058.31L1680.98 1063.43L1653.16 1070.88L1651.84 1065.93L1662.84 1062.99L1653.07 1026.51L1641.45 1029.63L1640.74 1024.52Z" fill="#343434"/>
</g>
</g>
</g>
<g id="key_26" clip-path="url(#clip51_556_11400)">
<g id="keycap_26" clip-path="url(#clip52_556_11400)">
<rect id="M" width="146" height="147" rx="10" transform="matrix(-0.965926 0.258819 0.258819 0.965926 1634.27 1344.38)" fill="#D9D9D9"/>
<g id="text right_8">
<path id="label_26" d="M1597.16 1454.03L1589.7 1426.18L1587.39 1410.3L1587.23 1410.31L1586.44 1426.39L1584.58 1440.84L1581.49 1441.66L1572.57 1430.14L1563.52 1416.66L1563.35 1416.74L1569.76 1431.52L1577.22 1459.37L1571.66 1460.86L1560.97 1420.99L1558.37 1414.73L1564.82 1412.34L1577.14 1427.92L1581.41 1435.06L1581.47 1426.76L1583.9 1407.89L1590.13 1405.56L1602.72 1452.54L1597.16 1454.03Z" fill="#343434"/>
</g>
</g>
</g>
<g id="key_27" clip-path="url(#clip53_556_11400)">
<g id="keycap_27" clip-path="url(#clip54_556_11400)">
<rect id="J" width="146" height="147" rx="10" transform="matrix(-0.965926 0.258819 0.258819 0.965926 1591.23 1183.74)" fill="#D9D9D9"/>
<g id="text right_9">
<path id="label_27" d="M1523.67 1251.86L1545.31 1246.06L1554.17 1279.14C1554.71 1281.14 1554.95 1283.01 1554.89 1284.78C1554.83 1286.54 1554.44 1288.21 1553.71 1289.79C1552.99 1291.38 1551.85 1292.74 1550.31 1293.89C1548.76 1295.03 1546.73 1295.94 1544.21 1296.61C1542.6 1297.04 1541.11 1297.25 1539.73 1297.22C1538.37 1297.16 1537.11 1296.97 1535.94 1296.64C1534.76 1296.3 1533.68 1295.87 1532.68 1295.36C1531.7 1294.85 1530.79 1294.35 1529.95 1293.84L1532.13 1289.35C1532.39 1289.5 1532.86 1289.74 1533.54 1290.06C1534.22 1290.37 1535.03 1290.65 1535.96 1290.91C1536.88 1291.15 1537.9 1291.3 1539 1291.38C1540.1 1291.46 1541.23 1291.35 1542.39 1291.04C1545.04 1290.33 1546.9 1289.02 1547.96 1287.13C1549.04 1285.23 1549.15 1282.65 1548.28 1279.39L1542.66 1258.43L1541.69 1252.33L1525.62 1256.64L1523.67 1251.86Z" fill="#343434"/>
</g>
</g>
</g>
<g id="key_28" clip-path="url(#clip55_556_11400)">
<g id="keycap_28" clip-path="url(#clip56_556_11400)">
<rect id="U" width="146" height="147" rx="10" transform="matrix(-0.965926 0.258819 0.258819 0.965926 1548.18 1023.11)" fill="#D9D9D9"/>
<g id="text right_10">
<path id="label_28" d="M1503.04 1085.22L1511.13 1115.42C1511.88 1118.22 1512.2 1120.77 1512.08 1123.05C1511.98 1125.31 1511.48 1127.3 1510.57 1129.02C1509.68 1130.74 1508.42 1132.2 1506.77 1133.39C1505.12 1134.56 1503.12 1135.46 1500.77 1136.09C1498.25 1136.76 1495.99 1136.9 1493.99 1136.51C1492 1136.1 1490.24 1135.24 1488.7 1133.96C1487.16 1132.65 1485.83 1130.94 1484.71 1128.83C1483.61 1126.72 1482.7 1124.3 1481.97 1121.58L1476.03 1099.42L1473.37 1093.17L1480 1090.73L1488 1120.59C1488.53 1122.55 1489.18 1124.25 1489.97 1125.7C1490.77 1127.12 1491.67 1128.27 1492.68 1129.15C1493.68 1130 1494.77 1130.57 1495.95 1130.85C1497.13 1131.13 1498.37 1131.1 1499.67 1130.75C1502.7 1129.94 1504.65 1128.45 1505.53 1126.3C1506.43 1124.11 1506.39 1121.21 1505.42 1117.58L1497.17 1086.8L1503.04 1085.22Z" fill="#343434"/>
</g>
</g>
</g>
<g id="key_29" clip-path="url(#clip57_556_11400)">
<g id="keycap_29" clip-path="url(#clip58_556_11400)">
<rect id="N" width="146" height="147" rx="10" transform="matrix(-0.965926 0.258819 0.258819 0.965926 1468.73 1410.47)" fill="#D9D9D9"/>
<g id="text right_11">
<path id="label_29" d="M1430.76 1520.36L1407.61 1495.15L1399.27 1483.71L1399.09 1483.79L1404.75 1496.85L1412.37 1525.28L1406.8 1526.78L1396.12 1486.9L1393.45 1480.66L1399.5 1478.38L1422.81 1504.03L1431.39 1515.55L1431.57 1515.47L1425.49 1502.55L1417.87 1474.12L1423.27 1472.01L1435.86 1518.99L1430.76 1520.36Z" fill="#343434"/>
</g>
</g>
</g>
<g id="key_30" clip-path="url(#clip59_556_11400)">
<g id="keycap_30" clip-path="url(#clip60_556_11400)">
<rect id="H" width="146" height="147" rx="10" transform="matrix(-0.965926 0.258819 0.258819 0.965926 1424.73 1250.1)" fill="#D9D9D9"/>
<g id="text right_12">
<path id="label_30" d="M1386.78 1359.97L1380.78 1337.56L1363.22 1342.27L1369.23 1364.68L1363.35 1366.25L1352.67 1326.38L1350.03 1320.13L1356.64 1317.7L1361.9 1337.32L1379.45 1332.62L1374.36 1313.61L1380.07 1311.42L1392.65 1358.4L1386.78 1359.97Z" fill="#343434"/>
</g>
</g>
</g>
<g id="key_31" clip-path="url(#clip61_556_11400)">
<g id="keycap_31" clip-path="url(#clip62_556_11400)">
<rect id="Y" width="146" height="147" rx="10" transform="matrix(-0.965926 0.258819 0.258819 0.965926 1381.69 1089.47)" fill="#D9D9D9"/>
<g id="text right_13">
<path id="label_31" d="M1328.11 1172.55L1332.34 1152.7L1338.27 1151.11L1331.9 1181.11L1337.25 1201.08L1330.76 1202.82L1325.42 1182.88L1304.86 1160.07L1311 1157.76L1324.59 1172.87L1329.09 1179.91L1328.11 1172.55Z" fill="#343434"/>
</g>
</g>
</g>
<g id="key_32" clip-path="url(#clip63_556_11400)">
<g id="keycap_32" clip-path="url(#clip64_556_11400)">
<rect id="R_S" width="146" height="147" rx="10" transform="matrix(-0.965926 0.258819 0.258819 0.965926 2333.69 1199.83)" fill="#D9D9D9"/>
<g id="text right_14">
<path id="label_32" d="M2233.81 1305.96L2238.9 1324.94L2233.24 1326.45L2222.56 1286.58L2219.82 1280.69C2221.15 1280.15 2222.63 1279.59 2224.24 1279.01C2225.87 1278.42 2227.58 1277.88 2229.37 1277.4C2231.97 1276.7 2234.44 1276.34 2236.8 1276.3C2239.15 1276.25 2241.27 1276.54 2243.16 1277.18C2245.06 1277.82 2246.67 1278.83 2248.01 1280.19C2249.34 1281.53 2250.29 1283.25 2250.84 1285.33C2251.42 1287.49 2251.56 1289.5 2251.26 1291.34C2250.96 1293.19 2250.33 1294.87 2249.37 1296.39C2248.4 1297.89 2247.14 1299.24 2245.59 1300.45C2244.03 1301.64 2242.3 1302.68 2240.39 1303.57L2245.11 1303.63L2262.48 1318.62L2255.59 1320.47L2238.2 1305.41C2237.9 1305.18 2237.6 1305.09 2237.3 1305.12C2236.99 1305.14 2236.76 1305.17 2236.59 1305.21L2233.81 1305.96ZM2229.4 1289.48L2232.56 1301.29L2236.21 1300.31C2238.08 1299.81 2239.67 1299.11 2240.98 1298.21C2242.28 1297.29 2243.3 1296.25 2244.05 1295.1C2244.8 1293.93 2245.27 1292.68 2245.47 1291.37C2245.67 1290.04 2245.59 1288.7 2245.23 1287.36C2244.91 1286.19 2244.47 1285.19 2243.9 1284.37C2243.32 1283.56 2242.66 1282.89 2241.91 1282.39C2241.15 1281.88 2240.33 1281.51 2239.45 1281.26C2238.56 1280.99 2237.65 1280.84 2236.71 1280.8C2235.79 1280.76 2234.86 1280.8 2233.92 1280.92C2233.01 1281.03 2232.12 1281.2 2231.28 1281.43C2230.41 1281.66 2229.64 1281.9 2228.95 1282.15C2228.29 1282.37 2227.63 1282.64 2226.98 1282.94L2229.4 1289.48ZM2272.56 1325.86L2306.56 1316.75L2307.85 1321.54L2273.85 1330.65L2272.56 1325.86ZM2312.38 1302.13L2313.95 1296.74C2314.43 1296.9 2315.05 1297.07 2315.81 1297.24C2316.57 1297.39 2317.41 1297.51 2318.32 1297.59C2319.23 1297.68 2320.17 1297.71 2321.15 1297.66C2322.14 1297.62 2323.1 1297.47 2324.05 1297.22C2325.33 1296.88 2326.56 1296.38 2327.76 1295.73C2328.97 1295.05 2330 1294.24 2330.85 1293.31C2331.72 1292.35 2332.34 1291.26 2332.7 1290.06C2333.08 1288.86 2333.08 1287.54 2332.7 1286.12C2332.34 1284.78 2331.72 1283.69 2330.83 1282.84C2329.94 1282 2328.89 1281.31 2327.66 1280.78C2326.44 1280.25 2325.09 1279.82 2323.61 1279.51C2322.14 1279.2 2320.63 1278.9 2319.09 1278.6C2317.58 1278.3 2316.08 1277.98 2314.59 1277.62C2313.1 1277.25 2311.73 1276.74 2310.47 1276.11C2309.22 1275.47 2308.13 1274.66 2307.2 1273.67C2306.28 1272.68 2305.61 1271.42 2305.19 1269.87C2304.66 1267.87 2304.61 1266.01 2305.05 1264.28C2305.49 1262.55 2306.26 1260.99 2307.35 1259.62C2308.44 1258.25 2309.78 1257.07 2311.37 1256.09C2312.96 1255.11 2314.65 1254.38 2316.42 1253.91C2320.81 1252.73 2325.19 1252.88 2329.56 1254.36L2327.58 1258.97C2325.96 1258.52 2324.45 1258.27 2323.04 1258.23C2321.66 1258.18 2320.18 1258.37 2318.59 1258.79C2317.48 1259.09 2316.38 1259.51 2315.31 1260.04C2314.26 1260.56 2313.35 1261.2 2312.58 1261.96C2311.83 1262.69 2311.27 1263.55 2310.92 1264.53C2310.58 1265.48 2310.56 1266.54 2310.88 1267.72C2311.19 1268.87 2311.76 1269.79 2312.61 1270.47C2313.47 1271.14 2314.5 1271.68 2315.69 1272.09C2316.9 1272.48 2318.23 1272.79 2319.69 1273.04C2321.14 1273.27 2322.64 1273.52 2324.17 1273.8C2325.71 1274.05 2327.24 1274.38 2328.74 1274.79C2330.24 1275.19 2331.63 1275.76 2332.91 1276.52C2334.22 1277.26 2335.36 1278.23 2336.35 1279.45C2337.35 1280.63 2338.1 1282.16 2338.6 1284.01C2339.22 1286.32 2339.28 1288.46 2338.8 1290.45C2338.33 1292.41 2337.48 1294.17 2336.24 1295.74C2335.02 1297.28 2333.5 1298.61 2331.67 1299.71C2329.85 1300.82 2327.91 1301.65 2325.85 1302.2C2324.53 1302.56 2323.28 1302.8 2322.1 1302.94C2320.93 1303.1 2319.79 1303.17 2318.68 1303.16C2317.6 1303.14 2316.53 1303.05 2315.5 1302.89C2314.45 1302.7 2313.41 1302.45 2312.38 1302.13Z" fill="#343434"/>
</g>
</g>
</g>
<g id="key_33" clip-path="url(#clip65_556_11400)">
<g id="keycap_33" clip-path="url(#clip66_556_11400)">
<rect id="&#39;" width="146" height="147" rx="10" transform="matrix(-0.965926 0.258819 0.258819 0.965926 2289.76 1039.74)" fill="#D9D9D9"/>
<g id="text right_15">
<path id="label_33" d="M2226.61 1120.1C2226.75 1120.61 2226.77 1121.12 2226.69 1121.63C2226.61 1122.14 2226.43 1122.62 2226.18 1123.06C2225.92 1123.49 2225.58 1123.86 2225.16 1124.2C2224.75 1124.5 2224.29 1124.73 2223.78 1124.86C2223.26 1125 2222.75 1125.05 2222.23 1125.02C2221.73 1124.95 2221.25 1124.79 2220.81 1124.53C2220.36 1124.28 2219.96 1123.92 2219.6 1123.47C2219.25 1122.99 2218.98 1122.41 2218.8 1121.73C2218.55 1120.82 2218.37 1119.92 2218.24 1119.03C2218.13 1118.13 2218.13 1117.19 2218.25 1116.21C2218.36 1115.23 2218.62 1114.2 2219.04 1113.11C2219.45 1112.01 2220.06 1110.82 2220.87 1109.54L2222.39 1109.8C2222.21 1110.67 2222.06 1111.54 2221.97 1112.43C2221.89 1113.18 2221.84 1113.99 2221.83 1114.85C2221.83 1115.71 2221.94 1116.52 2222.15 1117.29C2222.58 1117.19 2223.03 1117.18 2223.5 1117.25C2223.95 1117.31 2224.39 1117.45 2224.8 1117.67C2225.21 1117.89 2225.57 1118.2 2225.88 1118.6C2226.21 1119 2226.45 1119.5 2226.61 1120.1Z" fill="#343434"/>
</g>
</g>
</g>
<g id="key_34" clip-path="url(#clip67_556_11400)">
<g id="keycap_34" clip-path="url(#clip68_556_11400)">
<rect id=";" width="146" height="147" rx="10" transform="matrix(-0.965926 0.258819 0.258819 0.965926 2117.56 1084.85)" fill="#D9D9D9"/>
<g id="text right_16">
<path id="label_34" d="M2049.77 1181.49C2049.6 1180.85 2049.56 1180.22 2049.66 1179.6C2049.76 1178.97 2049.96 1178.4 2050.26 1177.88C2050.56 1177.36 2050.95 1176.91 2051.42 1176.54C2051.91 1176.14 2052.48 1175.86 2053.12 1175.69C2053.76 1175.52 2054.39 1175.48 2055.01 1175.58C2055.63 1175.66 2056.2 1175.84 2056.72 1176.15C2057.24 1176.45 2057.69 1176.85 2058.07 1177.34C2058.46 1177.83 2058.75 1178.4 2058.92 1179.04C2059.09 1179.67 2059.13 1180.32 2059.04 1180.96C2058.96 1181.58 2058.77 1182.15 2058.47 1182.67C2058.16 1183.19 2057.77 1183.65 2057.28 1184.05C2056.81 1184.44 2056.27 1184.72 2055.65 1184.88C2055.01 1185.05 2054.37 1185.09 2053.72 1185C2053.1 1184.9 2052.53 1184.7 2052.01 1184.4C2051.48 1184.1 2051.02 1183.7 2050.63 1183.21C2050.23 1182.7 2049.94 1182.13 2049.77 1181.49ZM2054.03 1197.38C2053.87 1196.78 2053.83 1196.18 2053.91 1195.58C2054.01 1194.96 2054.21 1194.4 2054.52 1193.9C2054.85 1193.39 2055.26 1192.94 2055.75 1192.54C2056.24 1192.15 2056.79 1191.86 2057.41 1191.7C2058.01 1191.54 2058.6 1191.5 2059.2 1191.58C2059.81 1191.64 2060.38 1191.82 2060.9 1192.12C2061.44 1192.42 2061.92 1192.85 2062.34 1193.42C2062.78 1193.97 2063.1 1194.65 2063.32 1195.45C2063.61 1196.54 2063.82 1197.62 2063.95 1198.69C2064.1 1199.73 2064.1 1200.84 2063.95 1202.01C2063.82 1203.17 2063.51 1204.4 2063.01 1205.7C2062.52 1207 2061.8 1208.41 2060.83 1209.93L2059.04 1209.65C2059.27 1208.61 2059.44 1207.56 2059.55 1206.5C2059.64 1205.61 2059.69 1204.65 2059.67 1203.61C2059.69 1202.59 2059.57 1201.63 2059.33 1200.72C2058.81 1200.84 2058.27 1200.86 2057.72 1200.79C2057.17 1200.72 2056.66 1200.56 2056.17 1200.31C2055.68 1200.05 2055.25 1199.67 2054.87 1199.17C2054.5 1198.67 2054.21 1198.08 2054.03 1197.38Z" fill="#343434"/>
</g>
</g>
</g>
<g id="key_35" clip-path="url(#clip69_556_11400)">
<g id="keycap_35" clip-path="url(#clip70_556_11400)">
<rect id="P" width="146" height="147" rx="10" transform="matrix(-0.965926 0.258819 0.258819 0.965926 2074.34 923.539)" fill="#D9D9D9"/>
<g id="text right_17">
<path id="label_35" d="M2020.85 1037.58L2014.98 1039.15L2004.29 999.281L2001.55 993.389C2002.14 993.12 2002.84 992.834 2003.64 992.531C2004.47 992.222 2005.33 991.913 2006.24 991.603C2007.15 991.292 2008.08 991 2009.02 990.725C2009.96 990.43 2010.83 990.175 2011.63 989.959C2015.14 989.021 2018.24 988.531 2020.95 988.491C2023.67 988.424 2026 988.737 2027.96 989.429C2029.9 990.1 2031.48 991.113 2032.68 992.47C2033.9 993.82 2034.77 995.433 2035.27 997.309C2036.02 1000.09 2036.14 1002.55 2035.66 1004.69C2035.17 1006.83 2034.1 1008.74 2032.46 1010.42C2030.8 1012.08 2028.57 1013.55 2025.75 1014.83C2022.93 1016.1 2019.58 1017.25 2015.68 1018.29L2020.85 1037.58ZM2011.35 1002.13L2014.51 1013.94C2017.65 1013.1 2020.28 1012.2 2022.41 1011.26C2024.54 1010.31 2026.21 1009.25 2027.42 1008.09C2028.63 1006.91 2029.39 1005.58 2029.7 1004.1C2030.01 1002.63 2029.91 1000.93 2029.4 999.014C2029.03 997.633 2028.3 996.525 2027.22 995.69C2026.15 994.828 2024.89 994.215 2023.44 993.851C2021.99 993.467 2020.46 993.294 2018.83 993.331C2017.21 993.369 2015.66 993.584 2014.2 993.976C2013.85 994.07 2013.43 994.193 2012.94 994.346C2012.47 994.473 2011.99 994.624 2011.51 994.797C2011.02 994.951 2010.54 995.111 2010.08 995.279C2009.64 995.442 2009.27 995.596 2008.98 995.74L2011.35 1002.13Z" fill="#343434"/>
</g>
</g>
</g>
<g id="key_36" clip-path="url(#clip71_556_11400)">
<g id="keycap_36" clip-path="url(#clip72_556_11400)">
<rect id="[" width="146" height="147" rx="10" transform="matrix(-0.965926 0.258819 0.258819 0.965926 2246.28 877.469)" fill="#D9D9D9"/>
<g id="text right_18">
<path id="label_36" d="M2181.2 950.884L2178.87 944.885L2196.55 940.147L2197.79 944.784L2186.29 947.865L2188.56 953.881L2198.83 992.209L2199.87 998.556L2211.37 995.475L2212.61 1000.11L2194.93 1004.85L2193.96 998.485L2181.2 950.884Z" fill="#343434"/>
</g>
</g>
</g>
</g>
</g>
<defs>
<clipPath id="clip0_556_11400">
<rect width="2360" height="1640" fill="white"/>
</clipPath>
<clipPath id="clip1_556_11400">
<rect width="177" height="167" fill="white" transform="translate(186.598 1233.7) rotate(15)"/>
</clipPath>
<clipPath id="clip2_556_11400">
<rect width="145.512" height="146.512" fill="white" transform="translate(198.998 1248.09) rotate(15)"/>
</clipPath>
<clipPath id="clip3_556_11400">
<rect width="177" height="167" fill="white" transform="translate(369.145 1240.17) rotate(15)"/>
</clipPath>
<clipPath id="clip4_556_11400">
<rect width="145.512" height="146.512" fill="white" transform="translate(381.544 1254.56) rotate(15)"/>
</clipPath>
<clipPath id="clip5_556_11400">
<rect width="177" height="167" fill="white" transform="translate(412.626 1077.89) rotate(15)"/>
</clipPath>
<clipPath id="clip6_556_11400">
<rect width="145.512" height="146.512" fill="white" transform="translate(425.026 1092.28) rotate(15)"/>
</clipPath>
<clipPath id="clip7_556_11400">
<rect width="177" height="167" fill="white" transform="translate(454.883 916.325) rotate(15)"/>
</clipPath>
<clipPath id="clip8_556_11400">
<rect width="145.512" height="146.512" fill="white" transform="translate(467.283 930.713) rotate(15)"/>
</clipPath>
<clipPath id="clip9_556_11400">
<rect width="177" height="167" fill="white" transform="translate(547.654 1261.7) rotate(15)"/>
</clipPath>
<clipPath id="clip10_556_11400">
<rect width="145.512" height="146.512" fill="white" transform="translate(560.053 1276.09) rotate(15)"/>
</clipPath>
<clipPath id="clip11_556_11400">
<rect width="177" height="167" fill="white" transform="translate(590.695 1101.07) rotate(15)"/>
</clipPath>
<clipPath id="clip12_556_11400">
<rect width="145.512" height="146.512" fill="white" transform="translate(603.095 1115.46) rotate(15)"/>
</clipPath>
<clipPath id="clip13_556_11400">
<rect width="177" height="167" fill="white" transform="translate(633.737 940.437) rotate(15)"/>
</clipPath>
<clipPath id="clip14_556_11400">
<rect width="145.512" height="146.512" fill="white" transform="translate(646.136 954.825) rotate(15)"/>
</clipPath>
<clipPath id="clip15_556_11400">
<rect width="177" height="167" fill="white" transform="translate(713.636 1329.99) rotate(15)"/>
</clipPath>
<clipPath id="clip16_556_11400">
<rect width="145.512" height="146.512" fill="white" transform="translate(726.035 1344.38) rotate(15)"/>
</clipPath>
<clipPath id="clip17_556_11400">
<rect width="177" height="167" fill="white" transform="translate(756.677 1169.36) rotate(15)"/>
</clipPath>
<clipPath id="clip18_556_11400">
<rect width="145.512" height="146.512" fill="white" transform="translate(769.077 1183.74) rotate(15)"/>
</clipPath>
<clipPath id="clip19_556_11400">
<rect width="177" height="167" fill="white" transform="translate(799.719 1008.72) rotate(15)"/>
</clipPath>
<clipPath id="clip20_556_11400">
<rect width="145.512" height="146.512" fill="white" transform="translate(812.118 1023.11) rotate(15)"/>
</clipPath>
<clipPath id="clip21_556_11400">
<rect width="177" height="167" fill="white" transform="translate(879.169 1396.08) rotate(15)"/>
</clipPath>
<clipPath id="clip22_556_11400">
<rect width="145.512" height="146.512" fill="white" transform="translate(891.569 1410.47) rotate(15)"/>
</clipPath>
<clipPath id="clip23_556_11400">
<rect width="177" height="167" fill="white" transform="translate(923.177 1235.71) rotate(15)"/>
</clipPath>
<clipPath id="clip24_556_11400">
<rect width="145.512" height="146.512" fill="white" transform="translate(935.576 1250.1) rotate(15)"/>
</clipPath>
<clipPath id="clip25_556_11400">
<rect width="177" height="167" fill="white" transform="translate(966.218 1075.08) rotate(15)"/>
</clipPath>
<clipPath id="clip26_556_11400">
<rect width="145.512" height="146.512" fill="white" transform="translate(978.618 1089.47) rotate(15)"/>
</clipPath>
<clipPath id="clip27_556_11400">
<rect width="177" height="167" fill="white" transform="translate(14.2153 1185.44) rotate(15)"/>
</clipPath>
<clipPath id="clip28_556_11400">
<rect width="145.512" height="146.512" fill="white" transform="translate(26.6147 1199.83) rotate(15)"/>
</clipPath>
<clipPath id="clip29_556_11400">
<rect width="177" height="167" fill="white" transform="translate(58.145 1025.36) rotate(15)"/>
</clipPath>
<clipPath id="clip30_556_11400">
<rect width="145.512" height="146.512" fill="white" transform="translate(70.5444 1039.74) rotate(15)"/>
</clipPath>
<clipPath id="clip31_556_11400">
<rect width="177" height="167" fill="white" transform="translate(230.339 1070.46) rotate(15)"/>
</clipPath>
<clipPath id="clip32_556_11400">
<rect width="145.512" height="146.512" fill="white" transform="translate(242.738 1084.85) rotate(15)"/>
</clipPath>
<clipPath id="clip33_556_11400">
<rect width="177" height="167" fill="white" transform="translate(273.562 909.151) rotate(15)"/>
</clipPath>
<clipPath id="clip34_556_11400">
<rect width="145.512" height="146.512" fill="white" transform="translate(285.961 923.539) rotate(15)"/>
</clipPath>
<clipPath id="clip35_556_11400">
<rect width="177" height="167" fill="white" transform="translate(101.627 863.081) rotate(15)"/>
</clipPath>
<clipPath id="clip36_556_11400">
<rect width="145.512" height="146.512" fill="white" transform="translate(114.026 877.469) rotate(15)"/>
</clipPath>
<clipPath id="clip37_556_11400">
<rect width="177" height="167" fill="white" transform="matrix(-0.965926 0.258819 0.258819 0.965926 2173.7 1233.7)"/>
</clipPath>
<clipPath id="clip38_556_11400">
<rect width="145.512" height="146.512" fill="white" transform="matrix(-0.965926 0.258819 0.258819 0.965926 2161.31 1248.09)"/>
</clipPath>
<clipPath id="clip39_556_11400">
<rect width="177" height="167" fill="white" transform="matrix(-0.965926 0.258819 0.258819 0.965926 1991.16 1240.17)"/>
</clipPath>
<clipPath id="clip40_556_11400">
<rect width="145.512" height="146.512" fill="white" transform="matrix(-0.965926 0.258819 0.258819 0.965926 1978.76 1254.56)"/>
</clipPath>
<clipPath id="clip41_556_11400">
<rect width="177" height="167" fill="white" transform="matrix(-0.965926 0.258819 0.258819 0.965926 1947.68 1077.89)"/>
</clipPath>
<clipPath id="clip42_556_11400">
<rect width="145.512" height="146.512" fill="white" transform="matrix(-0.965926 0.258819 0.258819 0.965926 1935.28 1092.28)"/>
</clipPath>
<clipPath id="clip43_556_11400">
<rect width="177" height="167" fill="white" transform="matrix(-0.965926 0.258819 0.258819 0.965926 1905.42 916.325)"/>
</clipPath>
<clipPath id="clip44_556_11400">
<rect width="145.512" height="146.512" fill="white" transform="matrix(-0.965926 0.258819 0.258819 0.965926 1893.02 930.713)"/>
</clipPath>
<clipPath id="clip45_556_11400">
<rect width="177" height="167" fill="white" transform="matrix(-0.965926 0.258819 0.258819 0.965926 1812.65 1261.7)"/>
</clipPath>
<clipPath id="clip46_556_11400">
<rect width="145.512" height="146.512" fill="white" transform="matrix(-0.965926 0.258819 0.258819 0.965926 1800.25 1276.09)"/>
</clipPath>
<clipPath id="clip47_556_11400">
<rect width="177" height="167" fill="white" transform="matrix(-0.965926 0.258819 0.258819 0.965926 1769.61 1101.07)"/>
</clipPath>
<clipPath id="clip48_556_11400">
<rect width="145.512" height="146.512" fill="white" transform="matrix(-0.965926 0.258819 0.258819 0.965926 1757.21 1115.46)"/>
</clipPath>
<clipPath id="clip49_556_11400">
<rect width="177" height="167" fill="white" transform="matrix(-0.965926 0.258819 0.258819 0.965926 1726.57 940.437)"/>
</clipPath>
<clipPath id="clip50_556_11400">
<rect width="145.512" height="146.512" fill="white" transform="matrix(-0.965926 0.258819 0.258819 0.965926 1714.17 954.825)"/>
</clipPath>
<clipPath id="clip51_556_11400">
<rect width="177" height="167" fill="white" transform="matrix(-0.965926 0.258819 0.258819 0.965926 1646.67 1329.99)"/>
</clipPath>
<clipPath id="clip52_556_11400">
<rect width="145.512" height="146.512" fill="white" transform="matrix(-0.965926 0.258819 0.258819 0.965926 1634.27 1344.38)"/>
</clipPath>
<clipPath id="clip53_556_11400">
<rect width="177" height="167" fill="white" transform="matrix(-0.965926 0.258819 0.258819 0.965926 1603.63 1169.36)"/>
</clipPath>
<clipPath id="clip54_556_11400">
<rect width="145.512" height="146.512" fill="white" transform="matrix(-0.965926 0.258819 0.258819 0.965926 1591.23 1183.74)"/>
</clipPath>
<clipPath id="clip55_556_11400">
<rect width="177" height="167" fill="white" transform="matrix(-0.965926 0.258819 0.258819 0.965926 1560.58 1008.72)"/>
</clipPath>
<clipPath id="clip56_556_11400">
<rect width="145.512" height="146.512" fill="white" transform="matrix(-0.965926 0.258819 0.258819 0.965926 1548.18 1023.11)"/>
</clipPath>
<clipPath id="clip57_556_11400">
<rect width="177" height="167" fill="white" transform="matrix(-0.965926 0.258819 0.258819 0.965926 1481.13 1396.08)"/>
</clipPath>
<clipPath id="clip58_556_11400">
<rect width="145.512" height="146.512" fill="white" transform="matrix(-0.965926 0.258819 0.258819 0.965926 1468.73 1410.47)"/>
</clipPath>
<clipPath id="clip59_556_11400">
<rect width="177" height="167" fill="white" transform="matrix(-0.965926 0.258819 0.258819 0.965926 1437.13 1235.71)"/>
</clipPath>
<clipPath id="clip60_556_11400">
<rect width="145.512" height="146.512" fill="white" transform="matrix(-0.965926 0.258819 0.258819 0.965926 1424.73 1250.1)"/>
</clipPath>
<clipPath id="clip61_556_11400">
<rect width="177" height="167" fill="white" transform="matrix(-0.965926 0.258819 0.258819 0.965926 1394.08 1075.08)"/>
</clipPath>
<clipPath id="clip62_556_11400">
<rect width="145.512" height="146.512" fill="white" transform="matrix(-0.965926 0.258819 0.258819 0.965926 1381.69 1089.47)"/>
</clipPath>
<clipPath id="clip63_556_11400">
<rect width="177" height="167" fill="white" transform="matrix(-0.965926 0.258819 0.258819 0.965926 2346.09 1185.44)"/>
</clipPath>
<clipPath id="clip64_556_11400">
<rect width="145.512" height="146.512" fill="white" transform="matrix(-0.965926 0.258819 0.258819 0.965926 2333.69 1199.83)"/>
</clipPath>
<clipPath id="clip65_556_11400">
<rect width="177" height="167" fill="white" transform="matrix(-0.965926 0.258819 0.258819 0.965926 2302.16 1025.36)"/>
</clipPath>
<clipPath id="clip66_556_11400">
<rect width="145.512" height="146.512" fill="white" transform="matrix(-0.965926 0.258819 0.258819 0.965926 2289.76 1039.74)"/>
</clipPath>
<clipPath id="clip67_556_11400">
<rect width="177" height="167" fill="white" transform="matrix(-0.965926 0.258819 0.258819 0.965926 2129.96 1070.46)"/>
</clipPath>
<clipPath id="clip68_556_11400">
<rect width="145.512" height="146.512" fill="white" transform="matrix(-0.965926 0.258819 0.258819 0.965926 2117.56 1084.85)"/>
</clipPath>
<clipPath id="clip69_556_11400">
<rect width="177" height="167" fill="white" transform="matrix(-0.965926 0.258819 0.258819 0.965926 2086.74 909.151)"/>
</clipPath>
<clipPath id="clip70_556_11400">
<rect width="145.512" height="146.512" fill="white" transform="matrix(-0.965926 0.258819 0.258819 0.965926 2074.34 923.539)"/>
</clipPath>
<clipPath id="clip71_556_11400">
<rect width="177" height="167" fill="white" transform="matrix(-0.965926 0.258819 0.258819 0.965926 2258.68 863.081)"/>
</clipPath>
<clipPath id="clip72_556_11400">
<rect width="145.512" height="146.512" fill="white" transform="matrix(-0.965926 0.258819 0.258819 0.965926 2246.28 877.469)"/>
</clipPath>
</defs>
</svg>
