<svg width="2450" height="1189" viewBox="0 0 2450 1189" fill="none" xmlns="http://www.w3.org/2000/svg">
<g id="keymap">
<rect width="2450" height="1189" fill="white"/>
<g id="hand">
<g id="W" clip-path="url(#clip0)">
<rect id="keycap" x="512.954" y="310.799" width="160" height="150" rx="10" transform="rotate(15 512.954 310.799)" fill="#D4D4D4"/>
<path id="label" d="M546.472 412.519L545.768 423.297L550.879 414.185L578.204 369.435L583.23 370.782L584.339 423.15L584.139 433.676L589.079 423.935L613.883 378.996L619.588 380.524L585.035 441.923L579.692 440.492L578.569 384.917L578.641 377.948L575.264 384.031L546.142 431.502L540.799 430.07L541.62 359.633L547.325 361.161L546.472 412.519Z" fill="black"/>
</g>
<g id="E" clip-path="url(#clip1)">
<rect id="keycap_2" x="694.502" y="290.082" width="160" height="150" rx="10" transform="rotate(15 694.502 290.082)" fill="#D4D4D4"/>
<path id="label_2" d="M771.113 388.546L740.278 380.284L733.072 407.179L768.524 416.678L767.263 421.387L726.241 410.396L743.905 344.471L784.701 355.402L783.427 360.156L748.201 350.718L741.54 375.575L772.374 383.837L771.113 388.546Z" fill="black"/>
</g>
<g id="R" clip-path="url(#clip2)">
<rect id="keycap_3" x="836.192" y="418.116" width="160" height="150" rx="10" transform="rotate(15 836.192 418.116)" fill="#D4D4D4"/>
<path id="label_3" d="M896.881 516.779L877.728 511.647L870.376 539.085L864.762 537.581L882.426 471.657L903.843 477.395C910.876 479.28 915.913 482.457 918.953 486.928C921.993 491.398 922.692 496.697 921.05 502.825C919.918 507.051 917.682 510.447 914.341 513.013C911 515.58 907.082 516.924 902.584 517.046L911.556 549.489L911.398 550.077L905.467 548.488L896.881 516.779ZM879.002 506.893L896.072 511.467C900.751 512.72 904.865 512.399 908.414 510.503C911.963 508.607 914.304 505.546 915.436 501.32C916.682 496.672 916.169 492.668 913.898 489.31C911.628 485.952 907.821 483.557 902.478 482.125L886.767 477.915L879.002 506.893Z" fill="black"/>
</g>
<g id="T" clip-path="url(#clip3)">
<rect id="keycap_4" x="993.929" y="486.264" width="160" height="150" rx="10" transform="rotate(15 993.929 486.264)" fill="#D4D4D4"/>
<path id="label_4" d="M1085 556.913L1062.4 550.859L1046.01 612.029L1040.44 610.537L1056.83 549.367L1034.29 543.325L1035.56 538.571L1086.27 552.159L1085 556.913Z" fill="black"/>
</g>
<g id="1">
<rect id="keycap_5" x="308.178" y="255.93" width="202" height="150" rx="10" transform="rotate(15 308.178 255.93)" fill="#D4D4D4"/>
<path id="label_5" d="M383.489 387.919L378.056 386.463L393.973 327.059L374.259 328.91L375.618 323.839L400.308 321.526L401.214 321.768L383.489 387.919Z" fill="black"/>
</g>
<g id="ESC">
<rect id="keycap_6" x="65.0479" y="707.386" width="202" height="150" rx="10" transform="rotate(-75 65.0479 707.386)" fill="#D4D4D4"/>
<path id="label_6" d="M153.386 668.567L145.124 699.402L172.019 706.608L181.518 671.156L186.227 672.417L175.236 713.439L109.311 695.775L120.242 654.979L124.996 656.253L115.558 691.479L140.415 698.14L148.677 667.306L153.386 668.567ZM183.169 618.993C179.517 618.014 176.29 618.525 173.49 620.524C170.659 622.516 167.379 626.668 163.65 632.98C159.89 639.284 156.457 643.703 153.352 646.235C148.956 649.845 144.161 650.955 138.97 649.564C133.929 648.213 130.393 645.049 128.361 640.073C126.308 635.058 126.147 629.321 127.878 622.861C129.051 618.484 130.943 614.802 133.556 611.814C136.176 608.795 139.25 606.74 142.778 605.647C146.306 604.554 149.927 604.505 153.64 605.5L152.135 611.114C147.638 609.909 143.618 610.482 140.076 612.833C136.505 615.176 134.023 618.943 132.632 624.135C131.281 629.176 131.337 633.494 132.801 637.089C134.234 640.676 136.761 642.954 140.383 643.925C143.734 644.823 146.826 644.211 149.658 642.091C152.491 639.971 155.515 636.171 158.731 630.691C161.916 625.204 164.792 621.17 167.36 618.591C169.897 616.003 172.579 614.263 175.407 613.37C178.234 612.478 181.293 612.473 184.583 613.354C189.775 614.745 193.382 617.944 195.405 622.951C197.437 627.928 197.542 633.812 195.722 640.603C194.477 645.252 192.502 649.301 189.799 652.75C187.103 656.169 183.991 658.489 180.46 659.71C176.938 660.902 173.245 660.98 169.381 659.945L170.874 654.376C175.522 655.621 179.655 654.868 183.271 652.117C186.888 649.365 189.469 645.107 191.014 639.342C192.389 634.21 192.361 629.787 190.93 626.071C189.499 622.355 186.912 619.996 183.169 618.993ZM196.062 553.489C202.803 556.103 207.448 560.017 209.998 565.23C212.557 570.412 212.898 576.505 211.021 583.508C209.711 588.398 207.328 592.402 203.872 595.52C200.424 598.608 196.191 600.58 191.174 601.435C186.126 602.283 180.716 601.949 174.942 600.434L166.385 598.141C160.529 596.572 155.612 594.155 151.634 590.889C147.656 587.623 144.958 583.746 143.541 579.257C142.101 574.73 142.052 569.962 143.395 564.951C145.287 557.888 148.696 552.832 153.622 549.784C158.525 546.698 164.431 545.725 171.341 546.864L169.836 552.479C158.265 550.867 151.036 555.449 148.149 566.225C146.547 572.201 147.503 577.569 151.016 582.328C154.537 587.057 160.237 590.477 168.115 592.588L176.175 594.747C183.782 596.785 190.31 596.691 195.76 594.463C201.218 592.205 204.735 588.132 206.312 582.246C207.873 576.421 207.662 571.657 205.677 567.954C203.663 564.244 199.956 561.294 194.558 559.103L196.062 553.489Z" fill="black"/>
</g>
<g id="A" clip-path="url(#clip4)">
<rect id="keycap_7" x="265.925" y="575.896" width="160" height="150" rx="10" transform="rotate(15 265.925 575.896)" fill="#D4D4D4"/>
<path id="label_7" d="M335.138 686.452L305.209 678.433L293.468 695.086L287.627 693.521L330.239 634.281L335.537 635.701L342.82 708.31L337.025 706.757L335.138 686.452ZM308.204 674.139L334.646 681.225L331.046 641.777L308.204 674.139Z" fill="black"/>
</g>
<g id="S" clip-path="url(#clip5)">
<rect id="keycap_8" x="471.543" y="465.347" width="160" height="150" rx="10" transform="rotate(15 471.543 465.347)" fill="#D4D4D4"/>
<path id="label_8" d="M543.847 579.158C544.826 575.505 544.316 572.279 542.316 569.478C540.325 566.648 536.173 563.368 529.86 559.638C523.556 555.878 519.138 552.446 516.605 549.341C512.995 544.944 511.886 540.15 513.277 534.958C514.627 529.917 517.791 526.381 522.768 524.35C527.782 522.297 533.52 522.135 539.979 523.866C544.356 525.039 548.039 526.932 551.027 529.544C554.045 532.165 556.101 535.239 557.194 538.767C558.286 542.295 558.335 545.915 557.341 549.628L551.726 548.124C552.931 543.626 552.358 539.607 550.007 536.065C547.665 532.493 543.897 530.012 538.705 528.62C533.664 527.27 529.347 527.326 525.752 528.789C522.165 530.222 519.886 532.75 518.915 536.372C518.018 539.723 518.629 542.814 520.749 545.647C522.87 548.48 526.669 551.504 532.149 554.719C537.637 557.904 541.67 560.781 544.25 563.348C546.838 565.886 548.578 568.568 549.47 571.395C550.362 574.223 550.368 577.281 549.486 580.572C548.095 585.763 544.896 589.371 539.889 591.394C534.913 593.425 529.029 593.531 522.237 591.711C517.589 590.465 513.54 588.491 510.091 585.787C506.672 583.092 504.352 579.979 503.13 576.449C501.938 572.927 501.86 569.234 502.896 565.37L508.465 566.862C507.219 571.511 507.972 575.643 510.724 579.26C513.475 582.877 517.733 585.457 523.499 587.002C528.63 588.377 533.054 588.349 536.77 586.918C540.485 585.488 542.845 582.901 543.847 579.158Z" fill="black"/>
</g>
<g id="D" clip-path="url(#clip6)">
<rect id="keycap_9" x="653.091" y="444.63" width="160" height="150" rx="10" transform="rotate(15 653.091 444.63)" fill="#D4D4D4"/>
<path id="label_9" d="M680.845 563.876L698.51 497.952L716.938 502.889C722.341 504.337 726.854 506.873 730.477 510.497C734.108 514.09 736.502 518.501 737.657 523.728C738.842 528.963 738.65 534.508 737.081 540.364L735.456 546.432C733.878 552.318 731.287 557.22 727.681 561.139C724.075 565.058 719.767 567.673 714.757 568.983C709.777 570.302 704.48 570.209 698.866 568.705L680.845 563.876ZM702.805 504.198L687.676 560.66L700.173 564.008C707.116 565.868 713.299 565.066 718.725 561.603C724.158 558.108 727.926 552.437 730.029 544.589L731.582 538.794C733.612 531.217 733.17 524.596 730.256 518.93C727.342 513.264 722.508 509.51 715.755 507.668L702.805 504.198Z" fill="black"/>
</g>
<g id="F" clip-path="url(#clip7)">
<rect id="keycap_10" x="794.781" y="572.664" width="160" height="150" rx="10" transform="rotate(15 794.781 572.664)" fill="#D4D4D4"/>
<path id="label_10" d="M870.917 671.875L840.173 663.637L831.923 694.426L826.354 692.934L844.018 627.009L884.859 637.953L883.585 642.707L848.314 633.256L841.447 658.883L872.191 667.121L870.917 671.875Z" fill="black"/>
</g>
<g id="Z" clip-path="url(#clip8)">
<rect id="keycap_11" x="224.514" y="730.444" width="160" height="150" rx="10" transform="rotate(15 224.514 730.444)" fill="#D4D4D4"/>
<path id="label_11" d="M237.343 811.819L206.508 803.557L199.302 830.452L234.754 839.951L233.493 844.66L192.471 833.668L210.135 767.744L250.931 778.675L249.657 783.429L214.431 773.99L207.77 798.848L238.604 807.11L237.343 811.819ZM294.346 860.966L288.777 859.473L265.996 792.903L250.879 849.319L245.265 847.814L262.929 781.89L268.544 783.394L291.358 850.022L306.486 793.561L312.01 795.041L294.346 860.966ZM311.099 865.454L328.763 799.53L347.191 804.468C352.594 805.916 357.107 808.451 360.731 812.075C364.362 815.669 366.755 820.079 367.91 825.306C369.096 830.541 368.904 836.087 367.335 841.943L365.709 848.01C364.132 853.896 361.54 858.798 357.934 862.717C354.328 866.636 350.02 869.251 345.011 870.562C340.031 871.88 334.734 871.787 329.119 870.283L311.099 865.454ZM333.058 805.776L317.93 862.238L330.426 865.586C337.369 867.447 343.553 866.645 348.978 863.181C354.411 859.687 358.179 854.016 360.282 846.167L361.835 840.372C363.865 832.795 363.423 826.174 360.509 820.508C357.595 814.842 352.761 811.088 346.008 809.246L333.058 805.776Z" fill="black"/>
</g>
<g id="X" clip-path="url(#clip9)">
<rect id="keycap_12" x="430.132" y="619.896" width="160" height="150" rx="10" transform="rotate(15 430.132 619.896)" fill="#D4D4D4"/>
<path id="label_12" d="M490.127 707.017L516.165 684.1L522.821 685.883L492.286 712.545L505.835 751.99L499.134 750.194L487.653 716.254L460.648 739.882L454.038 738.111L485.539 710.738L472.381 672.368L479.037 674.152L490.127 707.017Z" fill="black"/>
</g>
<g id="C" clip-path="url(#clip10)">
<rect id="keycap_13" x="611.68" y="599.178" width="160" height="150" rx="10" transform="rotate(15 611.68 599.178)" fill="#D4D4D4"/>
<path id="label_13" d="M691.896 710.449C689.281 717.19 685.367 721.835 680.154 724.385C674.972 726.943 668.879 727.284 661.876 725.408C656.986 724.098 652.982 721.715 649.864 718.259C646.776 714.811 644.804 710.578 643.949 705.561C643.101 700.513 643.435 695.103 644.95 689.329L647.243 680.772C648.812 674.916 651.229 669.999 654.495 666.021C657.761 662.043 661.638 659.345 666.127 657.928C670.654 656.488 675.422 656.439 680.433 657.782C687.497 659.674 692.552 663.083 695.6 668.009C698.686 672.912 699.659 678.818 698.52 685.728L692.905 684.223C694.517 672.652 689.935 665.423 679.159 662.536C673.183 660.934 667.815 661.89 663.056 665.403C658.327 668.924 654.907 674.624 652.796 682.502L650.637 690.562C648.599 698.168 648.694 704.697 650.921 710.146C653.18 715.604 657.252 719.122 663.138 720.699C668.964 722.26 673.728 722.048 677.43 720.064C681.14 718.049 684.091 714.343 686.281 708.945L691.896 710.449Z" fill="black"/>
</g>
<g id="V" clip-path="url(#clip11)">
<rect id="keycap_14" x="753.37" y="727.212" width="160" height="150" rx="10" transform="rotate(15 753.37 727.212)" fill="#D4D4D4"/>
<path id="label_14" d="M804.468 843.979L804.455 845.479L805.238 844.185L841.456 791.967L847.568 793.605L805.364 852.954L800.021 851.522L793.145 779.022L799.212 780.648L804.468 843.979Z" fill="black"/>
</g>
<g id="Home" clip-path="url(#clip12)">
<rect id="keycap_15" x="570.269" y="753.726" width="160" height="150" rx="10" transform="rotate(15 570.269 753.726)" fill="#D4D4D4"/>
<path id="label_15" d="M613.056 877L607.441 875.496L615.909 843.892L578.238 833.798L569.77 865.402L564.201 863.91L581.865 797.985L587.434 799.478L579.5 829.089L617.171 839.183L625.106 809.571L630.72 811.076L613.056 877ZM686.446 865.17C684.821 871.237 682.337 876.282 678.994 880.304C675.682 884.334 671.747 887.065 667.19 888.497C662.633 889.929 657.804 889.961 652.703 888.594C645.005 886.532 639.523 882.119 636.256 875.355C632.997 868.562 632.622 860.486 635.129 851.129L636.949 844.337C638.558 838.33 641.038 833.301 644.389 829.248C647.777 825.174 651.75 822.421 656.307 820.989C660.873 819.527 665.691 819.476 670.762 820.834C675.833 822.193 679.973 824.613 683.181 828.093C686.42 831.581 688.497 835.842 689.413 840.876C690.329 845.91 690.044 851.382 688.557 857.292L686.446 865.17ZM682.794 856.524C684.921 848.585 684.791 841.886 682.404 836.426C680.018 830.966 675.7 827.399 669.452 825.724C663.324 824.083 657.827 825.036 652.962 828.585C648.134 832.112 644.637 837.921 642.469 846.01L640.625 852.892C638.53 860.71 638.679 867.399 641.072 872.958C643.473 878.486 647.783 882.083 654.001 883.75C660.31 885.44 665.832 884.51 670.569 880.958C675.314 877.377 678.766 871.556 680.926 863.497L682.794 856.524Z" fill="black"/>
</g>
<g id="PgDn" clip-path="url(#clip13)">
<rect id="keycap_16" x="710.665" y="886.59" width="160" height="150" rx="10" transform="rotate(15 710.665 886.59)" fill="#D4D4D4"/>
<path id="label_16" d="M722.613 972.824L715.418 999.674L709.849 998.181L727.513 932.257L749.971 938.274C756.823 940.11 761.757 943.309 764.773 947.87C767.82 952.439 768.522 957.787 766.88 963.915C765.222 970.103 762.023 974.374 757.284 976.727C752.583 979.059 746.61 979.254 739.365 977.313L722.613 972.824ZM723.874 968.115L740.763 972.64C746.166 974.088 750.63 973.909 754.155 972.104C757.68 970.298 760.057 967.102 761.286 962.513C762.508 957.955 762.06 953.953 759.942 950.506C757.863 947.037 754.235 944.577 749.06 943.126L731.809 938.503L723.874 968.115ZM766.99 1013.49L784.654 947.568L803.082 952.505C808.485 953.953 812.998 956.489 816.621 960.113C820.253 963.706 822.646 968.117 823.801 973.344C824.986 978.579 824.795 984.124 823.226 989.98L821.6 996.048C820.023 1001.93 817.431 1006.84 813.825 1010.76C810.219 1014.67 805.911 1017.29 800.901 1018.6C795.922 1019.92 790.625 1019.83 785.01 1018.32L766.99 1013.49ZM788.949 953.814L773.821 1010.28L786.317 1013.62C793.26 1015.48 799.444 1014.68 804.869 1011.22C810.302 1007.72 814.07 1002.05 816.173 994.205L817.726 988.41C819.756 980.833 819.314 974.212 816.4 968.546C813.486 962.88 808.652 959.126 801.899 957.284L788.949 953.814Z" fill="black"/>
</g>
<g id="PgUp" clip-path="url(#clip14)">
<rect id="keycap_17" x="387.427" y="779.273" width="160" height="150" rx="10" transform="rotate(15 387.427 779.273)" fill="#D4D4D4"/>
<path id="label_17" d="M399.284 865.483L392.089 892.332L386.52 890.84L404.185 824.916L426.642 830.933C433.494 832.769 438.429 835.968 441.445 840.529C444.491 845.098 445.193 850.446 443.551 856.574C441.893 862.762 438.694 867.032 433.955 869.386C429.254 871.717 423.281 871.913 416.037 869.971L399.284 865.483ZM400.546 860.774L417.434 865.299C422.837 866.747 427.301 866.568 430.826 864.762C434.351 862.957 436.728 859.76 437.958 855.172C439.179 850.614 438.731 846.612 436.613 843.165C434.534 839.696 430.906 837.236 425.731 835.784L408.48 831.162L400.546 860.774ZM506.739 852.395L494.679 897.401C493.46 901.83 491.444 905.431 488.631 908.203C485.817 910.976 482.406 912.78 478.397 913.614C474.427 914.427 470.162 914.222 465.604 913.001C458.662 911.141 453.598 907.762 450.413 902.865C447.267 897.945 446.516 892.115 448.161 885.373L460.329 839.959L465.853 841.44L453.903 886.038C452.415 891.592 452.843 896.333 455.187 900.261C457.54 904.159 461.433 906.836 466.866 908.292C472.299 909.748 476.998 909.357 480.962 907.119C484.957 904.89 487.69 901.028 489.162 895.534L501.124 850.89L506.739 852.395Z" fill="black"/>
</g>
</g>
<g id="hand_2">
<g id="O" clip-path="url(#clip15)">
<rect id="keycap_18" width="160" height="150" rx="10" transform="matrix(-0.965926 0.258819 0.258819 0.965926 1937.05 310.799)" fill="#D4D4D4"/>
<path id="label_18" d="M1905.04 399.69C1906.67 405.757 1907.04 411.368 1906.15 416.522C1905.3 421.669 1903.26 426.001 1900.03 429.519C1896.8 433.038 1892.63 435.481 1887.53 436.848C1879.83 438.91 1872.88 437.829 1866.67 433.606C1860.45 429.351 1856.08 422.546 1853.58 413.188L1851.76 406.397C1850.15 400.39 1849.78 394.794 1850.66 389.61C1851.55 384.387 1853.62 380.016 1856.85 376.498C1860.07 372.949 1864.22 370.495 1869.29 369.136C1874.36 367.778 1879.15 367.803 1883.67 369.213C1888.22 370.614 1892.15 373.266 1895.46 377.167C1898.77 381.068 1901.26 385.95 1902.93 391.812L1905.04 399.69ZM1897.55 394.028C1895.43 386.09 1891.96 380.353 1887.17 376.818C1882.37 373.283 1876.85 372.352 1870.6 374.026C1864.47 375.668 1860.19 379.242 1857.75 384.749C1855.33 390.217 1855.21 396.996 1857.37 405.086L1859.22 411.968C1861.31 419.786 1864.79 425.503 1869.64 429.121C1874.48 432.708 1880.01 433.669 1886.23 432.003C1892.54 430.313 1896.86 426.745 1899.18 421.301C1901.5 415.827 1901.58 409.061 1899.42 401.001L1897.55 394.028Z" fill="black"/>
</g>
<g id="I" clip-path="url(#clip16)">
<rect id="keycap_19" width="160" height="150" rx="10" transform="matrix(-0.965926 0.258819 0.258819 0.965926 1755.5 290.082)" fill="#D4D4D4"/>
<path id="label_19" d="M1707.97 414.626L1702.4 416.118L1684.74 350.194L1690.31 348.701L1707.97 414.626Z" fill="black"/>
</g>
<g id="U" clip-path="url(#clip17)">
<rect id="keycap_20" width="160" height="150" rx="10" transform="matrix(-0.965926 0.258819 0.258819 0.965926 1613.81 418.116)" fill="#D4D4D4"/>
<path id="label_20" d="M1569.13 471.24L1581.19 516.246C1582.35 520.692 1582.4 524.818 1581.35 528.626C1580.3 532.434 1578.25 535.701 1575.19 538.429C1572.16 541.118 1568.37 543.073 1563.81 544.294C1556.87 546.154 1550.79 545.76 1545.58 543.111C1540.4 540.424 1536.83 535.75 1534.89 529.089L1522.72 483.676L1528.24 482.195L1540.19 526.794C1541.68 532.348 1544.42 536.24 1548.42 538.47C1552.4 540.669 1557.11 541.041 1562.55 539.585C1567.98 538.129 1571.85 535.441 1574.17 531.521C1576.51 527.593 1576.95 522.882 1575.48 517.388L1563.51 472.745L1569.13 471.24Z" fill="black"/>
</g>
<g id="Y" clip-path="url(#clip18)">
<rect id="keycap_21" width="160" height="150" rx="10" transform="matrix(-0.965926 0.258819 0.258819 0.965926 1456.07 486.264)" fill="#D4D4D4"/>
<path id="label_21" d="M1397.66 581.598L1408.18 540.249L1414.61 538.526L1401.81 586.02L1408.45 610.832L1402.89 612.324L1396.24 587.512L1361.45 552.769L1368.06 550.998L1397.66 581.598Z" fill="black"/>
</g>
<g id="0">
<rect id="keycap_22" width="202" height="150" rx="10" transform="matrix(-0.965926 0.258819 0.258819 0.965926 2141.82 255.93)" fill="#D4D4D4"/>
<path id="label_22" d="M2084.13 353.743C2086.62 363.04 2086.8 370.56 2084.69 376.303C2082.56 382.017 2078.18 385.763 2071.54 387.543C2065.02 389.29 2059.39 388.274 2054.66 384.495C2049.92 380.686 2046.29 374.281 2043.78 365.28L2040.62 353.462C2038.13 344.196 2037.97 336.717 2040.14 331.025C2042.3 325.334 2046.69 321.603 2053.3 319.831C2059.82 318.084 2065.42 319.059 2070.1 322.755C2074.77 326.421 2078.36 332.721 2080.89 341.653L2084.13 353.743ZM2075.53 343.381C2073.5 335.835 2070.74 330.461 2067.23 327.261C2063.75 324.052 2059.52 323.115 2054.54 324.45C2049.65 325.76 2046.47 328.633 2045 333.07C2043.54 337.506 2043.76 343.415 2045.68 350.796L2049.15 363.746C2051.16 371.262 2053.97 376.672 2057.57 379.977C2061.21 383.274 2065.45 384.272 2070.31 382.97C2075.14 381.675 2078.27 378.75 2079.7 374.193C2081.17 369.628 2080.91 363.583 2078.92 356.059L2075.53 343.381Z" fill="black"/>
</g>
<g id="&#39;">
<rect id="keycap_23" width="202" height="150" rx="10" transform="matrix(-0.258819 -0.965926 -0.965926 0.258819 2384.95 707.386)" fill="#D4D4D4"/>
<path id="label_23" d="M2325.27 620.496L2323.84 624.375C2319.55 622.613 2315.34 622.236 2311.21 623.246L2305.41 624.799L2303.97 619.41L2309.04 618.052C2311.82 617.308 2314.64 617.15 2317.5 617.58C2320.38 618.039 2322.97 619.011 2325.27 620.496Z" fill="black"/>
</g>
<g id=";" clip-path="url(#clip19)">
<rect id="keycap_24" width="160" height="150" rx="10" transform="matrix(-0.965926 0.258819 0.258819 0.965926 2184.08 575.896)" fill="#D4D4D4"/>
<path id="label_24" d="M2118.49 656.995C2118.2 655.938 2118.3 654.959 2118.77 654.056C2119.26 653.116 2120.11 652.484 2121.32 652.16C2122.52 651.836 2123.58 651.959 2124.47 652.528C2125.36 653.066 2125.95 653.863 2126.23 654.92C2126.51 655.976 2126.4 656.945 2125.89 657.825C2125.37 658.675 2124.51 659.262 2123.31 659.586C2122.1 659.909 2121.06 659.832 2120.19 659.354C2119.34 658.837 2118.77 658.051 2118.49 656.995ZM2134.45 714.204L2130.6 712.711C2132.36 708.292 2132.76 704.094 2131.79 700.115L2129.91 693.097L2135.2 691.677L2136.72 697.337C2138.4 703.616 2137.65 709.238 2134.45 714.204Z" fill="black"/>
</g>
<g id="L" clip-path="url(#clip20)">
<rect id="keycap_25" width="160" height="150" rx="10" transform="matrix(-0.965926 0.258819 0.258819 0.965926 1978.46 465.347)" fill="#D4D4D4"/>
<path id="label_25" d="M1916.89 588.608L1949.44 579.885L1950.7 584.594L1912.53 594.821L1894.87 528.897L1900.48 527.392L1916.89 588.608Z" fill="black"/>
</g>
<g id="K" clip-path="url(#clip21)">
<rect id="keycap_26" width="160" height="150" rx="10" transform="matrix(-0.965926 0.258819 0.258819 0.965926 1796.91 444.63)" fill="#D4D4D4"/>
<path id="label_26" d="M1732.27 538.674L1725.43 550.308L1731.75 573.897L1726.19 575.39L1708.52 509.465L1714.09 507.973L1723.61 543.516L1747.87 498.922L1754.89 497.042L1735.13 533.783L1774.68 562.396L1767.89 564.216L1732.27 538.674Z" fill="black"/>
</g>
<g id="J" clip-path="url(#clip22)">
<rect id="keycap_27" width="160" height="150" rx="10" transform="matrix(-0.965926 0.258819 0.258819 0.965926 1655.22 572.664)" fill="#D4D4D4"/>
<path id="label_27" d="M1599.66 628.704L1605.27 627.2L1617.68 673.519C1619.36 679.767 1618.88 685.233 1616.25 689.916C1613.66 694.592 1609.32 697.742 1603.26 699.368C1596.86 701.082 1591.49 700.725 1587.15 698.297C1582.81 695.868 1579.84 691.651 1578.23 685.644L1583.8 684.152C1585.07 688.921 1587.29 692.177 1590.44 693.921C1593.59 695.634 1597.44 695.88 1602 694.659C1606.19 693.535 1609.23 691.232 1611.11 687.751C1613.02 684.263 1613.37 680.125 1612.15 675.34L1599.66 628.704Z" fill="black"/>
</g>
<g id="/" clip-path="url(#clip23)">
<rect id="keycap_28" width="160" height="150" rx="10" transform="matrix(-0.965926 0.258819 0.258819 0.965926 2225.49 730.444)" fill="#D4D4D4"/>
<path id="label_28" d="M2120.23 870.457L2102.57 804.533L2121 799.595C2126.4 798.147 2131.57 798.086 2136.52 799.413C2141.47 800.71 2145.74 803.332 2149.36 807.282C2153 811.223 2155.61 816.121 2157.18 821.977L2158.8 828.044C2160.38 833.931 2160.59 839.472 2159.42 844.669C2158.26 849.866 2155.84 854.284 2152.15 857.924C2148.5 861.556 2143.87 864.124 2138.25 865.628L2120.23 870.457ZM2109.41 807.794L2124.54 864.256L2137.04 860.907C2143.98 859.047 2148.93 855.261 2151.9 849.548C2154.86 843.806 2155.29 837.01 2153.18 829.162L2151.63 823.367C2149.6 815.79 2145.91 810.277 2140.55 806.827C2135.19 803.377 2129.13 802.543 2122.36 804.325L2109.41 807.794ZM2230.08 841.024L2224.51 842.517L2171.49 796.255L2186.61 852.671L2180.99 854.176L2163.33 788.251L2168.94 786.747L2222.02 833.042L2206.89 776.58L2212.41 775.1L2230.08 841.024Z" fill="black"/>
</g>
<g id="." clip-path="url(#clip24)">
<rect id="keycap_29" width="160" height="150" rx="10" transform="matrix(-0.965926 0.258819 0.258819 0.965926 2019.87 619.896)" fill="#D4D4D4"/>
<path id="label_29" d="M1964.66 743.004C1964.38 741.947 1964.47 740.968 1964.94 740.065C1965.43 739.125 1966.28 738.492 1967.49 738.169C1968.7 737.845 1969.75 737.968 1970.65 738.537C1971.54 739.075 1972.12 739.872 1972.4 740.929C1972.69 741.985 1972.58 742.954 1972.07 743.834C1971.55 744.684 1970.69 745.271 1969.48 745.595C1968.27 745.918 1967.23 745.841 1966.36 745.363C1965.51 744.846 1964.95 744.06 1964.66 743.004Z" fill="black"/>
</g>
<g id="," clip-path="url(#clip25)">
<rect id="keycap_30" width="160" height="150" rx="10" transform="matrix(-0.965926 0.258819 0.258819 0.965926 1838.32 599.178)" fill="#D4D4D4"/>
<path id="label_30" d="M1788.87 737.437L1785.03 735.944C1786.79 731.525 1787.18 727.326 1786.21 723.348L1784.33 716.33L1789.63 714.91L1791.15 720.57C1792.83 726.849 1792.07 732.471 1788.87 737.437Z" fill="black"/>
</g>
<g id="M" clip-path="url(#clip26)">
<rect id="keycap_31" width="160" height="150" rx="10" transform="matrix(-0.965926 0.258819 0.258819 0.965926 1696.63 727.212)" fill="#D4D4D4"/>
<path id="label_31" d="M1604.27 793.111L1644.18 844.778L1652.99 780.057L1660.42 778.068L1678.08 843.992L1672.51 845.484L1664.82 816.778L1657.39 787.226L1648.42 851.939L1644.12 853.091L1604.16 801.732L1612.39 830.634L1620.13 859.521L1614.56 861.013L1596.89 795.089L1604.27 793.111Z" fill="black"/>
</g>
<g id="UP" clip-path="url(#clip27)">
<rect id="keycap_32" width="160" height="150" rx="10" transform="matrix(-0.965926 0.258819 0.258819 0.965926 1879.73 753.726)" fill="#D4D4D4"/>
<path id="label_32" d="M1806.96 814.376L1819.02 859.382C1820.18 863.827 1820.24 867.954 1819.19 871.761C1818.14 875.569 1816.08 878.837 1813.03 881.564C1810 884.253 1806.2 886.208 1801.64 887.429C1794.7 889.29 1788.63 888.895 1783.42 886.246C1778.24 883.559 1774.67 878.885 1772.72 872.225L1760.55 826.811L1766.08 825.331L1778.03 869.93C1779.52 875.484 1782.26 879.375 1786.25 881.605C1790.24 883.805 1794.95 884.176 1800.38 882.721C1805.82 881.265 1809.69 878.577 1812 874.657C1814.35 870.729 1814.78 866.018 1813.31 860.524L1801.35 815.88L1806.96 814.376ZM1838.53 847.797L1845.73 874.646L1840.16 876.139L1822.49 810.214L1844.95 804.197C1851.8 802.361 1857.68 802.664 1862.57 805.106C1867.49 807.54 1870.77 811.82 1872.42 817.948C1874.07 824.136 1873.44 829.434 1870.51 833.842C1867.61 838.211 1862.53 841.367 1855.29 843.308L1838.53 847.797ZM1837.27 843.088L1854.16 838.563C1859.56 837.115 1863.34 834.728 1865.49 831.402C1867.64 828.076 1868.1 824.119 1866.87 819.531C1865.65 814.973 1863.26 811.731 1859.7 809.804C1856.17 807.84 1851.8 807.523 1846.59 808.854L1829.34 813.476L1837.27 843.088Z" fill="black"/>
</g>
<g id="LEFT" clip-path="url(#clip28)">
<rect id="keycap_33" width="160" height="150" rx="10" transform="matrix(-0.965926 0.258819 0.258819 0.965926 1739.33 886.59)" fill="#D4D4D4"/>
<path id="label_33" d="M1655.82 1015.73L1688.37 1007.01L1689.64 1011.72L1651.47 1021.94L1633.8 956.02L1639.42 954.516L1655.82 1015.73ZM1716.21 939.033L1693.62 945.087L1710.01 1006.26L1704.44 1007.75L1688.05 946.579L1665.5 952.621L1664.23 947.867L1714.94 934.279L1716.21 939.033Z" fill="black"/>
</g>
<g id="RIGHT" clip-path="url(#clip29)">
<rect id="keycap_34" width="160" height="150" rx="10" transform="matrix(-0.965926 0.258819 0.258819 0.965926 2062.57 779.273)" fill="#D4D4D4"/>
<path id="label_34" d="M1983.05 882.983L1963.9 888.115L1971.25 915.553L1965.63 917.058L1947.97 851.133L1969.39 845.395C1976.42 843.51 1982.37 843.744 1987.24 846.095C1992.11 848.446 1995.36 852.686 1997 858.813C1998.14 863.039 1997.9 867.099 1996.29 870.992C1994.68 874.885 1991.96 878.008 1988.12 880.362L2012.11 903.973L2012.27 904.562L2006.34 906.151L1983.05 882.983ZM1962.62 883.361L1979.69 878.787C1984.37 877.533 1987.77 875.198 1989.9 871.782C1992.02 868.365 1992.52 864.544 1991.39 860.318C1990.14 855.669 1987.7 852.459 1984.05 850.685C1980.41 848.912 1975.91 848.742 1970.57 850.173L1954.86 854.383L1962.62 883.361ZM2049.35 829.063L2026.76 835.117L2043.15 896.287L2037.58 897.78L2021.19 836.609L1998.64 842.651L1997.37 837.897L2048.08 824.309L2049.35 829.063Z" fill="black"/>
</g>
</g>
</g>
<defs>
<clipPath id="clip0">
<rect width="170" height="160" fill="white" transform="translate(509.418 304.676) rotate(15)"/>
</clipPath>
<clipPath id="clip1">
<rect width="170" height="160" fill="white" transform="translate(690.967 283.958) rotate(15)"/>
</clipPath>
<clipPath id="clip2">
<rect width="170" height="160" fill="white" transform="translate(832.657 411.992) rotate(15)"/>
</clipPath>
<clipPath id="clip3">
<rect width="170" height="160" fill="white" transform="translate(990.394 480.14) rotate(15)"/>
</clipPath>
<clipPath id="clip4">
<rect width="170" height="160" fill="white" transform="translate(262.389 569.772) rotate(15)"/>
</clipPath>
<clipPath id="clip5">
<rect width="170" height="160" fill="white" transform="translate(468.008 459.224) rotate(15)"/>
</clipPath>
<clipPath id="clip6">
<rect width="170" height="160" fill="white" transform="translate(649.556 438.506) rotate(15)"/>
</clipPath>
<clipPath id="clip7">
<rect width="170" height="160" fill="white" transform="translate(791.246 566.541) rotate(15)"/>
</clipPath>
<clipPath id="clip8">
<rect width="170" height="160" fill="white" transform="translate(220.978 724.321) rotate(15)"/>
</clipPath>
<clipPath id="clip9">
<rect width="170" height="160" fill="white" transform="translate(426.596 613.772) rotate(15)"/>
</clipPath>
<clipPath id="clip10">
<rect width="170" height="160" fill="white" transform="translate(608.145 593.054) rotate(15)"/>
</clipPath>
<clipPath id="clip11">
<rect width="170" height="160" fill="white" transform="translate(749.835 721.089) rotate(15)"/>
</clipPath>
<clipPath id="clip12">
<rect width="170" height="160" fill="white" transform="translate(566.734 747.602) rotate(15)"/>
</clipPath>
<clipPath id="clip13">
<rect width="170" height="160" fill="white" transform="translate(707.13 880.467) rotate(15)"/>
</clipPath>
<clipPath id="clip14">
<rect width="170" height="160" fill="white" transform="translate(383.891 773.149) rotate(15)"/>
</clipPath>
<clipPath id="clip15">
<rect width="170" height="160" fill="white" transform="matrix(-0.965926 0.258819 0.258819 0.965926 1940.58 304.676)"/>
</clipPath>
<clipPath id="clip16">
<rect width="170" height="160" fill="white" transform="matrix(-0.965926 0.258819 0.258819 0.965926 1759.03 283.958)"/>
</clipPath>
<clipPath id="clip17">
<rect width="170" height="160" fill="white" transform="matrix(-0.965926 0.258819 0.258819 0.965926 1617.34 411.992)"/>
</clipPath>
<clipPath id="clip18">
<rect width="170" height="160" fill="white" transform="matrix(-0.965926 0.258819 0.258819 0.965926 1459.61 480.14)"/>
</clipPath>
<clipPath id="clip19">
<rect width="170" height="160" fill="white" transform="matrix(-0.965926 0.258819 0.258819 0.965926 2187.61 569.772)"/>
</clipPath>
<clipPath id="clip20">
<rect width="170" height="160" fill="white" transform="matrix(-0.965926 0.258819 0.258819 0.965926 1981.99 459.224)"/>
</clipPath>
<clipPath id="clip21">
<rect width="170" height="160" fill="white" transform="matrix(-0.965926 0.258819 0.258819 0.965926 1800.44 438.506)"/>
</clipPath>
<clipPath id="clip22">
<rect width="170" height="160" fill="white" transform="matrix(-0.965926 0.258819 0.258819 0.965926 1658.75 566.541)"/>
</clipPath>
<clipPath id="clip23">
<rect width="170" height="160" fill="white" transform="matrix(-0.965926 0.258819 0.258819 0.965926 2229.02 724.321)"/>
</clipPath>
<clipPath id="clip24">
<rect width="170" height="160" fill="white" transform="matrix(-0.965926 0.258819 0.258819 0.965926 2023.4 613.772)"/>
</clipPath>
<clipPath id="clip25">
<rect width="170" height="160" fill="white" transform="matrix(-0.965926 0.258819 0.258819 0.965926 1841.86 593.054)"/>
</clipPath>
<clipPath id="clip26">
<rect width="170" height="160" fill="white" transform="matrix(-0.965926 0.258819 0.258819 0.965926 1700.17 721.089)"/>
</clipPath>
<clipPath id="clip27">
<rect width="170" height="160" fill="white" transform="matrix(-0.965926 0.258819 0.258819 0.965926 1883.27 747.602)"/>
</clipPath>
<clipPath id="clip28">
<rect width="170" height="160" fill="white" transform="matrix(-0.965926 0.258819 0.258819 0.965926 1742.87 880.467)"/>
</clipPath>
<clipPath id="clip29">
<rect width="170" height="160" fill="white" transform="matrix(-0.965926 0.258819 0.258819 0.965926 2066.11 773.149)"/>
</clipPath>
</defs>
</svg>
